<?xml version="1.0" encoding="UTF-8" standalone="no"?>
<!-- Created with Inkscape (http://www.inkscape.org/) -->

<svg
   width="240.16544mm"
   height="8.0046539mm"
   viewBox="0 0 240.16544 8.0046539"
   version="1.1"
   id="svg21092"
   inkscape:version="1.2-dev (9a006c9b6a, 2021-07-31)"
   sodipodi:docname="12_quickselect_1.svg"
   xmlns:inkscape="http://www.inkscape.org/namespaces/inkscape"
   xmlns:sodipodi="http://sodipodi.sourceforge.net/DTD/sodipodi-0.dtd"
   xmlns="http://www.w3.org/2000/svg"
   xmlns:svg="http://www.w3.org/2000/svg">
  <sodipodi:namedview
     id="namedview21094"
     pagecolor="#505050"
     bordercolor="#ffffff"
     borderopacity="1"
     inkscape:pageshadow="0"
     inkscape:pageopacity="0"
     inkscape:pagecheckerboard="1"
     inkscape:document-units="mm"
     showgrid="false"
     inkscape:zoom="0.77058782"
     inkscape:cx="450.30558"
     inkscape:cy="88.244322"
     inkscape:window-width="1920"
     inkscape:window-height="1011"
     inkscape:window-x="1920"
     inkscape:window-y="32"
     inkscape:window-maximized="1"
     inkscape:current-layer="layer1" />
  <defs
     id="defs21089" />
  <g
     inkscape:label="Layer 1"
     inkscape:groupmode="layer"
     id="layer1"
     transform="translate(31.841099,-81.492467)">
    <g
       aria-label="14 11 10 05 09 01 08 04 03 00 02 07 06"
       id="text791048"
       style="font-size:10.5833px;line-height:1.25;stroke-width:0.264583">
      <path
         d="m -31.717076,88.468763 h 1.622635 v -5.896262 l -1.746658,0.392739 v -0.950843 l 1.736323,-0.382404 h 1.04386 v 6.83677 h 1.601964 v 0.878497 h -4.258124 z"
         style="font-size:medium;font-family:monospace;-inkscape-font-specification:monospace"
         id="path21170" />
      <path
         d="m -22.942446,82.582836 -2.433952,4.077258 h 2.433952 z m -0.170532,-0.950843 h 1.209225 v 5.028101 h 1.028358 v 0.84749 h -1.028358 v 1.839676 h -1.038693 v -1.839676 h -3.271108 v -0.987016 z"
         style="font-size:medium;font-family:monospace;-inkscape-font-specification:monospace"
         id="path21172" />
      <path
         d="m -12.602025,88.468763 h 1.622635 v -5.896262 l -1.746658,0.392739 v -0.950843 l 1.736323,-0.382404 h 1.0438605 v 6.83677 h 1.6019643 v 0.878497 h -4.2581248 z"
         style="font-size:medium;font-family:monospace;-inkscape-font-specification:monospace"
         id="path21174" />
      <path
         d="m -6.2303416,88.468763 h 1.6226348 v -5.896262 l -1.7466578,0.392739 v -0.950843 l 1.7363226,-0.382404 h 1.0438606 v 6.83677 h 1.6019643 v 0.878497 h -4.2581245 z"
         style="font-size:medium;font-family:monospace;-inkscape-font-specification:monospace"
         id="path21176" />
      <path
         d="M 6.5130266,88.468763 H 8.1356614 V 82.572501 L 6.3890035,82.96524 v -0.950843 l 1.7363226,-0.382404 h 1.0438606 v 6.83677 H 10.771151 V 89.34726 H 6.5130266 Z"
         style="font-size:medium;font-family:monospace;-inkscape-font-specification:monospace"
         id="path21178" />
      <path
         d="m 13.985412,85.471539 q 0,-0.284219 0.19637,-0.490924 0.201538,-0.206705 0.480589,-0.206705 0.289387,0 0.496093,0.206705 0.206705,0.206705 0.206705,0.490924 0,0.289388 -0.206705,0.490925 -0.201538,0.201537 -0.496093,0.201537 -0.289387,0 -0.485757,-0.196369 -0.191202,-0.19637 -0.191202,-0.496093 z m 0.687295,-3.152252 q -0.728636,0 -1.09037,0.785479 -0.356566,0.78548 -0.356566,2.392612 0,1.601964 0.356566,2.387443 0.361734,0.785479 1.09037,0.785479 0.733803,0 1.090369,-0.785479 0.361734,-0.785479 0.361734,-2.387443 0,-1.607132 -0.361734,-2.392612 -0.356566,-0.785479 -1.090369,-0.785479 z m 0,-0.82682 q 1.235062,0 1.865513,1.012855 0.635618,1.012855 0.635618,2.992056 0,1.974033 -0.635618,2.986888 -0.630451,1.012855 -1.865513,1.012855 -1.235063,0 -1.865514,-1.012855 -0.63045,-1.012855 -0.63045,-2.986888 0,-1.979201 0.63045,-2.992056 0.630451,-1.012855 1.865514,-1.012855 z"
         style="font-size:medium;font-family:monospace;-inkscape-font-specification:monospace"
         id="path21180" />
      <path
         d="m 26.728782,85.471539 q 0,-0.284219 0.19637,-0.490924 0.201538,-0.206705 0.480589,-0.206705 0.289388,0 0.496093,0.206705 0.206705,0.206705 0.206705,0.490924 0,0.289388 -0.206705,0.490925 -0.201538,0.201537 -0.496093,0.201537 -0.289387,0 -0.485756,-0.196369 -0.191203,-0.19637 -0.191203,-0.496093 z m 0.687295,-3.152252 q -0.728636,0 -1.09037,0.785479 -0.356566,0.78548 -0.356566,2.392612 0,1.601964 0.356566,2.387443 0.361734,0.785479 1.09037,0.785479 0.733803,0 1.090369,-0.785479 0.361734,-0.785479 0.361734,-2.387443 0,-1.607132 -0.361734,-2.392612 -0.356566,-0.785479 -1.090369,-0.785479 z m 0,-0.82682 q 1.235062,0 1.865513,1.012855 0.635618,1.012855 0.635618,2.992056 0,1.974033 -0.635618,2.986888 -0.630451,1.012855 -1.865513,1.012855 -1.235063,0 -1.865514,-1.012855 -0.63045,-1.012855 -0.63045,-2.986888 0,-1.979201 0.63045,-2.992056 0.630451,-1.012855 1.865514,-1.012855 z"
         style="font-size:medium;font-family:monospace;-inkscape-font-specification:monospace"
         id="path21182" />
      <path
         d="m 31.674199,81.631993 h 3.906725 v 0.878496 h -2.955882 v 1.896519 q 0.222208,-0.08268 0.444416,-0.118855 0.227375,-0.04134 0.454751,-0.04134 1.198889,0 1.901687,0.707965 0.702797,0.707965 0.702797,1.917189 0,1.21956 -0.738971,1.922357 -0.733803,0.702798 -2.010207,0.702798 -0.614947,0 -1.126542,-0.08268 -0.506428,-0.08268 -0.909503,-0.248046 v -1.059364 q 0.475422,0.258381 0.956011,0.387572 0.48059,0.124023 0.981849,0.124023 0.862994,0 1.328081,-0.454751 0.470254,-0.454751 0.470254,-1.291907 0,-0.82682 -0.485757,-1.286739 -0.48059,-0.459919 -1.343583,-0.459919 -0.418578,0 -0.816485,0.09819 -0.397908,0.09302 -0.759641,0.28422 z"
         style="font-size:medium;font-family:monospace;-inkscape-font-specification:monospace"
         id="path21184" />
      <path
         d="m 45.843834,85.471539 q 0,-0.284219 0.196369,-0.490924 0.201538,-0.206705 0.48059,-0.206705 0.289387,0 0.496092,0.206705 0.206705,0.206705 0.206705,0.490924 0,0.289388 -0.206705,0.490925 -0.201538,0.201537 -0.496092,0.201537 -0.289387,0 -0.485757,-0.196369 -0.191202,-0.19637 -0.191202,-0.496093 z m 0.687294,-3.152252 q -0.728635,0 -1.090369,0.785479 -0.356567,0.78548 -0.356567,2.392612 0,1.601964 0.356567,2.387443 0.361734,0.785479 1.090369,0.785479 0.733803,0 1.090369,-0.785479 0.361734,-0.785479 0.361734,-2.387443 0,-1.607132 -0.361734,-2.392612 -0.356566,-0.785479 -1.090369,-0.785479 z m 0,-0.82682 q 1.235063,0 1.865513,1.012855 0.635618,1.012855 0.635618,2.992056 0,1.974033 -0.635618,2.986888 -0.63045,1.012855 -1.865513,1.012855 -1.235063,0 -1.865513,-1.012855 -0.630451,-1.012855 -0.630451,-2.986888 0,-1.979201 0.630451,-2.992056 0.63045,-1.012855 1.865513,-1.012855 z"
         style="font-size:medium;font-family:monospace;-inkscape-font-specification:monospace"
         id="path21186" />
      <path
         d="m 52.799457,85.926291 q 0.666623,0 1.04386,-0.48059 0.382405,-0.480589 0.382405,-1.32808 0,-0.847491 -0.382405,-1.32808 -0.377237,-0.480589 -1.04386,-0.480589 -0.692462,0 -1.043861,0.459919 -0.351399,0.454751 -0.351399,1.34875 0,0.899167 0.346231,1.353918 0.351399,0.454752 1.049029,0.454752 z m -1.860346,3.260772 v -0.961178 q 0.32556,0.191202 0.692462,0.294554 0.366901,0.09819 0.764809,0.09819 0.992184,0 1.498612,-0.744138 0.511595,-0.749306 0.511595,-2.201409 -0.242879,0.516763 -0.682127,0.795814 -0.439248,0.273885 -1.007687,0.273885 -1.116208,0 -1.731155,-0.687295 -0.60978,-0.687294 -0.60978,-1.948195 0,-1.245398 0.625283,-1.927525 0.63045,-0.687294 1.777663,-0.687294 1.343583,0 1.968866,0.966346 0.625283,0.966346 0.625283,3.038565 0,1.948195 -0.754474,2.976553 -0.749306,1.02319 -2.180738,1.02319 -0.377237,0 -0.759641,-0.08268 -0.382405,-0.07752 -0.738971,-0.227376 z"
         style="font-size:medium;font-family:monospace;-inkscape-font-specification:monospace"
         id="path21188" />
      <path
         d="m 64.958885,85.471539 q 0,-0.284219 0.19637,-0.490924 0.201537,-0.206705 0.480589,-0.206705 0.289387,0 0.496092,0.206705 0.206705,0.206705 0.206705,0.490924 0,0.289388 -0.206705,0.490925 -0.201537,0.201537 -0.496092,0.201537 -0.289387,0 -0.485757,-0.196369 -0.191202,-0.19637 -0.191202,-0.496093 z m 0.687294,-3.152252 q -0.728635,0 -1.090369,0.785479 -0.356566,0.78548 -0.356566,2.392612 0,1.601964 0.356566,2.387443 0.361734,0.785479 1.090369,0.785479 0.733803,0 1.090369,-0.785479 0.361734,-0.785479 0.361734,-2.387443 0,-1.607132 -0.361734,-2.392612 -0.356566,-0.785479 -1.090369,-0.785479 z m 0,-0.82682 q 1.235063,0 1.865514,1.012855 0.635618,1.012855 0.635618,2.992056 0,1.974033 -0.635618,2.986888 -0.630451,1.012855 -1.865514,1.012855 -1.235063,0 -1.865513,-1.012855 -0.63045,-1.012855 -0.63045,-2.986888 0,-1.979201 0.63045,-2.992056 0.63045,-1.012855 1.865513,-1.012855 z"
         style="font-size:medium;font-family:monospace;-inkscape-font-specification:monospace"
         id="path21190" />
      <path
         d="m 70.229862,88.468763 h 1.622634 v -5.896262 l -1.746657,0.392739 v -0.950843 l 1.736322,-0.382404 h 1.043861 v 6.83677 h 1.601964 v 0.878497 h -4.258124 z"
         style="font-size:medium;font-family:monospace;-inkscape-font-specification:monospace"
         id="path21192" />
      <path
         d="m 84.073936,85.471539 q 0,-0.284219 0.19637,-0.490924 0.201537,-0.206705 0.480589,-0.206705 0.289387,0 0.496092,0.206705 0.206705,0.206705 0.206705,0.490924 0,0.289388 -0.206705,0.490925 -0.201537,0.201537 -0.496092,0.201537 -0.289387,0 -0.485757,-0.196369 -0.191202,-0.19637 -0.191202,-0.496093 z m 0.687295,-3.152252 q -0.728636,0 -1.09037,0.785479 -0.356566,0.78548 -0.356566,2.392612 0,1.601964 0.356566,2.387443 0.361734,0.785479 1.09037,0.785479 0.733803,0 1.090369,-0.785479 0.361734,-0.785479 0.361734,-2.387443 0,-1.607132 -0.361734,-2.392612 -0.356566,-0.785479 -1.090369,-0.785479 z m 0,-0.82682 q 1.235062,0 1.865513,1.012855 0.635618,1.012855 0.635618,2.992056 0,1.974033 -0.635618,2.986888 -0.630451,1.012855 -1.865513,1.012855 -1.235063,0 -1.865514,-1.012855 -0.63045,-1.012855 -0.63045,-2.986888 0,-1.979201 0.63045,-2.992056 0.630451,-1.012855 1.865514,-1.012855 z"
         style="font-size:medium;font-family:monospace;-inkscape-font-specification:monospace"
         id="path21194" />
      <path
         d="m 91.132912,85.683412 q -0.69763,0 -1.080034,0.39274 -0.377237,0.387572 -0.377237,1.100704 0,0.713133 0.382404,1.11104 0.387572,0.39274 1.074867,0.39274 0.702797,0 1.080034,-0.387572 0.382404,-0.39274 0.382404,-1.116208 0,-0.707965 -0.387572,-1.100704 -0.382404,-0.39274 -1.074866,-0.39274 z M 90.223409,85.249331 Q 89.556786,85.0788 89.179549,84.613713 88.80748,84.148627 88.80748,83.492338 q 0,-0.919837 0.625283,-1.45727 0.625282,-0.542601 1.700149,-0.542601 1.080034,0 1.705317,0.542601 0.625282,0.537433 0.625282,1.45727 0,0.656289 -0.377236,1.121375 -0.372069,0.465087 -1.038693,0.635618 0.775144,0.170532 1.183386,0.687295 0.41341,0.516763 0.41341,1.338415 0,1.043861 -0.666624,1.63297 -0.666623,0.58911 -1.844842,0.58911 -1.178219,0 -1.844843,-0.583942 -0.661456,-0.58911 -0.661456,-1.627803 0,-0.82682 0.408242,-1.343583 0.41341,-0.52193 1.188554,-0.692462 z m -0.377236,-1.658808 q 0,0.620116 0.330728,0.945676 0.330728,0.32556 0.956011,0.32556 0.63045,0 0.961178,-0.32556 0.330728,-0.32556 0.330728,-0.945676 0,-0.63045 -0.330728,-0.961178 -0.32556,-0.330728 -0.961178,-0.330728 -0.625283,0 -0.956011,0.335895 -0.330728,0.330728 -0.330728,0.956011 z"
         style="font-size:medium;font-family:monospace;-inkscape-font-specification:monospace"
         id="path21196" />
      <path
         d="m 103.18899,85.471539 q 0,-0.284219 0.19637,-0.490924 0.20153,-0.206705 0.48059,-0.206705 0.28938,0 0.49609,0.206705 0.2067,0.206705 0.2067,0.490924 0,0.289388 -0.2067,0.490925 -0.20154,0.201537 -0.49609,0.201537 -0.28939,0 -0.48576,-0.196369 -0.1912,-0.19637 -0.1912,-0.496093 z m 0.68729,-3.152252 q -0.72863,0 -1.09037,0.785479 -0.35656,0.78548 -0.35656,2.392612 0,1.601964 0.35656,2.387443 0.36174,0.785479 1.09037,0.785479 0.7338,0 1.09037,-0.785479 0.36173,-0.785479 0.36173,-2.387443 0,-1.607132 -0.36173,-2.392612 -0.35657,-0.785479 -1.09037,-0.785479 z m 0,-0.82682 q 1.23506,0 1.86552,1.012855 0.63561,1.012855 0.63561,2.992056 0,1.974033 -0.63561,2.986888 -0.63046,1.012855 -1.86552,1.012855 -1.23506,0 -1.86551,-1.012855 -0.63045,-1.012855 -0.63045,-2.986888 0,-1.979201 0.63045,-2.992056 0.63045,-1.012855 1.86551,-1.012855 z"
         style="font-size:medium;font-family:monospace;-inkscape-font-specification:monospace"
         id="path21198" />
      <path
         d="m 110.8629,82.582836 -2.43395,4.077258 h 2.43395 z m -0.17053,-0.950843 h 1.20923 v 5.028101 h 1.02835 v 0.84749 h -1.02835 v 1.839676 h -1.0387 v -1.839676 h -3.2711 v -0.987016 z"
         style="font-size:medium;font-family:monospace;-inkscape-font-specification:monospace"
         id="path21200" />
      <path
         d="m 122.30404,85.471539 q 0,-0.284219 0.19637,-0.490924 0.20154,-0.206705 0.48059,-0.206705 0.28938,0 0.49609,0.206705 0.20671,0.206705 0.20671,0.490924 0,0.289388 -0.20671,0.490925 -0.20154,0.201537 -0.49609,0.201537 -0.28939,0 -0.48576,-0.196369 -0.1912,-0.19637 -0.1912,-0.496093 z m 0.68729,-3.152252 q -0.72863,0 -1.09037,0.785479 -0.35656,0.78548 -0.35656,2.392612 0,1.601964 0.35656,2.387443 0.36174,0.785479 1.09037,0.785479 0.73381,0 1.09037,-0.785479 0.36174,-0.785479 0.36174,-2.387443 0,-1.607132 -0.36174,-2.392612 -0.35656,-0.785479 -1.09037,-0.785479 z m 0,-0.82682 q 1.23507,0 1.86552,1.012855 0.63561,1.012855 0.63561,2.992056 0,1.974033 -0.63561,2.986888 -0.63045,1.012855 -1.86552,1.012855 -1.23506,0 -1.86551,-1.012855 -0.63045,-1.012855 -0.63045,-2.986888 0,-1.979201 0.63045,-2.992056 0.63045,-1.012855 1.86551,-1.012855 z"
         style="font-size:medium;font-family:monospace;-inkscape-font-specification:monospace"
         id="path21202" />
      <path
         d="m 130.18983,85.218326 q 0.75964,0.201537 1.16271,0.7183 0.40308,0.511595 0.40308,1.281571 0,1.064531 -0.7183,1.674311 -0.71313,0.604613 -1.9792,0.604613 -0.53227,0 -1.0852,-0.09819 -0.55294,-0.09819 -1.08521,-0.28422 v -1.038693 q 0.5271,0.273885 1.0387,0.408243 0.51159,0.134358 1.01802,0.134358 0.85782,0 1.31774,-0.387572 0.45992,-0.387572 0.45992,-1.116207 0,-0.671792 -0.45992,-1.064531 -0.45992,-0.397908 -1.24539,-0.397908 h -0.79582 V 84.79458 h 0.79582 q 0.7183,0 1.12137,-0.315225 0.40308,-0.315225 0.40308,-0.878496 0,-0.594278 -0.37724,-0.909503 -0.37207,-0.320393 -1.06453,-0.320393 -0.45992,0 -0.95085,0.103353 -0.49092,0.103352 -1.02835,0.310058 v -0.961179 q 0.62528,-0.165364 1.11104,-0.248046 0.49092,-0.08268 0.86816,-0.08268 1.12654,0 1.79833,0.568439 0.67696,0.563271 0.67696,1.498612 0,0.635618 -0.35657,1.059363 -0.35139,0.423745 -1.02835,0.599445 z"
         style="font-size:medium;font-family:monospace;-inkscape-font-specification:monospace"
         id="path21204" />
      <path
         d="m 141.41909,85.471539 q 0,-0.284219 0.19637,-0.490924 0.20154,-0.206705 0.48059,-0.206705 0.28939,0 0.49609,0.206705 0.20671,0.206705 0.20671,0.490924 0,0.289388 -0.20671,0.490925 -0.20154,0.201537 -0.49609,0.201537 -0.28939,0 -0.48576,-0.196369 -0.1912,-0.19637 -0.1912,-0.496093 z m 0.68729,-3.152252 q -0.72863,0 -1.09036,0.785479 -0.35657,0.78548 -0.35657,2.392612 0,1.601964 0.35657,2.387443 0.36173,0.785479 1.09036,0.785479 0.73381,0 1.09037,-0.785479 0.36174,-0.785479 0.36174,-2.387443 0,-1.607132 -0.36174,-2.392612 -0.35656,-0.785479 -1.09037,-0.785479 z m 0,-0.82682 q 1.23507,0 1.86552,1.012855 0.63562,1.012855 0.63562,2.992056 0,1.974033 -0.63562,2.986888 -0.63045,1.012855 -1.86552,1.012855 -1.23506,0 -1.86551,-1.012855 -0.63045,-1.012855 -0.63045,-2.986888 0,-1.979201 0.63045,-2.992056 0.63045,-1.012855 1.86551,-1.012855 z"
         style="font-size:medium;font-family:monospace;-inkscape-font-specification:monospace"
         id="path21206" />
      <path
         d="m 147.79076,85.471539 q 0,-0.284219 0.19637,-0.490924 0.20154,-0.206705 0.48059,-0.206705 0.28939,0 0.49609,0.206705 0.20671,0.206705 0.20671,0.490924 0,0.289388 -0.20671,0.490925 -0.20153,0.201537 -0.49609,0.201537 -0.28938,0 -0.48575,-0.196369 -0.19121,-0.19637 -0.19121,-0.496093 z m 0.6873,-3.152252 q -0.72864,0 -1.09037,0.785479 -0.35657,0.78548 -0.35657,2.392612 0,1.601964 0.35657,2.387443 0.36173,0.785479 1.09037,0.785479 0.7338,0 1.09037,-0.785479 0.36173,-0.785479 0.36173,-2.387443 0,-1.607132 -0.36173,-2.392612 -0.35657,-0.785479 -1.09037,-0.785479 z m 0,-0.82682 q 1.23506,0 1.86551,1.012855 0.63562,1.012855 0.63562,2.992056 0,1.974033 -0.63562,2.986888 -0.63045,1.012855 -1.86551,1.012855 -1.23506,0 -1.86552,-1.012855 -0.63045,-1.012855 -0.63045,-2.986888 0,-1.979201 0.63045,-2.992056 0.63046,-1.012855 1.86552,-1.012855 z"
         style="font-size:medium;font-family:monospace;-inkscape-font-specification:monospace"
         id="path21208" />
      <path
         d="m 160.53414,85.471539 q 0,-0.284219 0.19637,-0.490924 0.20154,-0.206705 0.48059,-0.206705 0.28939,0 0.49609,0.206705 0.20671,0.206705 0.20671,0.490924 0,0.289388 -0.20671,0.490925 -0.20153,0.201537 -0.49609,0.201537 -0.28939,0 -0.48576,-0.196369 -0.1912,-0.19637 -0.1912,-0.496093 z m 0.6873,-3.152252 q -0.72864,0 -1.09037,0.785479 -0.35657,0.78548 -0.35657,2.392612 0,1.601964 0.35657,2.387443 0.36173,0.785479 1.09037,0.785479 0.7338,0 1.09036,-0.785479 0.36174,-0.785479 0.36174,-2.387443 0,-1.607132 -0.36174,-2.392612 -0.35656,-0.785479 -1.09036,-0.785479 z m 0,-0.82682 q 1.23506,0 1.86551,1.012855 0.63562,1.012855 0.63562,2.992056 0,1.974033 -0.63562,2.986888 -0.63045,1.012855 -1.86551,1.012855 -1.23507,0 -1.86552,-1.012855 -0.63045,-1.012855 -0.63045,-2.986888 0,-1.979201 0.63045,-2.992056 0.63045,-1.012855 1.86552,-1.012855 z"
         style="font-size:medium;font-family:monospace;-inkscape-font-specification:monospace"
         id="path21210" />
      <path
         d="m 166.33738,88.468763 h 3.54499 v 0.878497 h -4.68704 v -0.878497 q 0.96635,-1.018023 1.68981,-1.798334 0.72347,-0.780312 0.99736,-1.100705 0.51676,-0.63045 0.69763,-1.018022 0.18086,-0.39274 0.18086,-0.800982 0,-0.645954 -0.3824,-1.012855 -0.37724,-0.366902 -1.03869,-0.366902 -0.47026,0 -0.98702,0.170532 -0.51676,0.170532 -1.09554,0.516763 v -1.054196 q 0.53227,-0.253214 1.04386,-0.382405 0.51677,-0.12919 1.01802,-0.12919 1.13172,0 1.81901,0.604612 0.69246,0.599445 0.69246,1.576126 0,0.496092 -0.23254,0.992185 -0.22738,0.496092 -0.74414,1.095537 -0.28939,0.335895 -0.84232,0.930172 -0.54777,0.594277 -1.67431,1.777664 z"
         style="font-size:medium;font-family:monospace;-inkscape-font-specification:monospace"
         id="path21212" />
      <path
         d="m 179.64919,85.471539 q 0,-0.284219 0.19637,-0.490924 0.20154,-0.206705 0.48059,-0.206705 0.28939,0 0.49609,0.206705 0.20671,0.206705 0.20671,0.490924 0,0.289388 -0.20671,0.490925 -0.20153,0.201537 -0.49609,0.201537 -0.28939,0 -0.48576,-0.196369 -0.1912,-0.19637 -0.1912,-0.496093 z m 0.6873,-3.152252 q -0.72864,0 -1.09037,0.785479 -0.35657,0.78548 -0.35657,2.392612 0,1.601964 0.35657,2.387443 0.36173,0.785479 1.09037,0.785479 0.7338,0 1.09037,-0.785479 0.36173,-0.785479 0.36173,-2.387443 0,-1.607132 -0.36173,-2.392612 -0.35657,-0.785479 -1.09037,-0.785479 z m 0,-0.82682 q 1.23506,0 1.86551,1.012855 0.63562,1.012855 0.63562,2.992056 0,1.974033 -0.63562,2.986888 -0.63045,1.012855 -1.86551,1.012855 -1.23507,0 -1.86552,-1.012855 -0.63045,-1.012855 -0.63045,-2.986888 0,-1.979201 0.63045,-2.992056 0.63045,-1.012855 1.86552,-1.012855 z"
         style="font-size:medium;font-family:monospace;-inkscape-font-specification:monospace"
         id="path21214" />
      <path
         d="m 184.2432,81.631993 h 4.85757 v 0.444416 l -2.75951,7.270851 h -1.09037 l 2.68717,-6.836771 h -3.69486 z"
         style="font-size:medium;font-family:monospace;-inkscape-font-specification:monospace"
         id="path21216" />
      <path
         d="m 198.76424,85.471539 q 0,-0.284219 0.19637,-0.490924 0.20154,-0.206705 0.48059,-0.206705 0.28939,0 0.4961,0.206705 0.2067,0.206705 0.2067,0.490924 0,0.289388 -0.2067,0.490925 -0.20154,0.201537 -0.4961,0.201537 -0.28938,0 -0.48575,-0.196369 -0.19121,-0.19637 -0.19121,-0.496093 z m 0.6873,-3.152252 q -0.72864,0 -1.09037,0.785479 -0.35657,0.78548 -0.35657,2.392612 0,1.601964 0.35657,2.387443 0.36173,0.785479 1.09037,0.785479 0.7338,0 1.09037,-0.785479 0.36173,-0.785479 0.36173,-2.387443 0,-1.607132 -0.36173,-2.392612 -0.35657,-0.785479 -1.09037,-0.785479 z m 0,-0.82682 q 1.23506,0 1.86551,1.012855 0.63562,1.012855 0.63562,2.992056 0,1.974033 -0.63562,2.986888 -0.63045,1.012855 -1.86551,1.012855 -1.23506,0 -1.86552,-1.012855 -0.63045,-1.012855 -0.63045,-2.986888 0,-1.979201 0.63045,-2.992056 0.63046,-1.012855 1.86552,-1.012855 z"
         style="font-size:medium;font-family:monospace;-inkscape-font-specification:monospace"
         id="path21218" />
      <path
         d="m 207.76107,81.802524 v 0.961179 q -0.32556,-0.191202 -0.69246,-0.289387 -0.3669,-0.103353 -0.76481,-0.103353 -0.99218,0 -1.50378,0.749306 -0.51159,0.744139 -0.51159,2.196242 0.24804,-0.516763 0.68729,-0.790647 0.43925,-0.279052 1.00769,-0.279052 1.11621,0 1.72599,0.687294 0.61494,0.682127 0.61494,1.93786 0,1.250566 -0.63045,1.93786 -0.63045,0.687295 -1.77249,0.687295 -1.34359,0 -1.96887,-0.961179 -0.62528,-0.966346 -0.62528,-3.038564 0,-1.953363 0.7493,-2.976553 0.75448,-1.028358 2.18074,-1.028358 0.38241,0 0.76481,0.08268 0.38241,0.07751 0.73897,0.227375 z m -1.86034,3.260773 q -0.66663,0 -1.04903,0.480589 -0.38241,0.48059 -0.38241,1.32808 0,0.847491 0.38241,1.32808 0.3824,0.48059 1.04903,0.48059 0.69246,0 1.04386,-0.454751 0.3514,-0.459919 0.3514,-1.353919 0,-0.899167 -0.3514,-1.353918 -0.3514,-0.454751 -1.04386,-0.454751 z"
         style="font-size:medium;font-family:monospace;-inkscape-font-specification:monospace"
         id="path21220" />
    </g>
  </g>
</svg>
