<?xml version="1.0" encoding="UTF-8" standalone="no"?>
<!-- Created with Inkscape (http://www.inkscape.org/) -->

<svg
   width="240.16544mm"
   height="21.233801mm"
   viewBox="0 0 240.16544 21.233801"
   version="1.1"
   id="svg159155"
   inkscape:version="1.2-dev (9a006c9b6a, 2021-07-31)"
   sodipodi:docname="12_quickselect_2.svg"
   xmlns:inkscape="http://www.inkscape.org/namespaces/inkscape"
   xmlns:sodipodi="http://sodipodi.sourceforge.net/DTD/sodipodi-0.dtd"
   xmlns="http://www.w3.org/2000/svg"
   xmlns:svg="http://www.w3.org/2000/svg">
  <sodipodi:namedview
     id="namedview159157"
     pagecolor="#505050"
     bordercolor="#ffffff"
     borderopacity="1"
     inkscape:pageshadow="0"
     inkscape:pageopacity="0"
     inkscape:pagecheckerboard="1"
     inkscape:document-units="mm"
     showgrid="false"
     inkscape:zoom="0.77058782"
     inkscape:cx="486.64148"
     inkscape:cy="97.328296"
     inkscape:window-width="1920"
     inkscape:window-height="1011"
     inkscape:window-x="1920"
     inkscape:window-y="32"
     inkscape:window-maximized="1"
     inkscape:current-layer="layer1" />
  <defs
     id="defs159152" />
  <g
     inkscape:label="Layer 1"
     inkscape:groupmode="layer"
     id="layer1"
     transform="translate(15.067908,-80.371549)">
    <g
       aria-label="                  08
14 11 10 05 09 01    04 03 00 02 07 06"
       id="text817866"
       style="font-size:10.5833px;line-height:1.25;stroke-width:0.264583">
      <path
         d="m 100.84713,84.350621 q 0,-0.284219 0.19637,-0.490924 0.20153,-0.206705 0.48059,-0.206705 0.28938,0 0.49609,0.206705 0.2067,0.206705 0.2067,0.490924 0,0.289387 -0.2067,0.490925 -0.20154,0.201537 -0.49609,0.201537 -0.28939,0 -0.48576,-0.19637 -0.1912,-0.196369 -0.1912,-0.496092 z m 0.68729,-3.152252 q -0.72863,0 -1.09037,0.785479 -0.35656,0.785479 -0.35656,2.392611 0,1.601965 0.35656,2.387444 0.36174,0.785479 1.09037,0.785479 0.7338,0 1.09037,-0.785479 0.36174,-0.785479 0.36174,-2.387444 0,-1.607132 -0.36174,-2.392611 -0.35657,-0.785479 -1.09037,-0.785479 z m 0,-0.82682 q 1.23506,0 1.86552,1.012854 0.63561,1.012855 0.63561,2.992056 0,1.974034 -0.63561,2.986889 -0.63046,1.012854 -1.86552,1.012854 -1.23506,0 -1.865511,-1.012854 -0.630451,-1.012855 -0.630451,-2.986889 0,-1.979201 0.630451,-2.992056 0.630451,-1.012854 1.865511,-1.012854 z"
         style="font-size:medium;font-family:monospace;-inkscape-font-specification:monospace;fill:#ff0000"
         id="path159241" />
      <path
         d="m 107.9061,84.562494 q -0.69763,0 -1.08003,0.392739 -0.37724,0.387573 -0.37724,1.100705 0,0.713132 0.38241,1.11104 0.38757,0.392739 1.07486,0.392739 0.7028,0 1.08004,-0.387572 0.3824,-0.392739 0.3824,-1.116207 0,-0.707965 -0.38757,-1.100705 -0.3824,-0.392739 -1.07487,-0.392739 z m -0.9095,-0.434081 q -0.66662,-0.170531 -1.04386,-0.635618 -0.37207,-0.465086 -0.37207,-1.121375 0,-0.919837 0.62528,-1.457271 0.62529,-0.5426 1.70015,-0.5426 1.08004,0 1.70532,0.5426 0.62528,0.537434 0.62528,1.457271 0,0.656289 -0.37723,1.121375 -0.37207,0.465087 -1.0387,0.635618 0.77515,0.170532 1.18339,0.687295 0.41341,0.516762 0.41341,1.338415 0,1.043861 -0.66662,1.63297 -0.66663,0.589109 -1.84485,0.589109 -1.17822,0 -1.84484,-0.583941 -0.66146,-0.58911 -0.66146,-1.627803 0,-0.82682 0.40825,-1.343583 0.41341,-0.52193 1.18855,-0.692462 z m -0.37724,-1.658808 q 0,0.620115 0.33073,0.945676 0.33073,0.32556 0.95601,0.32556 0.63045,0 0.96118,-0.32556 0.33073,-0.325561 0.33073,-0.945676 0,-0.63045 -0.33073,-0.961179 -0.32556,-0.330728 -0.96118,-0.330728 -0.62528,0 -0.95601,0.335896 -0.33073,0.330728 -0.33073,0.956011 z"
         style="font-size:medium;font-family:monospace;-inkscape-font-specification:monospace;fill:#ff0000"
         id="path159243" />
      <path
         d="m -14.943885,100.57697 h 1.622635 v -5.896263 l -1.746658,0.39274 v -0.950844 l 1.736323,-0.382404 h 1.043861 v 6.836771 h 1.601964 v 0.8785 h -4.258125 z"
         style="font-size:medium;font-family:monospace;-inkscape-font-specification:monospace"
         id="path159245" />
      <path
         d="M -6.1692545,94.691042 -8.6032067,98.7683 h 2.4339522 z m -0.1705317,-0.950843 h 1.2092247 V 98.7683 h 1.0283577 v 0.847491 h -1.0283577 v 1.839679 h -1.038693 v -1.839679 h -3.2711077 v -0.987017 z"
         style="font-size:medium;font-family:monospace;-inkscape-font-specification:monospace"
         id="path159247" />
      <path
         d="m 4.1711667,100.57697 h 1.6226349 v -5.896263 l -1.7466579,0.39274 v -0.950844 l 1.7363226,-0.382404 h 1.0438606 v 6.836771 h 1.6019643 v 0.8785 H 4.1711667 Z"
         style="font-size:medium;font-family:monospace;-inkscape-font-specification:monospace"
         id="path159249" />
      <path
         d="m 10.54285,100.57697 h 1.622635 v -5.896263 l -1.746658,0.39274 v -0.950844 l 1.736322,-0.382404 h 1.043861 v 6.836771 h 1.601964 v 0.8785 H 10.54285 Z"
         style="font-size:medium;font-family:monospace;-inkscape-font-specification:monospace"
         id="path159251" />
      <path
         d="m 23.286218,100.57697 h 1.622635 v -5.896263 l -1.746658,0.39274 v -0.950844 l 1.736323,-0.382404 h 1.04386 v 6.836771 h 1.601964 v 0.8785 h -4.258124 z"
         style="font-size:medium;font-family:monospace;-inkscape-font-specification:monospace"
         id="path159253" />
      <path
         d="m 30.758604,97.579746 q 0,-0.28422 0.19637,-0.490925 0.201537,-0.206705 0.480589,-0.206705 0.289387,0 0.496092,0.206705 0.206705,0.206705 0.206705,0.490925 0,0.289387 -0.206705,0.490924 -0.201537,0.201538 -0.496092,0.201538 -0.289387,0 -0.485757,-0.19637 -0.191202,-0.19637 -0.191202,-0.496092 z m 0.687294,-3.152253 q -0.728635,0 -1.090369,0.78548 -0.356566,0.785479 -0.356566,2.392611 0,1.601964 0.356566,2.387443 0.361734,0.785483 1.090369,0.785483 0.733803,0 1.090369,-0.785483 0.361734,-0.785479 0.361734,-2.387443 0,-1.607132 -0.361734,-2.392611 -0.356566,-0.78548 -1.090369,-0.78548 z m 0,-0.82682 q 1.235063,0 1.865513,1.012855 0.635618,1.012855 0.635618,2.992056 0,1.974033 -0.635618,2.986886 -0.63045,1.01286 -1.865513,1.01286 -1.235063,0 -1.865513,-1.01286 -0.630451,-1.012853 -0.630451,-2.986886 0,-1.979201 0.630451,-2.992056 0.63045,-1.012855 1.865513,-1.012855 z"
         style="font-size:medium;font-family:monospace;-inkscape-font-specification:monospace"
         id="path159255" />
      <path
         d="m 43.501974,97.579746 q 0,-0.28422 0.19637,-0.490925 0.201537,-0.206705 0.480589,-0.206705 0.289387,0 0.496092,0.206705 0.206705,0.206705 0.206705,0.490925 0,0.289387 -0.206705,0.490924 -0.201537,0.201538 -0.496092,0.201538 -0.289387,0 -0.485757,-0.19637 -0.191202,-0.19637 -0.191202,-0.496092 z m 0.687294,-3.152253 q -0.728635,0 -1.090369,0.78548 -0.356566,0.785479 -0.356566,2.392611 0,1.601964 0.356566,2.387443 0.361734,0.785483 1.090369,0.785483 0.733803,0 1.090369,-0.785483 0.361734,-0.785479 0.361734,-2.387443 0,-1.607132 -0.361734,-2.392611 -0.356566,-0.78548 -1.090369,-0.78548 z m 0,-0.82682 q 1.235063,0 1.865513,1.012855 0.635619,1.012855 0.635619,2.992056 0,1.974033 -0.635619,2.986886 -0.63045,1.01286 -1.865513,1.01286 -1.235063,0 -1.865513,-1.01286 -0.630451,-1.012853 -0.630451,-2.986886 0,-1.979201 0.630451,-2.992056 0.63045,-1.012855 1.865513,-1.012855 z"
         style="font-size:medium;font-family:monospace;-inkscape-font-specification:monospace"
         id="path159257" />
      <path
         d="m 48.44739,93.740199 h 3.906726 v 0.878497 h -2.955883 v 1.896519 q 0.222208,-0.08268 0.444416,-0.118856 0.227376,-0.04134 0.454751,-0.04134 1.19889,0 1.901687,0.707965 0.702797,0.707965 0.702797,1.91719 0,1.219556 -0.73897,1.922356 -0.733803,0.7028 -2.010207,0.7028 -0.614948,0 -1.126543,-0.0827 -0.506427,-0.0827 -0.909502,-0.24804 v -1.05936 q 0.475422,0.25838 0.956011,0.38757 0.480589,0.12402 0.981849,0.12402 0.862994,0 1.32808,-0.45475 0.470254,-0.454751 0.470254,-1.291906 0,-0.826821 -0.485757,-1.286739 -0.480589,-0.459919 -1.343583,-0.459919 -0.418578,0 -0.816485,0.09819 -0.397907,0.09302 -0.759641,0.284219 z"
         style="font-size:medium;font-family:monospace;-inkscape-font-specification:monospace"
         id="path159259" />
      <path
         d="m 62.617025,97.579746 q 0,-0.28422 0.19637,-0.490925 0.201537,-0.206705 0.480589,-0.206705 0.289387,0 0.496092,0.206705 0.206705,0.206705 0.206705,0.490925 0,0.289387 -0.206705,0.490924 -0.201537,0.201538 -0.496092,0.201538 -0.289387,0 -0.485757,-0.19637 -0.191202,-0.19637 -0.191202,-0.496092 z m 0.687294,-3.152253 q -0.728635,0 -1.090369,0.78548 -0.356566,0.785479 -0.356566,2.392611 0,1.601964 0.356566,2.387443 0.361734,0.785483 1.090369,0.785483 0.733803,0 1.09037,-0.785483 0.361734,-0.785479 0.361734,-2.387443 0,-1.607132 -0.361734,-2.392611 -0.356567,-0.78548 -1.09037,-0.78548 z m 0,-0.82682 q 1.235063,0 1.865514,1.012855 0.635618,1.012855 0.635618,2.992056 0,1.974033 -0.635618,2.986886 -0.630451,1.01286 -1.865514,1.01286 -1.235062,0 -1.865513,-1.01286 -0.63045,-1.012853 -0.63045,-2.986886 0,-1.979201 0.63045,-2.992056 0.630451,-1.012855 1.865513,-1.012855 z"
         style="font-size:medium;font-family:monospace;-inkscape-font-specification:monospace"
         id="path159261" />
      <path
         d="m 69.572648,98.034497 q 0.666624,0 1.043861,-0.480589 0.382404,-0.48059 0.382404,-1.328081 0,-0.84749 -0.382404,-1.32808 -0.377237,-0.480589 -1.043861,-0.480589 -0.692462,0 -1.043861,0.459919 -0.351398,0.454751 -0.351398,1.34875 0,0.899168 0.346231,1.353919 0.351398,0.454751 1.049028,0.454751 z m -1.860346,3.260773 v -0.96118 q 0.325561,0.1912 0.692462,0.29456 0.366902,0.0982 0.764809,0.0982 0.992185,0 1.498612,-0.744138 0.511595,-0.749306 0.511595,-2.201409 -0.242878,0.516763 -0.682127,0.795815 -0.439248,0.273884 -1.007687,0.273884 -1.116207,0 -1.731155,-0.687294 -0.60978,-0.687295 -0.60978,-1.948196 0,-1.245398 0.625283,-1.927525 0.63045,-0.687294 1.777664,-0.687294 1.343583,0 1.968865,0.966346 0.625283,0.966347 0.625283,3.038565 0,1.948195 -0.754473,2.976556 -0.749306,1.02319 -2.180739,1.02319 -0.377237,0 -0.759641,-0.0827 -0.382404,-0.0775 -0.738971,-0.22737 z"
         style="font-size:medium;font-family:monospace;-inkscape-font-specification:monospace"
         id="path159263" />
      <path
         d="m 81.732076,97.579746 q 0,-0.28422 0.19637,-0.490925 0.201538,-0.206705 0.480589,-0.206705 0.289388,0 0.496093,0.206705 0.206705,0.206705 0.206705,0.490925 0,0.289387 -0.206705,0.490924 -0.201538,0.201538 -0.496093,0.201538 -0.289387,0 -0.485756,-0.19637 -0.191203,-0.19637 -0.191203,-0.496092 z m 0.687295,-3.152253 q -0.728636,0 -1.09037,0.78548 -0.356566,0.785479 -0.356566,2.392611 0,1.601964 0.356566,2.387443 0.361734,0.785483 1.09037,0.785483 0.733803,0 1.090369,-0.785483 0.361734,-0.785479 0.361734,-2.387443 0,-1.607132 -0.361734,-2.392611 -0.356566,-0.78548 -1.090369,-0.78548 z m 0,-0.82682 q 1.235062,0 1.865513,1.012855 0.635618,1.012855 0.635618,2.992056 0,1.974033 -0.635618,2.986886 -0.630451,1.01286 -1.865513,1.01286 -1.235063,0 -1.865514,-1.01286 -0.63045,-1.012853 -0.63045,-2.986886 0,-1.979201 0.63045,-2.992056 0.630451,-1.012855 1.865514,-1.012855 z"
         style="font-size:medium;font-family:monospace;-inkscape-font-specification:monospace"
         id="path159265" />
      <path
         d="m 87.003053,100.57697 h 1.622635 v -5.896263 l -1.746658,0.39274 v -0.950844 l 1.736323,-0.382404 h 1.04386 v 6.836771 h 1.601965 v 0.8785 h -4.258125 z"
         style="font-size:medium;font-family:monospace;-inkscape-font-specification:monospace"
         id="path159267" />
      <path
         d="m 119.96218,97.579746 q 0,-0.28422 0.19637,-0.490925 0.20154,-0.206705 0.48059,-0.206705 0.28939,0 0.49609,0.206705 0.20671,0.206705 0.20671,0.490925 0,0.289387 -0.20671,0.490924 -0.20154,0.201538 -0.49609,0.201538 -0.28939,0 -0.48576,-0.19637 -0.1912,-0.19637 -0.1912,-0.496092 z m 0.68729,-3.152253 q -0.72863,0 -1.09037,0.78548 -0.35656,0.785479 -0.35656,2.392611 0,1.601964 0.35656,2.387443 0.36174,0.785483 1.09037,0.785483 0.73381,0 1.09037,-0.785483 0.36174,-0.785479 0.36174,-2.387443 0,-1.607132 -0.36174,-2.392611 -0.35656,-0.78548 -1.09037,-0.78548 z m 0,-0.82682 q 1.23507,0 1.86552,1.012855 0.63561,1.012855 0.63561,2.992056 0,1.974033 -0.63561,2.986886 -0.63045,1.01286 -1.86552,1.01286 -1.23506,0 -1.86551,-1.01286 -0.63045,-1.012853 -0.63045,-2.986886 0,-1.979201 0.63045,-2.992056 0.63045,-1.012855 1.86551,-1.012855 z"
         style="font-size:medium;font-family:monospace;-inkscape-font-specification:monospace"
         id="path159269" />
      <path
         d="m 127.63609,94.691042 -2.43395,4.077258 h 2.43395 z m -0.17053,-0.950843 h 1.20923 V 98.7683 h 1.02836 v 0.847491 h -1.02836 v 1.839679 h -1.0387 v -1.839679 h -3.2711 v -0.987017 z"
         style="font-size:medium;font-family:monospace;-inkscape-font-specification:monospace"
         id="path159271" />
      <path
         d="m 139.07723,97.579746 q 0,-0.28422 0.19637,-0.490925 0.20154,-0.206705 0.48059,-0.206705 0.28939,0 0.49609,0.206705 0.20671,0.206705 0.20671,0.490925 0,0.289387 -0.20671,0.490924 -0.20154,0.201538 -0.49609,0.201538 -0.28939,0 -0.48576,-0.19637 -0.1912,-0.19637 -0.1912,-0.496092 z m 0.68729,-3.152253 q -0.72863,0 -1.09036,0.78548 -0.35657,0.785479 -0.35657,2.392611 0,1.601964 0.35657,2.387443 0.36173,0.785483 1.09036,0.785483 0.73381,0 1.09037,-0.785483 0.36174,-0.785479 0.36174,-2.387443 0,-1.607132 -0.36174,-2.392611 -0.35656,-0.78548 -1.09037,-0.78548 z m 0,-0.82682 q 1.23507,0 1.86552,1.012855 0.63562,1.012855 0.63562,2.992056 0,1.974033 -0.63562,2.986886 -0.63045,1.01286 -1.86552,1.01286 -1.23506,0 -1.86551,-1.01286 -0.63045,-1.012853 -0.63045,-2.986886 0,-1.979201 0.63045,-2.992056 0.63045,-1.012855 1.86551,-1.012855 z"
         style="font-size:medium;font-family:monospace;-inkscape-font-specification:monospace"
         id="path159273" />
      <path
         d="m 146.96302,97.326532 q 0.75964,0.201537 1.16271,0.7183 0.40308,0.511595 0.40308,1.281572 0,1.064526 -0.7183,1.674306 -0.71313,0.60462 -1.9792,0.60462 -0.53227,0 -1.0852,-0.0982 -0.55294,-0.0982 -1.08521,-0.28422 v -1.03869 q 0.5271,0.27388 1.0387,0.40824 0.51159,0.13436 1.01802,0.13436 0.85783,0 1.31775,-0.38757 0.45991,-0.387574 0.45991,-1.116209 0,-0.671791 -0.45991,-1.064531 -0.45992,-0.397907 -1.2454,-0.397907 h -0.79582 v -0.857826 h 0.79582 q 0.7183,0 1.12137,-0.315226 0.40308,-0.315225 0.40308,-0.878496 0,-0.594277 -0.37724,-0.909502 -0.37207,-0.320393 -1.06453,-0.320393 -0.45992,0 -0.95084,0.103352 -0.49093,0.103353 -1.02836,0.310058 v -0.961179 q 0.62528,-0.165364 1.11104,-0.248046 0.49092,-0.08268 0.86816,-0.08268 1.12654,0 1.79833,0.568439 0.67696,0.563271 0.67696,1.498612 0,0.635618 -0.35656,1.059363 -0.3514,0.423746 -1.02836,0.599445 z"
         style="font-size:medium;font-family:monospace;-inkscape-font-specification:monospace"
         id="path159275" />
      <path
         d="m 158.19228,97.579746 q 0,-0.28422 0.19637,-0.490925 0.20154,-0.206705 0.48059,-0.206705 0.28939,0 0.49609,0.206705 0.20671,0.206705 0.20671,0.490925 0,0.289387 -0.20671,0.490924 -0.20153,0.201538 -0.49609,0.201538 -0.28939,0 -0.48576,-0.19637 -0.1912,-0.19637 -0.1912,-0.496092 z m 0.6873,-3.152253 q -0.72864,0 -1.09037,0.78548 -0.35657,0.785479 -0.35657,2.392611 0,1.601964 0.35657,2.387443 0.36173,0.785483 1.09037,0.785483 0.7338,0 1.09037,-0.785483 0.36173,-0.785479 0.36173,-2.387443 0,-1.607132 -0.36173,-2.392611 -0.35657,-0.78548 -1.09037,-0.78548 z m 0,-0.82682 q 1.23506,0 1.86551,1.012855 0.63562,1.012855 0.63562,2.992056 0,1.974033 -0.63562,2.986886 -0.63045,1.01286 -1.86551,1.01286 -1.23507,0 -1.86552,-1.01286 -0.63045,-1.012853 -0.63045,-2.986886 0,-1.979201 0.63045,-2.992056 0.63045,-1.012855 1.86552,-1.012855 z"
         style="font-size:medium;font-family:monospace;-inkscape-font-specification:monospace"
         id="path159277" />
      <path
         d="m 164.56395,97.579746 q 0,-0.28422 0.19637,-0.490925 0.20154,-0.206705 0.48059,-0.206705 0.28939,0 0.4961,0.206705 0.2067,0.206705 0.2067,0.490925 0,0.289387 -0.2067,0.490924 -0.20154,0.201538 -0.4961,0.201538 -0.28938,0 -0.48575,-0.19637 -0.19121,-0.19637 -0.19121,-0.496092 z m 0.6873,-3.152253 q -0.72864,0 -1.09037,0.78548 -0.35657,0.785479 -0.35657,2.392611 0,1.601964 0.35657,2.387443 0.36173,0.785483 1.09037,0.785483 0.7338,0 1.09037,-0.785483 0.36173,-0.785479 0.36173,-2.387443 0,-1.607132 -0.36173,-2.392611 -0.35657,-0.78548 -1.09037,-0.78548 z m 0,-0.82682 q 1.23506,0 1.86551,1.012855 0.63562,1.012855 0.63562,2.992056 0,1.974033 -0.63562,2.986886 -0.63045,1.01286 -1.86551,1.01286 -1.23506,0 -1.86551,-1.01286 -0.63045,-1.012853 -0.63045,-2.986886 0,-1.979201 0.63045,-2.992056 0.63045,-1.012855 1.86551,-1.012855 z"
         style="font-size:medium;font-family:monospace;-inkscape-font-specification:monospace"
         id="path159279" />
      <path
         d="m 177.30733,97.579746 q 0,-0.28422 0.19637,-0.490925 0.20154,-0.206705 0.48059,-0.206705 0.28939,0 0.49609,0.206705 0.20671,0.206705 0.20671,0.490925 0,0.289387 -0.20671,0.490924 -0.20153,0.201538 -0.49609,0.201538 -0.28939,0 -0.48576,-0.19637 -0.1912,-0.19637 -0.1912,-0.496092 z m 0.6873,-3.152253 q -0.72864,0 -1.09037,0.78548 -0.35657,0.785479 -0.35657,2.392611 0,1.601964 0.35657,2.387443 0.36173,0.785483 1.09037,0.785483 0.7338,0 1.09037,-0.785483 0.36173,-0.785479 0.36173,-2.387443 0,-1.607132 -0.36173,-2.392611 -0.35657,-0.78548 -1.09037,-0.78548 z m 0,-0.82682 q 1.23506,0 1.86551,1.012855 0.63562,1.012855 0.63562,2.992056 0,1.974033 -0.63562,2.986886 -0.63045,1.01286 -1.86551,1.01286 -1.23507,0 -1.86552,-1.01286 -0.63045,-1.012853 -0.63045,-2.986886 0,-1.979201 0.63045,-2.992056 0.63045,-1.012855 1.86552,-1.012855 z"
         style="font-size:medium;font-family:monospace;-inkscape-font-specification:monospace"
         id="path159281" />
      <path
         d="m 183.11057,100.57697 h 3.54499 v 0.8785 h -4.68704 v -0.8785 q 0.96635,-1.018023 1.68982,-1.798335 0.72346,-0.780312 0.99735,-1.100704 0.51676,-0.630451 0.69763,-1.018023 0.18086,-0.392739 0.18086,-0.800982 0,-0.645953 -0.3824,-1.012855 -0.37724,-0.366901 -1.03869,-0.366901 -0.47026,0 -0.98702,0.170531 -0.51676,0.170532 -1.09554,0.516763 v -1.054196 q 0.53227,-0.253214 1.04386,-0.382404 0.51677,-0.129191 1.01803,-0.129191 1.13171,0 1.819,0.604612 0.69246,0.599445 0.69246,1.576127 0,0.496092 -0.23254,0.992184 -0.22738,0.496092 -0.74414,1.095537 -0.28939,0.335896 -0.84232,0.930173 -0.54777,0.594277 -1.67431,1.777664 z"
         style="font-size:medium;font-family:monospace;-inkscape-font-specification:monospace"
         id="path159283" />
      <path
         d="m 196.42238,97.579746 q 0,-0.28422 0.19637,-0.490925 0.20154,-0.206705 0.48059,-0.206705 0.28939,0 0.4961,0.206705 0.2067,0.206705 0.2067,0.490925 0,0.289387 -0.2067,0.490924 -0.20154,0.201538 -0.4961,0.201538 -0.28938,0 -0.48575,-0.19637 -0.19121,-0.19637 -0.19121,-0.496092 z m 0.6873,-3.152253 q -0.72864,0 -1.09037,0.78548 -0.35657,0.785479 -0.35657,2.392611 0,1.601964 0.35657,2.387443 0.36173,0.785483 1.09037,0.785483 0.7338,0 1.09037,-0.785483 0.36173,-0.785479 0.36173,-2.387443 0,-1.607132 -0.36173,-2.392611 -0.35657,-0.78548 -1.09037,-0.78548 z m 0,-0.82682 q 1.23506,0 1.86551,1.012855 0.63562,1.012855 0.63562,2.992056 0,1.974033 -0.63562,2.986886 -0.63045,1.01286 -1.86551,1.01286 -1.23506,0 -1.86551,-1.01286 -0.63046,-1.012853 -0.63046,-2.986886 0,-1.979201 0.63046,-2.992056 0.63045,-1.012855 1.86551,-1.012855 z"
         style="font-size:medium;font-family:monospace;-inkscape-font-specification:monospace"
         id="path159285" />
      <path
         d="m 201.01639,93.740199 h 4.85757 v 0.444416 l -2.75951,7.270855 h -1.09037 l 2.68717,-6.836774 h -3.69486 z"
         style="font-size:medium;font-family:monospace;-inkscape-font-specification:monospace"
         id="path159287" />
      <path
         d="m 215.53744,97.579746 q 0,-0.28422 0.19637,-0.490925 0.20153,-0.206705 0.48058,-0.206705 0.28939,0 0.4961,0.206705 0.2067,0.206705 0.2067,0.490925 0,0.289387 -0.2067,0.490924 -0.20154,0.201538 -0.4961,0.201538 -0.28938,0 -0.48575,-0.19637 -0.1912,-0.19637 -0.1912,-0.496092 z m 0.68729,-3.152253 q -0.72864,0 -1.09037,0.78548 -0.35657,0.785479 -0.35657,2.392611 0,1.601964 0.35657,2.387443 0.36173,0.785483 1.09037,0.785483 0.7338,0 1.09037,-0.785483 0.36173,-0.785479 0.36173,-2.387443 0,-1.607132 -0.36173,-2.392611 -0.35657,-0.78548 -1.09037,-0.78548 z m 0,-0.82682 q 1.23506,0 1.86551,1.012855 0.63562,1.012855 0.63562,2.992056 0,1.974033 -0.63562,2.986886 -0.63045,1.01286 -1.86551,1.01286 -1.23506,0 -1.86551,-1.01286 -0.63045,-1.012853 -0.63045,-2.986886 0,-1.979201 0.63045,-2.992056 0.63045,-1.012855 1.86551,-1.012855 z"
         style="font-size:medium;font-family:monospace;-inkscape-font-specification:monospace"
         id="path159289" />
      <path
         d="m 224.53426,93.910731 v 0.961178 q -0.32556,-0.191202 -0.69246,-0.289387 -0.3669,-0.103352 -0.76481,-0.103352 -0.99218,0 -1.50378,0.749306 -0.51159,0.744138 -0.51159,2.196241 0.24804,-0.516763 0.68729,-0.790647 0.43925,-0.279052 1.00769,-0.279052 1.11621,0 1.72599,0.687295 0.61494,0.682126 0.61494,1.93786 0,1.250567 -0.63045,1.937857 -0.63045,0.6873 -1.77249,0.6873 -1.34358,0 -1.96887,-0.96118 -0.62528,-0.966348 -0.62528,-3.038566 0,-1.953363 0.74931,-2.976553 0.75447,-1.028358 2.18073,-1.028358 0.38241,0 0.76481,0.08268 0.38241,0.07751 0.73897,0.227376 z m -1.86034,3.260772 q -0.66663,0 -1.04903,0.480589 -0.38241,0.48059 -0.38241,1.328081 0,0.84749 0.38241,1.328077 0.3824,0.48059 1.04903,0.48059 0.69246,0 1.04386,-0.45475 0.3514,-0.459918 0.3514,-1.353917 0,-0.899167 -0.3514,-1.353919 -0.3514,-0.454751 -1.04386,-0.454751 z"
         style="font-size:medium;font-family:monospace;-inkscape-font-specification:monospace"
         id="path159291" />
    </g>
  </g>
</svg>
