<?xml version="1.0" encoding="UTF-8" standalone="no"?>
<!-- Created with Inkscape (http://www.inkscape.org/) -->

<svg
   width="241.40567mm"
   height="21.233778mm"
   viewBox="0 0 241.40567 21.233778"
   version="1.1"
   id="svg159414"
   inkscape:version="1.2-dev (9a006c9b6a, 2021-07-31)"
   sodipodi:docname="12_quickselect_3.svg"
   xmlns:inkscape="http://www.inkscape.org/namespaces/inkscape"
   xmlns:sodipodi="http://sodipodi.sourceforge.net/DTD/sodipodi-0.dtd"
   xmlns="http://www.w3.org/2000/svg"
   xmlns:svg="http://www.w3.org/2000/svg">
  <sodipodi:namedview
     id="namedview159416"
     pagecolor="#505050"
     bordercolor="#ffffff"
     borderopacity="1"
     inkscape:pageshadow="0"
     inkscape:pageopacity="0"
     inkscape:pagecheckerboard="1"
     inkscape:document-units="mm"
     showgrid="false"
     inkscape:zoom="0.77058782"
     inkscape:cx="390.6109"
     inkscape:cy="151.83214"
     inkscape:window-width="1920"
     inkscape:window-height="1011"
     inkscape:window-x="1920"
     inkscape:window-y="32"
     inkscape:window-maximized="1"
     inkscape:current-layer="layer1" />
  <defs
     id="defs159411" />
  <g
     inkscape:label="Layer 1"
     inkscape:groupmode="layer"
     id="layer1"
     transform="translate(46.195324,-89.298718)">
    <g
       aria-label="                        08
05 01 04 03 00 02 07 06    14 11 10 09"
       id="text930962"
       style="font-size:10.5833px;line-height:1.25;stroke-width:0.264583">
      <path
         d="m 109.22105,93.277791 q 0,-0.28422 0.19637,-0.490925 0.20154,-0.206705 0.48059,-0.206705 0.28939,0 0.49609,0.206705 0.20671,0.206705 0.20671,0.490925 0,0.289387 -0.20671,0.490925 -0.20154,0.201537 -0.49609,0.201537 -0.28939,0 -0.48576,-0.19637 -0.1912,-0.19637 -0.1912,-0.496092 z m 0.68729,-3.152252 q -0.72863,0 -1.09036,0.785479 -0.35657,0.785479 -0.35657,2.392611 0,1.601964 0.35657,2.387444 0.36173,0.785479 1.09036,0.785479 0.73381,0 1.09037,-0.785479 0.36174,-0.78548 0.36174,-2.387444 0,-1.607132 -0.36174,-2.392611 -0.35656,-0.785479 -1.09037,-0.785479 z m 0,-0.826821 q 1.23507,0 1.86552,1.012855 0.63562,1.012855 0.63562,2.992056 0,1.974034 -0.63562,2.986888 -0.63045,1.012855 -1.86552,1.012855 -1.23506,0 -1.86551,-1.012855 -0.63045,-1.012854 -0.63045,-2.986888 0,-1.979201 0.63045,-2.992056 0.63045,-1.012855 1.86551,-1.012855 z"
         style="font-size:medium;font-family:monospace;-inkscape-font-specification:monospace;fill:#ff0000"
         id="path159500" />
      <path
         d="m 116.28002,93.489664 q -0.69763,0 -1.08004,0.392739 -0.37723,0.387572 -0.37723,1.100705 0,0.713132 0.3824,1.11104 0.38757,0.392739 1.07487,0.392739 0.7028,0 1.08003,-0.387572 0.38241,-0.392739 0.38241,-1.116207 0,-0.707965 -0.38758,-1.100705 -0.3824,-0.392739 -1.07486,-0.392739 z m -0.9095,-0.434081 q -0.66663,-0.170532 -1.04387,-0.635618 -0.37206,-0.465086 -0.37206,-1.121375 0,-0.919838 0.62528,-1.457271 0.62528,-0.542601 1.70015,-0.542601 1.08003,0 1.70531,0.542601 0.62529,0.537433 0.62529,1.457271 0,0.656289 -0.37724,1.121375 -0.37207,0.465086 -1.03869,0.635618 0.77514,0.170532 1.18338,0.687294 0.41341,0.516763 0.41341,1.338416 0,1.04386 -0.66662,1.63297 -0.66662,0.589109 -1.84484,0.589109 -1.17822,0 -1.84484,-0.583942 -0.66146,-0.589109 -0.66146,-1.627802 0,-0.82682 0.40824,-1.343583 0.41341,-0.52193 1.18856,-0.692462 z m -0.37724,-1.658808 q 0,0.620115 0.33073,0.945676 0.33073,0.32556 0.95601,0.32556 0.63045,0 0.96118,-0.32556 0.33072,-0.325561 0.33072,-0.945676 0,-0.630451 -0.33072,-0.961179 -0.32556,-0.330728 -0.96118,-0.330728 -0.62528,0 -0.95601,0.335896 -0.33073,0.330728 -0.33073,0.956011 z"
         style="font-size:medium;font-family:monospace;-inkscape-font-specification:monospace;fill:#ff0000"
         id="path159502" />
      <path
         d="m -43.69936,106.50692 q 0,-0.28422 0.19637,-0.49093 0.201537,-0.2067 0.480589,-0.2067 0.289387,0 0.496092,0.2067 0.206705,0.20671 0.206705,0.49093 0,0.28938 -0.206705,0.49092 -0.201537,0.20154 -0.496092,0.20154 -0.289387,0 -0.485757,-0.19637 -0.191202,-0.19637 -0.191202,-0.49609 z m 0.687294,-3.15226 q -0.728635,0 -1.090369,0.78548 -0.356566,0.78548 -0.356566,2.39261 0,1.60197 0.356566,2.38745 0.361734,0.78548 1.090369,0.78548 0.733803,0 1.090369,-0.78548 0.361734,-0.78548 0.361734,-2.38745 0,-1.60713 -0.361734,-2.39261 -0.356566,-0.78548 -1.090369,-0.78548 z m 0,-0.82682 q 1.235063,0 1.865513,1.01286 0.635619,1.01285 0.635619,2.99205 0,1.97404 -0.635619,2.98689 -0.63045,1.01286 -1.865513,1.01286 -1.235063,0 -1.865513,-1.01286 -0.630451,-1.01285 -0.630451,-2.98689 0,-1.9792 0.630451,-2.99205 0.63045,-1.01286 1.865513,-1.01286 z"
         style="font-size:medium;font-family:monospace;-inkscape-font-specification:monospace"
         id="path159504" />
      <path
         d="m -38.753942,102.66737 h 3.906726 v 0.8785 h -2.955882 v 1.89651 q 0.222208,-0.0827 0.444416,-0.11885 0.227375,-0.0413 0.454751,-0.0413 1.198889,0 1.901686,0.70796 0.702798,0.70797 0.702798,1.91719 0,1.21956 -0.738971,1.92236 -0.733803,0.7028 -2.010207,0.7028 -0.614947,0 -1.126542,-0.0827 -0.506428,-0.0827 -0.909503,-0.24804 v -1.05936 q 0.475422,0.25838 0.956011,0.38757 0.48059,0.12402 0.981849,0.12402 0.862994,0 1.32808,-0.45475 0.470254,-0.45475 0.470254,-1.29191 0,-0.82682 -0.485756,-1.28674 -0.48059,-0.45992 -1.343583,-0.45992 -0.418578,0 -0.816485,0.0982 -0.397908,0.093 -0.759642,0.28422 z"
         style="font-size:medium;font-family:monospace;-inkscape-font-specification:monospace"
         id="path159506" />
      <path
         d="m -24.584309,106.50692 q 0,-0.28422 0.19637,-0.49093 0.201537,-0.2067 0.480589,-0.2067 0.289387,0 0.496092,0.2067 0.206705,0.20671 0.206705,0.49093 0,0.28938 -0.206705,0.49092 -0.201537,0.20154 -0.496092,0.20154 -0.289387,0 -0.485757,-0.19637 -0.191202,-0.19637 -0.191202,-0.49609 z m 0.687294,-3.15226 q -0.728635,0 -1.090369,0.78548 -0.356566,0.78548 -0.356566,2.39261 0,1.60197 0.356566,2.38745 0.361734,0.78548 1.090369,0.78548 0.733803,0 1.09037,-0.78548 0.361734,-0.78548 0.361734,-2.38745 0,-1.60713 -0.361734,-2.39261 -0.356567,-0.78548 -1.09037,-0.78548 z m 0,-0.82682 q 1.235063,0 1.865514,1.01286 0.635618,1.01285 0.635618,2.99205 0,1.97404 -0.635618,2.98689 -0.630451,1.01286 -1.865514,1.01286 -1.235062,0 -1.865513,-1.01286 -0.63045,-1.01285 -0.63045,-2.98689 0,-1.9792 0.63045,-2.99205 0.630451,-1.01286 1.865513,-1.01286 z"
         style="font-size:medium;font-family:monospace;-inkscape-font-specification:monospace"
         id="path159508" />
      <path
         d="m -19.31333,109.50414 h 1.622634 v -5.89626 l -1.746657,0.39274 v -0.95085 l 1.736322,-0.3824 h 1.043861 v 6.83677 h 1.601964 v 0.8785 h -4.258124 z"
         style="font-size:medium;font-family:monospace;-inkscape-font-specification:monospace"
         id="path159510" />
      <path
         d="m -5.4692577,106.50692 q 0,-0.28422 0.1963698,-0.49093 0.2015375,-0.2067 0.4805893,-0.2067 0.2893871,0 0.4960922,0.2067 0.2067051,0.20671 0.2067051,0.49093 0,0.28938 -0.2067051,0.49092 -0.2015374,0.20154 -0.4960922,0.20154 -0.2893871,0 -0.4857569,-0.19637 -0.1912022,-0.19637 -0.1912022,-0.49609 z m 0.6872944,-3.15226 q -0.7286354,0 -1.0903693,0.78548 -0.3565662,0.78548 -0.3565662,2.39261 0,1.60197 0.3565662,2.38745 0.3617339,0.78548 1.0903693,0.78548 0.733803,0 1.0903692,-0.78548 0.3617339,-0.78548 0.3617339,-2.38745 0,-1.60713 -0.3617339,-2.39261 -0.3565662,-0.78548 -1.0903692,-0.78548 z m 0,-0.82682 q 1.2350628,0 1.8655133,1.01286 0.635618,1.01285 0.635618,2.99205 0,1.97404 -0.635618,2.98689 -0.6304505,1.01286 -1.8655133,1.01286 -1.2350628,0 -1.8655133,-1.01286 -0.6304504,-1.01285 -0.6304504,-2.98689 0,-1.9792 0.6304504,-2.99205 0.6304505,-1.01286 1.8655133,-1.01286 z"
         style="font-size:medium;font-family:monospace;-inkscape-font-specification:monospace"
         id="path159512" />
      <path
         d="m 2.2046655,103.61821 -2.43395222,4.07726 H 2.2046655 Z m -0.1705317,-0.95084 h 1.2092247 v 5.0281 h 1.0283577 v 0.84749 H 3.2433585 v 1.83968 h -1.038693 v -1.83968 h -3.2711078 v -0.98702 z"
         style="font-size:medium;font-family:monospace;-inkscape-font-specification:monospace"
         id="path159514" />
      <path
         d="m 13.645794,106.50692 q 0,-0.28422 0.196369,-0.49093 0.201538,-0.2067 0.48059,-0.2067 0.289387,0 0.496092,0.2067 0.206705,0.20671 0.206705,0.49093 0,0.28938 -0.206705,0.49092 -0.201538,0.20154 -0.496092,0.20154 -0.289387,0 -0.485757,-0.19637 -0.191202,-0.19637 -0.191202,-0.49609 z m 0.687294,-3.15226 q -0.728635,0 -1.090369,0.78548 -0.356567,0.78548 -0.356567,2.39261 0,1.60197 0.356567,2.38745 0.361734,0.78548 1.090369,0.78548 0.733803,0 1.090369,-0.78548 0.361734,-0.78548 0.361734,-2.38745 0,-1.60713 -0.361734,-2.39261 -0.356566,-0.78548 -1.090369,-0.78548 z m 0,-0.82682 q 1.235063,0 1.865513,1.01286 0.635618,1.01285 0.635618,2.99205 0,1.97404 -0.635618,2.98689 -0.63045,1.01286 -1.865513,1.01286 -1.235063,0 -1.865513,-1.01286 -0.630451,-1.01285 -0.630451,-2.98689 0,-1.9792 0.630451,-2.99205 0.63045,-1.01286 1.865513,-1.01286 z"
         style="font-size:medium;font-family:monospace;-inkscape-font-specification:monospace"
         id="path159516" />
      <path
         d="m 21.531589,106.2537 q 0.759642,0.20154 1.162716,0.7183 0.403075,0.5116 0.403075,1.28157 0,1.06453 -0.7183,1.67431 -0.713132,0.60462 -1.979201,0.60462 -0.532265,0 -1.085201,-0.0982 -0.552936,-0.0982 -1.085202,-0.28422 v -1.03869 q 0.527098,0.27388 1.038693,0.40824 0.511595,0.13436 1.018022,0.13436 0.857826,0 1.317745,-0.38757 0.459919,-0.38757 0.459919,-1.11621 0,-0.67179 -0.459919,-1.06453 -0.459919,-0.39791 -1.245398,-0.39791 h -0.795814 v -0.85782 h 0.795814 q 0.7183,0 1.121375,-0.31523 0.403075,-0.31522 0.403075,-0.8785 0,-0.59427 -0.377237,-0.9095 -0.372069,-0.32039 -1.064531,-0.32039 -0.459919,0 -0.950843,0.10335 -0.490925,0.10335 -1.028358,0.31006 v -0.96118 q 0.625283,-0.16536 1.11104,-0.24805 0.490924,-0.0827 0.868161,-0.0827 1.126543,0 1.798334,0.56844 0.676959,0.56327 0.676959,1.49861 0,0.63562 -0.356566,1.05937 -0.351398,0.42374 -1.028358,0.59944 z"
         style="font-size:medium;font-family:monospace;-inkscape-font-specification:monospace"
         id="path159518" />
      <path
         d="m 32.760845,106.50692 q 0,-0.28422 0.19637,-0.49093 0.201537,-0.2067 0.480589,-0.2067 0.289387,0 0.496092,0.2067 0.206705,0.20671 0.206705,0.49093 0,0.28938 -0.206705,0.49092 -0.201537,0.20154 -0.496092,0.20154 -0.289387,0 -0.485757,-0.19637 -0.191202,-0.19637 -0.191202,-0.49609 z m 0.687294,-3.15226 q -0.728635,0 -1.090369,0.78548 -0.356566,0.78548 -0.356566,2.39261 0,1.60197 0.356566,2.38745 0.361734,0.78548 1.090369,0.78548 0.733803,0 1.090369,-0.78548 0.361734,-0.78548 0.361734,-2.38745 0,-1.60713 -0.361734,-2.39261 -0.356566,-0.78548 -1.090369,-0.78548 z m 0,-0.82682 q 1.235063,0 1.865513,1.01286 0.635619,1.01285 0.635619,2.99205 0,1.97404 -0.635619,2.98689 -0.63045,1.01286 -1.865513,1.01286 -1.235063,0 -1.865513,-1.01286 -0.630451,-1.01285 -0.630451,-2.98689 0,-1.9792 0.630451,-2.99205 0.63045,-1.01286 1.865513,-1.01286 z"
         style="font-size:medium;font-family:monospace;-inkscape-font-specification:monospace"
         id="path159520" />
      <path
         d="m 39.132526,106.50692 q 0,-0.28422 0.19637,-0.49093 0.201537,-0.2067 0.480589,-0.2067 0.289387,0 0.496092,0.2067 0.206705,0.20671 0.206705,0.49093 0,0.28938 -0.206705,0.49092 -0.201537,0.20154 -0.496092,0.20154 -0.289387,0 -0.485757,-0.19637 -0.191202,-0.19637 -0.191202,-0.49609 z m 0.687294,-3.15226 q -0.728635,0 -1.090369,0.78548 -0.356566,0.78548 -0.356566,2.39261 0,1.60197 0.356566,2.38745 0.361734,0.78548 1.090369,0.78548 0.733803,0 1.09037,-0.78548 0.361734,-0.78548 0.361734,-2.38745 0,-1.60713 -0.361734,-2.39261 -0.356567,-0.78548 -1.09037,-0.78548 z m 0,-0.82682 q 1.235063,0 1.865514,1.01286 0.635618,1.01285 0.635618,2.99205 0,1.97404 -0.635618,2.98689 -0.630451,1.01286 -1.865514,1.01286 -1.235062,0 -1.865513,-1.01286 -0.63045,-1.01285 -0.63045,-2.98689 0,-1.9792 0.63045,-2.99205 0.630451,-1.01286 1.865513,-1.01286 z"
         style="font-size:medium;font-family:monospace;-inkscape-font-specification:monospace"
         id="path159522" />
      <path
         d="m 51.875896,106.50692 q 0,-0.28422 0.19637,-0.49093 0.201537,-0.2067 0.480589,-0.2067 0.289387,0 0.496092,0.2067 0.206705,0.20671 0.206705,0.49093 0,0.28938 -0.206705,0.49092 -0.201537,0.20154 -0.496092,0.20154 -0.289387,0 -0.485757,-0.19637 -0.191202,-0.19637 -0.191202,-0.49609 z m 0.687294,-3.15226 q -0.728635,0 -1.090369,0.78548 -0.356566,0.78548 -0.356566,2.39261 0,1.60197 0.356566,2.38745 0.361734,0.78548 1.090369,0.78548 0.733803,0 1.09037,-0.78548 0.361734,-0.78548 0.361734,-2.38745 0,-1.60713 -0.361734,-2.39261 -0.356567,-0.78548 -1.09037,-0.78548 z m 0,-0.82682 q 1.235063,0 1.865514,1.01286 0.635618,1.01285 0.635618,2.99205 0,1.97404 -0.635618,2.98689 -0.630451,1.01286 -1.865514,1.01286 -1.235062,0 -1.865513,-1.01286 -0.63045,-1.01285 -0.63045,-2.98689 0,-1.9792 0.63045,-2.99205 0.630451,-1.01286 1.865513,-1.01286 z"
         style="font-size:medium;font-family:monospace;-inkscape-font-specification:monospace"
         id="path159524" />
      <path
         d="m 57.679138,109.50414 h 3.544992 v 0.8785 h -4.687037 v -0.8785 q 0.966346,-1.01802 1.689814,-1.79834 0.723468,-0.78031 0.997352,-1.1007 0.516762,-0.63045 0.697629,-1.01802 0.180867,-0.39274 0.180867,-0.80098 0,-0.64596 -0.382404,-1.01286 -0.377237,-0.3669 -1.038693,-0.3669 -0.470254,0 -0.987017,0.17053 -0.516762,0.17053 -1.095537,0.51676 v -1.05419 q 0.532266,-0.25322 1.043861,-0.38241 0.516763,-0.12919 1.018022,-0.12919 1.131711,0 1.819005,0.60462 0.692462,0.59944 0.692462,1.57612 0,0.49609 -0.232543,0.99219 -0.227376,0.49609 -0.744138,1.09553 -0.289387,0.3359 -0.842324,0.93018 -0.547768,0.59427 -1.674311,1.77766 z"
         style="font-size:medium;font-family:monospace;-inkscape-font-specification:monospace"
         id="path159526" />
      <path
         d="m 70.990947,106.50692 q 0,-0.28422 0.19637,-0.49093 0.201538,-0.2067 0.48059,-0.2067 0.289387,0 0.496092,0.2067 0.206705,0.20671 0.206705,0.49093 0,0.28938 -0.206705,0.49092 -0.201538,0.20154 -0.496092,0.20154 -0.289388,0 -0.485757,-0.19637 -0.191203,-0.19637 -0.191203,-0.49609 z m 0.687295,-3.15226 q -0.728636,0 -1.090369,0.78548 -0.356567,0.78548 -0.356567,2.39261 0,1.60197 0.356567,2.38745 0.361733,0.78548 1.090369,0.78548 0.733803,0 1.090369,-0.78548 0.361734,-0.78548 0.361734,-2.38745 0,-1.60713 -0.361734,-2.39261 -0.356566,-0.78548 -1.090369,-0.78548 z m 0,-0.82682 q 1.235063,0 1.865513,1.01286 0.635618,1.01285 0.635618,2.99205 0,1.97404 -0.635618,2.98689 -0.63045,1.01286 -1.865513,1.01286 -1.235063,0 -1.865513,-1.01286 -0.630451,-1.01285 -0.630451,-2.98689 0,-1.9792 0.630451,-2.99205 0.63045,-1.01286 1.865513,-1.01286 z"
         style="font-size:medium;font-family:monospace;-inkscape-font-specification:monospace"
         id="path159528" />
      <path
         d="m 75.584965,102.66737 h 4.857569 v 0.44441 l -2.759513,7.27086 h -1.090369 l 2.687166,-6.83677 h -3.694853 z"
         style="font-size:medium;font-family:monospace;-inkscape-font-specification:monospace"
         id="path159530" />
      <path
         d="m 90.105999,106.50692 q 0,-0.28422 0.196369,-0.49093 0.201538,-0.2067 0.48059,-0.2067 0.289387,0 0.496092,0.2067 0.206705,0.20671 0.206705,0.49093 0,0.28938 -0.206705,0.49092 -0.201537,0.20154 -0.496092,0.20154 -0.289387,0 -0.485757,-0.19637 -0.191202,-0.19637 -0.191202,-0.49609 z m 0.687294,-3.15226 q -0.728635,0 -1.090369,0.78548 -0.356566,0.78548 -0.356566,2.39261 0,1.60197 0.356566,2.38745 0.361734,0.78548 1.090369,0.78548 0.733803,0 1.090369,-0.78548 0.361734,-0.78548 0.361734,-2.38745 0,-1.60713 -0.361734,-2.39261 -0.356566,-0.78548 -1.090369,-0.78548 z m 0,-0.82682 q 1.235063,0 1.865513,1.01286 0.635618,1.01285 0.635618,2.99205 0,1.97404 -0.635618,2.98689 -0.63045,1.01286 -1.865513,1.01286 -1.235063,0 -1.865513,-1.01286 -0.630451,-1.01285 -0.630451,-2.98689 0,-1.9792 0.630451,-2.99205 0.63045,-1.01286 1.865513,-1.01286 z"
         style="font-size:medium;font-family:monospace;-inkscape-font-specification:monospace"
         id="path159532" />
      <path
         d="m 99.102827,102.8379 v 0.96118 q -0.325561,-0.1912 -0.692462,-0.28939 -0.366902,-0.10335 -0.764809,-0.10335 -0.992184,0 -1.503779,0.74931 -0.511596,0.74413 -0.511596,2.19624 0.248047,-0.51677 0.687295,-0.79065 0.439248,-0.27905 1.007687,-0.27905 1.116207,0 1.725987,0.68729 0.614948,0.68213 0.614948,1.93786 0,1.25057 -0.63045,1.93786 -0.630451,0.6873 -1.772496,0.6873 -1.343583,0 -1.968866,-0.96118 -0.625283,-0.96635 -0.625283,-3.03857 0,-1.95336 0.749306,-2.97655 0.754473,-1.02836 2.180738,-1.02836 0.382405,0 0.764809,0.0827 0.382404,0.0775 0.738971,0.22738 z m -1.860346,3.26077 q -0.666624,0 -1.049028,0.48059 -0.382405,0.48059 -0.382405,1.32808 0,0.84749 0.382405,1.32808 0.382404,0.48059 1.049028,0.48059 0.692462,0 1.043861,-0.45475 0.351398,-0.45992 0.351398,-1.35392 0,-0.89916 -0.351398,-1.35392 -0.351399,-0.45475 -1.043861,-0.45475 z"
         style="font-size:medium;font-family:monospace;-inkscape-font-specification:monospace"
         id="path159534" />
      <path
         d="m 127.2354,109.50414 h 1.62263 v -5.89626 l -1.74666,0.39274 v -0.95085 l 1.73633,-0.3824 h 1.04386 v 6.83677 h 1.60196 v 0.8785 h -4.25812 z"
         style="font-size:medium;font-family:monospace;-inkscape-font-specification:monospace"
         id="path159536" />
      <path
         d="m 136.01002,103.61821 -2.43396,4.07726 h 2.43396 z m -0.17053,-0.95084 h 1.20922 v 5.0281 h 1.02836 v 0.84749 h -1.02836 v 1.83968 h -1.03869 v -1.83968 h -3.27111 v -0.98702 z"
         style="font-size:medium;font-family:monospace;-inkscape-font-specification:monospace"
         id="path159538" />
      <path
         d="m 146.35045,109.50414 h 1.62263 v -5.89626 l -1.74666,0.39274 v -0.95085 l 1.73633,-0.3824 h 1.04386 v 6.83677 h 1.60196 v 0.8785 h -4.25812 z"
         style="font-size:medium;font-family:monospace;-inkscape-font-specification:monospace"
         id="path159540" />
      <path
         d="m 152.72212,109.50414 h 1.62264 v -5.89626 l -1.74666,0.39274 v -0.95085 l 1.73632,-0.3824 h 1.04386 v 6.83677 h 1.60197 v 0.8785 h -4.25813 z"
         style="font-size:medium;font-family:monospace;-inkscape-font-specification:monospace"
         id="path159542" />
      <path
         d="m 165.4655,109.50414 h 1.62263 v -5.89626 l -1.74665,0.39274 v -0.95085 l 1.73632,-0.3824 h 1.04386 v 6.83677 h 1.60196 v 0.8785 h -4.25812 z"
         style="font-size:medium;font-family:monospace;-inkscape-font-specification:monospace"
         id="path159544" />
      <path
         d="m 172.93788,106.50692 q 0,-0.28422 0.19637,-0.49093 0.20153,-0.2067 0.48059,-0.2067 0.28938,0 0.49609,0.2067 0.2067,0.20671 0.2067,0.49093 0,0.28938 -0.2067,0.49092 -0.20154,0.20154 -0.49609,0.20154 -0.28939,0 -0.48576,-0.19637 -0.1912,-0.19637 -0.1912,-0.49609 z m 0.68729,-3.15226 q -0.72863,0 -1.09037,0.78548 -0.35656,0.78548 -0.35656,2.39261 0,1.60197 0.35656,2.38745 0.36174,0.78548 1.09037,0.78548 0.7338,0 1.09037,-0.78548 0.36173,-0.78548 0.36173,-2.38745 0,-1.60713 -0.36173,-2.39261 -0.35657,-0.78548 -1.09037,-0.78548 z m 0,-0.82682 q 1.23506,0 1.86551,1.01286 0.63562,1.01285 0.63562,2.99205 0,1.97404 -0.63562,2.98689 -0.63045,1.01286 -1.86551,1.01286 -1.23506,0 -1.86551,-1.01286 -0.63045,-1.01285 -0.63045,-2.98689 0,-1.9792 0.63045,-2.99205 0.63045,-1.01286 1.86551,-1.01286 z"
         style="font-size:medium;font-family:monospace;-inkscape-font-specification:monospace"
         id="path159546" />
      <path
         d="m 185.68126,106.50692 q 0,-0.28422 0.19636,-0.49093 0.20154,-0.2067 0.48059,-0.2067 0.28939,0 0.4961,0.2067 0.2067,0.20671 0.2067,0.49093 0,0.28938 -0.2067,0.49092 -0.20154,0.20154 -0.4961,0.20154 -0.28938,0 -0.48575,-0.19637 -0.1912,-0.19637 -0.1912,-0.49609 z m 0.68729,-3.15226 q -0.72864,0 -1.09037,0.78548 -0.35657,0.78548 -0.35657,2.39261 0,1.60197 0.35657,2.38745 0.36173,0.78548 1.09037,0.78548 0.7338,0 1.09037,-0.78548 0.36173,-0.78548 0.36173,-2.38745 0,-1.60713 -0.36173,-2.39261 -0.35657,-0.78548 -1.09037,-0.78548 z m 0,-0.82682 q 1.23506,0 1.86551,1.01286 0.63562,1.01285 0.63562,2.99205 0,1.97404 -0.63562,2.98689 -0.63045,1.01286 -1.86551,1.01286 -1.23506,0 -1.86551,-1.01286 -0.63045,-1.01285 -0.63045,-2.98689 0,-1.9792 0.63045,-2.99205 0.63045,-1.01286 1.86551,-1.01286 z"
         style="font-size:medium;font-family:monospace;-inkscape-font-specification:monospace"
         id="path159548" />
      <path
         d="m 192.63687,106.96167 q 0.66662,0 1.04386,-0.48059 0.38241,-0.48059 0.38241,-1.32808 0,-0.84749 -0.38241,-1.32808 -0.37724,-0.48059 -1.04386,-0.48059 -0.69246,0 -1.04386,0.45992 -0.3514,0.45475 -0.3514,1.34875 0,0.89916 0.34623,1.35392 0.3514,0.45475 1.04903,0.45475 z m -1.86035,3.26077 v -0.96118 q 0.32557,0.1912 0.69247,0.29456 0.3669,0.0982 0.76481,0.0982 0.99218,0 1.49861,-0.74414 0.51159,-0.7493 0.51159,-2.20141 -0.24288,0.51677 -0.68212,0.79582 -0.43925,0.27388 -1.00769,0.27388 -1.11621,0 -1.73116,-0.68729 -0.60978,-0.6873 -0.60978,-1.9482 0,-1.2454 0.62529,-1.92752 0.63045,-0.6873 1.77766,-0.6873 1.34358,0 1.96887,0.96635 0.62528,0.96635 0.62528,3.03856 0,1.9482 -0.75447,2.97656 -0.74931,1.02319 -2.18074,1.02319 -0.37724,0 -0.75964,-0.0827 -0.38241,-0.0775 -0.73898,-0.22737 z"
         style="font-size:medium;font-family:monospace;-inkscape-font-specification:monospace"
         id="path159550" />
    </g>
  </g>
</svg>
