<?xml version="1.0" encoding="UTF-8" standalone="no"?>
<!-- Created with Inkscape (http://www.inkscape.org/) -->

<svg
   width="241.43668mm"
   height="8.0046539mm"
   viewBox="0 0 241.43668 8.0046539"
   version="1.1"
   id="svg159671"
   inkscape:version="1.2-dev (9a006c9b6a, 2021-07-31)"
   sodipodi:docname="15_quickselect_4.svg"
   xmlns:inkscape="http://www.inkscape.org/namespaces/inkscape"
   xmlns:sodipodi="http://sodipodi.sourceforge.net/DTD/sodipodi-0.dtd"
   xmlns="http://www.w3.org/2000/svg"
   xmlns:svg="http://www.w3.org/2000/svg">
  <sodipodi:namedview
     id="namedview159673"
     pagecolor="#505050"
     bordercolor="#ffffff"
     borderopacity="1"
     inkscape:pageshadow="0"
     inkscape:pageopacity="0"
     inkscape:pagecheckerboard="1"
     inkscape:document-units="mm"
     showgrid="false"
     inkscape:zoom="0.77058782"
     inkscape:cx="362.06126"
     inkscape:cy="198.54972"
     inkscape:window-width="1920"
     inkscape:window-height="1011"
     inkscape:window-x="1920"
     inkscape:window-y="32"
     inkscape:window-maximized="1"
     inkscape:current-layer="layer1" />
  <defs
     id="defs159668" />
  <g
     inkscape:label="Layer 1"
     inkscape:groupmode="layer"
     id="layer1"
     transform="translate(-13.875881,-72.565303)">
    <g
       aria-label="
05 01 04 03 00 02 07 06                "
       id="text989378"
       style="font-size:10.5833px;line-height:1.25;stroke-width:0.264583">
      <path
         d="m 15.68455,76.544376 q 0,-0.28422 0.19637,-0.490925 0.201537,-0.206705 0.480589,-0.206705 0.289387,0 0.496092,0.206705 0.206705,0.206705 0.206705,0.490925 0,0.289387 -0.206705,0.490924 -0.201537,0.201538 -0.496092,0.201538 -0.289387,0 -0.485757,-0.19637 -0.191202,-0.19637 -0.191202,-0.496092 z m 0.687294,-3.152252 q -0.728635,0 -1.090369,0.785479 -0.356566,0.785479 -0.356566,2.392611 0,1.601964 0.356566,2.387444 0.361734,0.785479 1.090369,0.785479 0.733803,0 1.09037,-0.785479 0.361733,-0.78548 0.361733,-2.387444 0,-1.607132 -0.361733,-2.392611 -0.356567,-0.785479 -1.09037,-0.785479 z m 0,-0.826821 q 1.235063,0 1.865514,1.012855 0.635618,1.012855 0.635618,2.992056 0,1.974033 -0.635618,2.986888 -0.630451,1.012855 -1.865514,1.012855 -1.235062,0 -1.865513,-1.012855 -0.63045,-1.012855 -0.63045,-2.986888 0,-1.979201 0.63045,-2.992056 0.630451,-1.012855 1.865513,-1.012855 z"
         style="font-size:medium;font-family:monospace;-inkscape-font-specification:monospace"
         id="path159753" />
      <path
         d="m 20.629969,72.704829 h 3.906725 v 0.878497 h -2.955882 v 1.896519 q 0.222208,-0.08268 0.444416,-0.118856 0.227375,-0.04134 0.454751,-0.04134 1.198889,0 1.901687,0.707965 0.702797,0.707965 0.702797,1.91719 0,1.21956 -0.738971,1.922357 -0.733803,0.702797 -2.010207,0.702797 -0.614947,0 -1.126542,-0.08268 -0.506428,-0.08268 -0.909503,-0.248046 v -1.059364 q 0.475422,0.258382 0.956011,0.387573 0.48059,0.124023 0.98185,0.124023 0.862993,0 1.32808,-0.454752 0.470254,-0.454751 0.470254,-1.291906 0,-0.826821 -0.485757,-1.286739 -0.48059,-0.459919 -1.343583,-0.459919 -0.418578,0 -0.816485,0.09819 -0.397908,0.09302 -0.759641,0.284219 z"
         style="font-size:medium;font-family:monospace;-inkscape-font-specification:monospace"
         id="path159755" />
      <path
         d="m 34.799601,76.544376 q 0,-0.28422 0.19637,-0.490925 0.201537,-0.206705 0.480589,-0.206705 0.289387,0 0.496093,0.206705 0.206705,0.206705 0.206705,0.490925 0,0.289387 -0.206705,0.490924 -0.201538,0.201538 -0.496093,0.201538 -0.289387,0 -0.485757,-0.19637 -0.191202,-0.19637 -0.191202,-0.496092 z m 0.687295,-3.152252 q -0.728636,0 -1.09037,0.785479 -0.356566,0.785479 -0.356566,2.392611 0,1.601964 0.356566,2.387444 0.361734,0.785479 1.09037,0.785479 0.733803,0 1.090369,-0.785479 0.361734,-0.78548 0.361734,-2.387444 0,-1.607132 -0.361734,-2.392611 -0.356566,-0.785479 -1.090369,-0.785479 z m 0,-0.826821 q 1.235062,0 1.865513,1.012855 0.635618,1.012855 0.635618,2.992056 0,1.974033 -0.635618,2.986888 -0.630451,1.012855 -1.865513,1.012855 -1.235063,0 -1.865514,-1.012855 -0.63045,-1.012855 -0.63045,-2.986888 0,-1.979201 0.63045,-2.992056 0.630451,-1.012855 1.865514,-1.012855 z"
         style="font-size:medium;font-family:monospace;-inkscape-font-specification:monospace"
         id="path159757" />
      <path
         d="m 40.07058,79.541599 h 1.622635 v -5.896262 l -1.746658,0.39274 v -0.950843 l 1.736322,-0.382405 h 1.043861 v 6.83677 h 1.601964 v 0.878497 H 40.07058 Z"
         style="font-size:medium;font-family:monospace;-inkscape-font-specification:monospace"
         id="path159759" />
      <path
         d="m 53.914653,76.544376 q 0,-0.28422 0.196369,-0.490925 0.201538,-0.206705 0.48059,-0.206705 0.289387,0 0.496092,0.206705 0.206705,0.206705 0.206705,0.490925 0,0.289387 -0.206705,0.490924 -0.201538,0.201538 -0.496092,0.201538 -0.289387,0 -0.485757,-0.19637 -0.191202,-0.19637 -0.191202,-0.496092 z m 0.687294,-3.152252 q -0.728636,0 -1.090369,0.785479 -0.356567,0.785479 -0.356567,2.392611 0,1.601964 0.356567,2.387444 0.361733,0.785479 1.090369,0.785479 0.733803,0 1.090369,-0.785479 0.361734,-0.78548 0.361734,-2.387444 0,-1.607132 -0.361734,-2.392611 -0.356566,-0.785479 -1.090369,-0.785479 z m 0,-0.826821 q 1.235063,0 1.865513,1.012855 0.635618,1.012855 0.635618,2.992056 0,1.974033 -0.635618,2.986888 -0.63045,1.012855 -1.865513,1.012855 -1.235063,0 -1.865513,-1.012855 -0.630451,-1.012855 -0.630451,-2.986888 0,-1.979201 0.630451,-2.992056 0.63045,-1.012855 1.865513,-1.012855 z"
         style="font-size:medium;font-family:monospace;-inkscape-font-specification:monospace"
         id="path159761" />
      <path
         d="m 61.588576,73.655672 -2.433953,4.077258 h 2.433953 z m -0.170532,-0.950843 h 1.209225 v 5.028101 h 1.028357 v 0.847491 h -1.028357 v 1.839675 h -1.038693 v -1.839675 h -3.271108 v -0.987017 z"
         style="font-size:medium;font-family:monospace;-inkscape-font-specification:monospace"
         id="path159763" />
      <path
         d="m 73.029704,76.544376 q 0,-0.28422 0.19637,-0.490925 0.201537,-0.206705 0.480589,-0.206705 0.289387,0 0.496092,0.206705 0.206705,0.206705 0.206705,0.490925 0,0.289387 -0.206705,0.490924 -0.201537,0.201538 -0.496092,0.201538 -0.289387,0 -0.485757,-0.19637 -0.191202,-0.19637 -0.191202,-0.496092 z m 0.687294,-3.152252 q -0.728635,0 -1.090369,0.785479 -0.356566,0.785479 -0.356566,2.392611 0,1.601964 0.356566,2.387444 0.361734,0.785479 1.090369,0.785479 0.733803,0 1.090369,-0.785479 0.361734,-0.78548 0.361734,-2.387444 0,-1.607132 -0.361734,-2.392611 -0.356566,-0.785479 -1.090369,-0.785479 z m 0,-0.826821 q 1.235063,0 1.865513,1.012855 0.635618,1.012855 0.635618,2.992056 0,1.974033 -0.635618,2.986888 -0.63045,1.012855 -1.865513,1.012855 -1.235063,0 -1.865513,-1.012855 -0.630451,-1.012855 -0.630451,-2.986888 0,-1.979201 0.630451,-2.992056 0.63045,-1.012855 1.865513,-1.012855 z"
         style="font-size:medium;font-family:monospace;-inkscape-font-specification:monospace"
         id="path159765" />
      <path
         d="m 80.9155,76.291162 q 0.759641,0.201538 1.162716,0.7183 0.403075,0.511595 0.403075,1.281572 0,1.064531 -0.718301,1.674311 -0.713132,0.604612 -1.979201,0.604612 -0.532265,0 -1.085201,-0.09819 -0.552936,-0.09819 -1.085202,-0.284219 V 79.14886 q 0.527098,0.273884 1.038693,0.408242 0.511595,0.134359 1.018023,0.134359 0.857826,0 1.317744,-0.387572 0.459919,-0.387572 0.459919,-1.116208 0,-0.671791 -0.459919,-1.064531 -0.459918,-0.397907 -1.245398,-0.397907 h -0.795814 v -0.857826 h 0.795814 q 0.7183,0 1.121375,-0.315226 0.403075,-0.315225 0.403075,-0.878496 0,-0.594277 -0.377236,-0.909502 -0.37207,-0.320393 -1.064532,-0.320393 -0.459918,0 -0.950843,0.103352 -0.490924,0.103353 -1.028358,0.310058 v -0.961179 q 0.625283,-0.165364 1.11104,-0.248046 0.490925,-0.08268 0.868161,-0.08268 1.126543,0 1.798335,0.568439 0.676959,0.563271 0.676959,1.498612 0,0.635618 -0.356567,1.059363 -0.351398,0.423746 -1.028357,0.599445 z"
         style="font-size:medium;font-family:monospace;-inkscape-font-specification:monospace"
         id="path159767" />
      <path
         d="m 92.144755,76.544376 q 0,-0.28422 0.19637,-0.490925 0.201537,-0.206705 0.480589,-0.206705 0.289387,0 0.496092,0.206705 0.206705,0.206705 0.206705,0.490925 0,0.289387 -0.206705,0.490924 -0.201537,0.201538 -0.496092,0.201538 -0.289387,0 -0.485757,-0.19637 -0.191202,-0.19637 -0.191202,-0.496092 z m 0.687294,-3.152252 q -0.728635,0 -1.090369,0.785479 -0.356566,0.785479 -0.356566,2.392611 0,1.601964 0.356566,2.387444 0.361734,0.785479 1.090369,0.785479 0.733803,0 1.09037,-0.785479 0.361734,-0.78548 0.361734,-2.387444 0,-1.607132 -0.361734,-2.392611 -0.356567,-0.785479 -1.09037,-0.785479 z m 0,-0.826821 q 1.235063,0 1.865514,1.012855 0.635618,1.012855 0.635618,2.992056 0,1.974033 -0.635618,2.986888 -0.630451,1.012855 -1.865514,1.012855 -1.235062,0 -1.865513,-1.012855 -0.63045,-1.012855 -0.63045,-2.986888 0,-1.979201 0.63045,-2.992056 0.630451,-1.012855 1.865513,-1.012855 z"
         style="font-size:medium;font-family:monospace;-inkscape-font-specification:monospace"
         id="path159769" />
      <path
         d="m 98.516436,76.544376 q 0,-0.28422 0.19637,-0.490925 0.201538,-0.206705 0.480589,-0.206705 0.289387,0 0.496093,0.206705 0.206705,0.206705 0.206705,0.490925 0,0.289387 -0.206705,0.490924 -0.201538,0.201538 -0.496093,0.201538 -0.289387,0 -0.485757,-0.19637 -0.191202,-0.19637 -0.191202,-0.496092 z m 0.687295,-3.152252 q -0.728636,0 -1.09037,0.785479 -0.356566,0.785479 -0.356566,2.392611 0,1.601964 0.356566,2.387444 0.361734,0.785479 1.09037,0.785479 0.733803,0 1.090369,-0.785479 0.36173,-0.78548 0.36173,-2.387444 0,-1.607132 -0.36173,-2.392611 -0.356566,-0.785479 -1.090369,-0.785479 z m 0,-0.826821 q 1.235059,0 1.865509,1.012855 0.63562,1.012855 0.63562,2.992056 0,1.974033 -0.63562,2.986888 -0.63045,1.012855 -1.865509,1.012855 -1.235063,0 -1.865514,-1.012855 -0.63045,-1.012855 -0.63045,-2.986888 0,-1.979201 0.63045,-2.992056 0.630451,-1.012855 1.865514,-1.012855 z"
         style="font-size:medium;font-family:monospace;-inkscape-font-specification:monospace"
         id="path159771" />
      <path
         d="m 111.25981,76.544376 q 0,-0.28422 0.19637,-0.490925 0.20153,-0.206705 0.48059,-0.206705 0.28938,0 0.49609,0.206705 0.2067,0.206705 0.2067,0.490925 0,0.289387 -0.2067,0.490924 -0.20154,0.201538 -0.49609,0.201538 -0.28939,0 -0.48576,-0.19637 -0.1912,-0.19637 -0.1912,-0.496092 z m 0.68729,-3.152252 q -0.72863,0 -1.09037,0.785479 -0.35656,0.785479 -0.35656,2.392611 0,1.601964 0.35656,2.387444 0.36174,0.785479 1.09037,0.785479 0.7338,0 1.09037,-0.785479 0.36173,-0.78548 0.36173,-2.387444 0,-1.607132 -0.36173,-2.392611 -0.35657,-0.785479 -1.09037,-0.785479 z m 0,-0.826821 q 1.23506,0 1.86551,1.012855 0.63562,1.012855 0.63562,2.992056 0,1.974033 -0.63562,2.986888 -0.63045,1.012855 -1.86551,1.012855 -1.23506,0 -1.86551,-1.012855 -0.63045,-1.012855 -0.63045,-2.986888 0,-1.979201 0.63045,-2.992056 0.63045,-1.012855 1.86551,-1.012855 z"
         style="font-size:medium;font-family:monospace;-inkscape-font-specification:monospace"
         id="path159773" />
      <path
         d="m 117.06305,79.541599 h 3.54499 v 0.878497 H 115.921 v -0.878497 q 0.96635,-1.018022 1.68982,-1.798334 0.72346,-0.780311 0.99735,-1.100704 0.51676,-0.630451 0.69763,-1.018023 0.18087,-0.392739 0.18087,-0.800982 0,-0.645953 -0.38241,-1.012855 -0.37724,-0.366901 -1.03869,-0.366901 -0.47026,0 -0.98702,0.170531 -0.51676,0.170532 -1.09554,0.516763 v -1.054196 q 0.53227,-0.253213 1.04387,-0.382404 0.51676,-0.129191 1.01802,-0.129191 1.13171,0 1.819,0.604613 0.69246,0.599444 0.69246,1.576126 0,0.496092 -0.23254,0.992184 -0.22737,0.496092 -0.74414,1.095537 -0.28938,0.335896 -0.84232,0.930173 -0.54777,0.594277 -1.67431,1.777663 z"
         style="font-size:medium;font-family:monospace;-inkscape-font-specification:monospace"
         id="path159775" />
      <path
         d="m 130.37486,76.544376 q 0,-0.28422 0.19637,-0.490925 0.20153,-0.206705 0.48059,-0.206705 0.28938,0 0.49609,0.206705 0.2067,0.206705 0.2067,0.490925 0,0.289387 -0.2067,0.490924 -0.20154,0.201538 -0.49609,0.201538 -0.28939,0 -0.48576,-0.19637 -0.1912,-0.19637 -0.1912,-0.496092 z m 0.68729,-3.152252 q -0.72863,0 -1.09037,0.785479 -0.35656,0.785479 -0.35656,2.392611 0,1.601964 0.35656,2.387444 0.36174,0.785479 1.09037,0.785479 0.7338,0 1.09037,-0.785479 0.36174,-0.78548 0.36174,-2.387444 0,-1.607132 -0.36174,-2.392611 -0.35657,-0.785479 -1.09037,-0.785479 z m 0,-0.826821 q 1.23506,0 1.86552,1.012855 0.63561,1.012855 0.63561,2.992056 0,1.974033 -0.63561,2.986888 -0.63046,1.012855 -1.86552,1.012855 -1.23506,0 -1.86551,-1.012855 -0.63045,-1.012855 -0.63045,-2.986888 0,-1.979201 0.63045,-2.992056 0.63045,-1.012855 1.86551,-1.012855 z"
         style="font-size:medium;font-family:monospace;-inkscape-font-specification:monospace"
         id="path159777" />
      <path
         d="m 134.96888,72.704829 h 4.85756 v 0.444416 l -2.75951,7.270851 h -1.09037 l 2.68717,-6.83677 h -3.69485 z"
         style="font-size:medium;font-family:monospace;-inkscape-font-specification:monospace"
         id="path159779" />
      <path
         d="m 149.48991,76.544376 q 0,-0.28422 0.19637,-0.490925 0.20154,-0.206705 0.48059,-0.206705 0.28939,0 0.49609,0.206705 0.20671,0.206705 0.20671,0.490925 0,0.289387 -0.20671,0.490924 -0.20154,0.201538 -0.49609,0.201538 -0.28939,0 -0.48576,-0.19637 -0.1912,-0.19637 -0.1912,-0.496092 z m 0.68729,-3.152252 q -0.72863,0 -1.09037,0.785479 -0.35656,0.785479 -0.35656,2.392611 0,1.601964 0.35656,2.387444 0.36174,0.785479 1.09037,0.785479 0.73381,0 1.09037,-0.785479 0.36174,-0.78548 0.36174,-2.387444 0,-1.607132 -0.36174,-2.392611 -0.35656,-0.785479 -1.09037,-0.785479 z m 0,-0.826821 q 1.23507,0 1.86552,1.012855 0.63561,1.012855 0.63561,2.992056 0,1.974033 -0.63561,2.986888 -0.63045,1.012855 -1.86552,1.012855 -1.23506,0 -1.86551,-1.012855 -0.63045,-1.012855 -0.63045,-2.986888 0,-1.979201 0.63045,-2.992056 0.63045,-1.012855 1.86551,-1.012855 z"
         style="font-size:medium;font-family:monospace;-inkscape-font-specification:monospace"
         id="path159781" />
      <path
         d="m 158.48674,72.875361 v 0.961178 q -0.32556,-0.191202 -0.69247,-0.289387 -0.3669,-0.103352 -0.7648,-0.103352 -0.99219,0 -1.50378,0.749306 -0.5116,0.744138 -0.5116,2.196241 0.24805,-0.516763 0.6873,-0.790647 0.43924,-0.279052 1.00768,-0.279052 1.11621,0 1.72599,0.687295 0.61495,0.682126 0.61495,1.93786 0,1.250565 -0.63045,1.93786 -0.63045,0.687294 -1.7725,0.687294 -1.34358,0 -1.96886,-0.961178 -0.62529,-0.966347 -0.62529,-3.038565 0,-1.953363 0.74931,-2.976553 0.75447,-1.028358 2.18074,-1.028358 0.3824,0 0.76481,0.08268 0.3824,0.07751 0.73897,0.227376 z m -1.86035,3.260772 q -0.66662,0 -1.04903,0.48059 -0.3824,0.480589 -0.3824,1.32808 0,0.84749 0.3824,1.32808 0.38241,0.480589 1.04903,0.480589 0.69246,0 1.04386,-0.454751 0.3514,-0.459919 0.3514,-1.353918 0,-0.899167 -0.3514,-1.353919 -0.3514,-0.454751 -1.04386,-0.454751 z"
         style="font-size:medium;font-family:monospace;-inkscape-font-specification:monospace"
         id="path159783" />
    </g>
  </g>
</svg>
