<?xml version="1.0" encoding="UTF-8" standalone="no"?>
<!-- Created with Inkscape (http://www.inkscape.org/) -->

<svg
   width="242.12398mm"
   height="21.233778mm"
   viewBox="0 0 242.12398 21.233778"
   version="1.1"
   id="svg159898"
   inkscape:version="1.2-dev (9a006c9b6a, 2021-07-31)"
   sodipodi:docname="16_quickselect_5.svg"
   xmlns:inkscape="http://www.inkscape.org/namespaces/inkscape"
   xmlns:sodipodi="http://sodipodi.sourceforge.net/DTD/sodipodi-0.dtd"
   xmlns="http://www.w3.org/2000/svg"
   xmlns:svg="http://www.w3.org/2000/svg">
  <sodipodi:namedview
     id="namedview159900"
     pagecolor="#505050"
     bordercolor="#ffffff"
     borderopacity="1"
     inkscape:pageshadow="0"
     inkscape:pageopacity="0"
     inkscape:pagecheckerboard="1"
     inkscape:document-units="mm"
     showgrid="false"
     inkscape:zoom="0.77058782"
     inkscape:cx="459.38956"
     inkscape:cy="145.34359"
     inkscape:window-width="1920"
     inkscape:window-height="1011"
     inkscape:window-x="1920"
     inkscape:window-y="32"
     inkscape:window-maximized="1"
     inkscape:current-layer="layer1" />
  <defs
     id="defs159895" />
  <g
     inkscape:label="Layer 1"
     inkscape:groupmode="layer"
     id="layer1"
     transform="translate(16.339443,-110.24323)">
    <g
       aria-label="
         03
05 01 04    00 02 07 06                "
       id="text998067"
       style="font-size:10.5833px;line-height:1.25;stroke-width:0.264583">
      <path
         d="m 43.501674,114.2223 q 0,-0.28422 0.19637,-0.49092 0.201538,-0.20671 0.480589,-0.20671 0.289388,0 0.496093,0.20671 0.206705,0.2067 0.206705,0.49092 0,0.28939 -0.206705,0.49093 -0.201538,0.20153 -0.496093,0.20153 -0.289387,0 -0.485756,-0.19637 -0.191203,-0.19637 -0.191203,-0.49609 z m 0.687295,-3.15225 q -0.728636,0 -1.09037,0.78548 -0.356566,0.78548 -0.356566,2.39261 0,1.60196 0.356566,2.38744 0.361734,0.78548 1.09037,0.78548 0.733803,0 1.090369,-0.78548 0.361734,-0.78548 0.361734,-2.38744 0,-1.60713 -0.361734,-2.39261 -0.356566,-0.78548 -1.090369,-0.78548 z m 0,-0.82682 q 1.235062,0 1.865513,1.01285 0.635618,1.01286 0.635618,2.99206 0,1.97403 -0.635618,2.98689 -0.630451,1.01285 -1.865513,1.01285 -1.235063,0 -1.865514,-1.01285 -0.63045,-1.01286 -0.63045,-2.98689 0,-1.9792 0.63045,-2.99206 0.630451,-1.01285 1.865514,-1.01285 z"
         style="font-size:medium;font-family:monospace;-inkscape-font-specification:monospace;fill:#ff0000"
         id="path159988" />
      <path
         d="m 51.38747,113.96909 q 0.759641,0.20153 1.162716,0.7183 0.403075,0.51159 0.403075,1.28157 0,1.06453 -0.7183,1.67431 -0.713133,0.60461 -1.979201,0.60461 -0.532266,0 -1.085202,-0.0982 -0.552936,-0.0982 -1.085201,-0.28422 v -1.0387 q 0.527098,0.27389 1.038693,0.40825 0.511595,0.13436 1.018022,0.13436 0.857826,0 1.317745,-0.38758 0.459919,-0.38757 0.459919,-1.1162 0,-0.6718 -0.459919,-1.06453 -0.459919,-0.39791 -1.245398,-0.39791 h -0.795815 v -0.85783 h 0.795815 q 0.7183,0 1.121375,-0.31522 0.403075,-0.31523 0.403075,-0.8785 0,-0.59428 -0.377237,-0.9095 -0.372069,-0.3204 -1.064531,-0.3204 -0.459919,0 -0.950843,0.10336 -0.490925,0.10335 -1.028358,0.31006 v -0.96118 q 0.625283,-0.16537 1.11104,-0.24805 0.490924,-0.0827 0.868161,-0.0827 1.126543,0 1.798334,0.56844 0.676959,0.56327 0.676959,1.49861 0,0.63562 -0.356566,1.05936 -0.351399,0.42375 -1.028358,0.59945 z"
         style="font-size:medium;font-family:monospace;-inkscape-font-specification:monospace;fill:#ff0000"
         id="path159990" />
      <path
         d="m -13.843479,127.45143 q 0,-0.28422 0.196369,-0.49093 0.201538,-0.2067 0.48059,-0.2067 0.289387,0 0.496092,0.2067 0.206705,0.20671 0.206705,0.49093 0,0.28938 -0.206705,0.49092 -0.201538,0.20154 -0.496092,0.20154 -0.289387,0 -0.485757,-0.19637 -0.191202,-0.19637 -0.191202,-0.49609 z m 0.687294,-3.15226 q -0.728635,0 -1.090369,0.78548 -0.356567,0.78548 -0.356567,2.39261 0,1.60197 0.356567,2.38745 0.361734,0.78548 1.090369,0.78548 0.733803,0 1.090369,-0.78548 0.361734,-0.78548 0.361734,-2.38745 0,-1.60713 -0.361734,-2.39261 -0.356566,-0.78548 -1.090369,-0.78548 z m 0,-0.82682 q 1.235063,0 1.865513,1.01286 0.635618,1.01285 0.635618,2.99205 0,1.97404 -0.635618,2.98689 -0.63045,1.01286 -1.865513,1.01286 -1.235063,0 -1.865513,-1.01286 -0.630451,-1.01285 -0.630451,-2.98689 0,-1.9792 0.630451,-2.99205 0.63045,-1.01286 1.865513,-1.01286 z"
         style="font-size:medium;font-family:monospace;-inkscape-font-specification:monospace"
         id="path159992" />
      <path
         d="m -8.8980609,123.61188 h 3.9067259 v 0.8785 h -2.9558825 v 1.89651 q 0.2222079,-0.0827 0.4444159,-0.11885 0.2273755,-0.0413 0.4547511,-0.0413 1.1988894,0 1.9016867,0.70796 0.7027972,0.70797 0.7027972,1.91719 0,1.21956 -0.7389706,1.92236 -0.733803,0.7028 -2.0102068,0.7028 -0.6149476,0 -1.1265427,-0.0827 -0.5064274,-0.0827 -0.9095023,-0.24804 v -1.05936 q 0.4754217,0.25838 0.956011,0.38757 0.4805893,0.12402 0.9818491,0.12402 0.8629936,0 1.32808,-0.45475 0.4702541,-0.45475 0.4702541,-1.29191 0,-0.82682 -0.4857569,-1.28674 -0.4805893,-0.45992 -1.343583,-0.45992 -0.4185778,0 -0.816485,0.0982 -0.3979073,0.093 -0.7596412,0.28422 z"
         style="font-size:medium;font-family:monospace;-inkscape-font-specification:monospace"
         id="path159994" />
      <path
         d="m 5.2715718,127.45143 q 0,-0.28422 0.1963698,-0.49093 0.2015375,-0.2067 0.4805893,-0.2067 0.2893871,0 0.4960922,0.2067 0.206705,0.20671 0.206705,0.49093 0,0.28938 -0.206705,0.49092 -0.2015375,0.20154 -0.4960922,0.20154 -0.2893871,0 -0.4857569,-0.19637 -0.1912022,-0.19637 -0.1912022,-0.49609 z m 0.6872944,-3.15226 q -0.7286354,0 -1.0903693,0.78548 -0.3565662,0.78548 -0.3565662,2.39261 0,1.60197 0.3565662,2.38745 0.3617339,0.78548 1.0903693,0.78548 0.733803,0 1.0903692,-0.78548 0.3617339,-0.78548 0.3617339,-2.38745 0,-1.60713 -0.3617339,-2.39261 -0.3565662,-0.78548 -1.0903692,-0.78548 z m 0,-0.82682 q 1.2350628,0 1.8655132,1.01286 0.6356181,1.01285 0.6356181,2.99205 0,1.97404 -0.6356181,2.98689 -0.6304504,1.01286 -1.8655132,1.01286 -1.2350628,0 -1.8655133,-1.01286 -0.6304505,-1.01285 -0.6304505,-2.98689 0,-1.9792 0.6304505,-2.99205 0.6304505,-1.01286 1.8655133,-1.01286 z"
         style="font-size:medium;font-family:monospace;-inkscape-font-specification:monospace"
         id="path159996" />
      <path
         d="m 10.54255,130.44865 h 1.622635 v -5.89626 l -1.746658,0.39274 v -0.95085 l 1.736323,-0.3824 h 1.043861 v 6.83677 h 1.601964 v 0.8785 H 10.54255 Z"
         style="font-size:medium;font-family:monospace;-inkscape-font-specification:monospace"
         id="path159998" />
      <path
         d="m 24.386623,127.45143 q 0,-0.28422 0.19637,-0.49093 0.201537,-0.2067 0.480589,-0.2067 0.289387,0 0.496092,0.2067 0.206705,0.20671 0.206705,0.49093 0,0.28938 -0.206705,0.49092 -0.201537,0.20154 -0.496092,0.20154 -0.289387,0 -0.485757,-0.19637 -0.191202,-0.19637 -0.191202,-0.49609 z m 0.687294,-3.15226 q -0.728635,0 -1.090369,0.78548 -0.356566,0.78548 -0.356566,2.39261 0,1.60197 0.356566,2.38745 0.361734,0.78548 1.090369,0.78548 0.733803,0 1.09037,-0.78548 0.361734,-0.78548 0.361734,-2.38745 0,-1.60713 -0.361734,-2.39261 -0.356567,-0.78548 -1.09037,-0.78548 z m 0,-0.82682 q 1.235063,0 1.865514,1.01286 0.635618,1.01285 0.635618,2.99205 0,1.97404 -0.635618,2.98689 -0.630451,1.01286 -1.865514,1.01286 -1.235062,0 -1.865513,-1.01286 -0.63045,-1.01285 -0.63045,-2.98689 0,-1.9792 0.63045,-2.99205 0.630451,-1.01286 1.865513,-1.01286 z"
         style="font-size:medium;font-family:monospace;-inkscape-font-specification:monospace"
         id="path160000" />
      <path
         d="m 32.060546,124.56272 -2.433952,4.07726 h 2.433952 z m -0.170531,-0.95084 h 1.209224 v 5.0281 h 1.028358 v 0.84749 h -1.028358 v 1.83968 h -1.038693 v -1.83968 h -3.271108 v -0.98702 z"
         style="font-size:medium;font-family:monospace;-inkscape-font-specification:monospace"
         id="path160002" />
      <path
         d="m 62.616726,127.45143 q 0,-0.28422 0.196369,-0.49093 0.201538,-0.2067 0.48059,-0.2067 0.289387,0 0.496092,0.2067 0.206705,0.20671 0.206705,0.49093 0,0.28938 -0.206705,0.49092 -0.201538,0.20154 -0.496092,0.20154 -0.289387,0 -0.485757,-0.19637 -0.191202,-0.19637 -0.191202,-0.49609 z m 0.687294,-3.15226 q -0.728635,0 -1.090369,0.78548 -0.356567,0.78548 -0.356567,2.39261 0,1.60197 0.356567,2.38745 0.361734,0.78548 1.090369,0.78548 0.733803,0 1.090369,-0.78548 0.361734,-0.78548 0.361734,-2.38745 0,-1.60713 -0.361734,-2.39261 -0.356566,-0.78548 -1.090369,-0.78548 z m 0,-0.82682 q 1.235063,0 1.865513,1.01286 0.635618,1.01285 0.635618,2.99205 0,1.97404 -0.635618,2.98689 -0.63045,1.01286 -1.865513,1.01286 -1.235063,0 -1.865513,-1.01286 -0.630451,-1.01285 -0.630451,-2.98689 0,-1.9792 0.630451,-2.99205 0.63045,-1.01286 1.865513,-1.01286 z"
         style="font-size:medium;font-family:monospace;-inkscape-font-specification:monospace"
         id="path160004" />
      <path
         d="m 68.988407,127.45143 q 0,-0.28422 0.19637,-0.49093 0.201537,-0.2067 0.480589,-0.2067 0.289387,0 0.496092,0.2067 0.206705,0.20671 0.206705,0.49093 0,0.28938 -0.206705,0.49092 -0.201537,0.20154 -0.496092,0.20154 -0.289387,0 -0.485757,-0.19637 -0.191202,-0.19637 -0.191202,-0.49609 z m 0.687294,-3.15226 q -0.728635,0 -1.090369,0.78548 -0.356566,0.78548 -0.356566,2.39261 0,1.60197 0.356566,2.38745 0.361734,0.78548 1.090369,0.78548 0.733803,0 1.090369,-0.78548 0.361734,-0.78548 0.361734,-2.38745 0,-1.60713 -0.361734,-2.39261 -0.356566,-0.78548 -1.090369,-0.78548 z m 0,-0.82682 q 1.235063,0 1.865513,1.01286 0.635619,1.01285 0.635619,2.99205 0,1.97404 -0.635619,2.98689 -0.63045,1.01286 -1.865513,1.01286 -1.235063,0 -1.865513,-1.01286 -0.630451,-1.01285 -0.630451,-2.98689 0,-1.9792 0.630451,-2.99205 0.63045,-1.01286 1.865513,-1.01286 z"
         style="font-size:medium;font-family:monospace;-inkscape-font-specification:monospace"
         id="path160006" />
      <path
         d="m 81.731777,127.45143 q 0,-0.28422 0.19637,-0.49093 0.201537,-0.2067 0.480589,-0.2067 0.289387,0 0.496092,0.2067 0.206705,0.20671 0.206705,0.49093 0,0.28938 -0.206705,0.49092 -0.201537,0.20154 -0.496092,0.20154 -0.289387,0 -0.485757,-0.19637 -0.191202,-0.19637 -0.191202,-0.49609 z m 0.687294,-3.15226 q -0.728635,0 -1.090369,0.78548 -0.356566,0.78548 -0.356566,2.39261 0,1.60197 0.356566,2.38745 0.361734,0.78548 1.090369,0.78548 0.733803,0 1.090369,-0.78548 0.361734,-0.78548 0.361734,-2.38745 0,-1.60713 -0.361734,-2.39261 -0.356566,-0.78548 -1.090369,-0.78548 z m 0,-0.82682 q 1.235063,0 1.865514,1.01286 0.635618,1.01285 0.635618,2.99205 0,1.97404 -0.635618,2.98689 -0.630451,1.01286 -1.865514,1.01286 -1.235063,0 -1.865513,-1.01286 -0.63045,-1.01285 -0.63045,-2.98689 0,-1.9792 0.63045,-2.99205 0.63045,-1.01286 1.865513,-1.01286 z"
         style="font-size:medium;font-family:monospace;-inkscape-font-specification:monospace"
         id="path160008" />
      <path
         d="m 87.535019,130.44865 h 3.544992 v 0.8785 h -4.687037 v -0.8785 q 0.966346,-1.01802 1.689814,-1.79834 0.723467,-0.78031 0.997352,-1.1007 0.516762,-0.63045 0.697629,-1.01802 0.180867,-0.39274 0.180867,-0.80098 0,-0.64596 -0.382404,-1.01286 -0.377237,-0.3669 -1.038693,-0.3669 -0.470254,0 -0.987017,0.17053 -0.516763,0.17053 -1.095537,0.51676 v -1.05419 q 0.532266,-0.25322 1.043861,-0.38241 0.516762,-0.12919 1.018022,-0.12919 1.13171,0 1.819005,0.60462 0.692462,0.59944 0.692462,1.57612 0,0.49609 -0.232543,0.99219 -0.227376,0.49609 -0.744139,1.09553 -0.289387,0.3359 -0.842323,0.93018 -0.547768,0.59427 -1.674311,1.77766 z"
         style="font-size:medium;font-family:monospace;-inkscape-font-specification:monospace"
         id="path160010" />
      <path
         d="m 100.84683,127.45143 q 0,-0.28422 0.19637,-0.49093 0.20154,-0.2067 0.48059,-0.2067 0.28938,0 0.49609,0.2067 0.2067,0.20671 0.2067,0.49093 0,0.28938 -0.2067,0.49092 -0.20154,0.20154 -0.49609,0.20154 -0.28939,0 -0.48576,-0.19637 -0.1912,-0.19637 -0.1912,-0.49609 z m 0.68729,-3.15226 q -0.72863,0 -1.09037,0.78548 -0.35656,0.78548 -0.35656,2.39261 0,1.60197 0.35656,2.38745 0.36174,0.78548 1.09037,0.78548 0.73381,0 1.09037,-0.78548 0.36174,-0.78548 0.36174,-2.38745 0,-1.60713 -0.36174,-2.39261 -0.35656,-0.78548 -1.09037,-0.78548 z m 0,-0.82682 q 1.23507,0 1.86552,1.01286 0.63561,1.01285 0.63561,2.99205 0,1.97404 -0.63561,2.98689 -0.63045,1.01286 -1.86552,1.01286 -1.23506,0 -1.865511,-1.01286 -0.63045,-1.01285 -0.63045,-2.98689 0,-1.9792 0.63045,-2.99205 0.630451,-1.01286 1.865511,-1.01286 z"
         style="font-size:medium;font-family:monospace;-inkscape-font-specification:monospace"
         id="path160012" />
      <path
         d="m 105.44085,123.61188 h 4.85756 v 0.44441 l -2.75951,7.27086 h -1.09037 l 2.68717,-6.83677 h -3.69485 z"
         style="font-size:medium;font-family:monospace;-inkscape-font-specification:monospace"
         id="path160014" />
      <path
         d="m 119.96188,127.45143 q 0,-0.28422 0.19637,-0.49093 0.20154,-0.2067 0.48059,-0.2067 0.28939,0 0.49609,0.2067 0.20671,0.20671 0.20671,0.49093 0,0.28938 -0.20671,0.49092 -0.20154,0.20154 -0.49609,0.20154 -0.28939,0 -0.48576,-0.19637 -0.1912,-0.19637 -0.1912,-0.49609 z m 0.68729,-3.15226 q -0.72863,0 -1.09037,0.78548 -0.35656,0.78548 -0.35656,2.39261 0,1.60197 0.35656,2.38745 0.36174,0.78548 1.09037,0.78548 0.73381,0 1.09037,-0.78548 0.36174,-0.78548 0.36174,-2.38745 0,-1.60713 -0.36174,-2.39261 -0.35656,-0.78548 -1.09037,-0.78548 z m 0,-0.82682 q 1.23507,0 1.86552,1.01286 0.63562,1.01285 0.63562,2.99205 0,1.97404 -0.63562,2.98689 -0.63045,1.01286 -1.86552,1.01286 -1.23506,0 -1.86551,-1.01286 -0.63045,-1.01285 -0.63045,-2.98689 0,-1.9792 0.63045,-2.99205 0.63045,-1.01286 1.86551,-1.01286 z"
         style="font-size:medium;font-family:monospace;-inkscape-font-specification:monospace"
         id="path160016" />
      <path
         d="m 128.95871,123.78241 v 0.96118 q -0.32556,-0.1912 -0.69246,-0.28939 -0.36691,-0.10335 -0.76481,-0.10335 -0.99219,0 -1.50378,0.74931 -0.5116,0.74413 -0.5116,2.19624 0.24805,-0.51677 0.6873,-0.79065 0.43924,-0.27905 1.00768,-0.27905 1.11621,0 1.72599,0.68729 0.61495,0.68213 0.61495,1.93786 0,1.25057 -0.63045,1.93786 -0.63045,0.6873 -1.7725,0.6873 -1.34358,0 -1.96886,-0.96118 -0.62529,-0.96635 -0.62529,-3.03857 0,-1.95336 0.74931,-2.97655 0.75447,-1.02836 2.18074,-1.02836 0.3824,0 0.76481,0.0827 0.3824,0.0775 0.73897,0.22738 z m -1.86035,3.26077 q -0.66662,0 -1.04903,0.48059 -0.3824,0.48059 -0.3824,1.32808 0,0.84749 0.3824,1.32808 0.38241,0.48059 1.04903,0.48059 0.69246,0 1.04386,-0.45475 0.3514,-0.45992 0.3514,-1.35392 0,-0.89916 -0.3514,-1.35392 -0.3514,-0.45475 -1.04386,-0.45475 z"
         style="font-size:medium;font-family:monospace;-inkscape-font-specification:monospace"
         id="path160018" />
    </g>
  </g>
</svg>
