<?xml version="1.0" encoding="UTF-8" standalone="no"?>
<!-- Created with Inkscape (http://www.inkscape.org/) -->

<svg
   width="242.12398mm"
   height="21.233778mm"
   viewBox="0 0 242.12398 21.233778"
   version="1.1"
   id="svg160133"
   inkscape:version="1.2-dev (9a006c9b6a, 2021-07-31)"
   sodipodi:docname="17_quickselect_6.svg"
   xmlns:inkscape="http://www.inkscape.org/namespaces/inkscape"
   xmlns:sodipodi="http://sodipodi.sourceforge.net/DTD/sodipodi-0.dtd"
   xmlns="http://www.w3.org/2000/svg"
   xmlns:svg="http://www.w3.org/2000/svg">
  <sodipodi:namedview
     id="namedview160135"
     pagecolor="#505050"
     bordercolor="#ffffff"
     borderopacity="1"
     inkscape:pageshadow="0"
     inkscape:pageopacity="0"
     inkscape:pagecheckerboard="1"
     inkscape:document-units="mm"
     showgrid="false"
     inkscape:zoom="0.77058782"
     inkscape:cx="580.07665"
     inkscape:cy="75.267216"
     inkscape:window-width="1920"
     inkscape:window-height="1011"
     inkscape:window-x="1920"
     inkscape:window-y="32"
     inkscape:window-maximized="1"
     inkscape:current-layer="layer1" />
  <defs
     id="defs160130" />
  <g
     inkscape:label="Layer 1"
     inkscape:groupmode="layer"
     id="layer1"
     transform="translate(48.271233,-128.78426)">
    <g
       aria-label="
         03
01 00 02    05 04 07 06                "
       id="text1012809"
       style="font-size:10.5833px;line-height:1.25;stroke-width:0.264583">
      <path
         d="m 11.569885,132.76333 q 0,-0.28422 0.19637,-0.49092 0.201537,-0.20671 0.480589,-0.20671 0.289387,0 0.496092,0.20671 0.206705,0.2067 0.206705,0.49092 0,0.28939 -0.206705,0.49093 -0.201537,0.20153 -0.496092,0.20153 -0.289387,0 -0.485757,-0.19637 -0.191202,-0.19637 -0.191202,-0.49609 z m 0.687294,-3.15225 q -0.728635,0 -1.090369,0.78548 -0.356566,0.78548 -0.356566,2.39261 0,1.60196 0.356566,2.38744 0.361734,0.78548 1.090369,0.78548 0.733803,0 1.09037,-0.78548 0.361733,-0.78548 0.361733,-2.38744 0,-1.60713 -0.361733,-2.39261 -0.356567,-0.78548 -1.09037,-0.78548 z m 0,-0.82682 q 1.235063,0 1.865514,1.01285 0.635618,1.01286 0.635618,2.99206 0,1.97403 -0.635618,2.98689 -0.630451,1.01285 -1.865514,1.01285 -1.235063,0 -1.865513,-1.01285 -0.6304504,-1.01286 -0.6304504,-2.98689 0,-1.9792 0.6304504,-2.99206 0.63045,-1.01285 1.865513,-1.01285 z"
         style="font-size:medium;font-family:monospace;-inkscape-font-specification:monospace;fill:#ff0000"
         id="path160248" />
      <path
         d="m 19.455681,132.51012 q 0.759641,0.20154 1.162716,0.7183 0.403075,0.51159 0.403075,1.28157 0,1.06453 -0.7183,1.67431 -0.713133,0.60461 -1.979201,0.60461 -0.532266,0 -1.085202,-0.0982 -0.552936,-0.0982 -1.085202,-0.28422 v -1.03869 q 0.527098,0.27388 1.038693,0.40824 0.511595,0.13436 1.018023,0.13436 0.857826,0 1.317745,-0.38758 0.459918,-0.38757 0.459918,-1.1162 0,-0.67179 -0.459918,-1.06453 -0.459919,-0.39791 -1.245398,-0.39791 h -0.795815 v -0.85783 h 0.795815 q 0.7183,0 1.121375,-0.31522 0.403074,-0.31523 0.403074,-0.8785 0,-0.59428 -0.377236,-0.9095 -0.372069,-0.32039 -1.064531,-0.32039 -0.459919,0 -0.950844,0.10335 -0.490924,0.10335 -1.028358,0.31006 v -0.96118 q 0.625283,-0.16537 1.11104,-0.24805 0.490925,-0.0827 0.868162,-0.0827 1.126542,0 1.798334,0.56844 0.676959,0.56327 0.676959,1.49861 0,0.63562 -0.356566,1.05936 -0.351399,0.42375 -1.028358,0.59945 z"
         style="font-size:medium;font-family:monospace;-inkscape-font-specification:monospace;fill:#ff0000"
         id="path160250" />
      <path
         d="m -45.775269,145.99246 q 0,-0.28422 0.19637,-0.49093 0.201537,-0.2067 0.480589,-0.2067 0.289387,0 0.496092,0.2067 0.206705,0.20671 0.206705,0.49093 0,0.28938 -0.206705,0.49092 -0.201537,0.20154 -0.496092,0.20154 -0.289387,0 -0.485757,-0.19637 -0.191202,-0.19637 -0.191202,-0.49609 z m 0.687294,-3.15226 q -0.728635,0 -1.090369,0.78548 -0.356566,0.78548 -0.356566,2.39261 0,1.60197 0.356566,2.38745 0.361734,0.78548 1.090369,0.78548 0.733803,0 1.09037,-0.78548 0.361734,-0.78548 0.361734,-2.38745 0,-1.60713 -0.361734,-2.39261 -0.356567,-0.78548 -1.09037,-0.78548 z m 0,-0.82682 q 1.235063,0 1.865514,1.01286 0.635618,1.01285 0.635618,2.99205 0,1.97404 -0.635618,2.98689 -0.630451,1.01286 -1.865514,1.01286 -1.235062,0 -1.865513,-1.01286 -0.63045,-1.01285 -0.63045,-2.98689 0,-1.9792 0.63045,-2.99205 0.630451,-1.01286 1.865513,-1.01286 z"
         style="font-size:medium;font-family:monospace;-inkscape-font-specification:monospace"
         id="path160252" />
      <path
         d="m -40.50429,148.98968 h 1.622635 v -5.89626 l -1.746658,0.39274 v -0.95085 l 1.736323,-0.3824 h 1.04386 v 6.83677 h 1.601965 v 0.8785 h -4.258125 z"
         style="font-size:medium;font-family:monospace;-inkscape-font-specification:monospace"
         id="path160254" />
      <path
         d="m -26.660218,145.99246 q 0,-0.28422 0.19637,-0.49093 0.201538,-0.2067 0.48059,-0.2067 0.289387,0 0.496092,0.2067 0.206705,0.20671 0.206705,0.49093 0,0.28938 -0.206705,0.49092 -0.201538,0.20154 -0.496092,0.20154 -0.289388,0 -0.485757,-0.19637 -0.191203,-0.19637 -0.191203,-0.49609 z m 0.687295,-3.15226 q -0.728636,0 -1.090369,0.78548 -0.356567,0.78548 -0.356567,2.39261 0,1.60197 0.356567,2.38745 0.361733,0.78548 1.090369,0.78548 0.733803,0 1.090369,-0.78548 0.361734,-0.78548 0.361734,-2.38745 0,-1.60713 -0.361734,-2.39261 -0.356566,-0.78548 -1.090369,-0.78548 z m 0,-0.82682 q 1.235063,0 1.865513,1.01286 0.635618,1.01285 0.635618,2.99205 0,1.97404 -0.635618,2.98689 -0.63045,1.01286 -1.865513,1.01286 -1.235063,0 -1.865514,-1.01286 -0.63045,-1.01285 -0.63045,-2.98689 0,-1.9792 0.63045,-2.99205 0.630451,-1.01286 1.865514,-1.01286 z"
         style="font-size:medium;font-family:monospace;-inkscape-font-specification:monospace"
         id="path160256" />
      <path
         d="m -20.288534,145.99246 q 0,-0.28422 0.196369,-0.49093 0.201538,-0.2067 0.48059,-0.2067 0.289387,0 0.496092,0.2067 0.206705,0.20671 0.206705,0.49093 0,0.28938 -0.206705,0.49092 -0.201538,0.20154 -0.496092,0.20154 -0.289387,0 -0.485757,-0.19637 -0.191202,-0.19637 -0.191202,-0.49609 z m 0.687294,-3.15226 q -0.728635,0 -1.090369,0.78548 -0.356567,0.78548 -0.356567,2.39261 0,1.60197 0.356567,2.38745 0.361734,0.78548 1.090369,0.78548 0.733803,0 1.090369,-0.78548 0.361734,-0.78548 0.361734,-2.38745 0,-1.60713 -0.361734,-2.39261 -0.356566,-0.78548 -1.090369,-0.78548 z m 0,-0.82682 q 1.235063,0 1.865513,1.01286 0.635618,1.01285 0.635618,2.99205 0,1.97404 -0.635618,2.98689 -0.63045,1.01286 -1.865513,1.01286 -1.235063,0 -1.865513,-1.01286 -0.630451,-1.01285 -0.630451,-2.98689 0,-1.9792 0.630451,-2.99205 0.63045,-1.01286 1.865513,-1.01286 z"
         style="font-size:medium;font-family:monospace;-inkscape-font-specification:monospace"
         id="path160258" />
      <path
         d="m -7.5451663,145.99246 q 0,-0.28422 0.1963698,-0.49093 0.2015374,-0.2067 0.4805893,-0.2067 0.2893871,0 0.4960921,0.2067 0.2067051,0.20671 0.2067051,0.49093 0,0.28938 -0.2067051,0.49092 -0.2015374,0.20154 -0.4960921,0.20154 -0.2893871,0 -0.4857569,-0.19637 -0.1912022,-0.19637 -0.1912022,-0.49609 z m 0.6872943,-3.15226 q -0.7286353,0 -1.0903692,0.78548 -0.3565663,0.78548 -0.3565663,2.39261 0,1.60197 0.3565663,2.38745 0.3617339,0.78548 1.0903692,0.78548 0.733803,0 1.0903693,-0.78548 0.3617339,-0.78548 0.3617339,-2.38745 0,-1.60713 -0.3617339,-2.39261 -0.3565663,-0.78548 -1.0903693,-0.78548 z m 0,-0.82682 q 1.2350628,0 1.8655133,1.01286 0.6356181,1.01285 0.6356181,2.99205 0,1.97404 -0.6356181,2.98689 -0.6304505,1.01286 -1.8655133,1.01286 -1.2350628,0 -1.8655132,-1.01286 -0.6304505,-1.01285 -0.6304505,-2.98689 0,-1.9792 0.6304505,-2.99205 0.6304504,-1.01286 1.8655132,-1.01286 z"
         style="font-size:medium;font-family:monospace;-inkscape-font-specification:monospace"
         id="path160260" />
      <path
         d="m -1.7419241,148.98968 h 3.544992 v 0.8785 h -4.6870375 v -0.8785 q 0.9663462,-1.01802 1.689814,-1.79833 0.72346772,-0.78032 0.99735194,-1.10071 0.51676268,-0.63045 0.69762962,-1.01802 0.18086693,-0.39274 0.18086693,-0.80098 0,-0.64596 -0.38240438,-1.01286 -0.37723675,-0.3669 -1.03869298,-0.3669 -0.47025403,0 -0.98701673,0.17053 -0.5167627,0.17053 -1.0955369,0.51676 v -1.05419 q 0.5322656,-0.25321 1.0438606,-0.38241 0.5167627,-0.12919 1.01802252,-0.12919 1.13171027,0 1.81900458,0.60462 0.692462,0.59944 0.692462,1.57612 0,0.49609 -0.2325432,0.99219 -0.2273755,0.49609 -0.74413823,1.09553 -0.28938709,0.3359 -0.84232316,0.93018 -0.54776844,0.59427 -1.67431111,1.77766 z"
         style="font-size:medium;font-family:monospace;-inkscape-font-specification:monospace"
         id="path160262" />
      <path
         d="m 30.684936,145.99246 q 0,-0.28422 0.19637,-0.49093 0.201537,-0.2067 0.480589,-0.2067 0.289387,0 0.496092,0.2067 0.206706,0.20671 0.206706,0.49093 0,0.28938 -0.206706,0.49092 -0.201537,0.20154 -0.496092,0.20154 -0.289387,0 -0.485757,-0.19637 -0.191202,-0.19637 -0.191202,-0.49609 z m 0.687295,-3.15226 q -0.728636,0 -1.09037,0.78548 -0.356566,0.78548 -0.356566,2.39261 0,1.60197 0.356566,2.38745 0.361734,0.78548 1.09037,0.78548 0.733803,0 1.090369,-0.78548 0.361734,-0.78548 0.361734,-2.38745 0,-1.60713 -0.361734,-2.39261 -0.356566,-0.78548 -1.090369,-0.78548 z m 0,-0.82682 q 1.235062,0 1.865513,1.01286 0.635618,1.01285 0.635618,2.99205 0,1.97404 -0.635618,2.98689 -0.630451,1.01286 -1.865513,1.01286 -1.235063,0 -1.865514,-1.01286 -0.63045,-1.01285 -0.63045,-2.98689 0,-1.9792 0.63045,-2.99205 0.630451,-1.01286 1.865514,-1.01286 z"
         style="font-size:medium;font-family:monospace;-inkscape-font-specification:monospace"
         id="path160264" />
      <path
         d="m 35.630352,142.15291 h 3.906726 v 0.8785 h -2.955882 v 1.89652 q 0.222208,-0.0827 0.444416,-0.11886 0.227375,-0.0413 0.454751,-0.0413 1.198889,0 1.901686,0.70796 0.702798,0.70797 0.702798,1.91719 0,1.21956 -0.738971,1.92236 -0.733803,0.7028 -2.010207,0.7028 -0.614947,0 -1.126542,-0.0827 -0.506428,-0.0827 -0.909503,-0.24805 v -1.05936 q 0.475422,0.25838 0.956011,0.38757 0.48059,0.12402 0.981849,0.12402 0.862994,0 1.32808,-0.45475 0.470254,-0.45475 0.470254,-1.29191 0,-0.82682 -0.485756,-1.28674 -0.48059,-0.45991 -1.343583,-0.45991 -0.418578,0 -0.816485,0.0982 -0.397908,0.093 -0.759642,0.28422 z"
         style="font-size:medium;font-family:monospace;-inkscape-font-specification:monospace"
         id="path160266" />
      <path
         d="m 49.799987,145.99246 q 0,-0.28422 0.19637,-0.49093 0.201538,-0.2067 0.48059,-0.2067 0.289387,0 0.496092,0.2067 0.206705,0.20671 0.206705,0.49093 0,0.28938 -0.206705,0.49092 -0.201538,0.20154 -0.496092,0.20154 -0.289388,0 -0.485757,-0.19637 -0.191203,-0.19637 -0.191203,-0.49609 z m 0.687295,-3.15226 q -0.728636,0 -1.090369,0.78548 -0.356567,0.78548 -0.356567,2.39261 0,1.60197 0.356567,2.38745 0.361733,0.78548 1.090369,0.78548 0.733803,0 1.090369,-0.78548 0.361734,-0.78548 0.361734,-2.38745 0,-1.60713 -0.361734,-2.39261 -0.356566,-0.78548 -1.090369,-0.78548 z m 0,-0.82682 q 1.235063,0 1.865513,1.01286 0.635618,1.01285 0.635618,2.99205 0,1.97404 -0.635618,2.98689 -0.63045,1.01286 -1.865513,1.01286 -1.235063,0 -1.865513,-1.01286 -0.630451,-1.01285 -0.630451,-2.98689 0,-1.9792 0.630451,-2.99205 0.63045,-1.01286 1.865513,-1.01286 z"
         style="font-size:medium;font-family:monospace;-inkscape-font-specification:monospace"
         id="path160268" />
      <path
         d="m 57.473911,143.10375 -2.433953,4.07726 h 2.433953 z m -0.170532,-0.95084 h 1.209225 v 5.0281 h 1.028357 v 0.84749 h -1.028357 v 1.83968 h -1.038693 v -1.83968 h -3.271108 v -0.98702 z"
         style="font-size:medium;font-family:monospace;-inkscape-font-specification:monospace"
         id="path160270" />
      <path
         d="m 68.915039,145.99246 q 0,-0.28422 0.19637,-0.49093 0.201537,-0.2067 0.480589,-0.2067 0.289387,0 0.496092,0.2067 0.206705,0.20671 0.206705,0.49093 0,0.28938 -0.206705,0.49092 -0.201537,0.20154 -0.496092,0.20154 -0.289387,0 -0.485757,-0.19637 -0.191202,-0.19637 -0.191202,-0.49609 z m 0.687294,-3.15226 q -0.728635,0 -1.090369,0.78548 -0.356566,0.78548 -0.356566,2.39261 0,1.60197 0.356566,2.38745 0.361734,0.78548 1.090369,0.78548 0.733803,0 1.090369,-0.78548 0.361734,-0.78548 0.361734,-2.38745 0,-1.60713 -0.361734,-2.39261 -0.356566,-0.78548 -1.090369,-0.78548 z m 0,-0.82682 q 1.235063,0 1.865513,1.01286 0.635618,1.01285 0.635618,2.99205 0,1.97404 -0.635618,2.98689 -0.63045,1.01286 -1.865513,1.01286 -1.235063,0 -1.865513,-1.01286 -0.630451,-1.01285 -0.630451,-2.98689 0,-1.9792 0.630451,-2.99205 0.63045,-1.01286 1.865513,-1.01286 z"
         style="font-size:medium;font-family:monospace;-inkscape-font-specification:monospace"
         id="path160272" />
      <path
         d="m 73.509056,142.15291 h 4.85757 v 0.44442 l -2.759513,7.27085 h -1.090369 l 2.687165,-6.83677 h -3.694853 z"
         style="font-size:medium;font-family:monospace;-inkscape-font-specification:monospace"
         id="path160274" />
      <path
         d="m 88.03009,145.99246 q 0,-0.28422 0.19637,-0.49093 0.201537,-0.2067 0.480589,-0.2067 0.289387,0 0.496092,0.2067 0.206705,0.20671 0.206705,0.49093 0,0.28938 -0.206705,0.49092 -0.201537,0.20154 -0.496092,0.20154 -0.289387,0 -0.485757,-0.19637 -0.191202,-0.19637 -0.191202,-0.49609 z m 0.687294,-3.15226 q -0.728635,0 -1.090369,0.78548 -0.356566,0.78548 -0.356566,2.39261 0,1.60197 0.356566,2.38745 0.361734,0.78548 1.090369,0.78548 0.733803,0 1.09037,-0.78548 0.361733,-0.78548 0.361733,-2.38745 0,-1.60713 -0.361733,-2.39261 -0.356567,-0.78548 -1.09037,-0.78548 z m 0,-0.82682 q 1.235063,0 1.865514,1.01286 0.635618,1.01285 0.635618,2.99205 0,1.97404 -0.635618,2.98689 -0.630451,1.01286 -1.865514,1.01286 -1.235062,0 -1.865513,-1.01286 -0.63045,-1.01285 -0.63045,-2.98689 0,-1.9792 0.63045,-2.99205 0.630451,-1.01286 1.865513,-1.01286 z"
         style="font-size:medium;font-family:monospace;-inkscape-font-specification:monospace"
         id="path160276" />
      <path
         d="m 97.026918,142.32344 v 0.96118 q -0.32556,-0.1912 -0.692462,-0.28939 -0.366901,-0.10335 -0.764809,-0.10335 -0.992184,0 -1.503779,0.74931 -0.511595,0.74413 -0.511595,2.19624 0.248046,-0.51677 0.687294,-0.79065 0.439248,-0.27905 1.007687,-0.27905 1.116208,0 1.725988,0.68729 0.614947,0.68213 0.614947,1.93786 0,1.25057 -0.63045,1.93786 -0.630451,0.6873 -1.772496,0.6873 -1.343583,0 -1.968866,-0.96118 -0.625283,-0.96635 -0.625283,-3.03857 0,-1.95336 0.749306,-2.97655 0.754474,-1.02836 2.180739,-1.02836 0.382404,0 0.764808,0.0827 0.382405,0.0775 0.738971,0.22737 z m -1.860346,3.26077 q -0.666623,0 -1.049028,0.48059 -0.382404,0.48059 -0.382404,1.32808 0,0.84749 0.382404,1.32808 0.382405,0.48059 1.049028,0.48059 0.692462,0 1.043861,-0.45475 0.351399,-0.45992 0.351399,-1.35392 0,-0.89916 -0.351399,-1.35391 -0.351399,-0.45476 -1.043861,-0.45476 z"
         style="font-size:medium;font-family:monospace;-inkscape-font-specification:monospace"
         id="path160278" />
    </g>
  </g>
</svg>
