<?xml version="1.0" encoding="UTF-8" standalone="no"?>
<!-- Created with Inkscape (http://www.inkscape.org/) -->

<svg
   width="242.12398mm"
   height="8.0046539mm"
   viewBox="0 0 242.12398 8.0046539"
   version="1.1"
   id="svg160389"
   inkscape:version="1.2-dev (9a006c9b6a, 2021-07-31)"
   sodipodi:docname="18_quickselect_7.svg"
   xmlns:inkscape="http://www.inkscape.org/namespaces/inkscape"
   xmlns:sodipodi="http://sodipodi.sourceforge.net/DTD/sodipodi-0.dtd"
   xmlns="http://www.w3.org/2000/svg"
   xmlns:svg="http://www.w3.org/2000/svg">
  <sodipodi:namedview
     id="namedview160391"
     pagecolor="#505050"
     bordercolor="#ffffff"
     borderopacity="1"
     inkscape:pageshadow="0"
     inkscape:pageopacity="0"
     inkscape:pagecheckerboard="1"
     inkscape:document-units="mm"
     showgrid="false"
     inkscape:zoom="0.77058782"
     inkscape:cx="524.27509"
     inkscape:cy="249.16044"
     inkscape:window-width="1920"
     inkscape:window-height="1011"
     inkscape:window-x="1920"
     inkscape:window-y="32"
     inkscape:window-maximized="1"
     inkscape:current-layer="layer1" />
  <defs
     id="defs160386" />
  <g
     inkscape:label="Layer 1"
     inkscape:groupmode="layer"
     id="layer1"
     transform="translate(33.507076,-82.865878)">
    <g
       aria-label="
            05 04 07 06                "
       id="text1023438"
       style="font-size:10.5833px;line-height:1.25;stroke-width:0.264583">
      <path
         d="m 45.449093,86.844951 q 0,-0.284219 0.196369,-0.490924 0.201538,-0.206706 0.48059,-0.206706 0.289387,0 0.496092,0.206706 0.206705,0.206705 0.206705,0.490924 0,0.289387 -0.206705,0.490925 -0.201538,0.201537 -0.496092,0.201537 -0.289387,0 -0.485757,-0.19637 -0.191202,-0.19637 -0.191202,-0.496092 z m 0.687294,-3.152252 q -0.728635,0 -1.090369,0.785479 -0.356567,0.785479 -0.356567,2.392611 0,1.601965 0.356567,2.387444 0.361734,0.785479 1.090369,0.785479 0.733803,0 1.090369,-0.785479 0.361734,-0.785479 0.361734,-2.387444 0,-1.607132 -0.361734,-2.392611 -0.356566,-0.785479 -1.090369,-0.785479 z m 0,-0.826821 q 1.235063,0 1.865513,1.012855 0.635618,1.012855 0.635618,2.992056 0,1.974034 -0.635618,2.986889 -0.63045,1.012854 -1.865513,1.012854 -1.235063,0 -1.865513,-1.012854 -0.630451,-1.012855 -0.630451,-2.986889 0,-1.979201 0.630451,-2.992056 0.63045,-1.012855 1.865513,-1.012855 z"
         style="font-size:medium;font-family:monospace;-inkscape-font-specification:monospace"
         id="path160471" />
      <path
         d="m 50.394509,83.005404 h 3.906726 v 0.878497 h -2.955883 v 1.896519 q 0.222208,-0.08268 0.444416,-0.118855 0.227376,-0.04134 0.454751,-0.04134 1.19889,0 1.901687,0.707964 0.702797,0.707965 0.702797,1.91719 0,1.21956 -0.738971,1.922357 -0.733803,0.702797 -2.010206,0.702797 -0.614948,0 -1.126543,-0.08268 -0.506427,-0.08268 -0.909502,-0.248046 v -1.059363 q 0.475421,0.258381 0.956011,0.387572 0.480589,0.124023 0.981849,0.124023 0.862993,0 1.32808,-0.454751 0.470254,-0.454752 0.470254,-1.291907 0,-0.82682 -0.485757,-1.286739 -0.480589,-0.459919 -1.343583,-0.459919 -0.418578,0 -0.816485,0.09819 -0.397907,0.09302 -0.759641,0.284219 z"
         style="font-size:medium;font-family:monospace;-inkscape-font-specification:monospace"
         id="path160473" />
      <path
         d="m 64.564144,86.844951 q 0,-0.284219 0.19637,-0.490924 0.201537,-0.206706 0.480589,-0.206706 0.289387,0 0.496092,0.206706 0.206705,0.206705 0.206705,0.490924 0,0.289387 -0.206705,0.490925 -0.201537,0.201537 -0.496092,0.201537 -0.289387,0 -0.485757,-0.19637 -0.191202,-0.19637 -0.191202,-0.496092 z m 0.687294,-3.152252 q -0.728635,0 -1.090369,0.785479 -0.356566,0.785479 -0.356566,2.392611 0,1.601965 0.356566,2.387444 0.361734,0.785479 1.090369,0.785479 0.733803,0 1.090369,-0.785479 0.361734,-0.785479 0.361734,-2.387444 0,-1.607132 -0.361734,-2.392611 -0.356566,-0.785479 -1.090369,-0.785479 z m 0,-0.826821 q 1.235063,0 1.865513,1.012855 0.635619,1.012855 0.635619,2.992056 0,1.974034 -0.635619,2.986889 -0.63045,1.012854 -1.865513,1.012854 -1.235063,0 -1.865513,-1.012854 -0.630451,-1.012855 -0.630451,-2.986889 0,-1.979201 0.630451,-2.992056 0.63045,-1.012855 1.865513,-1.012855 z"
         style="font-size:medium;font-family:monospace;-inkscape-font-specification:monospace"
         id="path160475" />
      <path
         d="m 72.238067,83.956248 -2.433952,4.077257 h 2.433952 z m -0.170532,-0.950844 h 1.209225 v 5.028101 h 1.028358 v 0.847491 H 73.27676 v 1.839675 h -1.038693 v -1.839675 h -3.271108 v -0.987017 z"
         style="font-size:medium;font-family:monospace;-inkscape-font-specification:monospace"
         id="path160477" />
      <path
         d="m 83.679195,86.844951 q 0,-0.284219 0.19637,-0.490924 0.201537,-0.206706 0.480589,-0.206706 0.289387,0 0.496092,0.206706 0.206705,0.206705 0.206705,0.490924 0,0.289387 -0.206705,0.490925 -0.201537,0.201537 -0.496092,0.201537 -0.289387,0 -0.485757,-0.19637 -0.191202,-0.19637 -0.191202,-0.496092 z m 0.687294,-3.152252 q -0.728635,0 -1.090369,0.785479 -0.356566,0.785479 -0.356566,2.392611 0,1.601965 0.356566,2.387444 0.361734,0.785479 1.090369,0.785479 0.733803,0 1.09037,-0.785479 0.361734,-0.785479 0.361734,-2.387444 0,-1.607132 -0.361734,-2.392611 -0.356567,-0.785479 -1.09037,-0.785479 z m 0,-0.826821 q 1.235063,0 1.865514,1.012855 0.635618,1.012855 0.635618,2.992056 0,1.974034 -0.635618,2.986889 -0.630451,1.012854 -1.865514,1.012854 -1.235062,0 -1.865513,-1.012854 -0.63045,-1.012855 -0.63045,-2.986889 0,-1.979201 0.63045,-2.992056 0.630451,-1.012855 1.865513,-1.012855 z"
         style="font-size:medium;font-family:monospace;-inkscape-font-specification:monospace"
         id="path160479" />
      <path
         d="m 88.273213,83.005404 h 4.857569 v 0.444416 l -2.759513,7.270851 H 89.2809 l 2.687166,-6.83677 h -3.694853 z"
         style="font-size:medium;font-family:monospace;-inkscape-font-specification:monospace"
         id="path160481" />
      <path
         d="m 102.79425,86.844951 q 0,-0.284219 0.19637,-0.490924 0.20153,-0.206706 0.48059,-0.206706 0.28938,0 0.49609,0.206706 0.2067,0.206705 0.2067,0.490924 0,0.289387 -0.2067,0.490925 -0.20154,0.201537 -0.49609,0.201537 -0.28939,0 -0.48576,-0.19637 -0.1912,-0.19637 -0.1912,-0.496092 z m 0.68729,-3.152252 q -0.72863,0 -1.09037,0.785479 -0.35656,0.785479 -0.35656,2.392611 0,1.601965 0.35656,2.387444 0.36174,0.785479 1.09037,0.785479 0.7338,0 1.09037,-0.785479 0.36173,-0.785479 0.36173,-2.387444 0,-1.607132 -0.36173,-2.392611 -0.35657,-0.785479 -1.09037,-0.785479 z m 0,-0.826821 q 1.23506,0 1.86551,1.012855 0.63562,1.012855 0.63562,2.992056 0,1.974034 -0.63562,2.986889 -0.63045,1.012854 -1.86551,1.012854 -1.23506,0 -1.86551,-1.012854 -0.63045,-1.012855 -0.63045,-2.986889 0,-1.979201 0.63045,-2.992056 0.63045,-1.012855 1.86551,-1.012855 z"
         style="font-size:medium;font-family:monospace;-inkscape-font-specification:monospace"
         id="path160483" />
      <path
         d="m 111.79107,83.175936 v 0.961179 q -0.32556,-0.191203 -0.69246,-0.289387 -0.3669,-0.103353 -0.76481,-0.103353 -0.99218,0 -1.50378,0.749306 -0.51159,0.744138 -0.51159,2.196241 0.24805,-0.516762 0.68729,-0.790647 0.43925,-0.279051 1.00769,-0.279051 1.11621,0 1.72599,0.687294 0.61495,0.682127 0.61495,1.93786 0,1.250566 -0.63045,1.93786 -0.63046,0.687294 -1.7725,0.687294 -1.34358,0 -1.96887,-0.961178 -0.62528,-0.966346 -0.62528,-3.038565 0,-1.953363 0.74931,-2.976553 0.75447,-1.028358 2.18073,-1.028358 0.38241,0 0.76481,0.08268 0.38241,0.07751 0.73897,0.227375 z m -1.86034,3.260773 q -0.66663,0 -1.04903,0.480589 -0.3824,0.480589 -0.3824,1.32808 0,0.847491 0.3824,1.32808 0.3824,0.480589 1.04903,0.480589 0.69246,0 1.04386,-0.454751 0.3514,-0.459919 0.3514,-1.353918 0,-0.899167 -0.3514,-1.353918 -0.3514,-0.454751 -1.04386,-0.454751 z"
         style="font-size:medium;font-family:monospace;-inkscape-font-specification:monospace"
         id="path160485" />
    </g>
  </g>
</svg>
