<?xml version="1.0" encoding="UTF-8" standalone="no"?>
<!-- Created with Inkscape (http://www.inkscape.org/) -->

<svg
   width="242.12398mm"
   height="21.233778mm"
   viewBox="0 0 242.12398 21.233778"
   version="1.1"
   id="svg160590"
   inkscape:version="1.2-dev (9a006c9b6a, 2021-07-31)"
   sodipodi:docname="19_quickselect_8.svg"
   xmlns:inkscape="http://www.inkscape.org/namespaces/inkscape"
   xmlns:sodipodi="http://sodipodi.sourceforge.net/DTD/sodipodi-0.dtd"
   xmlns="http://www.w3.org/2000/svg"
   xmlns:svg="http://www.w3.org/2000/svg">
  <sodipodi:namedview
     id="namedview160592"
     pagecolor="#505050"
     bordercolor="#ffffff"
     borderopacity="1"
     inkscape:pageshadow="0"
     inkscape:pageopacity="0"
     inkscape:pagecheckerboard="1"
     inkscape:document-units="mm"
     showgrid="false"
     inkscape:zoom="0.77058782"
     inkscape:cx="510.00027"
     inkscape:cy="308.85513"
     inkscape:window-width="1920"
     inkscape:window-height="1011"
     inkscape:window-x="1920"
     inkscape:window-y="32"
     inkscape:window-maximized="1"
     inkscape:current-layer="layer1" />
  <defs
     id="defs160587" />
  <g
     inkscape:label="Layer 1"
     inkscape:groupmode="layer"
     id="layer1"
     transform="translate(29.730198,-66.980794)">
    <g
       aria-label="               04                      
            05    07 06"
       id="text1030768"
       style="font-size:10.5833px;line-height:1.25;stroke-width:0.264583">
      <path
         d="m 68.341022,70.959866 q 0,-0.284219 0.19637,-0.490924 0.201537,-0.206705 0.480589,-0.206705 0.289387,0 0.496092,0.206705 0.206706,0.206705 0.206706,0.490924 0,0.289388 -0.206706,0.490925 -0.201537,0.201537 -0.496092,0.201537 -0.289387,0 -0.485757,-0.196369 -0.191202,-0.19637 -0.191202,-0.496093 z m 0.687295,-3.152252 q -0.728636,0 -1.09037,0.785479 -0.356566,0.78548 -0.356566,2.392612 0,1.601964 0.356566,2.387443 0.361734,0.785479 1.09037,0.785479 0.733803,0 1.090369,-0.785479 0.361734,-0.785479 0.361734,-2.387443 0,-1.607132 -0.361734,-2.392612 -0.356566,-0.785479 -1.090369,-0.785479 z m 0,-0.82682 q 1.235062,0 1.865513,1.012855 0.635618,1.012855 0.635618,2.992056 0,1.974033 -0.635618,2.986888 -0.630451,1.012855 -1.865513,1.012855 -1.235063,0 -1.865514,-1.012855 -0.63045,-1.012855 -0.63045,-2.986888 0,-1.979201 0.63045,-2.992056 0.630451,-1.012855 1.865514,-1.012855 z"
         style="font-size:medium;font-family:monospace;-inkscape-font-specification:monospace;fill:#ff0000"
         id="path160700" />
      <path
         d="m 76.014945,68.071163 -2.433952,4.077258 h 2.433952 z M 75.844414,67.12032 h 1.209224 v 5.028101 h 1.028358 v 0.84749 h -1.028358 v 1.839676 h -1.038693 v -1.839676 h -3.271107 v -0.987016 z"
         style="font-size:medium;font-family:monospace;-inkscape-font-specification:monospace;fill:#ff0000"
         id="path160702" />
      <path
         d="m 49.225971,84.188991 q 0,-0.284219 0.19637,-0.490925 0.201537,-0.206705 0.480589,-0.206705 0.289387,0 0.496092,0.206705 0.206705,0.206706 0.206705,0.490925 0,0.289387 -0.206705,0.490925 -0.201537,0.201537 -0.496092,0.201537 -0.289387,0 -0.485757,-0.19637 -0.191202,-0.19637 -0.191202,-0.496092 z m 0.687294,-3.152252 q -0.728635,0 -1.090369,0.785479 -0.356566,0.785479 -0.356566,2.392611 0,1.601964 0.356566,2.387444 0.361734,0.785479 1.090369,0.785479 0.733803,0 1.09037,-0.785479 0.361733,-0.78548 0.361733,-2.387444 0,-1.607132 -0.361733,-2.392611 -0.356567,-0.785479 -1.09037,-0.785479 z m 0,-0.826821 q 1.235063,0 1.865514,1.012855 0.635618,1.012855 0.635618,2.992056 0,1.974034 -0.635618,2.986888 -0.630451,1.012855 -1.865514,1.012855 -1.235063,0 -1.865513,-1.012855 -0.63045,-1.012854 -0.63045,-2.986888 0,-1.979201 0.63045,-2.992056 0.63045,-1.012855 1.865513,-1.012855 z"
         style="font-size:medium;font-family:monospace;-inkscape-font-specification:monospace"
         id="path160704" />
      <path
         d="m 54.171387,80.349444 h 3.906726 v 0.878497 H 55.12223 v 1.896519 q 0.222208,-0.08268 0.444416,-0.118856 0.227376,-0.04134 0.454752,-0.04134 1.198889,0 1.901686,0.707965 0.702797,0.707965 0.702797,1.91719 0,1.21956 -0.73897,1.922357 -0.733803,0.702797 -2.010207,0.702797 -0.614948,0 -1.126543,-0.08268 -0.506427,-0.08268 -0.909502,-0.248046 v -1.059363 q 0.475422,0.258381 0.956011,0.387572 0.480589,0.124023 0.981849,0.124023 0.862994,0 1.32808,-0.454751 0.470254,-0.454752 0.470254,-1.291907 0,-0.82682 -0.485757,-1.286739 -0.480589,-0.459919 -1.343583,-0.459919 -0.418577,0 -0.816485,0.09819 -0.397907,0.09302 -0.759641,0.284219 z"
         style="font-size:medium;font-family:monospace;-inkscape-font-specification:monospace"
         id="path160706" />
      <path
         d="m 87.456073,84.188991 q 0,-0.284219 0.19637,-0.490925 0.201538,-0.206705 0.48059,-0.206705 0.289387,0 0.496092,0.206705 0.206705,0.206706 0.206705,0.490925 0,0.289387 -0.206705,0.490925 -0.201538,0.201537 -0.496092,0.201537 -0.289388,0 -0.485757,-0.19637 -0.191203,-0.19637 -0.191203,-0.496092 z m 0.687295,-3.152252 q -0.728636,0 -1.090369,0.785479 -0.356567,0.785479 -0.356567,2.392611 0,1.601964 0.356567,2.387444 0.361733,0.785479 1.090369,0.785479 0.733803,0 1.090369,-0.785479 0.361734,-0.78548 0.361734,-2.387444 0,-1.607132 -0.361734,-2.392611 -0.356566,-0.785479 -1.090369,-0.785479 z m 0,-0.826821 q 1.235063,0 1.865513,1.012855 0.635618,1.012855 0.635618,2.992056 0,1.974034 -0.635618,2.986888 -0.63045,1.012855 -1.865513,1.012855 -1.235063,0 -1.865513,-1.012855 -0.630451,-1.012854 -0.630451,-2.986888 0,-1.979201 0.630451,-2.992056 0.63045,-1.012855 1.865513,-1.012855 z"
         style="font-size:medium;font-family:monospace;-inkscape-font-specification:monospace"
         id="path160708" />
      <path
         d="m 92.050091,80.349444 h 4.857569 v 0.444416 l -2.759512,7.270851 h -1.09037 l 2.687166,-6.83677 h -3.694853 z"
         style="font-size:medium;font-family:monospace;-inkscape-font-specification:monospace"
         id="path160710" />
      <path
         d="m 106.57112,84.188991 q 0,-0.284219 0.19637,-0.490925 0.20154,-0.206705 0.48059,-0.206705 0.28939,0 0.4961,0.206705 0.2067,0.206706 0.2067,0.490925 0,0.289387 -0.2067,0.490925 -0.20154,0.201537 -0.4961,0.201537 -0.28938,0 -0.48575,-0.19637 -0.19121,-0.19637 -0.19121,-0.496092 z m 0.6873,-3.152252 q -0.72864,0 -1.09037,0.785479 -0.35657,0.785479 -0.35657,2.392611 0,1.601964 0.35657,2.387444 0.36173,0.785479 1.09037,0.785479 0.7338,0 1.09037,-0.785479 0.36173,-0.78548 0.36173,-2.387444 0,-1.607132 -0.36173,-2.392611 -0.35657,-0.785479 -1.09037,-0.785479 z m 0,-0.826821 q 1.23506,0 1.86551,1.012855 0.63562,1.012855 0.63562,2.992056 0,1.974034 -0.63562,2.986888 -0.63045,1.012855 -1.86551,1.012855 -1.23506,0 -1.86551,-1.012855 -0.63045,-1.012854 -0.63045,-2.986888 0,-1.979201 0.63045,-2.992056 0.63045,-1.012855 1.86551,-1.012855 z"
         style="font-size:medium;font-family:monospace;-inkscape-font-specification:monospace"
         id="path160712" />
      <path
         d="m 115.56795,80.519976 v 0.961179 q -0.32556,-0.191203 -0.69246,-0.289388 -0.3669,-0.103352 -0.76481,-0.103352 -0.99218,0 -1.50378,0.749306 -0.51159,0.744138 -0.51159,2.196241 0.24804,-0.516762 0.68729,-0.790647 0.43925,-0.279052 1.00769,-0.279052 1.11621,0 1.72599,0.687295 0.61494,0.682127 0.61494,1.93786 0,1.250566 -0.63045,1.93786 -0.63045,0.687294 -1.77249,0.687294 -1.34359,0 -1.96887,-0.961178 -0.62528,-0.966347 -0.62528,-3.038565 0,-1.953363 0.7493,-2.976553 0.75448,-1.028358 2.18074,-1.028358 0.38241,0 0.76481,0.08268 0.38241,0.07752 0.73897,0.227376 z m -1.86034,3.260772 q -0.66663,0 -1.04903,0.48059 -0.38241,0.480589 -0.38241,1.32808 0,0.847491 0.38241,1.32808 0.3824,0.480589 1.04903,0.480589 0.69246,0 1.04386,-0.454751 0.3514,-0.459919 0.3514,-1.353918 0,-0.899167 -0.3514,-1.353918 -0.3514,-0.454752 -1.04386,-0.454752 z"
         style="font-size:medium;font-family:monospace;-inkscape-font-specification:monospace"
         id="path160714" />
    </g>
  </g>
</svg>
