<?xml version="1.0" encoding="UTF-8" standalone="no"?>
<!-- Created with Inkscape (http://www.inkscape.org/) -->

<svg
   width="242.12398mm"
   height="21.233778mm"
   viewBox="0 0 242.12398 21.233778"
   version="1.1"
   id="svg160803"
   inkscape:version="1.2-dev (9a006c9b6a, 2021-07-31)"
   sodipodi:docname="20_quickselect_9.svg"
   xmlns:inkscape="http://www.inkscape.org/namespaces/inkscape"
   xmlns:sodipodi="http://sodipodi.sourceforge.net/DTD/sodipodi-0.dtd"
   xmlns="http://www.w3.org/2000/svg"
   xmlns:svg="http://www.w3.org/2000/svg">
  <sodipodi:namedview
     id="namedview160805"
     pagecolor="#505050"
     bordercolor="#ffffff"
     borderopacity="1"
     inkscape:pageshadow="0"
     inkscape:pageopacity="0"
     inkscape:pagecheckerboard="1"
     inkscape:document-units="mm"
     showgrid="false"
     inkscape:zoom="0.77058782"
     inkscape:cx="537.2522"
     inkscape:cy="206.33599"
     inkscape:window-width="1920"
     inkscape:window-height="1011"
     inkscape:window-x="1920"
     inkscape:window-y="32"
     inkscape:window-maximized="1"
     inkscape:current-layer="layer1" />
  <defs
     id="defs160800" />
  <g
     inkscape:label="Layer 1"
     inkscape:groupmode="layer"
     id="layer1"
     transform="translate(36.940598,-94.105657)">
    <g
       aria-label="            04                         
               05 07 06"
       id="text1041231"
       style="font-size:10.5833px;line-height:1.25;stroke-width:0.264583">
      <path
         d="m 42.015571,98.084729 q 0,-0.284219 0.19637,-0.490924 0.201538,-0.206705 0.480589,-0.206705 0.289387,0 0.496093,0.206705 0.206705,0.206705 0.206705,0.490924 0,0.289387 -0.206705,0.490925 -0.201538,0.201537 -0.496093,0.201537 -0.289387,0 -0.485757,-0.19637 -0.191202,-0.19637 -0.191202,-0.496092 z m 0.687295,-3.152252 q -0.728636,0 -1.09037,0.785479 -0.356566,0.785479 -0.356566,2.392611 0,1.601965 0.356566,2.387443 0.361734,0.78548 1.09037,0.78548 0.733803,0 1.090369,-0.78548 0.361734,-0.785478 0.361734,-2.387443 0,-1.607132 -0.361734,-2.392611 -0.356566,-0.785479 -1.090369,-0.785479 z m 0,-0.82682 q 1.235062,0 1.865513,1.012854 0.635618,1.012855 0.635618,2.992056 0,1.974033 -0.635618,2.986893 -0.630451,1.01285 -1.865513,1.01285 -1.235063,0 -1.865514,-1.01285 -0.63045,-1.01286 -0.63045,-2.986893 0,-1.979201 0.63045,-2.992056 0.630451,-1.012854 1.865514,-1.012854 z"
         style="font-size:medium;font-family:monospace;-inkscape-font-specification:monospace;fill:#ff0000"
         id="path160889" />
      <path
         d="m 49.689494,95.196026 -2.433952,4.077257 h 2.433952 z m -0.170531,-0.950844 h 1.209224 v 5.028101 h 1.028358 v 0.847487 h -1.028358 v 1.83968 h -1.038693 v -1.83968 h -3.271107 v -0.987013 z"
         style="font-size:medium;font-family:monospace;-inkscape-font-specification:monospace;fill:#ff0000"
         id="path160891" />
      <path
         d="m 61.130623,111.31385 q 0,-0.28422 0.196369,-0.49092 0.201538,-0.20671 0.48059,-0.20671 0.289387,0 0.496092,0.20671 0.206705,0.2067 0.206705,0.49092 0,0.28939 -0.206705,0.49093 -0.201538,0.20154 -0.496092,0.20154 -0.289387,0 -0.485757,-0.19637 -0.191202,-0.19637 -0.191202,-0.4961 z m 0.687294,-3.15225 q -0.728635,0 -1.090369,0.78548 -0.356567,0.78548 -0.356567,2.39261 0,1.60197 0.356567,2.38745 0.361734,0.78547 1.090369,0.78547 0.733803,0 1.090369,-0.78547 0.361734,-0.78548 0.361734,-2.38745 0,-1.60713 -0.361734,-2.39261 -0.356566,-0.78548 -1.090369,-0.78548 z m 0,-0.82682 q 1.235063,0 1.865513,1.01286 0.635618,1.01285 0.635618,2.99205 0,1.97404 -0.635618,2.98689 -0.63045,1.01285 -1.865513,1.01285 -1.235063,0 -1.865513,-1.01285 -0.630451,-1.01285 -0.630451,-2.98689 0,-1.9792 0.630451,-2.99205 0.63045,-1.01286 1.865513,-1.01286 z"
         style="font-size:medium;font-family:monospace;-inkscape-font-specification:monospace"
         id="path160893" />
      <path
         d="m 66.076039,107.47431 h 3.906726 v 0.87849 h -2.955883 v 1.89652 q 0.222208,-0.0827 0.444416,-0.11885 0.227376,-0.0413 0.454751,-0.0413 1.19889,0 1.901687,0.70796 0.702797,0.70797 0.702797,1.91719 0,1.21956 -0.738971,1.92236 -0.733803,0.70279 -2.010206,0.70279 -0.614948,0 -1.126543,-0.0827 -0.506427,-0.0827 -0.909502,-0.24804 v -1.05937 q 0.475421,0.25838 0.956011,0.38758 0.480589,0.12402 0.981849,0.12402 0.862993,0 1.32808,-0.45475 0.470254,-0.45475 0.470254,-1.29191 0,-0.82682 -0.485757,-1.28674 -0.480589,-0.45992 -1.343583,-0.45992 -0.418578,0 -0.816485,0.0982 -0.397907,0.093 -0.759641,0.28422 z"
         style="font-size:medium;font-family:monospace;-inkscape-font-specification:monospace"
         id="path160895" />
      <path
         d="m 80.245674,111.31385 q 0,-0.28422 0.19637,-0.49092 0.201537,-0.20671 0.480589,-0.20671 0.289387,0 0.496092,0.20671 0.206705,0.2067 0.206705,0.49092 0,0.28939 -0.206705,0.49093 -0.201537,0.20154 -0.496092,0.20154 -0.289387,0 -0.485757,-0.19637 -0.191202,-0.19637 -0.191202,-0.4961 z m 0.687294,-3.15225 q -0.728635,0 -1.090369,0.78548 -0.356566,0.78548 -0.356566,2.39261 0,1.60197 0.356566,2.38745 0.361734,0.78547 1.090369,0.78547 0.733803,0 1.090369,-0.78547 0.361734,-0.78548 0.361734,-2.38745 0,-1.60713 -0.361734,-2.39261 -0.356566,-0.78548 -1.090369,-0.78548 z m 0,-0.82682 q 1.235063,0 1.865513,1.01286 0.635619,1.01285 0.635619,2.99205 0,1.97404 -0.635619,2.98689 -0.63045,1.01285 -1.865513,1.01285 -1.235063,0 -1.865513,-1.01285 -0.630451,-1.01285 -0.630451,-2.98689 0,-1.9792 0.630451,-2.99205 0.63045,-1.01286 1.865513,-1.01286 z"
         style="font-size:medium;font-family:monospace;-inkscape-font-specification:monospace"
         id="path160897" />
      <path
         d="m 84.839691,107.47431 h 4.85757 v 0.44441 l -2.759513,7.27085 h -1.090369 l 2.687166,-6.83677 h -3.694854 z"
         style="font-size:medium;font-family:monospace;-inkscape-font-specification:monospace"
         id="path160899" />
      <path
         d="m 99.360725,111.31385 q 0,-0.28422 0.19637,-0.49092 0.201537,-0.20671 0.480585,-0.20671 0.28939,0 0.4961,0.20671 0.2067,0.2067 0.2067,0.49092 0,0.28939 -0.2067,0.49093 -0.20154,0.20154 -0.4961,0.20154 -0.289383,0 -0.485753,-0.19637 -0.191202,-0.19637 -0.191202,-0.4961 z m 0.687295,-3.15225 q -0.728636,0 -1.09037,0.78548 -0.356566,0.78548 -0.356566,2.39261 0,1.60197 0.356566,2.38745 0.361734,0.78547 1.09037,0.78547 0.7338,0 1.09037,-0.78547 0.36173,-0.78548 0.36173,-2.38745 0,-1.60713 -0.36173,-2.39261 -0.35657,-0.78548 -1.09037,-0.78548 z m 0,-0.82682 q 1.23506,0 1.86551,1.01286 0.63562,1.01285 0.63562,2.99205 0,1.97404 -0.63562,2.98689 -0.63045,1.01285 -1.86551,1.01285 -1.235063,0 -1.865514,-1.01285 -0.63045,-1.01285 -0.63045,-2.98689 0,-1.9792 0.63045,-2.99205 0.630451,-1.01286 1.865514,-1.01286 z"
         style="font-size:medium;font-family:monospace;-inkscape-font-specification:monospace"
         id="path160901" />
      <path
         d="m 108.35755,107.64484 v 0.96118 q -0.32556,-0.1912 -0.69246,-0.28939 -0.3669,-0.10335 -0.76481,-0.10335 -0.99218,0 -1.50378,0.7493 -0.51159,0.74414 -0.51159,2.19624 0.24804,-0.51676 0.68729,-0.79064 0.43925,-0.27905 1.00769,-0.27905 1.11621,0 1.72599,0.68729 0.61494,0.68213 0.61494,1.93786 0,1.25057 -0.63045,1.93786 -0.63045,0.68729 -1.77249,0.68729 -1.34359,0 -1.96887,-0.96117 -0.62528,-0.96635 -0.62528,-3.03857 0,-1.95336 0.74931,-2.97655 0.75447,-1.02836 2.18073,-1.02836 0.38241,0 0.76481,0.0827 0.38241,0.0775 0.73897,0.22738 z m -1.86034,3.26077 q -0.66663,0 -1.04903,0.48059 -0.38241,0.48059 -0.38241,1.32808 0,0.84749 0.38241,1.32808 0.3824,0.48059 1.04903,0.48059 0.69246,0 1.04386,-0.45475 0.3514,-0.45992 0.3514,-1.35392 0,-0.89917 -0.3514,-1.35392 -0.3514,-0.45475 -1.04386,-0.45475 z"
         style="font-size:medium;font-family:monospace;-inkscape-font-specification:monospace"
         id="path160903" />
    </g>
  </g>
</svg>
