<?xml version="1.0" encoding="UTF-8" standalone="no"?>
<!-- Created with Inkscape (http://www.inkscape.org/) -->

<svg
   width="288.41037mm"
   height="40.65033mm"
   viewBox="0 0 288.41037 40.65033"
   version="1.1"
   id="svg161010"
   inkscape:version="1.2-dev (9a006c9b6a, 2021-07-31)"
   sodipodi:docname="21_bitmap_quickselect_1.svg"
   xmlns:inkscape="http://www.inkscape.org/namespaces/inkscape"
   xmlns:sodipodi="http://sodipodi.sourceforge.net/DTD/sodipodi-0.dtd"
   xmlns="http://www.w3.org/2000/svg"
   xmlns:svg="http://www.w3.org/2000/svg">
  <sodipodi:namedview
     id="namedview161012"
     pagecolor="#505050"
     bordercolor="#ffffff"
     borderopacity="1"
     inkscape:pageshadow="0"
     inkscape:pageopacity="0"
     inkscape:pagecheckerboard="1"
     inkscape:document-units="mm"
     showgrid="false"
     inkscape:zoom="0.77058782"
     inkscape:cx="499.61859"
     inkscape:cy="115.49625"
     inkscape:window-width="1920"
     inkscape:window-height="1011"
     inkscape:window-x="1920"
     inkscape:window-y="32"
     inkscape:window-maximized="1"
     inkscape:current-layer="layer1" />
  <defs
     id="defs161007" />
  <g
     inkscape:label="Layer 1"
     inkscape:groupmode="layer"
     id="layer1"
     transform="translate(25.061836,-98.131485)">
    <g
       aria-label="001001001001001101110"
       id="text1077301"
       style="font-size:10.5833px;line-height:0;stroke-width:0.264583">
      <path
         d="m -18.107865,127.79438 q 0,-0.28421 0.19637,-0.49092 0.201538,-0.2067 0.480589,-0.2067 0.289388,0 0.496093,0.2067 0.206705,0.20671 0.206705,0.49092 0,0.28939 -0.206705,0.49093 -0.201538,0.20154 -0.496093,0.20154 -0.289387,0 -0.485757,-0.19637 -0.191202,-0.19637 -0.191202,-0.4961 z m 0.687295,-3.15225 q -0.728636,0 -1.09037,0.78548 -0.356566,0.78548 -0.356566,2.39261 0,1.60197 0.356566,2.38745 0.361734,0.78548 1.09037,0.78548 0.733803,0 1.090369,-0.78548 0.361734,-0.78548 0.361734,-2.38745 0,-1.60713 -0.361734,-2.39261 -0.356566,-0.78548 -1.090369,-0.78548 z m 0,-0.82682 q 1.235062,0 1.865513,1.01286 0.635618,1.01285 0.635618,2.99205 0,1.97404 -0.635618,2.98689 -0.630451,1.01286 -1.865513,1.01286 -1.235063,0 -1.865514,-1.01286 -0.63045,-1.01285 -0.63045,-2.98689 0,-1.9792 0.63045,-2.99205 0.630451,-1.01286 1.865514,-1.01286 z"
         style="font-size:medium;line-height:1.25;font-family:monospace;-inkscape-font-specification:monospace"
         id="path162308" />
      <path
         d="m -11.736181,127.79438 q 0,-0.28421 0.19637,-0.49092 0.201537,-0.2067 0.480589,-0.2067 0.289387,0 0.496092,0.2067 0.206705,0.20671 0.206705,0.49092 0,0.28939 -0.206705,0.49093 -0.201537,0.20154 -0.496092,0.20154 -0.289387,0 -0.485757,-0.19637 -0.191202,-0.19637 -0.191202,-0.4961 z m 0.687294,-3.15225 q -0.728635,0 -1.090369,0.78548 -0.356566,0.78548 -0.356566,2.39261 0,1.60197 0.356566,2.38745 0.361734,0.78548 1.090369,0.78548 0.733803,0 1.0903695,-0.78548 0.3617339,-0.78548 0.3617339,-2.38745 0,-1.60713 -0.3617339,-2.39261 -0.3565665,-0.78548 -1.0903695,-0.78548 z m 0,-0.82682 q 1.2350631,0 1.8655135,1.01286 0.6356181,1.01285 0.6356181,2.99205 0,1.97404 -0.6356181,2.98689 -0.6304504,1.01286 -1.8655135,1.01286 -1.235063,0 -1.865513,-1.01286 -0.63045,-1.01285 -0.63045,-2.98689 0,-1.9792 0.63045,-2.99205 0.63045,-1.01286 1.865513,-1.01286 z"
         style="font-size:medium;line-height:1.25;font-family:monospace;-inkscape-font-specification:monospace"
         id="path162310" />
      <path
         d="m -6.465202,130.79161 h 1.6226348 v -5.89626 l -1.7466578,0.39274 v -0.95085 l 1.7363225,-0.3824 h 1.0438607 v 6.83677 h 1.6019643 v 0.87849 H -6.465202 Z"
         style="font-size:medium;line-height:1.25;font-family:monospace;-inkscape-font-specification:monospace"
         id="path162312" />
      <path
         d="m 1.0071866,127.79438 q 0,-0.28421 0.1963698,-0.49092 0.2015374,-0.2067 0.4805893,-0.2067 0.2893871,0 0.4960922,0.2067 0.206705,0.20671 0.206705,0.49092 0,0.28939 -0.206705,0.49093 -0.2015375,0.20154 -0.4960922,0.20154 -0.2893871,0 -0.4857569,-0.19637 -0.1912022,-0.19637 -0.1912022,-0.4961 z m 0.6872943,-3.15225 q -0.72863534,0 -1.09036922,0.78548 -0.35656624,0.78548 -0.35656624,2.39261 0,1.60197 0.35656624,2.38745 0.36173388,0.78548 1.09036922,0.78548 0.733803,0 1.0903693,-0.78548 0.3617339,-0.78548 0.3617339,-2.38745 0,-1.60713 -0.3617339,-2.39261 -0.3565663,-0.78548 -1.0903693,-0.78548 z m 0,-0.82682 q 1.2350628,0 1.8655133,1.01286 0.6356181,1.01285 0.6356181,2.99205 0,1.97404 -0.6356181,2.98689 -0.6304505,1.01286 -1.8655133,1.01286 -1.23506277,0 -1.86551323,-1.01286 -0.63045047,-1.01285 -0.63045047,-2.98689 0,-1.9792 0.63045047,-2.99205 0.63045046,-1.01286 1.86551323,-1.01286 z"
         style="font-size:medium;line-height:1.25;font-family:monospace;-inkscape-font-specification:monospace"
         id="path162314" />
      <path
         d="m 7.3788697,127.79438 q 0,-0.28421 0.1963698,-0.49092 0.2015375,-0.2067 0.4805893,-0.2067 0.2893871,0 0.4960922,0.2067 0.206705,0.20671 0.206705,0.49092 0,0.28939 -0.206705,0.49093 -0.2015375,0.20154 -0.4960922,0.20154 -0.2893871,0 -0.4857569,-0.19637 -0.1912022,-0.19637 -0.1912022,-0.4961 z m 0.6872944,-3.15225 q -0.7286354,0 -1.0903693,0.78548 -0.3565662,0.78548 -0.3565662,2.39261 0,1.60197 0.3565662,2.38745 0.3617339,0.78548 1.0903693,0.78548 0.733803,0 1.0903692,-0.78548 0.3617339,-0.78548 0.3617339,-2.38745 0,-1.60713 -0.3617339,-2.39261 -0.3565662,-0.78548 -1.0903692,-0.78548 z m 0,-0.82682 q 1.2350628,0 1.8655132,1.01286 0.6356177,1.01285 0.6356177,2.99205 0,1.97404 -0.6356177,2.98689 -0.6304504,1.01286 -1.8655132,1.01286 -1.2350628,0 -1.8655133,-1.01286 -0.6304505,-1.01285 -0.6304505,-2.98689 0,-1.9792 0.6304505,-2.99205 0.6304505,-1.01286 1.8655133,-1.01286 z"
         style="font-size:medium;line-height:1.25;font-family:monospace;-inkscape-font-specification:monospace"
         id="path162316" />
      <path
         d="m 12.649848,130.79161 h 1.622635 v -5.89626 l -1.746658,0.39274 v -0.95085 l 1.736323,-0.3824 h 1.04386 v 6.83677 h 1.601965 v 0.87849 h -4.258125 z"
         style="font-size:medium;line-height:1.25;font-family:monospace;-inkscape-font-specification:monospace"
         id="path162318" />
      <path
         d="m 20.122238,127.79438 q 0,-0.28421 0.19637,-0.49092 0.201537,-0.2067 0.480589,-0.2067 0.289387,0 0.496092,0.2067 0.206705,0.20671 0.206705,0.49092 0,0.28939 -0.206705,0.49093 -0.201537,0.20154 -0.496092,0.20154 -0.289387,0 -0.485757,-0.19637 -0.191202,-0.19637 -0.191202,-0.4961 z m 0.687294,-3.15225 q -0.728635,0 -1.090369,0.78548 -0.356566,0.78548 -0.356566,2.39261 0,1.60197 0.356566,2.38745 0.361734,0.78548 1.090369,0.78548 0.733803,0 1.090369,-0.78548 0.361734,-0.78548 0.361734,-2.38745 0,-1.60713 -0.361734,-2.39261 -0.356566,-0.78548 -1.090369,-0.78548 z m 0,-0.82682 q 1.235063,0 1.865513,1.01286 0.635619,1.01285 0.635619,2.99205 0,1.97404 -0.635619,2.98689 -0.63045,1.01286 -1.865513,1.01286 -1.235063,0 -1.865513,-1.01286 -0.630451,-1.01285 -0.630451,-2.98689 0,-1.9792 0.630451,-2.99205 0.63045,-1.01286 1.865513,-1.01286 z"
         style="font-size:medium;line-height:1.25;font-family:monospace;-inkscape-font-specification:monospace"
         id="path162320" />
      <path
         d="m 26.493919,127.79438 q 0,-0.28421 0.19637,-0.49092 0.201537,-0.2067 0.480589,-0.2067 0.289387,0 0.496092,0.2067 0.206705,0.20671 0.206705,0.49092 0,0.28939 -0.206705,0.49093 -0.201537,0.20154 -0.496092,0.20154 -0.289387,0 -0.485757,-0.19637 -0.191202,-0.19637 -0.191202,-0.4961 z m 0.687294,-3.15225 q -0.728635,0 -1.090369,0.78548 -0.356566,0.78548 -0.356566,2.39261 0,1.60197 0.356566,2.38745 0.361734,0.78548 1.090369,0.78548 0.733803,0 1.09037,-0.78548 0.361734,-0.78548 0.361734,-2.38745 0,-1.60713 -0.361734,-2.39261 -0.356567,-0.78548 -1.09037,-0.78548 z m 0,-0.82682 q 1.235063,0 1.865514,1.01286 0.635618,1.01285 0.635618,2.99205 0,1.97404 -0.635618,2.98689 -0.630451,1.01286 -1.865514,1.01286 -1.235062,0 -1.865513,-1.01286 -0.63045,-1.01285 -0.63045,-2.98689 0,-1.9792 0.63045,-2.99205 0.630451,-1.01286 1.865513,-1.01286 z"
         style="font-size:medium;line-height:1.25;font-family:monospace;-inkscape-font-specification:monospace"
         id="path162322" />
      <path
         d="m 31.7649,130.79161 h 1.622634 v -5.89626 l -1.746657,0.39274 v -0.95085 l 1.736322,-0.3824 h 1.043861 v 6.83677 h 1.601964 v 0.87849 H 31.7649 Z"
         style="font-size:medium;line-height:1.25;font-family:monospace;-inkscape-font-specification:monospace;fill:#ff0000"
         id="path162324" />
      <path
         d="m 39.237289,127.79438 q 0,-0.28421 0.19637,-0.49092 0.201537,-0.2067 0.480589,-0.2067 0.289387,0 0.496092,0.2067 0.206705,0.20671 0.206705,0.49092 0,0.28939 -0.206705,0.49093 -0.201537,0.20154 -0.496092,0.20154 -0.289387,0 -0.485757,-0.19637 -0.191202,-0.19637 -0.191202,-0.4961 z m 0.687294,-3.15225 q -0.728635,0 -1.090369,0.78548 -0.356566,0.78548 -0.356566,2.39261 0,1.60197 0.356566,2.38745 0.361734,0.78548 1.090369,0.78548 0.733803,0 1.09037,-0.78548 0.361734,-0.78548 0.361734,-2.38745 0,-1.60713 -0.361734,-2.39261 -0.356567,-0.78548 -1.09037,-0.78548 z m 0,-0.82682 q 1.235063,0 1.865514,1.01286 0.635618,1.01285 0.635618,2.99205 0,1.97404 -0.635618,2.98689 -0.630451,1.01286 -1.865514,1.01286 -1.235062,0 -1.865513,-1.01286 -0.63045,-1.01285 -0.63045,-2.98689 0,-1.9792 0.63045,-2.99205 0.630451,-1.01286 1.865513,-1.01286 z"
         style="font-size:medium;line-height:1.25;font-family:monospace;-inkscape-font-specification:monospace"
         id="path162326" />
      <path
         d="m 45.60897,127.79438 q 0,-0.28421 0.19637,-0.49092 0.201538,-0.2067 0.480589,-0.2067 0.289388,0 0.496093,0.2067 0.206705,0.20671 0.206705,0.49092 0,0.28939 -0.206705,0.49093 -0.201538,0.20154 -0.496093,0.20154 -0.289387,0 -0.485756,-0.19637 -0.191203,-0.19637 -0.191203,-0.4961 z m 0.687295,-3.15225 q -0.728636,0 -1.09037,0.78548 -0.356566,0.78548 -0.356566,2.39261 0,1.60197 0.356566,2.38745 0.361734,0.78548 1.09037,0.78548 0.733803,0 1.090369,-0.78548 0.361734,-0.78548 0.361734,-2.38745 0,-1.60713 -0.361734,-2.39261 -0.356566,-0.78548 -1.090369,-0.78548 z m 0,-0.82682 q 1.235062,0 1.865513,1.01286 0.635618,1.01285 0.635618,2.99205 0,1.97404 -0.635618,2.98689 -0.630451,1.01286 -1.865513,1.01286 -1.235063,0 -1.865514,-1.01286 -0.63045,-1.01285 -0.63045,-2.98689 0,-1.9792 0.63045,-2.99205 0.630451,-1.01286 1.865514,-1.01286 z"
         style="font-size:medium;line-height:1.25;font-family:monospace;-inkscape-font-specification:monospace"
         id="path162328" />
      <path
         d="m 50.879947,130.79161 h 1.622635 v -5.89626 l -1.746658,0.39274 v -0.95085 l 1.736323,-0.3824 h 1.04386 v 6.83677 h 1.601964 v 0.87849 h -4.258124 z"
         style="font-size:medium;line-height:1.25;font-family:monospace;-inkscape-font-specification:monospace"
         id="path162330" />
      <path
         d="m 58.35234,127.79438 q 0,-0.28421 0.19637,-0.49092 0.201538,-0.2067 0.480589,-0.2067 0.289388,0 0.496093,0.2067 0.206705,0.20671 0.206705,0.49092 0,0.28939 -0.206705,0.49093 -0.201538,0.20154 -0.496093,0.20154 -0.289387,0 -0.485756,-0.19637 -0.191203,-0.19637 -0.191203,-0.4961 z m 0.687295,-3.15225 q -0.728636,0 -1.09037,0.78548 -0.356566,0.78548 -0.356566,2.39261 0,1.60197 0.356566,2.38745 0.361734,0.78548 1.09037,0.78548 0.733803,0 1.090369,-0.78548 0.361734,-0.78548 0.361734,-2.38745 0,-1.60713 -0.361734,-2.39261 -0.356566,-0.78548 -1.090369,-0.78548 z m 0,-0.82682 q 1.235063,0 1.865513,1.01286 0.635618,1.01285 0.635618,2.99205 0,1.97404 -0.635618,2.98689 -0.63045,1.01286 -1.865513,1.01286 -1.235063,0 -1.865514,-1.01286 -0.63045,-1.01285 -0.63045,-2.98689 0,-1.9792 0.63045,-2.99205 0.630451,-1.01286 1.865514,-1.01286 z"
         style="font-size:medium;line-height:1.25;font-family:monospace;-inkscape-font-specification:monospace"
         id="path162332" />
      <path
         d="m 64.724022,127.79438 q 0,-0.28421 0.196369,-0.49092 0.201538,-0.2067 0.48059,-0.2067 0.289387,0 0.496092,0.2067 0.206705,0.20671 0.206705,0.49092 0,0.28939 -0.206705,0.49093 -0.201538,0.20154 -0.496092,0.20154 -0.289387,0 -0.485757,-0.19637 -0.191202,-0.19637 -0.191202,-0.4961 z m 0.687294,-3.15225 q -0.728635,0 -1.090369,0.78548 -0.356567,0.78548 -0.356567,2.39261 0,1.60197 0.356567,2.38745 0.361734,0.78548 1.090369,0.78548 0.733803,0 1.090369,-0.78548 0.361734,-0.78548 0.361734,-2.38745 0,-1.60713 -0.361734,-2.39261 -0.356566,-0.78548 -1.090369,-0.78548 z m 0,-0.82682 q 1.235063,0 1.865513,1.01286 0.635618,1.01285 0.635618,2.99205 0,1.97404 -0.635618,2.98689 -0.63045,1.01286 -1.865513,1.01286 -1.235063,0 -1.865513,-1.01286 -0.630451,-1.01285 -0.630451,-2.98689 0,-1.9792 0.630451,-2.99205 0.63045,-1.01286 1.865513,-1.01286 z"
         style="font-size:medium;line-height:1.25;font-family:monospace;-inkscape-font-specification:monospace"
         id="path162334" />
      <path
         d="m 69.994998,130.79161 h 1.622635 v -5.89626 l -1.746658,0.39274 v -0.95085 l 1.736323,-0.3824 h 1.04386 v 6.83677 h 1.601965 v 0.87849 h -4.258125 z"
         style="font-size:medium;line-height:1.25;font-family:monospace;-inkscape-font-specification:monospace"
         id="path162336" />
      <path
         d="m 76.366687,130.79161 h 1.622635 v -5.89626 l -1.746658,0.39274 v -0.95085 l 1.736323,-0.3824 h 1.04386 v 6.83677 h 1.601965 v 0.87849 h -4.258125 z"
         style="font-size:medium;line-height:1.25;font-family:monospace;-inkscape-font-specification:monospace"
         id="path162338" />
      <path
         d="m 83.839073,127.79438 q 0,-0.28421 0.19637,-0.49092 0.201537,-0.2067 0.480589,-0.2067 0.289387,0 0.496092,0.2067 0.206705,0.20671 0.206705,0.49092 0,0.28939 -0.206705,0.49093 -0.201537,0.20154 -0.496092,0.20154 -0.289387,0 -0.485757,-0.19637 -0.191202,-0.19637 -0.191202,-0.4961 z m 0.687294,-3.15225 q -0.728635,0 -1.090369,0.78548 -0.356566,0.78548 -0.356566,2.39261 0,1.60197 0.356566,2.38745 0.361734,0.78548 1.090369,0.78548 0.733803,0 1.090369,-0.78548 0.361734,-0.78548 0.361734,-2.38745 0,-1.60713 -0.361734,-2.39261 -0.356566,-0.78548 -1.090369,-0.78548 z m 0,-0.82682 q 1.235063,0 1.865513,1.01286 0.635619,1.01285 0.635619,2.99205 0,1.97404 -0.635619,2.98689 -0.63045,1.01286 -1.865513,1.01286 -1.235063,0 -1.865513,-1.01286 -0.630451,-1.01285 -0.630451,-2.98689 0,-1.9792 0.630451,-2.99205 0.63045,-1.01286 1.865513,-1.01286 z"
         style="font-size:medium;line-height:1.25;font-family:monospace;-inkscape-font-specification:monospace"
         id="path162340" />
      <path
         d="m 89.11005,130.79161 h 1.622634 v -5.89626 l -1.746657,0.39274 v -0.95085 l 1.736322,-0.3824 h 1.043861 v 6.83677 h 1.601964 v 0.87849 H 89.11005 Z"
         style="font-size:medium;line-height:1.25;font-family:monospace;-inkscape-font-specification:monospace"
         id="path162342" />
      <path
         d="m 95.481738,130.79161 h 1.622635 v -5.89626 l -1.746658,0.39274 v -0.95085 l 1.736323,-0.3824 h 1.043861 v 6.83677 h 1.601964 v 0.87849 h -4.258125 z"
         style="font-size:medium;line-height:1.25;font-family:monospace;-inkscape-font-specification:monospace"
         id="path162344" />
      <path
         d="m 101.85342,130.79161 h 1.62263 v -5.89626 l -1.74665,0.39274 v -0.95085 l 1.73632,-0.3824 h 1.04386 v 6.83677 h 1.60196 v 0.87849 h -4.25812 z"
         style="font-size:medium;line-height:1.25;font-family:monospace;-inkscape-font-specification:monospace"
         id="path162346" />
      <path
         d="m 109.32581,127.79438 q 0,-0.28421 0.19637,-0.49092 0.20153,-0.2067 0.48058,-0.2067 0.28939,0 0.4961,0.2067 0.2067,0.20671 0.2067,0.49092 0,0.28939 -0.2067,0.49093 -0.20154,0.20154 -0.4961,0.20154 -0.28938,0 -0.48575,-0.19637 -0.1912,-0.19637 -0.1912,-0.4961 z m 0.68729,-3.15225 q -0.72864,0 -1.09037,0.78548 -0.35657,0.78548 -0.35657,2.39261 0,1.60197 0.35657,2.38745 0.36173,0.78548 1.09037,0.78548 0.7338,0 1.09037,-0.78548 0.36173,-0.78548 0.36173,-2.38745 0,-1.60713 -0.36173,-2.39261 -0.35657,-0.78548 -1.09037,-0.78548 z m 0,-0.82682 q 1.23506,0 1.86551,1.01286 0.63562,1.01285 0.63562,2.99205 0,1.97404 -0.63562,2.98689 -0.63045,1.01286 -1.86551,1.01286 -1.23506,0 -1.86551,-1.01286 -0.63045,-1.01285 -0.63045,-2.98689 0,-1.9792 0.63045,-2.99205 0.63045,-1.01286 1.86551,-1.01286 z"
         style="font-size:medium;line-height:1.25;font-family:monospace;-inkscape-font-specification:monospace"
         id="path162348" />
    </g>
    <g
       aria-label="randomly picked document 8 → value 2021-12-27"
       id="text1116180"
       style="font-size:8.53336px;line-height:1.25;font-family:monospace;-inkscape-font-specification:monospace;stroke-width:0.264583">
      <path
         d="m -15.702874,108.21281 q -0.245834,-0.19166 -0.500001,-0.27916 -0.254168,-0.0875 -0.558335,-0.0875 -0.716669,0 -1.095837,0.45 -0.379168,0.45 -0.379168,1.3 v 2.32084 h -0.770836 v -4.66668 h 0.770836 v 0.9125 q 0.191667,-0.49583 0.587502,-0.75833 0.400001,-0.26667 0.945836,-0.26667 0.283334,0 0.529169,0.0708 0.245834,0.0708 0.470834,0.22084 z"
         style="font-size:medium"
         id="path162229" />
      <path
         d="m -12.452864,109.57115 h -0.254167 q -0.670836,0 -1.012504,0.2375 -0.337501,0.23334 -0.337501,0.7 0,0.42084 0.254168,0.65417 0.254167,0.23334 0.704169,0.23334 0.633335,0 0.995836,-0.4375 0.362501,-0.44167 0.366668,-1.21667 v -0.17084 z m 1.487505,-0.31667 v 2.66251 h -0.770836 v -0.69167 q -0.245834,0.41667 -0.620835,0.61667 -0.370835,0.19584 -0.90417,0.19584 -0.712502,0 -1.137503,-0.40001 -0.425002,-0.40416 -0.425002,-1.07917 0,-0.77916 0.520835,-1.18333 0.525002,-0.40417 1.537505,-0.40417 h 1.02917 v -0.12083 q -0.0042,-0.55834 -0.283334,-0.80834 -0.279168,-0.25417 -0.89167,-0.25417 -0.391668,0 -0.791669,0.1125 -0.400001,0.1125 -0.779169,0.32917 v -0.76667 q 0.425001,-0.1625 0.812503,-0.24167 0.391668,-0.0833 0.758335,-0.0833 0.579169,0 0.987503,0.17083 0.412502,0.17084 0.666669,0.51251 0.158334,0.20833 0.225001,0.51666 0.06667,0.30417 0.06667,0.91667 z"
         style="font-size:medium"
         id="path162231" />
      <path
         d="m -5.8611773,109.02532 v 2.89167 H -6.632013 v -2.89167 q 0,-0.62917 -0.220834,-0.92501 -0.220834,-0.29583 -0.6916688,-0.29583 -0.5375016,0 -0.8291692,0.38333 -0.2875009,0.37917 -0.2875009,1.09167 v 2.63751 h -0.766669 v -4.66668 h 0.766669 v 0.7 q 0.2041673,-0.4 0.5541684,-0.60417 0.3500011,-0.20833 0.8291692,-0.20833 0.7125022,0 1.0625033,0.47084 0.3541677,0.46666 0.3541677,1.41667 z"
         style="font-size:medium"
         id="path162233" />
      <path
         d="m -1.5278314,107.84615 v -2.41251 h 0.76666906 v 6.48335 H -1.5278314 v -0.5875 q -0.1916672,0.34583 -0.5125015,0.52917 -0.3166677,0.17917 -0.7333356,0.17917 -0.8458359,0 -1.3333374,-0.65417 -0.4833349,-0.65834 -0.4833349,-1.81251 0,-1.1375 0.4875015,-1.78334 0.4875015,-0.65 1.3291708,-0.65 0.4208346,0 0.7416689,0.18333 0.3208343,0.17917 0.5041682,0.52501 z m -2.2541735,1.74167 q 0,0.89167 0.2833342,1.34584 0.2833342,0.45416 0.8375025,0.45416 0.5541684,0 0.8416693,-0.45833 0.2916675,-0.45834 0.2916675,-1.34167 0,-0.8875 -0.2916675,-1.34167 -0.2875009,-0.45834 -0.8416693,-0.45834 -0.5541683,0 -0.8375025,0.45417 -0.2833342,0.45417 -0.2833342,1.34584 z"
         style="font-size:medium"
         id="path162235" />
      <path
         d="m 2.6013482,107.78781 q -0.5833351,0 -0.883336,0.45417 -0.3000009,0.45417 -0.3000009,1.34584 0,0.8875 0.3000009,1.34584 0.3000009,0.45416 0.883336,0.45416 0.5875018,0 0.8875028,-0.45416 0.3000009,-0.45834 0.3000009,-1.34584 0,-0.89167 -0.3000009,-1.34584 -0.300001,-0.45417 -0.8875028,-0.45417 z m 0,-0.65 q 0.9708363,0 1.4833379,0.62917 0.5166683,0.62917 0.5166683,1.82084 0,1.19584 -0.5125016,1.825 -0.5125016,0.62501 -1.4875046,0.62501 -0.9708363,0 -1.4833379,-0.62501 -0.51250152,-0.62916 -0.51250152,-1.825 0,-1.19167 0.51250152,-1.82084 0.5125016,-0.62917 1.4833379,-0.62917 z"
         style="font-size:medium"
         id="path162237" />
      <path
         d="m 7.988865,107.72531 q 0.1416671,-0.3 0.3583345,-0.44167 0.220834,-0.14583 0.5291682,-0.14583 0.5625018,0 0.7916691,0.4375 0.2333341,0.43334 0.2333341,1.63751 v 2.70417 H 9.2013687 v -2.67084 q 0,-0.9875 -0.1125003,-1.225 -0.1083337,-0.24167 -0.4000012,-0.24167 -0.3333344,0 -0.4583348,0.25833 -0.1208337,0.25417 -0.1208337,1.20834 v 2.67084 H 7.4096966 v -2.67084 q 0,-1 -0.1208337,-1.23334 -0.116667,-0.23333 -0.4250013,-0.23333 -0.3041676,0 -0.4250013,0.25833 -0.1166671,0.25417 -0.1166671,1.20834 v 2.67084 H 5.6263578 v -4.66668 h 0.6958354 v 0.4 q 0.1375005,-0.25 0.3416678,-0.37917 0.2083339,-0.13333 0.4708347,-0.13333 0.3166677,0 0.5250016,0.14583 0.2125007,0.14584 0.3291677,0.44167 z"
         style="font-size:medium"
         id="path162239" />
      <path
         d="m 12.972212,110.22532 q 0,0.51667 0.187501,0.77917 0.191667,0.2625 0.562501,0.2625 h 0.895836 v 0.65 h -0.970836 q -0.687502,0 -1.06667,-0.44167 -0.375001,-0.44166 -0.375001,-1.25 v -4.23751 h -1.22917 v -0.6 h 1.995839 z"
         style="font-size:medium"
         id="path162241" />
      <path
         d="m 19.022231,110.41699 q -0.191667,0.4875 -0.487502,1.28333 -0.412501,1.10001 -0.554168,1.34168 -0.191667,0.325 -0.479168,0.4875 -0.287501,0.1625 -0.670836,0.1625 h -0.616668 v -0.64167 h 0.454168 q 0.337501,0 0.529168,-0.19583 0.191667,-0.19584 0.487502,-1.01251 l -1.804172,-4.59168 h 0.812502 l 1.383338,3.65001 1.362504,-3.65001 h 0.812502 z"
         style="font-size:medium"
         id="path162243" />
      <path
         d="m 27.284757,111.32949 v 2.36251 h -0.770836 v -6.44169 h 0.770836 v 0.59584 q 0.191667,-0.34584 0.508335,-0.52501 0.320834,-0.18333 0.737502,-0.18333 0.845836,0 1.325004,0.65417 0.483335,0.65417 0.483335,1.81251 0,1.1375 -0.483335,1.7875 -0.483335,0.64584 -1.325004,0.64584 -0.425001,0 -0.745836,-0.17917 -0.316667,-0.18334 -0.500001,-0.52917 z m 2.250007,-1.74167 q 0,-0.89167 -0.283335,-1.34584 -0.279167,-0.45417 -0.833335,-0.45417 -0.558336,0 -0.845836,0.45834 -0.287501,0.45417 -0.287501,1.34167 0,0.88333 0.287501,1.34167 0.2875,0.45833 0.845836,0.45833 0.554168,0 0.833335,-0.45416 0.283335,-0.45417 0.283335,-1.34584 z"
         style="font-size:medium"
         id="path162245" />
      <path
         d="m 31.926438,107.25031 h 1.962506 v 4.07085 h 1.520838 v 0.59583 h -3.808345 v -0.59583 h 1.520838 v -3.47501 h -1.195837 z m 1.195837,-1.81667 h 0.766669 v 0.97084 h -0.766669 z"
         style="font-size:medium"
         id="path162247" />
      <path
         d="m 40.418131,111.67949 q -0.308334,0.17917 -0.637502,0.26667 -0.325001,0.0917 -0.666669,0.0917 -1.083336,0 -1.695838,-0.65001 -0.608336,-0.65 -0.608336,-1.8 0,-1.15001 0.608336,-1.80001 0.612502,-0.65 1.695838,-0.65 0.337501,0 0.658336,0.0875 0.320834,0.0875 0.645835,0.27084 v 0.80416 q -0.304168,-0.27083 -0.612502,-0.39166 -0.304168,-0.12084 -0.691669,-0.12084 -0.720835,0 -1.108337,0.46667 -0.387501,0.46667 -0.387501,1.33334 0,0.8625 0.387501,1.33334 0.391668,0.46666 1.108337,0.46666 0.400001,0 0.716669,-0.12083 0.316668,-0.125 0.587502,-0.38333 z"
         style="font-size:medium"
         id="path162249" />
      <path
         d="m 42.118132,105.43364 h 0.79167 v 3.75418 l 2.012506,-1.93751 h 0.933336 l -1.837506,1.75834 2.125007,2.90834 h -0.937503 l -1.725005,-2.40834 -0.570835,0.5375 v 1.87084 h -0.79167 z"
         style="font-size:medium"
         id="path162251" />
      <path
         d="m 50.905664,109.39198 v 0.37501 H 47.58482 v 0.025 q 0,0.7625 0.395835,1.17917 0.400001,0.41666 1.125003,0.41666 0.366668,0 0.766669,-0.11666 0.400001,-0.11667 0.854169,-0.35417 v 0.7625 q -0.437501,0.17917 -0.845836,0.26667 -0.404168,0.0917 -0.783335,0.0917 -1.087504,0 -1.700006,-0.65001 -0.612501,-0.65416 -0.612501,-1.8 0,-1.11667 0.600001,-1.78334 0.600002,-0.66667 1.600005,-0.66667 0.89167,0 1.404171,0.60417 0.516669,0.60417 0.516669,1.65 z m -0.766669,-0.225 q -0.01667,-0.675 -0.320835,-1.025 -0.300001,-0.35417 -0.866669,-0.35417 -0.554168,0 -0.912503,0.36667 -0.358334,0.36667 -0.425001,1.01667 z"
         style="font-size:medium"
         id="path162253" />
      <path
         d="m 54.984839,107.84615 v -2.41251 h 0.766669 v 6.48335 h -0.766669 v -0.5875 q -0.191667,0.34583 -0.512501,0.52917 -0.316668,0.17917 -0.733336,0.17917 -0.845836,0 -1.333337,-0.65417 -0.483335,-0.65834 -0.483335,-1.81251 0,-1.1375 0.487501,-1.78334 0.487502,-0.65 1.329171,-0.65 0.420835,0 0.741669,0.18333 0.320834,0.17917 0.504168,0.52501 z m -2.254173,1.74167 q 0,0.89167 0.283334,1.34584 0.283334,0.45416 0.837502,0.45416 0.554169,0 0.84167,-0.45833 0.291667,-0.45834 0.291667,-1.34167 0,-0.8875 -0.291667,-1.34167 -0.287501,-0.45834 -0.84167,-0.45834 -0.554168,0 -0.837502,0.45417 -0.283334,0.45417 -0.283334,1.34584 z"
         style="font-size:medium"
         id="path162255" />
      <path
         d="m 65.259871,107.84615 v -2.41251 h 0.766669 v 6.48335 h -0.766669 v -0.5875 q -0.191667,0.34583 -0.512501,0.52917 -0.316668,0.17917 -0.733336,0.17917 -0.845836,0 -1.333337,-0.65417 -0.483335,-0.65834 -0.483335,-1.81251 0,-1.1375 0.487501,-1.78334 0.487502,-0.65 1.329171,-0.65 0.420835,0 0.741669,0.18333 0.320834,0.17917 0.504168,0.52501 z m -2.254173,1.74167 q 0,0.89167 0.283334,1.34584 0.283334,0.45416 0.837502,0.45416 0.554169,0 0.84167,-0.45833 0.291667,-0.45834 0.291667,-1.34167 0,-0.8875 -0.291667,-1.34167 -0.287501,-0.45834 -0.84167,-0.45834 -0.554168,0 -0.837502,0.45417 -0.283334,0.45417 -0.283334,1.34584 z"
         style="font-size:medium"
         id="path162257" />
      <path
         d="m 69.389047,107.78781 q -0.583335,0 -0.883336,0.45417 -0.300001,0.45417 -0.300001,1.34584 0,0.8875 0.300001,1.34584 0.300001,0.45416 0.883336,0.45416 0.587502,0 0.887503,-0.45416 0.300001,-0.45834 0.300001,-1.34584 0,-0.89167 -0.300001,-1.34584 -0.300001,-0.45417 -0.887503,-0.45417 z m 0,-0.65 q 0.970836,0 1.483338,0.62917 0.516668,0.62917 0.516668,1.82084 0,1.19584 -0.512501,1.825 -0.512502,0.62501 -1.487505,0.62501 -0.970836,0 -1.483338,-0.62501 -0.512501,-0.62916 -0.512501,-1.825 0,-1.19167 0.512501,-1.82084 0.512502,-0.62917 1.483338,-0.62917 z"
         style="font-size:medium"
         id="path162259" />
      <path
         d="m 76.380739,111.67949 q -0.308334,0.17917 -0.637502,0.26667 -0.325001,0.0917 -0.666668,0.0917 -1.083337,0 -1.695839,-0.65001 -0.608335,-0.65 -0.608335,-1.8 0,-1.15001 0.608335,-1.80001 0.612502,-0.65 1.695839,-0.65 0.337501,0 0.658335,0.0875 0.320834,0.0875 0.645835,0.27084 v 0.80416 q -0.304167,-0.27083 -0.612502,-0.39166 -0.304167,-0.12084 -0.691668,-0.12084 -0.720836,0 -1.108337,0.46667 -0.387501,0.46667 -0.387501,1.33334 0,0.8625 0.387501,1.33334 0.391668,0.46666 1.108337,0.46666 0.400001,0 0.716668,-0.12083 0.316668,-0.125 0.587502,-0.38333 z"
         style="font-size:medium"
         id="path162261" />
      <path
         d="m 77.909907,110.15032 v -2.89168 h 0.766669 v 2.89168 q 0,0.62917 0.220834,0.925 0.225001,0.29584 0.691669,0.29584 0.541668,0 0.829169,-0.37917 0.287501,-0.38334 0.287501,-1.09584 v -2.63751 h 0.770836 v 4.65835 h -0.770836 v -0.7 q -0.204167,0.40417 -0.558335,0.6125 -0.350001,0.20834 -0.820836,0.20834 -0.716669,0 -1.06667,-0.46667 -0.350001,-0.47084 -0.350001,-1.42084 z"
         style="font-size:medium"
         id="path162263" />
      <path
         d="m 85.0516,107.72531 q 0.141667,-0.3 0.358334,-0.44167 0.220834,-0.14583 0.529168,-0.14583 0.562502,0 0.791669,0.4375 0.233334,0.43334 0.233334,1.63751 v 2.70417 h -0.700002 v -2.67084 q 0,-0.9875 -0.1125,-1.225 -0.108334,-0.24167 -0.400001,-0.24167 -0.333335,0 -0.458335,0.25833 -0.120834,0.25417 -0.120834,1.20834 v 2.67084 h -0.700002 v -2.67084 q 0,-1 -0.120834,-1.23334 -0.116667,-0.23333 -0.425001,-0.23333 -0.304167,0 -0.425001,0.25833 -0.116667,0.25417 -0.116667,1.20834 v 2.67084 h -0.695836 v -4.66668 h 0.695836 v 0.4 q 0.1375,-0.25 0.341668,-0.37917 0.208334,-0.13333 0.470834,-0.13333 0.316668,0 0.525002,0.14583 0.212501,0.14584 0.329168,0.44167 z"
         style="font-size:medium"
         id="path162265" />
      <path
         d="m 92.005784,109.39198 v 0.37501 h -3.320843 v 0.025 q 0,0.7625 0.395834,1.17917 0.400001,0.41666 1.125004,0.41666 0.366667,0 0.766669,-0.11666 0.400001,-0.11667 0.854169,-0.35417 v 0.7625 q -0.437501,0.17917 -0.845836,0.26667 -0.404168,0.0917 -0.783336,0.0917 -1.087503,0 -1.700005,-0.65001 -0.612502,-0.65416 -0.612502,-1.8 0,-1.11667 0.600002,-1.78334 0.600002,-0.66667 1.600005,-0.66667 0.891669,0 1.404171,0.60417 0.516668,0.60417 0.516668,1.65 z m -0.766669,-0.225 q -0.01667,-0.675 -0.320834,-1.025 -0.300001,-0.35417 -0.86667,-0.35417 -0.554168,0 -0.912502,0.36667 -0.358335,0.36667 -0.425002,1.01667 z"
         style="font-size:medium"
         id="path162267" />
      <path
         d="m 96.889136,109.02532 v 2.89167 h -0.770835 v -2.89167 q 0,-0.62917 -0.220834,-0.92501 -0.220834,-0.29583 -0.691669,-0.29583 -0.537502,0 -0.829169,0.38333 -0.287501,0.37917 -0.287501,1.09167 v 2.63751 h -0.766669 v -4.66668 h 0.766669 v 0.7 q 0.204167,-0.4 0.554168,-0.60417 0.350001,-0.20833 0.829169,-0.20833 0.712503,0 1.062504,0.47084 0.354167,0.46666 0.354167,1.41667 z"
         style="font-size:medium"
         id="path162269" />
      <path
         d="m 100.20581,105.92531 v 1.325 h 1.74167 v 0.59584 h -1.74167 v 2.53334 q 0,0.51667 0.19583,0.72083 0.19584,0.20417 0.68334,0.20417 h 0.8625 v 0.6125 h -0.9375 q -0.8625,0 -1.216672,-0.34583 -0.354167,-0.34584 -0.354167,-1.19167 v -2.53334 h -1.245837 v -0.59584 h 1.245837 v -1.325 z"
         style="font-size:medium"
         id="path162271" />
      <path
         d="m 110.48917,108.96282 q -0.5625,0 -0.87084,0.31666 -0.30417,0.31251 -0.30417,0.88751 0,0.575 0.30834,0.89583 0.3125,0.31667 0.86667,0.31667 0.56667,0 0.87083,-0.3125 0.30834,-0.31667 0.30834,-0.9 0,-0.57084 -0.3125,-0.88751 -0.30834,-0.31666 -0.86667,-0.31666 z m -0.73334,-0.35 q -0.5375,-0.13751 -0.84167,-0.51251 -0.3,-0.375 -0.3,-0.90417 0,-0.74166 0.50417,-1.175 0.50417,-0.4375 1.37084,-0.4375 0.87083,0 1.375,0.4375 0.50417,0.43334 0.50417,1.175 0,0.52917 -0.30417,0.90417 -0.3,0.375 -0.8375,0.51251 0.625,0.1375 0.95417,0.55416 0.33333,0.41667 0.33333,1.07917 0,0.84167 -0.5375,1.31667 -0.5375,0.47501 -1.4875,0.47501 -0.95001,0 -1.48751,-0.47084 -0.53333,-0.475 -0.53333,-1.3125 0,-0.66667 0.32917,-1.08334 0.33333,-0.42083 0.95833,-0.55833 z m -0.30417,-1.33751 q 0,0.5 0.26667,0.7625 0.26667,0.2625 0.77084,0.2625 0.50833,0 0.775,-0.2625 0.26667,-0.2625 0.26667,-0.7625 0,-0.50833 -0.26667,-0.775 -0.2625,-0.26667 -0.775,-0.26667 -0.50417,0 -0.77084,0.27084 -0.26667,0.26666 -0.26667,0.77083 z"
         style="font-size:medium"
         id="path162273" />
      <path
         d="m 123.06005,109.75032 -1.21251,1.2125 -0.375,-0.375 0.66667,-0.66667 h -3.66668 v -0.68333 h 3.66668 l -0.66667,-0.66667 0.375,-0.375 1.21251,1.2125 z"
         style="font-size:medium"
         id="path162275" />
      <path
         d="m 128.88923,107.25031 h 0.79583 l 1.35417,3.91668 1.35834,-3.91668 h 0.79583 l -1.65833,4.66668 h -0.98751 z"
         style="font-size:medium"
         id="path162277" />
      <path
         d="m 136.53509,109.57115 h -0.25416 q -0.67084,0 -1.01251,0.2375 -0.3375,0.23334 -0.3375,0.7 0,0.42084 0.25417,0.65417 0.25417,0.23334 0.70417,0.23334 0.63333,0 0.99583,-0.4375 0.36251,-0.44167 0.36667,-1.21667 v -0.17084 z m 1.48751,-0.31667 v 2.66251 h -0.77084 v -0.69167 q -0.24583,0.41667 -0.62083,0.61667 -0.37084,0.19584 -0.90417,0.19584 -0.7125,0 -1.13751,-0.40001 -0.425,-0.40416 -0.425,-1.07917 0,-0.77916 0.52084,-1.18333 0.525,-0.40417 1.5375,-0.40417 h 1.02917 v -0.12083 q -0.004,-0.55834 -0.28333,-0.80834 -0.27917,-0.25417 -0.89167,-0.25417 -0.39167,0 -0.79167,0.1125 -0.4,0.1125 -0.77917,0.32917 v -0.76667 q 0.425,-0.1625 0.8125,-0.24167 0.39167,-0.0833 0.75834,-0.0833 0.57917,0 0.9875,0.17083 0.4125,0.17084 0.66667,0.51251 0.15833,0.20833 0.225,0.51666 0.0667,0.30417 0.0667,0.91667 z"
         style="font-size:medium"
         id="path162279" />
      <path
         d="m 141.4101,110.22532 q 0,0.51667 0.18751,0.77917 0.19166,0.2625 0.5625,0.2625 h 0.89583 v 0.65 h -0.97083 q -0.68751,0 -1.06667,-0.44167 -0.375,-0.44166 -0.375,-1.25 v -4.23751 h -1.22917 v -0.6 h 1.99583 z"
         style="font-size:medium"
         id="path162281" />
      <path
         d="m 144.69761,110.15032 v -2.89168 h 0.76667 v 2.89168 q 0,0.62917 0.22083,0.925 0.22501,0.29584 0.69167,0.29584 0.54167,0 0.82917,-0.37917 0.2875,-0.38334 0.2875,-1.09584 v -2.63751 h 0.77084 v 4.65835 h -0.77084 v -0.7 q -0.20416,0.40417 -0.55833,0.6125 -0.35,0.20834 -0.82084,0.20834 -0.71667,0 -1.06667,-0.46667 -0.35,-0.47084 -0.35,-1.42084 z"
         style="font-size:medium"
         id="path162283" />
      <path
         d="m 153.65597,109.39198 v 0.37501 h -3.32084 v 0.025 q 0,0.7625 0.39583,1.17917 0.4,0.41666 1.125,0.41666 0.36667,0 0.76667,-0.11666 0.4,-0.11667 0.85417,-0.35417 v 0.7625 q -0.4375,0.17917 -0.84583,0.26667 -0.40417,0.0917 -0.78334,0.0917 -1.0875,0 -1.70001,-0.65001 -0.6125,-0.65416 -0.6125,-1.8 0,-1.11667 0.6,-1.78334 0.60001,-0.66667 1.60001,-0.66667 0.89167,0 1.40417,0.60417 0.51667,0.60417 0.51667,1.65 z m -0.76667,-0.225 q -0.0167,-0.675 -0.32083,-1.025 -0.30001,-0.35417 -0.86667,-0.35417 -0.55417,0 -0.91251,0.36667 -0.35833,0.36667 -0.425,1.01667 z"
         style="font-size:medium"
         id="path162285" />
      <path
         d="m 160.85183,111.20866 h 2.85834 v 0.70833 H 159.931 v -0.70833 q 0.77917,-0.82084 1.3625,-1.45001 0.58334,-0.62917 0.80417,-0.8875 0.41667,-0.50834 0.5625,-0.82084 0.14583,-0.31666 0.14583,-0.64583 0,-0.52084 -0.30833,-0.81667 -0.30417,-0.29584 -0.8375,-0.29584 -0.37917,0 -0.79584,0.13751 -0.41667,0.1375 -0.88333,0.41666 v -0.85 q 0.42916,-0.20417 0.84167,-0.30833 0.41666,-0.10417 0.82083,-0.10417 0.9125,0 1.46667,0.4875 0.55834,0.48334 0.55834,1.27084 0,0.4 -0.1875,0.8 -0.18334,0.4 -0.6,0.88334 -0.23334,0.27083 -0.67917,0.75 -0.44167,0.47917 -1.35001,1.43334 z"
         style="font-size:medium"
         id="path162287" />
      <path
         d="m 166.44768,108.79198 q 0,-0.22916 0.15833,-0.39583 0.1625,-0.16667 0.3875,-0.16667 0.23334,0 0.40001,0.16667 0.16666,0.16667 0.16666,0.39583 0,0.23334 -0.16666,0.39584 -0.16251,0.1625 -0.40001,0.1625 -0.23333,0 -0.39166,-0.15834 -0.15417,-0.15833 -0.15417,-0.4 z m 0.55417,-2.54167 q -0.5875,0 -0.87917,0.63333 -0.2875,0.63334 -0.2875,1.92918 0,1.29167 0.2875,1.925 0.29167,0.63334 0.87917,0.63334 0.59167,0 0.87917,-0.63334 0.29166,-0.63333 0.29166,-1.925 0,-1.29584 -0.29166,-1.92918 -0.2875,-0.63333 -0.87917,-0.63333 z m 0,-0.66667 q 0.99583,0 1.50417,0.81667 0.5125,0.81667 0.5125,2.41251 0,1.59167 -0.5125,2.40834 -0.50834,0.81667 -1.50417,0.81667 -0.99584,0 -1.50417,-0.81667 -0.50834,-0.81667 -0.50834,-2.40834 0,-1.59584 0.50834,-2.41251 0.50833,-0.81667 1.50417,-0.81667 z"
         style="font-size:medium"
         id="path162289" />
      <path
         d="m 171.12686,111.20866 h 2.85834 v 0.70833 h -3.77918 v -0.70833 q 0.77917,-0.82084 1.3625,-1.45001 0.58334,-0.62917 0.80417,-0.8875 0.41667,-0.50834 0.56251,-0.82084 0.14583,-0.31666 0.14583,-0.64583 0,-0.52084 -0.30833,-0.81667 -0.30417,-0.29584 -0.83751,-0.29584 -0.37917,0 -0.79583,0.13751 -0.41667,0.1375 -0.88334,0.41666 v -0.85 q 0.42917,-0.20417 0.84167,-0.30833 0.41667,-0.10417 0.82084,-0.10417 0.9125,0 1.46667,0.4875 0.55833,0.48334 0.55833,1.27084 0,0.4 -0.1875,0.8 -0.18333,0.4 -0.6,0.88334 -0.23333,0.27083 -0.67917,0.75 -0.44167,0.47917 -1.35,1.43334 z"
         style="font-size:medium"
         id="path162291" />
      <path
         d="m 175.8352,111.20866 h 1.30834 v -4.75418 l -1.40834,0.31666 v -0.76667 l 1.4,-0.30833 h 0.84167 v 5.51252 h 1.29167 v 0.70833 h -3.43334 z"
         style="font-size:medium"
         id="path162293" />
      <path
         d="m 181.33106,109.23782 h 2.17084 v 0.68333 h -2.17084 z"
         style="font-size:medium"
         id="path162295" />
      <path
         d="m 186.11024,111.20866 h 1.30834 v -4.75418 l -1.40834,0.31666 v -0.76667 l 1.4,-0.30833 h 0.84167 v 5.51252 h 1.29167 v 0.70833 h -3.43334 z"
         style="font-size:medium"
         id="path162297" />
      <path
         d="m 191.67692,111.20866 h 2.85834 v 0.70833 h -3.77918 v -0.70833 q 0.77917,-0.82084 1.36251,-1.45001 0.58333,-0.62917 0.80417,-0.8875 0.41667,-0.50834 0.5625,-0.82084 0.14583,-0.31666 0.14583,-0.64583 0,-0.52084 -0.30833,-0.81667 -0.30417,-0.29584 -0.8375,-0.29584 -0.37917,0 -0.79584,0.13751 -0.41667,0.1375 -0.88334,0.41666 v -0.85 q 0.42917,-0.20417 0.84167,-0.30833 0.41667,-0.10417 0.82084,-0.10417 0.9125,0 1.46667,0.4875 0.55834,0.48334 0.55834,1.27084 0,0.4 -0.1875,0.8 -0.18334,0.4 -0.60001,0.88334 -0.23333,0.27083 -0.67917,0.75 -0.44166,0.47917 -1.35,1.43334 z"
         style="font-size:medium"
         id="path162299" />
      <path
         d="m 196.7436,109.23782 h 2.17084 v 0.68333 h -2.17084 z"
         style="font-size:medium"
         id="path162301" />
      <path
         d="m 201.95195,111.20866 h 2.85834 v 0.70833 h -3.77918 v -0.70833 q 0.77917,-0.82084 1.3625,-1.45001 0.58334,-0.62917 0.80417,-0.8875 0.41667,-0.50834 0.5625,-0.82084 0.14584,-0.31666 0.14584,-0.64583 0,-0.52084 -0.30834,-0.81667 -0.30416,-0.29584 -0.8375,-0.29584 -0.37917,0 -0.79583,0.13751 -0.41667,0.1375 -0.88334,0.41666 v -0.85 q 0.42917,-0.20417 0.84167,-0.30833 0.41667,-0.10417 0.82083,-0.10417 0.91251,0 1.46668,0.4875 0.55833,0.48334 0.55833,1.27084 0,0.4 -0.1875,0.8 -0.18333,0.4 -0.6,0.88334 -0.23334,0.27083 -0.67917,0.75 -0.44167,0.47917 -1.35,1.43334 z"
         style="font-size:medium"
         id="path162303" />
      <path
         d="m 206.11447,105.69614 h 3.91668 v 0.35833 l -2.22501,5.86252 h -0.87917 l 2.16668,-5.51251 h -2.97918 z"
         style="font-size:medium"
         id="path162305" />
    </g>
  </g>
</svg>
