<?xml version="1.0" encoding="UTF-8" standalone="no"?>
<!-- Created with Inkscape (http://www.inkscape.org/) -->

<svg
   width="288.41031mm"
   height="44.39212mm"
   viewBox="0 0 288.41031 44.39212"
   version="1.1"
   id="svg162515"
   inkscape:version="1.2-dev (9a006c9b6a, 2021-07-31)"
   sodipodi:docname="22_bitmap_quickselect_2.svg"
   xmlns:inkscape="http://www.inkscape.org/namespaces/inkscape"
   xmlns:sodipodi="http://sodipodi.sourceforge.net/DTD/sodipodi-0.dtd"
   xmlns="http://www.w3.org/2000/svg"
   xmlns:svg="http://www.w3.org/2000/svg">
  <sodipodi:namedview
     id="namedview162517"
     pagecolor="#505050"
     bordercolor="#ffffff"
     borderopacity="1"
     inkscape:pageshadow="0"
     inkscape:pageopacity="0"
     inkscape:pagecheckerboard="1"
     inkscape:document-units="mm"
     showgrid="false"
     inkscape:zoom="0.77058782"
     inkscape:cx="520.38196"
     inkscape:cy="111.60311"
     inkscape:window-width="1920"
     inkscape:window-height="1011"
     inkscape:window-x="1920"
     inkscape:window-y="32"
     inkscape:window-maximized="1"
     inkscape:current-layer="layer1" />
  <defs
     id="defs162512" />
  <g
     inkscape:label="Layer 1"
     inkscape:groupmode="layer"
     id="layer1"
     transform="translate(78.968157,-70.165789)">
    <g
       id="g1244965"
       transform="translate(-898.60752,51.934327)">
      <g
         aria-label="001000000000000001010"
         id="text1220670"
         style="font-size:10.5833px;line-height:0;stroke-width:0.264583">
        <path
           d="m 826.59331,51.165212 q 0,-0.28422 0.19637,-0.490925 0.20154,-0.206705 0.48059,-0.206705 0.28939,0 0.4961,0.206705 0.2067,0.206705 0.2067,0.490925 0,0.289387 -0.2067,0.490924 -0.20154,0.201538 -0.4961,0.201538 -0.28938,0 -0.48575,-0.19637 -0.19121,-0.19637 -0.19121,-0.496092 z m 0.6873,-3.152253 q -0.72864,0 -1.09037,0.78548 -0.35657,0.785479 -0.35657,2.392611 0,1.601964 0.35657,2.387443 0.36173,0.78548 1.09037,0.78548 0.7338,0 1.09037,-0.78548 0.36173,-0.785479 0.36173,-2.387443 0,-1.607132 -0.36173,-2.392611 -0.35657,-0.78548 -1.09037,-0.78548 z m 0,-0.82682 q 1.23506,0 1.86551,1.012855 0.63562,1.012855 0.63562,2.992056 0,1.974033 -0.63562,2.986888 -0.63045,1.012855 -1.86551,1.012855 -1.23506,0 -1.86551,-1.012855 -0.63045,-1.012855 -0.63045,-2.986888 0,-1.979201 0.63045,-2.992056 0.63045,-1.012855 1.86551,-1.012855 z"
           style="font-size:medium;line-height:1.25;font-family:monospace;-inkscape-font-specification:monospace"
           id="path162617" />
        <path
           d="m 832.965,51.165212 q 0,-0.28422 0.19637,-0.490925 0.20154,-0.206705 0.48059,-0.206705 0.28938,0 0.49609,0.206705 0.2067,0.206705 0.2067,0.490925 0,0.289387 -0.2067,0.490924 -0.20154,0.201538 -0.49609,0.201538 -0.28939,0 -0.48576,-0.19637 -0.1912,-0.19637 -0.1912,-0.496092 z m 0.68729,-3.152253 q -0.72863,0 -1.09037,0.78548 -0.35656,0.785479 -0.35656,2.392611 0,1.601964 0.35656,2.387443 0.36174,0.78548 1.09037,0.78548 0.73381,0 1.09037,-0.78548 0.36174,-0.785479 0.36174,-2.387443 0,-1.607132 -0.36174,-2.392611 -0.35656,-0.78548 -1.09037,-0.78548 z m 0,-0.82682 q 1.23507,0 1.86552,1.012855 0.63561,1.012855 0.63561,2.992056 0,1.974033 -0.63561,2.986888 -0.63045,1.012855 -1.86552,1.012855 -1.23506,0 -1.86551,-1.012855 -0.63045,-1.012855 -0.63045,-2.986888 0,-1.979201 0.63045,-2.992056 0.63045,-1.012855 1.86551,-1.012855 z"
           style="font-size:medium;line-height:1.25;font-family:monospace;-inkscape-font-specification:monospace"
           id="path162619" />
        <path
           d="m 838.23598,54.162435 h 1.62263 v -5.896262 l -1.74666,0.39274 v -0.950844 l 1.73633,-0.382404 h 1.04386 v 6.83677 h 1.60196 v 0.878497 h -4.25812 z"
           style="font-size:medium;line-height:1.25;font-family:monospace;-inkscape-font-specification:monospace"
           id="path162621" />
        <path
           d="m 845.70837,51.165212 q 0,-0.28422 0.19637,-0.490925 0.20153,-0.206705 0.48059,-0.206705 0.28938,0 0.49609,0.206705 0.2067,0.206705 0.2067,0.490925 0,0.289387 -0.2067,0.490924 -0.20154,0.201538 -0.49609,0.201538 -0.28939,0 -0.48576,-0.19637 -0.1912,-0.19637 -0.1912,-0.496092 z m 0.68729,-3.152253 q -0.72863,0 -1.09037,0.78548 -0.35657,0.785479 -0.35657,2.392611 0,1.601964 0.35657,2.387443 0.36174,0.78548 1.09037,0.78548 0.7338,0 1.09037,-0.78548 0.36173,-0.785479 0.36173,-2.387443 0,-1.607132 -0.36173,-2.392611 -0.35657,-0.78548 -1.09037,-0.78548 z m 0,-0.82682 q 1.23506,0 1.86551,1.012855 0.63562,1.012855 0.63562,2.992056 0,1.974033 -0.63562,2.986888 -0.63045,1.012855 -1.86551,1.012855 -1.23506,0 -1.86551,-1.012855 -0.63045,-1.012855 -0.63045,-2.986888 0,-1.979201 0.63045,-2.992056 0.63045,-1.012855 1.86551,-1.012855 z"
           style="font-size:medium;line-height:1.25;font-family:monospace;-inkscape-font-specification:monospace"
           id="path162623" />
        <path
           d="m 852.08005,51.165212 q 0,-0.28422 0.19637,-0.490925 0.20154,-0.206705 0.48059,-0.206705 0.28939,0 0.49609,0.206705 0.20671,0.206705 0.20671,0.490925 0,0.289387 -0.20671,0.490924 -0.20154,0.201538 -0.49609,0.201538 -0.28939,0 -0.48576,-0.19637 -0.1912,-0.19637 -0.1912,-0.496092 z m 0.68729,-3.152253 q -0.72863,0 -1.09037,0.78548 -0.35656,0.785479 -0.35656,2.392611 0,1.601964 0.35656,2.387443 0.36174,0.78548 1.09037,0.78548 0.73381,0 1.09037,-0.78548 0.36174,-0.785479 0.36174,-2.387443 0,-1.607132 -0.36174,-2.392611 -0.35656,-0.78548 -1.09037,-0.78548 z m 0,-0.82682 q 1.23507,0 1.86552,1.012855 0.63561,1.012855 0.63561,2.992056 0,1.974033 -0.63561,2.986888 -0.63045,1.012855 -1.86552,1.012855 -1.23506,0 -1.86551,-1.012855 -0.63045,-1.012855 -0.63045,-2.986888 0,-1.979201 0.63045,-2.992056 0.63045,-1.012855 1.86551,-1.012855 z"
           style="font-size:medium;line-height:1.25;font-family:monospace;-inkscape-font-specification:monospace"
           id="path162625" />
        <path
           d="m 858.45173,51.165212 q 0,-0.28422 0.19637,-0.490925 0.20154,-0.206705 0.48059,-0.206705 0.28939,0 0.49609,0.206705 0.20671,0.206705 0.20671,0.490925 0,0.289387 -0.20671,0.490924 -0.20153,0.201538 -0.49609,0.201538 -0.28939,0 -0.48576,-0.19637 -0.1912,-0.19637 -0.1912,-0.496092 z m 0.6873,-3.152253 q -0.72864,0 -1.09037,0.78548 -0.35657,0.785479 -0.35657,2.392611 0,1.601964 0.35657,2.387443 0.36173,0.78548 1.09037,0.78548 0.7338,0 1.09037,-0.78548 0.36173,-0.785479 0.36173,-2.387443 0,-1.607132 -0.36173,-2.392611 -0.35657,-0.78548 -1.09037,-0.78548 z m 0,-0.82682 q 1.23506,0 1.86551,1.012855 0.63562,1.012855 0.63562,2.992056 0,1.974033 -0.63562,2.986888 -0.63045,1.012855 -1.86551,1.012855 -1.23507,0 -1.86552,-1.012855 -0.63045,-1.012855 -0.63045,-2.986888 0,-1.979201 0.63045,-2.992056 0.63045,-1.012855 1.86552,-1.012855 z"
           style="font-size:medium;line-height:1.25;font-family:monospace;-inkscape-font-specification:monospace"
           id="path162627" />
        <path
           d="m 864.82342,51.165212 q 0,-0.28422 0.19637,-0.490925 0.20153,-0.206705 0.48059,-0.206705 0.28938,0 0.49609,0.206705 0.2067,0.206705 0.2067,0.490925 0,0.289387 -0.2067,0.490924 -0.20154,0.201538 -0.49609,0.201538 -0.28939,0 -0.48576,-0.19637 -0.1912,-0.19637 -0.1912,-0.496092 z m 0.68729,-3.152253 q -0.72863,0 -1.09037,0.78548 -0.35656,0.785479 -0.35656,2.392611 0,1.601964 0.35656,2.387443 0.36174,0.78548 1.09037,0.78548 0.7338,0 1.09037,-0.78548 0.36173,-0.785479 0.36173,-2.387443 0,-1.607132 -0.36173,-2.392611 -0.35657,-0.78548 -1.09037,-0.78548 z m 0,-0.82682 q 1.23506,0 1.86551,1.012855 0.63562,1.012855 0.63562,2.992056 0,1.974033 -0.63562,2.986888 -0.63045,1.012855 -1.86551,1.012855 -1.23506,0 -1.86551,-1.012855 -0.63045,-1.012855 -0.63045,-2.986888 0,-1.979201 0.63045,-2.992056 0.63045,-1.012855 1.86551,-1.012855 z"
           style="font-size:medium;line-height:1.25;font-family:monospace;-inkscape-font-specification:monospace"
           id="path162629" />
        <path
           d="m 871.1951,51.165212 q 0,-0.28422 0.19637,-0.490925 0.20154,-0.206705 0.48059,-0.206705 0.28938,0 0.49609,0.206705 0.2067,0.206705 0.2067,0.490925 0,0.289387 -0.2067,0.490924 -0.20154,0.201538 -0.49609,0.201538 -0.28939,0 -0.48576,-0.19637 -0.1912,-0.19637 -0.1912,-0.496092 z m 0.68729,-3.152253 q -0.72863,0 -1.09037,0.78548 -0.35656,0.785479 -0.35656,2.392611 0,1.601964 0.35656,2.387443 0.36174,0.78548 1.09037,0.78548 0.73381,0 1.09037,-0.78548 0.36174,-0.785479 0.36174,-2.387443 0,-1.607132 -0.36174,-2.392611 -0.35656,-0.78548 -1.09037,-0.78548 z m 0,-0.82682 q 1.23507,0 1.86552,1.012855 0.63561,1.012855 0.63561,2.992056 0,1.974033 -0.63561,2.986888 -0.63045,1.012855 -1.86552,1.012855 -1.23506,0 -1.86551,-1.012855 -0.63045,-1.012855 -0.63045,-2.986888 0,-1.979201 0.63045,-2.992056 0.63045,-1.012855 1.86551,-1.012855 z"
           style="font-size:medium;line-height:1.25;font-family:monospace;-inkscape-font-specification:monospace"
           id="path162631" />
        <path
           d="m 877.56678,51.165212 q 0,-0.28422 0.19637,-0.490925 0.20154,-0.206705 0.48059,-0.206705 0.28939,0 0.49609,0.206705 0.20671,0.206705 0.20671,0.490925 0,0.289387 -0.20671,0.490924 -0.20153,0.201538 -0.49609,0.201538 -0.28938,0 -0.48575,-0.19637 -0.19121,-0.19637 -0.19121,-0.496092 z m 0.6873,-3.152253 q -0.72864,0 -1.09037,0.78548 -0.35657,0.785479 -0.35657,2.392611 0,1.601964 0.35657,2.387443 0.36173,0.78548 1.09037,0.78548 0.7338,0 1.09037,-0.78548 0.36173,-0.785479 0.36173,-2.387443 0,-1.607132 -0.36173,-2.392611 -0.35657,-0.78548 -1.09037,-0.78548 z m 0,-0.82682 q 1.23506,0 1.86551,1.012855 0.63562,1.012855 0.63562,2.992056 0,1.974033 -0.63562,2.986888 -0.63045,1.012855 -1.86551,1.012855 -1.23506,0 -1.86552,-1.012855 -0.63045,-1.012855 -0.63045,-2.986888 0,-1.979201 0.63045,-2.992056 0.63046,-1.012855 1.86552,-1.012855 z"
           style="font-size:medium;line-height:1.25;font-family:monospace;-inkscape-font-specification:monospace"
           id="path162633" />
        <path
           d="m 883.93847,51.165212 q 0,-0.28422 0.19637,-0.490925 0.20154,-0.206705 0.48059,-0.206705 0.28938,0 0.49609,0.206705 0.2067,0.206705 0.2067,0.490925 0,0.289387 -0.2067,0.490924 -0.20154,0.201538 -0.49609,0.201538 -0.28939,0 -0.48576,-0.19637 -0.1912,-0.19637 -0.1912,-0.496092 z m 0.68729,-3.152253 q -0.72863,0 -1.09037,0.78548 -0.35656,0.785479 -0.35656,2.392611 0,1.601964 0.35656,2.387443 0.36174,0.78548 1.09037,0.78548 0.73381,0 1.09037,-0.78548 0.36174,-0.785479 0.36174,-2.387443 0,-1.607132 -0.36174,-2.392611 -0.35656,-0.78548 -1.09037,-0.78548 z m 0,-0.82682 q 1.23507,0 1.86552,1.012855 0.63561,1.012855 0.63561,2.992056 0,1.974033 -0.63561,2.986888 -0.63045,1.012855 -1.86552,1.012855 -1.23506,0 -1.86551,-1.012855 -0.63045,-1.012855 -0.63045,-2.986888 0,-1.979201 0.63045,-2.992056 0.63045,-1.012855 1.86551,-1.012855 z"
           style="font-size:medium;line-height:1.25;font-family:monospace;-inkscape-font-specification:monospace"
           id="path162635" />
        <path
           d="m 890.31015,51.165212 q 0,-0.28422 0.19637,-0.490925 0.20154,-0.206705 0.48059,-0.206705 0.28939,0 0.49609,0.206705 0.20671,0.206705 0.20671,0.490925 0,0.289387 -0.20671,0.490924 -0.20154,0.201538 -0.49609,0.201538 -0.28939,0 -0.48576,-0.19637 -0.1912,-0.19637 -0.1912,-0.496092 z m 0.68729,-3.152253 q -0.72863,0 -1.09037,0.78548 -0.35656,0.785479 -0.35656,2.392611 0,1.601964 0.35656,2.387443 0.36174,0.78548 1.09037,0.78548 0.73381,0 1.09037,-0.78548 0.36174,-0.785479 0.36174,-2.387443 0,-1.607132 -0.36174,-2.392611 -0.35656,-0.78548 -1.09037,-0.78548 z m 0,-0.82682 q 1.23507,0 1.86552,1.012855 0.63562,1.012855 0.63562,2.992056 0,1.974033 -0.63562,2.986888 -0.63045,1.012855 -1.86552,1.012855 -1.23506,0 -1.86551,-1.012855 -0.63045,-1.012855 -0.63045,-2.986888 0,-1.979201 0.63045,-2.992056 0.63045,-1.012855 1.86551,-1.012855 z"
           style="font-size:medium;line-height:1.25;font-family:monospace;-inkscape-font-specification:monospace"
           id="path162637" />
        <path
           d="m 896.68183,51.165212 q 0,-0.28422 0.19637,-0.490925 0.20154,-0.206705 0.48059,-0.206705 0.28939,0 0.49609,0.206705 0.20671,0.206705 0.20671,0.490925 0,0.289387 -0.20671,0.490924 -0.20154,0.201538 -0.49609,0.201538 -0.28939,0 -0.48576,-0.19637 -0.1912,-0.19637 -0.1912,-0.496092 z m 0.6873,-3.152253 q -0.72864,0 -1.09037,0.78548 -0.35657,0.785479 -0.35657,2.392611 0,1.601964 0.35657,2.387443 0.36173,0.78548 1.09037,0.78548 0.7338,0 1.09036,-0.78548 0.36174,-0.785479 0.36174,-2.387443 0,-1.607132 -0.36174,-2.392611 -0.35656,-0.78548 -1.09036,-0.78548 z m 0,-0.82682 q 1.23506,0 1.86551,1.012855 0.63562,1.012855 0.63562,2.992056 0,1.974033 -0.63562,2.986888 -0.63045,1.012855 -1.86551,1.012855 -1.23507,0 -1.86552,-1.012855 -0.63045,-1.012855 -0.63045,-2.986888 0,-1.979201 0.63045,-2.992056 0.63045,-1.012855 1.86552,-1.012855 z"
           style="font-size:medium;line-height:1.25;font-family:monospace;-inkscape-font-specification:monospace"
           id="path162639" />
        <path
           d="m 903.05352,51.165212 q 0,-0.28422 0.19637,-0.490925 0.20154,-0.206705 0.48059,-0.206705 0.28939,0 0.49609,0.206705 0.20671,0.206705 0.20671,0.490925 0,0.289387 -0.20671,0.490924 -0.20154,0.201538 -0.49609,0.201538 -0.28939,0 -0.48576,-0.19637 -0.1912,-0.19637 -0.1912,-0.496092 z m 0.68729,-3.152253 q -0.72863,0 -1.09037,0.78548 -0.35656,0.785479 -0.35656,2.392611 0,1.601964 0.35656,2.387443 0.36174,0.78548 1.09037,0.78548 0.73381,0 1.09037,-0.78548 0.36174,-0.785479 0.36174,-2.387443 0,-1.607132 -0.36174,-2.392611 -0.35656,-0.78548 -1.09037,-0.78548 z m 0,-0.82682 q 1.23507,0 1.86552,1.012855 0.63562,1.012855 0.63562,2.992056 0,1.974033 -0.63562,2.986888 -0.63045,1.012855 -1.86552,1.012855 -1.23506,0 -1.86551,-1.012855 -0.63045,-1.012855 -0.63045,-2.986888 0,-1.979201 0.63045,-2.992056 0.63045,-1.012855 1.86551,-1.012855 z"
           style="font-size:medium;line-height:1.25;font-family:monospace;-inkscape-font-specification:monospace"
           id="path162641" />
        <path
           d="m 909.4252,51.165212 q 0,-0.28422 0.19637,-0.490925 0.20154,-0.206705 0.48059,-0.206705 0.28939,0 0.49609,0.206705 0.20671,0.206705 0.20671,0.490925 0,0.289387 -0.20671,0.490924 -0.20154,0.201538 -0.49609,0.201538 -0.28939,0 -0.48576,-0.19637 -0.1912,-0.19637 -0.1912,-0.496092 z m 0.6873,-3.152253 q -0.72864,0 -1.09037,0.78548 -0.35657,0.785479 -0.35657,2.392611 0,1.601964 0.35657,2.387443 0.36173,0.78548 1.09037,0.78548 0.7338,0 1.09036,-0.78548 0.36174,-0.785479 0.36174,-2.387443 0,-1.607132 -0.36174,-2.392611 -0.35656,-0.78548 -1.09036,-0.78548 z m 0,-0.82682 q 1.23506,0 1.86551,1.012855 0.63562,1.012855 0.63562,2.992056 0,1.974033 -0.63562,2.986888 -0.63045,1.012855 -1.86551,1.012855 -1.23507,0 -1.86552,-1.012855 -0.63045,-1.012855 -0.63045,-2.986888 0,-1.979201 0.63045,-2.992056 0.63045,-1.012855 1.86552,-1.012855 z"
           style="font-size:medium;line-height:1.25;font-family:monospace;-inkscape-font-specification:monospace"
           id="path162643" />
        <path
           d="m 915.79688,51.165212 q 0,-0.28422 0.19637,-0.490925 0.20154,-0.206705 0.48059,-0.206705 0.28939,0 0.49609,0.206705 0.20671,0.206705 0.20671,0.490925 0,0.289387 -0.20671,0.490924 -0.20153,0.201538 -0.49609,0.201538 -0.28939,0 -0.48576,-0.19637 -0.1912,-0.19637 -0.1912,-0.496092 z m 0.6873,-3.152253 q -0.72864,0 -1.09037,0.78548 -0.35657,0.785479 -0.35657,2.392611 0,1.601964 0.35657,2.387443 0.36173,0.78548 1.09037,0.78548 0.7338,0 1.09037,-0.78548 0.36173,-0.785479 0.36173,-2.387443 0,-1.607132 -0.36173,-2.392611 -0.35657,-0.78548 -1.09037,-0.78548 z m 0,-0.82682 q 1.23506,0 1.86551,1.012855 0.63562,1.012855 0.63562,2.992056 0,1.974033 -0.63562,2.986888 -0.63045,1.012855 -1.86551,1.012855 -1.23507,0 -1.86552,-1.012855 -0.63045,-1.012855 -0.63045,-2.986888 0,-1.979201 0.63045,-2.992056 0.63045,-1.012855 1.86552,-1.012855 z"
           style="font-size:medium;line-height:1.25;font-family:monospace;-inkscape-font-specification:monospace"
           id="path162645" />
        <path
           d="m 922.16857,51.165212 q 0,-0.28422 0.19637,-0.490925 0.20154,-0.206705 0.48059,-0.206705 0.28939,0 0.49609,0.206705 0.20671,0.206705 0.20671,0.490925 0,0.289387 -0.20671,0.490924 -0.20154,0.201538 -0.49609,0.201538 -0.28939,0 -0.48576,-0.19637 -0.1912,-0.19637 -0.1912,-0.496092 z m 0.6873,-3.152253 q -0.72864,0 -1.09037,0.78548 -0.35657,0.785479 -0.35657,2.392611 0,1.601964 0.35657,2.387443 0.36173,0.78548 1.09037,0.78548 0.7338,0 1.09036,-0.78548 0.36174,-0.785479 0.36174,-2.387443 0,-1.607132 -0.36174,-2.392611 -0.35656,-0.78548 -1.09036,-0.78548 z m 0,-0.82682 q 1.23506,0 1.86551,1.012855 0.63562,1.012855 0.63562,2.992056 0,1.974033 -0.63562,2.986888 -0.63045,1.012855 -1.86551,1.012855 -1.23507,0 -1.86552,-1.012855 -0.63045,-1.012855 -0.63045,-2.986888 0,-1.979201 0.63045,-2.992056 0.63045,-1.012855 1.86552,-1.012855 z"
           style="font-size:medium;line-height:1.25;font-family:monospace;-inkscape-font-specification:monospace"
           id="path162647" />
        <path
           d="m 928.54025,51.165212 q 0,-0.28422 0.19637,-0.490925 0.20154,-0.206705 0.48059,-0.206705 0.28939,0 0.49609,0.206705 0.20671,0.206705 0.20671,0.490925 0,0.289387 -0.20671,0.490924 -0.20153,0.201538 -0.49609,0.201538 -0.28939,0 -0.48576,-0.19637 -0.1912,-0.19637 -0.1912,-0.496092 z m 0.6873,-3.152253 q -0.72864,0 -1.09037,0.78548 -0.35657,0.785479 -0.35657,2.392611 0,1.601964 0.35657,2.387443 0.36173,0.78548 1.09037,0.78548 0.7338,0 1.09037,-0.78548 0.36173,-0.785479 0.36173,-2.387443 0,-1.607132 -0.36173,-2.392611 -0.35657,-0.78548 -1.09037,-0.78548 z m 0,-0.82682 q 1.23506,0 1.86551,1.012855 0.63562,1.012855 0.63562,2.992056 0,1.974033 -0.63562,2.986888 -0.63045,1.012855 -1.86551,1.012855 -1.23507,0 -1.86552,-1.012855 -0.63045,-1.012855 -0.63045,-2.986888 0,-1.979201 0.63045,-2.992056 0.63045,-1.012855 1.86552,-1.012855 z"
           style="font-size:medium;line-height:1.25;font-family:monospace;-inkscape-font-specification:monospace"
           id="path162649" />
        <path
           d="m 933.81123,54.162435 h 1.62263 v -5.896262 l -1.74665,0.39274 v -0.950844 l 1.73632,-0.382404 h 1.04386 v 6.83677 h 1.60196 v 0.878497 h -4.25812 z"
           style="font-size:medium;line-height:1.25;font-family:monospace;-inkscape-font-specification:monospace"
           id="path162651" />
        <path
           d="m 941.28362,51.165212 q 0,-0.28422 0.19637,-0.490925 0.20154,-0.206705 0.48059,-0.206705 0.28939,0 0.49609,0.206705 0.20671,0.206705 0.20671,0.490925 0,0.289387 -0.20671,0.490924 -0.20153,0.201538 -0.49609,0.201538 -0.28939,0 -0.48576,-0.19637 -0.1912,-0.19637 -0.1912,-0.496092 z m 0.6873,-3.152253 q -0.72864,0 -1.09037,0.78548 -0.35657,0.785479 -0.35657,2.392611 0,1.601964 0.35657,2.387443 0.36173,0.78548 1.09037,0.78548 0.7338,0 1.09037,-0.78548 0.36173,-0.785479 0.36173,-2.387443 0,-1.607132 -0.36173,-2.392611 -0.35657,-0.78548 -1.09037,-0.78548 z m 0,-0.82682 q 1.23506,0 1.86551,1.012855 0.63562,1.012855 0.63562,2.992056 0,1.974033 -0.63562,2.986888 -0.63045,1.012855 -1.86551,1.012855 -1.23507,0 -1.86552,-1.012855 -0.63045,-1.012855 -0.63045,-2.986888 0,-1.979201 0.63045,-2.992056 0.63045,-1.012855 1.86552,-1.012855 z"
           style="font-size:medium;line-height:1.25;font-family:monospace;-inkscape-font-specification:monospace"
           id="path162653" />
        <path
           d="m 946.5546,54.162435 h 1.62263 v -5.896262 l -1.74665,0.39274 v -0.950844 l 1.73632,-0.382404 h 1.04386 v 6.83677 h 1.60196 v 0.878497 h -4.25812 z"
           style="font-size:medium;line-height:1.25;font-family:monospace;-inkscape-font-specification:monospace"
           id="path162655" />
        <path
           d="m 954.02698,51.165212 q 0,-0.28422 0.19637,-0.490925 0.20154,-0.206705 0.48059,-0.206705 0.28939,0 0.4961,0.206705 0.2067,0.206705 0.2067,0.490925 0,0.289387 -0.2067,0.490924 -0.20154,0.201538 -0.4961,0.201538 -0.28938,0 -0.48575,-0.19637 -0.19121,-0.19637 -0.19121,-0.496092 z m 0.6873,-3.152253 q -0.72864,0 -1.09037,0.78548 -0.35657,0.785479 -0.35657,2.392611 0,1.601964 0.35657,2.387443 0.36173,0.78548 1.09037,0.78548 0.7338,0 1.09037,-0.78548 0.36173,-0.785479 0.36173,-2.387443 0,-1.607132 -0.36173,-2.392611 -0.35657,-0.78548 -1.09037,-0.78548 z m 0,-0.82682 q 1.23506,0 1.86551,1.012855 0.63562,1.012855 0.63562,2.992056 0,1.974033 -0.63562,2.986888 -0.63045,1.012855 -1.86551,1.012855 -1.23506,0 -1.86551,-1.012855 -0.63045,-1.012855 -0.63045,-2.986888 0,-1.979201 0.63045,-2.992056 0.63045,-1.012855 1.86551,-1.012855 z"
           style="font-size:medium;line-height:1.25;font-family:monospace;-inkscape-font-specification:monospace"
           id="path162657" />
      </g>
      <g
         aria-label="000001000001001100100"
         id="text1220676"
         style="font-size:10.5833px;line-height:0;stroke-width:0.264583">
        <path
           d="m 972.01299,51.165212 q 0,-0.28422 0.19637,-0.490925 0.20154,-0.206705 0.48059,-0.206705 0.28939,0 0.49609,0.206705 0.20671,0.206705 0.20671,0.490925 0,0.289387 -0.20671,0.490924 -0.20153,0.201538 -0.49609,0.201538 -0.28939,0 -0.48576,-0.19637 -0.1912,-0.19637 -0.1912,-0.496092 z m 0.6873,-3.152253 q -0.72864,0 -1.09037,0.78548 -0.35657,0.785479 -0.35657,2.392611 0,1.601964 0.35657,2.387443 0.36173,0.78548 1.09037,0.78548 0.7338,0 1.09037,-0.78548 0.36173,-0.785479 0.36173,-2.387443 0,-1.607132 -0.36173,-2.392611 -0.35657,-0.78548 -1.09037,-0.78548 z m 0,-0.82682 q 1.23506,0 1.86551,1.012855 0.63562,1.012855 0.63562,2.992056 0,1.974033 -0.63562,2.986888 -0.63045,1.012855 -1.86551,1.012855 -1.23507,0 -1.86552,-1.012855 -0.63045,-1.012855 -0.63045,-2.986888 0,-1.979201 0.63045,-2.992056 0.63045,-1.012855 1.86552,-1.012855 z"
           style="font-size:medium;line-height:1.25;font-family:monospace;-inkscape-font-specification:monospace"
           id="path162660" />
        <path
           d="m 978.38468,51.165212 q 0,-0.28422 0.19637,-0.490925 0.20153,-0.206705 0.48059,-0.206705 0.28938,0 0.49609,0.206705 0.2067,0.206705 0.2067,0.490925 0,0.289387 -0.2067,0.490924 -0.20154,0.201538 -0.49609,0.201538 -0.28939,0 -0.48576,-0.19637 -0.1912,-0.19637 -0.1912,-0.496092 z m 0.68729,-3.152253 q -0.72863,0 -1.09037,0.78548 -0.35656,0.785479 -0.35656,2.392611 0,1.601964 0.35656,2.387443 0.36174,0.78548 1.09037,0.78548 0.7338,0 1.09037,-0.78548 0.36173,-0.785479 0.36173,-2.387443 0,-1.607132 -0.36173,-2.392611 -0.35657,-0.78548 -1.09037,-0.78548 z m 0,-0.82682 q 1.23506,0 1.86551,1.012855 0.63562,1.012855 0.63562,2.992056 0,1.974033 -0.63562,2.986888 -0.63045,1.012855 -1.86551,1.012855 -1.23506,0 -1.86551,-1.012855 -0.63045,-1.012855 -0.63045,-2.986888 0,-1.979201 0.63045,-2.992056 0.63045,-1.012855 1.86551,-1.012855 z"
           style="font-size:medium;line-height:1.25;font-family:monospace;-inkscape-font-specification:monospace"
           id="path162662" />
        <path
           d="m 984.75636,51.165212 q 0,-0.28422 0.19637,-0.490925 0.20154,-0.206705 0.48059,-0.206705 0.28939,0 0.49609,0.206705 0.20671,0.206705 0.20671,0.490925 0,0.289387 -0.20671,0.490924 -0.20154,0.201538 -0.49609,0.201538 -0.28939,0 -0.48576,-0.19637 -0.1912,-0.19637 -0.1912,-0.496092 z m 0.68729,-3.152253 q -0.72863,0 -1.09037,0.78548 -0.35656,0.785479 -0.35656,2.392611 0,1.601964 0.35656,2.387443 0.36174,0.78548 1.09037,0.78548 0.73381,0 1.09037,-0.78548 0.36174,-0.785479 0.36174,-2.387443 0,-1.607132 -0.36174,-2.392611 -0.35656,-0.78548 -1.09037,-0.78548 z m 0,-0.82682 q 1.23507,0 1.86552,1.012855 0.63562,1.012855 0.63562,2.992056 0,1.974033 -0.63562,2.986888 -0.63045,1.012855 -1.86552,1.012855 -1.23506,0 -1.86551,-1.012855 -0.63045,-1.012855 -0.63045,-2.986888 0,-1.979201 0.63045,-2.992056 0.63045,-1.012855 1.86551,-1.012855 z"
           style="font-size:medium;line-height:1.25;font-family:monospace;-inkscape-font-specification:monospace"
           id="path162664" />
        <path
           d="m 991.12804,51.165212 q 0,-0.28422 0.19637,-0.490925 0.20154,-0.206705 0.48059,-0.206705 0.28939,0 0.4961,0.206705 0.2067,0.206705 0.2067,0.490925 0,0.289387 -0.2067,0.490924 -0.20154,0.201538 -0.4961,0.201538 -0.28938,0 -0.48575,-0.19637 -0.19121,-0.19637 -0.19121,-0.496092 z m 0.6873,-3.152253 q -0.72864,0 -1.09037,0.78548 -0.35657,0.785479 -0.35657,2.392611 0,1.601964 0.35657,2.387443 0.36173,0.78548 1.09037,0.78548 0.7338,0 1.09037,-0.78548 0.36173,-0.785479 0.36173,-2.387443 0,-1.607132 -0.36173,-2.392611 -0.35657,-0.78548 -1.09037,-0.78548 z m 0,-0.82682 q 1.23506,0 1.86551,1.012855 0.63562,1.012855 0.63562,2.992056 0,1.974033 -0.63562,2.986888 -0.63045,1.012855 -1.86551,1.012855 -1.23506,0 -1.86552,-1.012855 -0.63045,-1.012855 -0.63045,-2.986888 0,-1.979201 0.63045,-2.992056 0.63046,-1.012855 1.86552,-1.012855 z"
           style="font-size:medium;line-height:1.25;font-family:monospace;-inkscape-font-specification:monospace"
           id="path162666" />
        <path
           d="m 997.49973,51.165212 q 0,-0.28422 0.19637,-0.490925 0.20153,-0.206705 0.48059,-0.206705 0.28938,0 0.49609,0.206705 0.2067,0.206705 0.2067,0.490925 0,0.289387 -0.2067,0.490924 -0.20154,0.201538 -0.49609,0.201538 -0.28939,0 -0.48576,-0.19637 -0.1912,-0.19637 -0.1912,-0.496092 z m 0.68729,-3.152253 q -0.72863,0 -1.09037,0.78548 -0.35656,0.785479 -0.35656,2.392611 0,1.601964 0.35656,2.387443 0.36174,0.78548 1.09037,0.78548 0.7338,0 1.09037,-0.78548 0.36173,-0.785479 0.36173,-2.387443 0,-1.607132 -0.36173,-2.392611 -0.35657,-0.78548 -1.09037,-0.78548 z m 0,-0.82682 q 1.23506,0 1.86548,1.012855 0.6357,1.012855 0.6357,2.992056 0,1.974033 -0.6357,2.986888 -0.63042,1.012855 -1.86548,1.012855 -1.23506,0 -1.86551,-1.012855 -0.63045,-1.012855 -0.63045,-2.986888 0,-1.979201 0.63045,-2.992056 0.63045,-1.012855 1.86551,-1.012855 z"
           style="font-size:medium;line-height:1.25;font-family:monospace;-inkscape-font-specification:monospace"
           id="path162668" />
        <path
           d="m 1002.7707,54.162435 h 1.6226 v -5.896262 l -1.7466,0.39274 v -0.950844 l 1.7363,-0.382404 h 1.0439 v 6.83677 h 1.6019 v 0.878497 h -4.2581 z"
           style="font-size:medium;line-height:1.25;font-family:monospace;-inkscape-font-specification:monospace"
           id="path162670" />
        <path
           d="m 1010.2431,51.165212 q 0,-0.28422 0.1964,-0.490925 0.2015,-0.206705 0.4806,-0.206705 0.2893,0 0.496,0.206705 0.2068,0.206705 0.2068,0.490925 0,0.289387 -0.2068,0.490924 -0.2015,0.201538 -0.496,0.201538 -0.2894,0 -0.4858,-0.19637 -0.1912,-0.19637 -0.1912,-0.496092 z m 0.6873,-3.152253 q -0.7286,0 -1.0904,0.78548 -0.3565,0.785479 -0.3565,2.392611 0,1.601964 0.3565,2.387443 0.3618,0.78548 1.0904,0.78548 0.7338,0 1.0904,-0.78548 0.3617,-0.785479 0.3617,-2.387443 0,-1.607132 -0.3617,-2.392611 -0.3566,-0.78548 -1.0904,-0.78548 z m 0,-0.82682 q 1.2351,0 1.8655,1.012855 0.6356,1.012855 0.6356,2.992056 0,1.974033 -0.6356,2.986888 -0.6304,1.012855 -1.8655,1.012855 -1.2351,0 -1.8655,-1.012855 -0.6305,-1.012855 -0.6305,-2.986888 0,-1.979201 0.6305,-2.992056 0.6304,-1.012855 1.8655,-1.012855 z"
           style="font-size:medium;line-height:1.25;font-family:monospace;-inkscape-font-specification:monospace"
           id="path162672" />
        <path
           d="m 1016.6148,51.165212 q 0,-0.28422 0.1963,-0.490925 0.2016,-0.206705 0.4806,-0.206705 0.2894,0 0.4961,0.206705 0.2067,0.206705 0.2067,0.490925 0,0.289387 -0.2067,0.490924 -0.2015,0.201538 -0.4961,0.201538 -0.2894,0 -0.4857,-0.19637 -0.1912,-0.19637 -0.1912,-0.496092 z m 0.6873,-3.152253 q -0.7287,0 -1.0904,0.78548 -0.3566,0.785479 -0.3566,2.392611 0,1.601964 0.3566,2.387443 0.3617,0.78548 1.0904,0.78548 0.7338,0 1.0903,-0.78548 0.3618,-0.785479 0.3618,-2.387443 0,-1.607132 -0.3618,-2.392611 -0.3565,-0.78548 -1.0903,-0.78548 z m 0,-0.82682 q 1.235,0 1.8655,1.012855 0.6356,1.012855 0.6356,2.992056 0,1.974033 -0.6356,2.986888 -0.6305,1.012855 -1.8655,1.012855 -1.2351,0 -1.8655,-1.012855 -0.6305,-1.012855 -0.6305,-2.986888 0,-1.979201 0.6305,-2.992056 0.6304,-1.012855 1.8655,-1.012855 z"
           style="font-size:medium;line-height:1.25;font-family:monospace;-inkscape-font-specification:monospace"
           id="path162674" />
        <path
           d="m 1022.9865,51.165212 q 0,-0.28422 0.1963,-0.490925 0.2016,-0.206705 0.4806,-0.206705 0.2894,0 0.4961,0.206705 0.2067,0.206705 0.2067,0.490925 0,0.289387 -0.2067,0.490924 -0.2015,0.201538 -0.4961,0.201538 -0.2894,0 -0.4857,-0.19637 -0.1912,-0.19637 -0.1912,-0.496092 z m 0.6873,-3.152253 q -0.7287,0 -1.0904,0.78548 -0.3566,0.785479 -0.3566,2.392611 0,1.601964 0.3566,2.387443 0.3617,0.78548 1.0904,0.78548 0.7338,0 1.0903,-0.78548 0.3618,-0.785479 0.3618,-2.387443 0,-1.607132 -0.3618,-2.392611 -0.3565,-0.78548 -1.0903,-0.78548 z m 0,-0.82682 q 1.235,0 1.8655,1.012855 0.6356,1.012855 0.6356,2.992056 0,1.974033 -0.6356,2.986888 -0.6305,1.012855 -1.8655,1.012855 -1.2351,0 -1.8656,-1.012855 -0.6304,-1.012855 -0.6304,-2.986888 0,-1.979201 0.6304,-2.992056 0.6305,-1.012855 1.8656,-1.012855 z"
           style="font-size:medium;line-height:1.25;font-family:monospace;-inkscape-font-specification:monospace"
           id="path162676" />
        <path
           d="m 1029.3581,51.165212 q 0,-0.28422 0.1964,-0.490925 0.2016,-0.206705 0.4806,-0.206705 0.2894,0 0.4961,0.206705 0.2067,0.206705 0.2067,0.490925 0,0.289387 -0.2067,0.490924 -0.2015,0.201538 -0.4961,0.201538 -0.2894,0 -0.4858,-0.19637 -0.1912,-0.19637 -0.1912,-0.496092 z m 0.6873,-3.152253 q -0.7286,0 -1.0903,0.78548 -0.3566,0.785479 -0.3566,2.392611 0,1.601964 0.3566,2.387443 0.3617,0.78548 1.0903,0.78548 0.7338,0 1.0904,-0.78548 0.3617,-0.785479 0.3617,-2.387443 0,-1.607132 -0.3617,-2.392611 -0.3566,-0.78548 -1.0904,-0.78548 z m 0,-0.82682 q 1.2351,0 1.8656,1.012855 0.6356,1.012855 0.6356,2.992056 0,1.974033 -0.6356,2.986888 -0.6305,1.012855 -1.8656,1.012855 -1.235,0 -1.8655,-1.012855 -0.6304,-1.012855 -0.6304,-2.986888 0,-1.979201 0.6304,-2.992056 0.6305,-1.012855 1.8655,-1.012855 z"
           style="font-size:medium;line-height:1.25;font-family:monospace;-inkscape-font-specification:monospace"
           id="path162678" />
        <path
           d="m 1035.7298,51.165212 q 0,-0.28422 0.1964,-0.490925 0.2015,-0.206705 0.4806,-0.206705 0.2894,0 0.4961,0.206705 0.2067,0.206705 0.2067,0.490925 0,0.289387 -0.2067,0.490924 -0.2016,0.201538 -0.4961,0.201538 -0.2894,0 -0.4858,-0.19637 -0.1912,-0.19637 -0.1912,-0.496092 z m 0.6873,-3.152253 q -0.7286,0 -1.0903,0.78548 -0.3566,0.785479 -0.3566,2.392611 0,1.601964 0.3566,2.387443 0.3617,0.78548 1.0903,0.78548 0.7338,0 1.0904,-0.78548 0.3617,-0.785479 0.3617,-2.387443 0,-1.607132 -0.3617,-2.392611 -0.3566,-0.78548 -1.0904,-0.78548 z m 0,-0.82682 q 1.2351,0 1.8655,1.012855 0.6357,1.012855 0.6357,2.992056 0,1.974033 -0.6357,2.986888 -0.6304,1.012855 -1.8655,1.012855 -1.235,0 -1.8655,-1.012855 -0.6304,-1.012855 -0.6304,-2.986888 0,-1.979201 0.6304,-2.992056 0.6305,-1.012855 1.8655,-1.012855 z"
           style="font-size:medium;line-height:1.25;font-family:monospace;-inkscape-font-specification:monospace"
           id="path162680" />
        <path
           d="m 1041.0008,54.162435 h 1.6226 v -5.896262 l -1.7466,0.39274 v -0.950844 l 1.7363,-0.382404 h 1.0439 v 6.83677 h 1.6019 v 0.878497 h -4.2581 z"
           style="font-size:medium;line-height:1.25;font-family:monospace;-inkscape-font-specification:monospace"
           id="path162682" />
        <path
           d="m 1048.4732,51.165212 q 0,-0.28422 0.1964,-0.490925 0.2015,-0.206705 0.4806,-0.206705 0.2893,0 0.496,0.206705 0.2068,0.206705 0.2068,0.490925 0,0.289387 -0.2068,0.490924 -0.2015,0.201538 -0.496,0.201538 -0.2894,0 -0.4858,-0.19637 -0.1912,-0.19637 -0.1912,-0.496092 z m 0.6873,-3.152253 q -0.7286,0 -1.0904,0.78548 -0.3565,0.785479 -0.3565,2.392611 0,1.601964 0.3565,2.387443 0.3618,0.78548 1.0904,0.78548 0.7338,0 1.0904,-0.78548 0.3617,-0.785479 0.3617,-2.387443 0,-1.607132 -0.3617,-2.392611 -0.3566,-0.78548 -1.0904,-0.78548 z m 0,-0.82682 q 1.2351,0 1.8655,1.012855 0.6356,1.012855 0.6356,2.992056 0,1.974033 -0.6356,2.986888 -0.6304,1.012855 -1.8655,1.012855 -1.2351,0 -1.8655,-1.012855 -0.6305,-1.012855 -0.6305,-2.986888 0,-1.979201 0.6305,-2.992056 0.6304,-1.012855 1.8655,-1.012855 z"
           style="font-size:medium;line-height:1.25;font-family:monospace;-inkscape-font-specification:monospace"
           id="path162684" />
        <path
           d="m 1054.8449,51.165212 q 0,-0.28422 0.1963,-0.490925 0.2016,-0.206705 0.4806,-0.206705 0.2894,0 0.4961,0.206705 0.2067,0.206705 0.2067,0.490925 0,0.289387 -0.2067,0.490924 -0.2015,0.201538 -0.4961,0.201538 -0.2893,0 -0.4857,-0.19637 -0.1912,-0.19637 -0.1912,-0.496092 z m 0.6873,-3.152253 q -0.7287,0 -1.0904,0.78548 -0.3566,0.785479 -0.3566,2.392611 0,1.601964 0.3566,2.387443 0.3617,0.78548 1.0904,0.78548 0.7338,0 1.0903,-0.78548 0.3618,-0.785479 0.3618,-2.387443 0,-1.607132 -0.3618,-2.392611 -0.3565,-0.78548 -1.0903,-0.78548 z m 0,-0.82682 q 1.235,0 1.8655,1.012855 0.6356,1.012855 0.6356,2.992056 0,1.974033 -0.6356,2.986888 -0.6305,1.012855 -1.8655,1.012855 -1.2351,0 -1.8655,-1.012855 -0.6305,-1.012855 -0.6305,-2.986888 0,-1.979201 0.6305,-2.992056 0.6304,-1.012855 1.8655,-1.012855 z"
           style="font-size:medium;line-height:1.25;font-family:monospace;-inkscape-font-specification:monospace"
           id="path162686" />
        <path
           d="m 1060.1159,54.162435 h 1.6226 v -5.896262 l -1.7467,0.39274 v -0.950844 l 1.7364,-0.382404 h 1.0438 v 6.83677 h 1.602 v 0.878497 h -4.2581 z"
           style="font-size:medium;line-height:1.25;font-family:monospace;-inkscape-font-specification:monospace"
           id="path162688" />
        <path
           d="m 1066.4875,54.162435 h 1.6227 v -5.896262 l -1.7467,0.39274 v -0.950844 l 1.7363,-0.382404 h 1.0439 v 6.83677 h 1.602 v 0.878497 h -4.2582 z"
           style="font-size:medium;line-height:1.25;font-family:monospace;-inkscape-font-specification:monospace"
           id="path162690" />
        <path
           d="m 1073.9599,51.165212 q 0,-0.28422 0.1964,-0.490925 0.2015,-0.206705 0.4806,-0.206705 0.2894,0 0.4961,0.206705 0.2067,0.206705 0.2067,0.490925 0,0.289387 -0.2067,0.490924 -0.2016,0.201538 -0.4961,0.201538 -0.2894,0 -0.4858,-0.19637 -0.1912,-0.19637 -0.1912,-0.496092 z m 0.6873,-3.152253 q -0.7286,0 -1.0903,0.78548 -0.3566,0.785479 -0.3566,2.392611 0,1.601964 0.3566,2.387443 0.3617,0.78548 1.0903,0.78548 0.7338,0 1.0904,-0.78548 0.3617,-0.785479 0.3617,-2.387443 0,-1.607132 -0.3617,-2.392611 -0.3566,-0.78548 -1.0904,-0.78548 z m 0,-0.82682 q 1.2351,0 1.8655,1.012855 0.6357,1.012855 0.6357,2.992056 0,1.974033 -0.6357,2.986888 -0.6304,1.012855 -1.8655,1.012855 -1.235,0 -1.8655,-1.012855 -0.6304,-1.012855 -0.6304,-2.986888 0,-1.979201 0.6304,-2.992056 0.6305,-1.012855 1.8655,-1.012855 z"
           style="font-size:medium;line-height:1.25;font-family:monospace;-inkscape-font-specification:monospace"
           id="path162692" />
        <path
           d="m 1080.3316,51.165212 q 0,-0.28422 0.1964,-0.490925 0.2015,-0.206705 0.4806,-0.206705 0.2894,0 0.4961,0.206705 0.2067,0.206705 0.2067,0.490925 0,0.289387 -0.2067,0.490924 -0.2016,0.201538 -0.4961,0.201538 -0.2894,0 -0.4858,-0.19637 -0.1912,-0.19637 -0.1912,-0.496092 z m 0.6873,-3.152253 q -0.7286,0 -1.0904,0.78548 -0.3565,0.785479 -0.3565,2.392611 0,1.601964 0.3565,2.387443 0.3618,0.78548 1.0904,0.78548 0.7338,0 1.0904,-0.78548 0.3617,-0.785479 0.3617,-2.387443 0,-1.607132 -0.3617,-2.392611 -0.3566,-0.78548 -1.0904,-0.78548 z m 0,-0.82682 q 1.2351,0 1.8655,1.012855 0.6356,1.012855 0.6356,2.992056 0,1.974033 -0.6356,2.986888 -0.6304,1.012855 -1.8655,1.012855 -1.2351,0 -1.8655,-1.012855 -0.6305,-1.012855 -0.6305,-2.986888 0,-1.979201 0.6305,-2.992056 0.6304,-1.012855 1.8655,-1.012855 z"
           style="font-size:medium;line-height:1.25;font-family:monospace;-inkscape-font-specification:monospace"
           id="path162694" />
        <path
           d="m 1085.6026,54.162435 h 1.6226 v -5.896262 l -1.7466,0.39274 v -0.950844 l 1.7363,-0.382404 h 1.0439 v 6.83677 h 1.6019 v 0.878497 h -4.2581 z"
           style="font-size:medium;line-height:1.25;font-family:monospace;-inkscape-font-specification:monospace"
           id="path162696" />
        <path
           d="m 1093.075,51.165212 q 0,-0.28422 0.1964,-0.490925 0.2015,-0.206705 0.4805,-0.206705 0.2894,0 0.4961,0.206705 0.2067,0.206705 0.2067,0.490925 0,0.289387 -0.2067,0.490924 -0.2015,0.201538 -0.4961,0.201538 -0.2893,0 -0.4857,-0.19637 -0.1912,-0.19637 -0.1912,-0.496092 z m 0.6873,-3.152253 q -0.7287,0 -1.0904,0.78548 -0.3566,0.785479 -0.3566,2.392611 0,1.601964 0.3566,2.387443 0.3617,0.78548 1.0904,0.78548 0.7338,0 1.0903,-0.78548 0.3618,-0.785479 0.3618,-2.387443 0,-1.607132 -0.3618,-2.392611 -0.3565,-0.78548 -1.0903,-0.78548 z m 0,-0.82682 q 1.235,0 1.8655,1.012855 0.6356,1.012855 0.6356,2.992056 0,1.974033 -0.6356,2.986888 -0.6305,1.012855 -1.8655,1.012855 -1.2351,0 -1.8655,-1.012855 -0.6305,-1.012855 -0.6305,-2.986888 0,-1.979201 0.6305,-2.992056 0.6304,-1.012855 1.8655,-1.012855 z"
           style="font-size:medium;line-height:1.25;font-family:monospace;-inkscape-font-specification:monospace"
           id="path162698" />
        <path
           d="m 1099.4467,51.165212 q 0,-0.28422 0.1963,-0.490925 0.2016,-0.206705 0.4806,-0.206705 0.2894,0 0.4961,0.206705 0.2067,0.206705 0.2067,0.490925 0,0.289387 -0.2067,0.490924 -0.2015,0.201538 -0.4961,0.201538 -0.2894,0 -0.4857,-0.19637 -0.1912,-0.19637 -0.1912,-0.496092 z m 0.6873,-3.152253 q -0.7287,0 -1.0904,0.78548 -0.3566,0.785479 -0.3566,2.392611 0,1.601964 0.3566,2.387443 0.3617,0.78548 1.0904,0.78548 0.7338,0 1.0903,-0.78548 0.3618,-0.785479 0.3618,-2.387443 0,-1.607132 -0.3618,-2.392611 -0.3565,-0.78548 -1.0903,-0.78548 z m 0,-0.82682 q 1.235,0 1.8655,1.012855 0.6356,1.012855 0.6356,2.992056 0,1.974033 -0.6356,2.986888 -0.6305,1.012855 -1.8655,1.012855 -1.2351,0 -1.8656,-1.012855 -0.6304,-1.012855 -0.6304,-2.986888 0,-1.979201 0.6304,-2.992056 0.6305,-1.012855 1.8656,-1.012855 z"
           style="font-size:medium;line-height:1.25;font-family:monospace;-inkscape-font-specification:monospace"
           id="path162700" />
      </g>
      <g
         aria-label="left                        right"
         id="text1244073"
         style="font-size:8.53336px;line-height:1.25;font-family:monospace;-inkscape-font-specification:monospace;stroke-width:0.264583">
        <path
           d="m 826.8483,32.174047 q 0,0.516668 0.1875,0.779169 0.19167,0.262501 0.5625,0.262501 h 0.89584 v 0.650002 h -0.97084 q -0.6875,0 -1.06667,-0.441668 -0.375,-0.441668 -0.375,-1.250004 v -4.237513 h -1.22917 v -0.600002 h 1.99584 z"
           style="font-size:medium"
           id="path162703" />
        <path
           d="m 833.95665,31.340711 v 0.375001 h -3.32084 v 0.025 q 0,0.762503 0.39584,1.179171 0.4,0.416668 1.125,0.416668 0.36667,0 0.76667,-0.116667 0.4,-0.116667 0.85417,-0.354168 v 0.762502 q -0.4375,0.179167 -0.84584,0.266668 -0.40417,0.09167 -0.78333,0.09167 -1.08751,0 -1.70001,-0.650002 -0.6125,-0.654169 -0.6125,-1.800006 0,-1.11667 0.6,-1.783339 0.6,-0.666668 1.6,-0.666668 0.89167,0 1.40418,0.604168 0.51666,0.604169 0.51666,1.650005 z m -0.76666,-0.225001 q -0.0167,-0.675002 -0.32084,-1.025003 -0.3,-0.354168 -0.86667,-0.354168 -0.55417,0 -0.9125,0.366668 -0.35834,0.366668 -0.425,1.01667 z"
           style="font-size:medium"
           id="path162705" />
        <path
           d="m 838.89,27.382366 v 0.637502 h -0.87083 q -0.4125,0 -0.57501,0.170833 -0.15833,0.166668 -0.15833,0.595836 v 0.412501 H 838.89 v 0.595835 h -1.60417 v 4.070846 h -0.76667 v -4.070846 h -1.24584 v -0.595835 h 1.24584 v -0.325001 q 0,-0.766669 0.35,-1.12917 0.35417,-0.362501 1.10001,-0.362501 z"
           style="font-size:medium"
           id="path162707" />
        <path
           d="m 842.15668,27.874034 v 1.325004 h 1.74167 v 0.595835 h -1.74167 v 2.533341 q 0,0.516668 0.19583,0.720836 0.19584,0.204167 0.68334,0.204167 h 0.8625 v 0.612502 h -0.9375 q -0.86251,0 -1.21667,-0.345835 -0.35417,-0.345834 -0.35417,-1.19167 v -2.533341 h -1.24584 v -0.595835 h 1.24584 v -1.325004 z"
           style="font-size:medium"
           id="path162709" />
        <path
           d="m 972.84874,30.161541 q -0.24583,-0.191667 -0.5,-0.279168 -0.25417,-0.0875 -0.55834,-0.0875 -0.71667,0 -1.09583,0.450001 -0.37917,0.450002 -0.37917,1.300004 v 2.320841 h -0.77084 v -4.666681 h 0.77084 v 0.912503 q 0.19167,-0.495835 0.5875,-0.758336 0.4,-0.266667 0.94584,-0.266667 0.28333,0 0.52916,0.07083 0.24584,0.07083 0.47084,0.220834 z"
           style="font-size:medium"
           id="path162711" />
        <path
           d="m 974.24041,29.199038 h 1.9625 v 4.070846 h 1.52084 v 0.595835 h -3.80834 v -0.595835 h 1.52083 v -3.475011 h -1.19583 z m 1.19583,-1.816672 h 0.76667 v 0.970836 h -0.76667 z"
           style="font-size:medium"
           id="path162713" />
        <path
           d="m 981.88628,31.494878 q 0,-0.862502 -0.28334,-1.308337 -0.27917,-0.450002 -0.81667,-0.450002 -0.5625,0 -0.85833,0.450002 -0.29584,0.445835 -0.29584,1.308337 0,0.862503 0.29584,1.316671 0.3,0.450001 0.86666,0.450001 0.52917,0 0.80834,-0.454168 0.28334,-0.454168 0.28334,-1.312504 z m 0.76666,2.07084 q 0,1.050003 -0.49583,1.591671 -0.49584,0.541669 -1.45834,0.541669 -0.31667,0 -0.6625,-0.05833 -0.34584,-0.05833 -0.69167,-0.170834 v -0.758335 q 0.40834,0.191667 0.74167,0.283334 0.33333,0.09167 0.6125,0.09167 0.62084,0 0.90417,-0.337501 0.28334,-0.337501 0.28334,-1.070837 v -0.03333 -0.520835 q -0.18334,0.391668 -0.50001,0.583335 -0.31666,0.191667 -0.77083,0.191667 -0.81667,0 -1.30417,-0.654168 -0.4875,-0.654169 -0.4875,-1.750006 0,-1.100003 0.4875,-1.754172 0.4875,-0.654168 1.30417,-0.654168 0.45,0 0.7625,0.179167 0.3125,0.179167 0.50834,0.554168 v -0.604168 h 0.76666 z"
           style="font-size:medium"
           id="path162715" />
        <path
           d="m 987.82796,30.974043 v 2.891676 h -0.77084 v -2.891676 q 0,-0.629168 -0.22083,-0.925003 -0.22084,-0.295834 -0.69167,-0.295834 -0.5375,0 -0.82917,0.383335 -0.2875,0.379168 -0.2875,1.09167 v 2.637508 h -0.76667 v -6.483353 h 0.76667 v 2.516674 q 0.20417,-0.400001 0.55417,-0.604169 0.35,-0.208333 0.82917,-0.208333 0.7125,0 1.0625,0.470834 0.35417,0.466668 0.35417,1.416671 z"
           style="font-size:medium"
           id="path162717" />
        <path
           d="m 991.14463,27.874034 v 1.325004 h 1.74167 v 0.595835 h -1.74167 v 2.533341 q 0,0.516668 0.19583,0.720836 0.19584,0.204167 0.68334,0.204167 h 0.8625 v 0.612502 h -0.9375 q -0.8625,0 -1.21667,-0.345835 -0.35417,-0.345834 -0.35417,-1.19167 v -2.533341 h -1.24584 v -0.595835 h 1.24584 v -1.325004 z"
           style="font-size:medium"
           id="path162719" />
      </g>
    </g>
  </g>
</svg>
