<?xml version="1.0" encoding="UTF-8" standalone="no"?>
<!-- Created with Inkscape (http://www.inkscape.org/) -->

<svg
   width="272.73184mm"
   height="34.811615mm"
   viewBox="0 0 272.73184 34.811615"
   version="1.1"
   id="svg4282"
   inkscape:version="1.2-dev (9a006c9b6a, 2021-07-31)"
   sodipodi:docname="2_conjunction.svg"
   xmlns:inkscape="http://www.inkscape.org/namespaces/inkscape"
   xmlns:sodipodi="http://sodipodi.sourceforge.net/DTD/sodipodi-0.dtd"
   xmlns="http://www.w3.org/2000/svg"
   xmlns:svg="http://www.w3.org/2000/svg">
  <sodipodi:namedview
     id="namedview4284"
     pagecolor="#505050"
     bordercolor="#ffffff"
     borderopacity="1"
     inkscape:pageshadow="0"
     inkscape:pageopacity="0"
     inkscape:pagecheckerboard="1"
     inkscape:document-units="mm"
     showgrid="false"
     fit-margin-top="0"
     fit-margin-left="0"
     fit-margin-right="0"
     fit-margin-bottom="0"
     inkscape:zoom="0.77058782"
     inkscape:cx="593.05375"
     inkscape:cy="188.16804"
     inkscape:window-width="1920"
     inkscape:window-height="1011"
     inkscape:window-x="1920"
     inkscape:window-y="32"
     inkscape:window-maximized="1"
     inkscape:current-layer="layer1" />
  <defs
     id="defs4279" />
  <g
     inkscape:label="Layer 1"
     inkscape:groupmode="layer"
     id="layer1"
     transform="translate(51.901178,-98.990724)">
    <g
       id="g1597555"
       transform="translate(-65.027393,-49.930266)">
      <g
         aria-label="female                001001001001001101110
male                &amp; 000110011000001000000
female AND male       000000001000001000000"
         id="text16270"
         style="font-size:10.5833px;line-height:0;stroke-width:0.264583">
        <path
           d="m 18.056131,148.97783 v 0.79065 h -1.080034 q -0.511595,0 -0.713133,0.21187 -0.19637,0.20671 -0.19637,0.73897 v 0.5116 h 1.989537 v 0.73897 h -1.989537 v 5.04877 h -0.950843 v -5.04877 h -1.54512 v -0.73897 h 1.54512 v -0.40308 q 0,-0.95084 0.434081,-1.40042 0.439248,-0.44959 1.364253,-0.44959 z"
           style="font-size:medium;line-height:1.25;font-family:monospace;-inkscape-font-specification:monospace;fill:#ff0000"
           id="path4466" />
        <path
           d="m 24.681028,153.88708 v 0.46509 h -4.118599 v 0.031 q 0,0.94568 0.490925,1.46244 0.496092,0.51676 1.395259,0.51676 0.454751,0 0.950844,-0.14469 0.496092,-0.14469 1.059363,-0.43925 v 0.94568 q -0.542601,0.2222 -1.049028,0.33072 -0.50126,0.11369 -0.971514,0.11369 -1.348751,0 -2.108392,-0.80615 -0.759641,-0.81131 -0.759641,-2.23241 0,-1.38493 0.744138,-2.21175 0.744139,-0.82682 1.984369,-0.82682 1.105872,0 1.74149,0.74931 0.640786,0.74931 0.640786,2.04638 z m -0.950843,-0.27905 q -0.02067,-0.83716 -0.397908,-1.27124 -0.372069,-0.43925 -1.074866,-0.43925 -0.687294,0 -1.13171,0.45475 -0.444416,0.45476 -0.527098,1.26091 z"
           style="font-size:medium;line-height:1.25;font-family:monospace;-inkscape-font-specification:monospace;fill:#ff0000"
           id="path4468" />
        <path
           d="m 28.799626,151.82003 q 0.1757,-0.37207 0.444416,-0.54777 0.273884,-0.18087 0.656289,-0.18087 0.697629,0 0.981849,0.5426 0.289387,0.53744 0.289387,2.03088 v 3.35379 h -0.868161 v -3.31245 q 0,-1.22472 -0.139526,-1.51928 -0.134358,-0.29972 -0.496092,-0.29972 -0.41341,0 -0.568439,0.32039 -0.149861,0.31523 -0.149861,1.49861 v 3.31245 h -0.868162 v -3.31245 q 0,-1.24023 -0.149861,-1.52961 -0.144693,-0.28939 -0.527098,-0.28939 -0.377237,0 -0.527098,0.32039 -0.144693,0.31523 -0.144693,1.49861 v 3.31245 h -0.862994 v -5.78774 h 0.862994 v 0.49609 q 0.170531,-0.31006 0.423745,-0.47025 0.258381,-0.16537 0.583942,-0.16537 0.39274,0 0.651121,0.18087 0.263549,0.18087 0.408242,0.54777 z"
           style="font-size:medium;line-height:1.25;font-family:monospace;-inkscape-font-specification:monospace;fill:#ff0000"
           id="path4470" />
        <path
           d="m 35.305669,154.10929 h -0.315226 q -0.831987,0 -1.255733,0.29455 -0.418578,0.28939 -0.418578,0.86816 0,0.52193 0.315226,0.81132 0.315225,0.28939 0.873329,0.28939 0.785479,0 1.235062,-0.5426 0.449584,-0.54777 0.454752,-1.50895 v -0.21187 z m 1.844842,-0.39274 v 3.30211 h -0.95601 v -0.85782 q -0.30489,0.51676 -0.769977,0.7648 -0.459919,0.24288 -1.121375,0.24288 -0.883664,0 -1.410762,-0.49609 -0.527098,-0.50126 -0.527098,-1.33841 0,-0.96635 0.645953,-1.46761 0.651121,-0.50126 1.906855,-0.50126 h 1.276404 v -0.14986 q -0.0052,-0.69246 -0.351399,-1.00252 -0.346231,-0.31523 -1.105872,-0.31523 -0.485757,0 -0.981849,0.13953 -0.496092,0.13953 -0.966347,0.40824 v -0.95084 q 0.527098,-0.20154 1.007688,-0.29972 0.485757,-0.10336 0.940508,-0.10336 0.7183,0 1.224727,0.21188 0.511595,0.21187 0.826821,0.63561 0.196369,0.25839 0.279051,0.64079 0.08268,0.37724 0.08268,1.13688 z"
           style="font-size:medium;line-height:1.25;font-family:monospace;-inkscape-font-specification:monospace;fill:#ff0000"
           id="path4472" />
        <path
           d="m 41.351791,154.92061 q 0,0.64078 0.232544,0.96634 0.23771,0.32556 0.697629,0.32556 h 1.11104 v 0.80615 h -1.204057 q -0.852659,0 -1.322913,-0.54777 -0.465086,-0.54777 -0.465086,-1.55028 v -5.25548 h -1.52445 v -0.74414 h 2.475293 z"
           style="font-size:medium;line-height:1.25;font-family:monospace;-inkscape-font-specification:monospace;fill:#ff0000"
           id="path4474" />
        <path
           d="m 50.167762,153.88708 v 0.46509 h -4.118599 v 0.031 q 0,0.94568 0.490925,1.46244 0.496092,0.51676 1.395259,0.51676 0.454751,0 0.950844,-0.14469 0.496092,-0.14469 1.059363,-0.43925 v 0.94568 q -0.542601,0.2222 -1.049028,0.33072 -0.50126,0.11369 -0.971514,0.11369 -1.348751,0 -2.108392,-0.80615 -0.759641,-0.81131 -0.759641,-2.23241 0,-1.38493 0.744138,-2.21175 0.744139,-0.82682 1.984369,-0.82682 1.105872,0 1.74149,0.74931 0.640786,0.74931 0.640786,2.04638 z m -0.950843,-0.27905 q -0.02067,-0.83716 -0.397908,-1.27124 -0.372069,-0.43925 -1.074866,-0.43925 -0.687294,0 -1.13171,0.45475 -0.444416,0.45476 -0.527098,1.26091 z"
           style="font-size:medium;line-height:1.25;font-family:monospace;-inkscape-font-specification:monospace;fill:#ff0000"
           id="path4476" />
        <path
           d="m 155.23594,153.14294 q 0,-0.28422 0.19637,-0.49092 0.20154,-0.20671 0.48059,-0.20671 0.28939,0 0.49609,0.20671 0.20671,0.2067 0.20671,0.49092 0,0.28939 -0.20671,0.49093 -0.20154,0.20153 -0.49609,0.20153 -0.28939,0 -0.48576,-0.19637 -0.1912,-0.19637 -0.1912,-0.49609 z m 0.68729,-3.15225 q -0.72863,0 -1.09037,0.78548 -0.35656,0.78548 -0.35656,2.39261 0,1.60196 0.35656,2.38744 0.36174,0.78548 1.09037,0.78548 0.73381,0 1.09037,-0.78548 0.36174,-0.78548 0.36174,-2.38744 0,-1.60713 -0.36174,-2.39261 -0.35656,-0.78548 -1.09037,-0.78548 z m 0,-0.82682 q 1.23507,0 1.86552,1.01285 0.63562,1.01286 0.63562,2.99206 0,1.97403 -0.63562,2.98689 -0.63045,1.01285 -1.86552,1.01285 -1.23506,0 -1.86551,-1.01285 -0.63045,-1.01286 -0.63045,-2.98689 0,-1.9792 0.63045,-2.99206 0.63045,-1.01285 1.86551,-1.01285 z"
           style="font-size:medium;line-height:1.25;font-family:monospace;-inkscape-font-specification:monospace"
           id="path4478" />
        <path
           d="m 161.60763,153.14294 q 0,-0.28422 0.19637,-0.49092 0.20154,-0.20671 0.48059,-0.20671 0.28938,0 0.49609,0.20671 0.2067,0.2067 0.2067,0.49092 0,0.28939 -0.2067,0.49093 -0.20154,0.20153 -0.49609,0.20153 -0.28939,0 -0.48576,-0.19637 -0.1912,-0.19637 -0.1912,-0.49609 z m 0.68729,-3.15225 q -0.72863,0 -1.09037,0.78548 -0.35656,0.78548 -0.35656,2.39261 0,1.60196 0.35656,2.38744 0.36174,0.78548 1.09037,0.78548 0.73381,0 1.09037,-0.78548 0.36174,-0.78548 0.36174,-2.38744 0,-1.60713 -0.36174,-2.39261 -0.35656,-0.78548 -1.09037,-0.78548 z m 0,-0.82682 q 1.23507,0 1.86552,1.01285 0.63561,1.01286 0.63561,2.99206 0,1.97403 -0.63561,2.98689 -0.63045,1.01285 -1.86552,1.01285 -1.23506,0 -1.86551,-1.01285 -0.63045,-1.01286 -0.63045,-2.98689 0,-1.9792 0.63045,-2.99206 0.63045,-1.01285 1.86551,-1.01285 z"
           style="font-size:medium;line-height:1.25;font-family:monospace;-inkscape-font-specification:monospace"
           id="path4480" />
        <path
           d="m 166.87861,156.14016 h 1.62264 v -5.89626 l -1.74666,0.39274 v -0.95084 l 1.73632,-0.38241 h 1.04386 v 6.83677 h 1.60197 v 0.8785 h -4.25813 z"
           style="font-size:medium;line-height:1.25;font-family:monospace;-inkscape-font-specification:monospace"
           id="path4482" />
        <path
           d="m 174.35099,153.14294 q 0,-0.28422 0.19637,-0.49092 0.20154,-0.20671 0.48059,-0.20671 0.28939,0 0.49609,0.20671 0.20671,0.2067 0.20671,0.49092 0,0.28939 -0.20671,0.49093 -0.20154,0.20153 -0.49609,0.20153 -0.28939,0 -0.48576,-0.19637 -0.1912,-0.19637 -0.1912,-0.49609 z m 0.6873,-3.15225 q -0.72864,0 -1.09037,0.78548 -0.35657,0.78548 -0.35657,2.39261 0,1.60196 0.35657,2.38744 0.36173,0.78548 1.09037,0.78548 0.7338,0 1.09036,-0.78548 0.36174,-0.78548 0.36174,-2.38744 0,-1.60713 -0.36174,-2.39261 -0.35656,-0.78548 -1.09036,-0.78548 z m 0,-0.82682 q 1.23506,0 1.86551,1.01285 0.63562,1.01286 0.63562,2.99206 0,1.97403 -0.63562,2.98689 -0.63045,1.01285 -1.86551,1.01285 -1.23507,0 -1.86552,-1.01285 -0.63045,-1.01286 -0.63045,-2.98689 0,-1.9792 0.63045,-2.99206 0.63045,-1.01285 1.86552,-1.01285 z"
           style="font-size:medium;line-height:1.25;font-family:monospace;-inkscape-font-specification:monospace"
           id="path4484" />
        <path
           d="m 180.72268,153.14294 q 0,-0.28422 0.19637,-0.49092 0.20154,-0.20671 0.48059,-0.20671 0.28939,0 0.49609,0.20671 0.20671,0.2067 0.20671,0.49092 0,0.28939 -0.20671,0.49093 -0.20154,0.20153 -0.49609,0.20153 -0.28939,0 -0.48576,-0.19637 -0.1912,-0.19637 -0.1912,-0.49609 z m 0.68729,-3.15225 q -0.72863,0 -1.09037,0.78548 -0.35656,0.78548 -0.35656,2.39261 0,1.60196 0.35656,2.38744 0.36174,0.78548 1.09037,0.78548 0.73381,0 1.09037,-0.78548 0.36174,-0.78548 0.36174,-2.38744 0,-1.60713 -0.36174,-2.39261 -0.35656,-0.78548 -1.09037,-0.78548 z m 0,-0.82682 q 1.23507,0 1.86552,1.01285 0.63562,1.01286 0.63562,2.99206 0,1.97403 -0.63562,2.98689 -0.63045,1.01285 -1.86552,1.01285 -1.23506,0 -1.86551,-1.01285 -0.63045,-1.01286 -0.63045,-2.98689 0,-1.9792 0.63045,-2.99206 0.63045,-1.01285 1.86551,-1.01285 z"
           style="font-size:medium;line-height:1.25;font-family:monospace;-inkscape-font-specification:monospace"
           id="path4486" />
        <path
           d="m 185.99366,156.14016 h 1.62264 v -5.89626 l -1.74666,0.39274 v -0.95084 l 1.73632,-0.38241 h 1.04386 v 6.83677 h 1.60197 v 0.8785 h -4.25813 z"
           style="font-size:medium;line-height:1.25;font-family:monospace;-inkscape-font-specification:monospace"
           id="path4488" />
        <path
           d="m 193.46604,153.14294 q 0,-0.28422 0.19637,-0.49092 0.20154,-0.20671 0.48059,-0.20671 0.28939,0 0.49609,0.20671 0.20671,0.2067 0.20671,0.49092 0,0.28939 -0.20671,0.49093 -0.20153,0.20153 -0.49609,0.20153 -0.28939,0 -0.48576,-0.19637 -0.1912,-0.19637 -0.1912,-0.49609 z m 0.6873,-3.15225 q -0.72864,0 -1.09037,0.78548 -0.35657,0.78548 -0.35657,2.39261 0,1.60196 0.35657,2.38744 0.36173,0.78548 1.09037,0.78548 0.7338,0 1.09037,-0.78548 0.36173,-0.78548 0.36173,-2.38744 0,-1.60713 -0.36173,-2.39261 -0.35657,-0.78548 -1.09037,-0.78548 z m 0,-0.82682 q 1.23506,0 1.86551,1.01285 0.63562,1.01286 0.63562,2.99206 0,1.97403 -0.63562,2.98689 -0.63045,1.01285 -1.86551,1.01285 -1.23507,0 -1.86552,-1.01285 -0.63045,-1.01286 -0.63045,-2.98689 0,-1.9792 0.63045,-2.99206 0.63045,-1.01285 1.86552,-1.01285 z"
           style="font-size:medium;line-height:1.25;font-family:monospace;-inkscape-font-specification:monospace"
           id="path4490" />
        <path
           d="m 199.83773,153.14294 q 0,-0.28422 0.19637,-0.49092 0.20154,-0.20671 0.48059,-0.20671 0.28939,0 0.49609,0.20671 0.20671,0.2067 0.20671,0.49092 0,0.28939 -0.20671,0.49093 -0.20154,0.20153 -0.49609,0.20153 -0.28939,0 -0.48576,-0.19637 -0.1912,-0.19637 -0.1912,-0.49609 z m 0.6873,-3.15225 q -0.72864,0 -1.09037,0.78548 -0.35657,0.78548 -0.35657,2.39261 0,1.60196 0.35657,2.38744 0.36173,0.78548 1.09037,0.78548 0.7338,0 1.09036,-0.78548 0.36174,-0.78548 0.36174,-2.38744 0,-1.60713 -0.36174,-2.39261 -0.35656,-0.78548 -1.09036,-0.78548 z m 0,-0.82682 q 1.23506,0 1.86551,1.01285 0.63562,1.01286 0.63562,2.99206 0,1.97403 -0.63562,2.98689 -0.63045,1.01285 -1.86551,1.01285 -1.23507,0 -1.86552,-1.01285 -0.63045,-1.01286 -0.63045,-2.98689 0,-1.9792 0.63045,-2.99206 0.63045,-1.01285 1.86552,-1.01285 z"
           style="font-size:medium;line-height:1.25;font-family:monospace;-inkscape-font-specification:monospace"
           id="path4492" />
        <path
           d="m 205.10872,156.14016 h 1.62263 v -5.89626 l -1.74666,0.39274 v -0.95084 l 1.73632,-0.38241 h 1.04387 v 6.83677 h 1.60196 v 0.8785 h -4.25812 z"
           style="font-size:medium;line-height:1.25;font-family:monospace;-inkscape-font-specification:monospace;fill:#ff0000"
           id="path4494" />
        <path
           d="m 212.58109,153.14294 q 0,-0.28422 0.19637,-0.49092 0.20154,-0.20671 0.48059,-0.20671 0.28939,0 0.49609,0.20671 0.20671,0.2067 0.20671,0.49092 0,0.28939 -0.20671,0.49093 -0.20153,0.20153 -0.49609,0.20153 -0.28938,0 -0.48575,-0.19637 -0.19121,-0.19637 -0.19121,-0.49609 z m 0.6873,-3.15225 q -0.72864,0 -1.09037,0.78548 -0.35657,0.78548 -0.35657,2.39261 0,1.60196 0.35657,2.38744 0.36173,0.78548 1.09037,0.78548 0.7338,0 1.09037,-0.78548 0.36173,-0.78548 0.36173,-2.38744 0,-1.60713 -0.36173,-2.39261 -0.35657,-0.78548 -1.09037,-0.78548 z m 0,-0.82682 q 1.23506,0 1.86551,1.01285 0.63562,1.01286 0.63562,2.99206 0,1.97403 -0.63562,2.98689 -0.63045,1.01285 -1.86551,1.01285 -1.23506,0 -1.86552,-1.01285 -0.63045,-1.01286 -0.63045,-2.98689 0,-1.9792 0.63045,-2.99206 0.63046,-1.01285 1.86552,-1.01285 z"
           style="font-size:medium;line-height:1.25;font-family:monospace;-inkscape-font-specification:monospace"
           id="path4496" />
        <path
           d="m 218.95278,153.14294 q 0,-0.28422 0.19637,-0.49092 0.20154,-0.20671 0.48059,-0.20671 0.28939,0 0.49609,0.20671 0.20671,0.2067 0.20671,0.49092 0,0.28939 -0.20671,0.49093 -0.20153,0.20153 -0.49609,0.20153 -0.28939,0 -0.48576,-0.19637 -0.1912,-0.19637 -0.1912,-0.49609 z m 0.6873,-3.15225 q -0.72864,0 -1.09037,0.78548 -0.35657,0.78548 -0.35657,2.39261 0,1.60196 0.35657,2.38744 0.36173,0.78548 1.09037,0.78548 0.7338,0 1.09037,-0.78548 0.36173,-0.78548 0.36173,-2.38744 0,-1.60713 -0.36173,-2.39261 -0.35657,-0.78548 -1.09037,-0.78548 z m 0,-0.82682 q 1.23506,0 1.86551,1.01285 0.63562,1.01286 0.63562,2.99206 0,1.97403 -0.63562,2.98689 -0.63045,1.01285 -1.86551,1.01285 -1.23507,0 -1.86552,-1.01285 -0.63045,-1.01286 -0.63045,-2.98689 0,-1.9792 0.63045,-2.99206 0.63045,-1.01285 1.86552,-1.01285 z"
           style="font-size:medium;line-height:1.25;font-family:monospace;-inkscape-font-specification:monospace"
           id="path4498" />
        <path
           d="m 224.22377,156.14016 h 1.62263 v -5.89626 l -1.74666,0.39274 v -0.95084 l 1.73633,-0.38241 h 1.04386 v 6.83677 h 1.60196 v 0.8785 h -4.25812 z"
           style="font-size:medium;line-height:1.25;font-family:monospace;-inkscape-font-specification:monospace"
           id="path4500" />
        <path
           d="m 231.69614,153.14294 q 0,-0.28422 0.19637,-0.49092 0.20154,-0.20671 0.48059,-0.20671 0.28939,0 0.4961,0.20671 0.2067,0.2067 0.2067,0.49092 0,0.28939 -0.2067,0.49093 -0.20154,0.20153 -0.4961,0.20153 -0.28938,0 -0.48575,-0.19637 -0.19121,-0.19637 -0.19121,-0.49609 z m 0.6873,-3.15225 q -0.72864,0 -1.09037,0.78548 -0.35657,0.78548 -0.35657,2.39261 0,1.60196 0.35657,2.38744 0.36173,0.78548 1.09037,0.78548 0.7338,0 1.09037,-0.78548 0.36173,-0.78548 0.36173,-2.38744 0,-1.60713 -0.36173,-2.39261 -0.35657,-0.78548 -1.09037,-0.78548 z m 0,-0.82682 q 1.23506,0 1.86551,1.01285 0.63562,1.01286 0.63562,2.99206 0,1.97403 -0.63562,2.98689 -0.63045,1.01285 -1.86551,1.01285 -1.23506,0 -1.86551,-1.01285 -0.63045,-1.01286 -0.63045,-2.98689 0,-1.9792 0.63045,-2.99206 0.63045,-1.01285 1.86551,-1.01285 z"
           style="font-size:medium;line-height:1.25;font-family:monospace;-inkscape-font-specification:monospace"
           id="path4502" />
        <path
           d="m 238.06783,153.14294 q 0,-0.28422 0.19637,-0.49092 0.20154,-0.20671 0.48059,-0.20671 0.28939,0 0.49609,0.20671 0.20671,0.2067 0.20671,0.49092 0,0.28939 -0.20671,0.49093 -0.20153,0.20153 -0.49609,0.20153 -0.28938,0 -0.48575,-0.19637 -0.19121,-0.19637 -0.19121,-0.49609 z m 0.6873,-3.15225 q -0.72864,0 -1.09037,0.78548 -0.35657,0.78548 -0.35657,2.39261 0,1.60196 0.35657,2.38744 0.36173,0.78548 1.09037,0.78548 0.7338,0 1.09037,-0.78548 0.36173,-0.78548 0.36173,-2.38744 0,-1.60713 -0.36173,-2.39261 -0.35657,-0.78548 -1.09037,-0.78548 z m 0,-0.82682 q 1.23506,0 1.86551,1.01285 0.63562,1.01286 0.63562,2.99206 0,1.97403 -0.63562,2.98689 -0.63045,1.01285 -1.86551,1.01285 -1.23506,0 -1.86552,-1.01285 -0.63045,-1.01286 -0.63045,-2.98689 0,-1.9792 0.63045,-2.99206 0.63046,-1.01285 1.86552,-1.01285 z"
           style="font-size:medium;line-height:1.25;font-family:monospace;-inkscape-font-specification:monospace"
           id="path4504" />
        <path
           d="m 243.33882,156.14016 h 1.62263 v -5.89626 l -1.74666,0.39274 v -0.95084 l 1.73633,-0.38241 h 1.04386 v 6.83677 h 1.60196 v 0.8785 h -4.25812 z"
           style="font-size:medium;line-height:1.25;font-family:monospace;-inkscape-font-specification:monospace;fill:#ff0000"
           id="path4506" />
        <path
           d="m 249.71049,156.14016 h 1.62264 v -5.89626 l -1.74666,0.39274 v -0.95084 l 1.73632,-0.38241 h 1.04386 v 6.83677 h 1.60197 v 0.8785 h -4.25813 z"
           style="font-size:medium;line-height:1.25;font-family:monospace;-inkscape-font-specification:monospace"
           id="path4508" />
        <path
           d="m 257.18288,153.14294 q 0,-0.28422 0.19637,-0.49092 0.20154,-0.20671 0.48059,-0.20671 0.28939,0 0.4961,0.20671 0.2067,0.2067 0.2067,0.49092 0,0.28939 -0.2067,0.49093 -0.20154,0.20153 -0.4961,0.20153 -0.28938,0 -0.48575,-0.19637 -0.19121,-0.19637 -0.19121,-0.49609 z m 0.6873,-3.15225 q -0.72864,0 -1.09037,0.78548 -0.35657,0.78548 -0.35657,2.39261 0,1.60196 0.35657,2.38744 0.36173,0.78548 1.09037,0.78548 0.7338,0 1.09037,-0.78548 0.36173,-0.78548 0.36173,-2.38744 0,-1.60713 -0.36173,-2.39261 -0.35657,-0.78548 -1.09037,-0.78548 z m 0,-0.82682 q 1.23506,0 1.86551,1.01285 0.63562,1.01286 0.63562,2.99206 0,1.97403 -0.63562,2.98689 -0.63045,1.01285 -1.86551,1.01285 -1.23506,0 -1.86551,-1.01285 -0.63045,-1.01286 -0.63045,-2.98689 0,-1.9792 0.63045,-2.99206 0.63045,-1.01285 1.86551,-1.01285 z"
           style="font-size:medium;line-height:1.25;font-family:monospace;-inkscape-font-specification:monospace"
           id="path4510" />
        <path
           d="m 262.45387,156.14016 h 1.62263 v -5.89626 l -1.74665,0.39274 v -0.95084 l 1.73632,-0.38241 h 1.04386 v 6.83677 h 1.60196 v 0.8785 h -4.25812 z"
           style="font-size:medium;line-height:1.25;font-family:monospace;-inkscape-font-specification:monospace"
           id="path4512" />
        <path
           d="m 268.82554,156.14016 h 1.62264 v -5.89626 l -1.74666,0.39274 v -0.95084 l 1.73632,-0.38241 h 1.04386 v 6.83677 h 1.60197 v 0.8785 h -4.25813 z"
           style="font-size:medium;line-height:1.25;font-family:monospace;-inkscape-font-specification:monospace"
           id="path4514" />
        <path
           d="m 275.19722,156.14016 h 1.62263 v -5.89626 l -1.74666,0.39274 v -0.95084 l 1.73633,-0.38241 h 1.04386 v 6.83677 h 1.60196 v 0.8785 h -4.25812 z"
           style="font-size:medium;line-height:1.25;font-family:monospace;-inkscape-font-specification:monospace"
           id="path4516" />
        <path
           d="m 282.66962,153.14294 q 0,-0.28422 0.19637,-0.49092 0.20154,-0.20671 0.48059,-0.20671 0.28939,0 0.4961,0.20671 0.2067,0.2067 0.2067,0.49092 0,0.28939 -0.2067,0.49093 -0.20154,0.20153 -0.4961,0.20153 -0.28938,0 -0.48575,-0.19637 -0.19121,-0.19637 -0.19121,-0.49609 z m 0.6873,-3.15225 q -0.72864,0 -1.09037,0.78548 -0.35657,0.78548 -0.35657,2.39261 0,1.60196 0.35657,2.38744 0.36173,0.78548 1.09037,0.78548 0.7338,0 1.09037,-0.78548 0.36173,-0.78548 0.36173,-2.38744 0,-1.60713 -0.36173,-2.39261 -0.35657,-0.78548 -1.09037,-0.78548 z m 0,-0.82682 q 1.23506,0 1.86551,1.01285 0.63562,1.01286 0.63562,2.99206 0,1.97403 -0.63562,2.98689 -0.63045,1.01285 -1.86551,1.01285 -1.23506,0 -1.86551,-1.01285 -0.63045,-1.01286 -0.63045,-2.98689 0,-1.9792 0.63045,-2.99206 0.63045,-1.01285 1.86551,-1.01285 z"
           style="font-size:medium;line-height:1.25;font-family:monospace;-inkscape-font-specification:monospace"
           id="path4518" />
        <path
           d="m 16.056259,165.10207 q 0.175699,-0.37207 0.444416,-0.54777 0.273884,-0.18087 0.656289,-0.18087 0.697629,0 0.981849,0.54261 0.289387,0.53743 0.289387,2.03087 v 3.35379 h -0.868161 v -3.31245 q 0,-1.22472 -0.139526,-1.51928 -0.134359,-0.29972 -0.496093,-0.29972 -0.41341,0 -0.568438,0.32039 -0.149862,0.31523 -0.149862,1.49861 v 3.31245 h -0.868161 v -3.31245 q 0,-1.24023 -0.149861,-1.52961 -0.144694,-0.28939 -0.527098,-0.28939 -0.377237,0 -0.527098,0.32039 -0.144694,0.31523 -0.144694,1.49861 v 3.31245 h -0.862993 v -5.78774 h 0.862993 v 0.49609 q 0.170532,-0.31005 0.423746,-0.47025 0.258381,-0.16537 0.583942,-0.16537 0.392739,0 0.651121,0.18087 0.263549,0.18087 0.408242,0.54777 z"
           style="font-size:medium;line-height:126%;font-family:monospace;-inkscape-font-specification:monospace;fill:#0000ff"
           id="path4520" />
        <path
           d="m 22.562301,167.39133 h -0.315225 q -0.831988,0 -1.255733,0.29455 -0.418578,0.28939 -0.418578,0.86816 0,0.52193 0.315225,0.81132 0.315225,0.28939 0.873329,0.28939 0.785479,0 1.235063,-0.5426 0.449583,-0.54777 0.454751,-1.50895 v -0.21187 z m 1.844843,-0.39274 v 3.30211 h -0.956011 v -0.85782 q -0.30489,0.51676 -0.769977,0.76481 -0.459918,0.24287 -1.121375,0.24287 -0.883664,0 -1.410762,-0.49609 -0.527098,-0.50126 -0.527098,-1.33841 0,-0.96635 0.645954,-1.46761 0.651121,-0.50126 1.906854,-0.50126 h 1.276404 v -0.14986 q -0.0052,-0.69246 -0.351399,-1.00252 -0.346231,-0.31523 -1.105872,-0.31523 -0.485757,0 -0.981849,0.13953 -0.496092,0.13953 -0.966346,0.40824 v -0.95084 q 0.527098,-0.20154 1.007687,-0.29972 0.485757,-0.10336 0.940508,-0.10336 0.7183,0 1.224728,0.21188 0.511595,0.21187 0.82682,0.63562 0.19637,0.25838 0.279052,0.64078 0.08268,0.37724 0.08268,1.13688 z"
           style="font-size:medium;line-height:126%;font-family:monospace;-inkscape-font-specification:monospace;fill:#0000ff"
           id="path4522" />
        <path
           d="m 28.608424,168.20265 q 0,0.64078 0.232543,0.96634 0.237711,0.32556 0.69763,0.32556 h 1.11104 v 0.80615 H 29.44558 q -0.852659,0 -1.322913,-0.54777 -0.465086,-0.54776 -0.465086,-1.55028 v -5.25548 h -1.52445 v -0.74414 h 2.475293 z"
           style="font-size:medium;line-height:126%;font-family:monospace;-inkscape-font-specification:monospace;fill:#0000ff"
           id="path4524" />
        <path
           d="m 37.424396,167.16912 v 0.46509 h -4.118599 v 0.031 q 0,0.94568 0.490925,1.46244 0.496092,0.51676 1.395259,0.51676 0.454751,0 0.950843,-0.14469 0.496092,-0.14469 1.059364,-0.43925 v 0.94568 q -0.542601,0.22221 -1.049028,0.33073 -0.50126,0.11368 -0.971514,0.11368 -1.348751,0 -2.108392,-0.80615 -0.759641,-0.81131 -0.759641,-2.23241 0,-1.38492 0.744138,-2.21175 0.744138,-0.82682 1.984369,-0.82682 1.105872,0 1.74149,0.74931 0.640786,0.74931 0.640786,2.04638 z m -0.950844,-0.27905 q -0.02067,-0.83716 -0.397907,-1.27124 -0.372069,-0.43925 -1.074866,-0.43925 -0.687295,0 -1.131711,0.45476 -0.444415,0.45475 -0.527097,1.2609 z"
           style="font-size:medium;line-height:126%;font-family:monospace;-inkscape-font-specification:monospace;fill:#0000ff"
           id="path4526" />
        <path
           d="m 142.82331,165.61367 2.14973,2.8887 q 0.20154,-0.25322 0.29972,-0.64079 0.0982,-0.38757 0.0982,-0.925 0,-0.16537 -0.0155,-0.5271 l -0.005,-0.0362 h 0.8475 v 0.20153 q 0,0.83199 -0.19121,1.46244 -0.1912,0.62528 -0.57877,1.08004 l 0.8785,1.18338 h -1.10071 l -0.40307,-0.56327 q -0.42892,0.36174 -0.90951,0.53743 -0.48059,0.1757 -1.02835,0.1757 -1.11621,0 -1.84485,-0.69246 -0.72863,-0.69763 -0.72863,-1.75182 0,-0.70797 0.35656,-1.31258 0.35657,-0.60461 1.07487,-1.12138 -0.25838,-0.37207 -0.3824,-0.72863 -0.12403,-0.35657 -0.12403,-0.72347 0,-0.77514 0.5116,-1.22473 0.51676,-0.44958 1.41076,-0.44958 0.3359,0 0.67179,0.062 0.34107,0.062 0.7028,0.18087 v 0.94567 q -0.30489,-0.20153 -0.63045,-0.29455 -0.32039,-0.0982 -0.67696,-0.0982 -0.50126,0 -0.79065,0.23772 -0.28938,0.23254 -0.28938,0.63045 0,0.30489 0.14986,0.64078 0.14986,0.33073 0.54777,0.863 z m -0.67696,0.53743 q -0.47543,0.37723 -0.71314,0.80098 -0.23254,0.41858 -0.23254,0.894 0,0.78031 0.51676,1.29707 0.51677,0.5116 1.31775,0.5116 0.21704,0 0.45475,-0.062 0.23771,-0.062 0.46509,-0.18087 0.13952,-0.0775 0.22737,-0.13436 0.093,-0.062 0.1757,-0.12919 z"
           style="font-size:medium;line-height:126%;font-family:monospace;-inkscape-font-specification:monospace"
           id="path4528" />
        <path
           d="m 155.23594,166.42498 q 0,-0.28422 0.19637,-0.49092 0.20154,-0.20671 0.48059,-0.20671 0.28939,0 0.49609,0.20671 0.20671,0.2067 0.20671,0.49092 0,0.28939 -0.20671,0.49093 -0.20154,0.20153 -0.49609,0.20153 -0.28939,0 -0.48576,-0.19637 -0.1912,-0.19637 -0.1912,-0.49609 z m 0.68729,-3.15225 q -0.72863,0 -1.09037,0.78548 -0.35656,0.78548 -0.35656,2.39261 0,1.60196 0.35656,2.38744 0.36174,0.78548 1.09037,0.78548 0.73381,0 1.09037,-0.78548 0.36174,-0.78548 0.36174,-2.38744 0,-1.60713 -0.36174,-2.39261 -0.35656,-0.78548 -1.09037,-0.78548 z m 0,-0.82682 q 1.23507,0 1.86552,1.01285 0.63562,1.01286 0.63562,2.99206 0,1.97403 -0.63562,2.98689 -0.63045,1.01285 -1.86552,1.01285 -1.23506,0 -1.86551,-1.01285 -0.63045,-1.01286 -0.63045,-2.98689 0,-1.9792 0.63045,-2.99206 0.63045,-1.01285 1.86551,-1.01285 z"
           style="font-size:medium;line-height:126%;font-family:monospace;-inkscape-font-specification:monospace"
           id="path4530" />
        <path
           d="m 161.60763,166.42498 q 0,-0.28422 0.19637,-0.49092 0.20154,-0.20671 0.48059,-0.20671 0.28938,0 0.49609,0.20671 0.2067,0.2067 0.2067,0.49092 0,0.28939 -0.2067,0.49093 -0.20154,0.20153 -0.49609,0.20153 -0.28939,0 -0.48576,-0.19637 -0.1912,-0.19637 -0.1912,-0.49609 z m 0.68729,-3.15225 q -0.72863,0 -1.09037,0.78548 -0.35656,0.78548 -0.35656,2.39261 0,1.60196 0.35656,2.38744 0.36174,0.78548 1.09037,0.78548 0.73381,0 1.09037,-0.78548 0.36174,-0.78548 0.36174,-2.38744 0,-1.60713 -0.36174,-2.39261 -0.35656,-0.78548 -1.09037,-0.78548 z m 0,-0.82682 q 1.23507,0 1.86552,1.01285 0.63561,1.01286 0.63561,2.99206 0,1.97403 -0.63561,2.98689 -0.63045,1.01285 -1.86552,1.01285 -1.23506,0 -1.86551,-1.01285 -0.63045,-1.01286 -0.63045,-2.98689 0,-1.9792 0.63045,-2.99206 0.63045,-1.01285 1.86551,-1.01285 z"
           style="font-size:medium;line-height:126%;font-family:monospace;-inkscape-font-specification:monospace"
           id="path4532" />
        <path
           d="m 167.97932,166.42498 q 0,-0.28422 0.19637,-0.49092 0.20153,-0.20671 0.48059,-0.20671 0.28938,0 0.49609,0.20671 0.2067,0.2067 0.2067,0.49092 0,0.28939 -0.2067,0.49093 -0.20154,0.20153 -0.49609,0.20153 -0.28939,0 -0.48576,-0.19637 -0.1912,-0.19637 -0.1912,-0.49609 z m 0.68729,-3.15225 q -0.72863,0 -1.09037,0.78548 -0.35656,0.78548 -0.35656,2.39261 0,1.60196 0.35656,2.38744 0.36174,0.78548 1.09037,0.78548 0.7338,0 1.09037,-0.78548 0.36173,-0.78548 0.36173,-2.38744 0,-1.60713 -0.36173,-2.39261 -0.35657,-0.78548 -1.09037,-0.78548 z m 0,-0.82682 q 1.23506,0 1.86551,1.01285 0.63562,1.01286 0.63562,2.99206 0,1.97403 -0.63562,2.98689 -0.63045,1.01285 -1.86551,1.01285 -1.23506,0 -1.86551,-1.01285 -0.63045,-1.01286 -0.63045,-2.98689 0,-1.9792 0.63045,-2.99206 0.63045,-1.01285 1.86551,-1.01285 z"
           style="font-size:medium;line-height:126%;font-family:monospace;-inkscape-font-specification:monospace"
           id="path4534" />
        <path
           d="m 173.25029,169.42221 h 1.62263 v -5.89627 l -1.74666,0.39274 v -0.95084 l 1.73633,-0.3824 h 1.04386 v 6.83677 h 1.60196 v 0.87849 h -4.25812 z"
           style="font-size:medium;line-height:126%;font-family:monospace;-inkscape-font-specification:monospace"
           id="path4536" />
        <path
           d="m 179.62198,169.42221 h 1.62263 v -5.89627 l -1.74666,0.39274 v -0.95084 l 1.73632,-0.3824 h 1.04387 v 6.83677 h 1.60196 v 0.87849 h -4.25812 z"
           style="font-size:medium;line-height:126%;font-family:monospace;-inkscape-font-specification:monospace"
           id="path4538" />
        <path
           d="m 187.09437,166.42498 q 0,-0.28422 0.19637,-0.49092 0.20154,-0.20671 0.48059,-0.20671 0.28938,0 0.49609,0.20671 0.2067,0.2067 0.2067,0.49092 0,0.28939 -0.2067,0.49093 -0.20154,0.20153 -0.49609,0.20153 -0.28939,0 -0.48576,-0.19637 -0.1912,-0.19637 -0.1912,-0.49609 z m 0.68729,-3.15225 q -0.72863,0 -1.09037,0.78548 -0.35656,0.78548 -0.35656,2.39261 0,1.60196 0.35656,2.38744 0.36174,0.78548 1.09037,0.78548 0.73381,0 1.09037,-0.78548 0.36174,-0.78548 0.36174,-2.38744 0,-1.60713 -0.36174,-2.39261 -0.35656,-0.78548 -1.09037,-0.78548 z m 0,-0.82682 q 1.23507,0 1.86552,1.01285 0.63561,1.01286 0.63561,2.99206 0,1.97403 -0.63561,2.98689 -0.63045,1.01285 -1.86552,1.01285 -1.23506,0 -1.86551,-1.01285 -0.63045,-1.01286 -0.63045,-2.98689 0,-1.9792 0.63045,-2.99206 0.63045,-1.01285 1.86551,-1.01285 z"
           style="font-size:medium;line-height:126%;font-family:monospace;-inkscape-font-specification:monospace"
           id="path4540" />
        <path
           d="m 193.46604,166.42498 q 0,-0.28422 0.19637,-0.49092 0.20154,-0.20671 0.48059,-0.20671 0.28939,0 0.49609,0.20671 0.20671,0.2067 0.20671,0.49092 0,0.28939 -0.20671,0.49093 -0.20153,0.20153 -0.49609,0.20153 -0.28939,0 -0.48576,-0.19637 -0.1912,-0.19637 -0.1912,-0.49609 z m 0.6873,-3.15225 q -0.72864,0 -1.09037,0.78548 -0.35657,0.78548 -0.35657,2.39261 0,1.60196 0.35657,2.38744 0.36173,0.78548 1.09037,0.78548 0.7338,0 1.09037,-0.78548 0.36173,-0.78548 0.36173,-2.38744 0,-1.60713 -0.36173,-2.39261 -0.35657,-0.78548 -1.09037,-0.78548 z m 0,-0.82682 q 1.23506,0 1.86551,1.01285 0.63562,1.01286 0.63562,2.99206 0,1.97403 -0.63562,2.98689 -0.63045,1.01285 -1.86551,1.01285 -1.23507,0 -1.86552,-1.01285 -0.63045,-1.01286 -0.63045,-2.98689 0,-1.9792 0.63045,-2.99206 0.63045,-1.01285 1.86552,-1.01285 z"
           style="font-size:medium;line-height:126%;font-family:monospace;-inkscape-font-specification:monospace"
           id="path4542" />
        <path
           d="m 198.73703,169.42221 h 1.62263 v -5.89627 l -1.74666,0.39274 v -0.95084 l 1.73633,-0.3824 h 1.04386 v 6.83677 h 1.60196 v 0.87849 h -4.25812 z"
           style="font-size:medium;line-height:126%;font-family:monospace;-inkscape-font-specification:monospace"
           id="path4544" />
        <path
           d="m 205.10872,169.42221 h 1.62263 v -5.89627 l -1.74666,0.39274 v -0.95084 l 1.73632,-0.3824 h 1.04387 v 6.83677 h 1.60196 v 0.87849 h -4.25812 z"
           style="font-size:medium;line-height:126%;font-family:monospace;-inkscape-font-specification:monospace;fill:#ff0000"
           id="path4546" />
        <path
           d="m 212.58109,166.42498 q 0,-0.28422 0.19637,-0.49092 0.20154,-0.20671 0.48059,-0.20671 0.28939,0 0.49609,0.20671 0.20671,0.2067 0.20671,0.49092 0,0.28939 -0.20671,0.49093 -0.20153,0.20153 -0.49609,0.20153 -0.28938,0 -0.48575,-0.19637 -0.19121,-0.19637 -0.19121,-0.49609 z m 0.6873,-3.15225 q -0.72864,0 -1.09037,0.78548 -0.35657,0.78548 -0.35657,2.39261 0,1.60196 0.35657,2.38744 0.36173,0.78548 1.09037,0.78548 0.7338,0 1.09037,-0.78548 0.36173,-0.78548 0.36173,-2.38744 0,-1.60713 -0.36173,-2.39261 -0.35657,-0.78548 -1.09037,-0.78548 z m 0,-0.82682 q 1.23506,0 1.86551,1.01285 0.63562,1.01286 0.63562,2.99206 0,1.97403 -0.63562,2.98689 -0.63045,1.01285 -1.86551,1.01285 -1.23506,0 -1.86552,-1.01285 -0.63045,-1.01286 -0.63045,-2.98689 0,-1.9792 0.63045,-2.99206 0.63046,-1.01285 1.86552,-1.01285 z"
           style="font-size:medium;line-height:126%;font-family:monospace;-inkscape-font-specification:monospace"
           id="path4548" />
        <path
           d="m 218.95278,166.42498 q 0,-0.28422 0.19637,-0.49092 0.20154,-0.20671 0.48059,-0.20671 0.28939,0 0.49609,0.20671 0.20671,0.2067 0.20671,0.49092 0,0.28939 -0.20671,0.49093 -0.20153,0.20153 -0.49609,0.20153 -0.28939,0 -0.48576,-0.19637 -0.1912,-0.19637 -0.1912,-0.49609 z m 0.6873,-3.15225 q -0.72864,0 -1.09037,0.78548 -0.35657,0.78548 -0.35657,2.39261 0,1.60196 0.35657,2.38744 0.36173,0.78548 1.09037,0.78548 0.7338,0 1.09037,-0.78548 0.36173,-0.78548 0.36173,-2.38744 0,-1.60713 -0.36173,-2.39261 -0.35657,-0.78548 -1.09037,-0.78548 z m 0,-0.82682 q 1.23506,0 1.86551,1.01285 0.63562,1.01286 0.63562,2.99206 0,1.97403 -0.63562,2.98689 -0.63045,1.01285 -1.86551,1.01285 -1.23507,0 -1.86552,-1.01285 -0.63045,-1.01286 -0.63045,-2.98689 0,-1.9792 0.63045,-2.99206 0.63045,-1.01285 1.86552,-1.01285 z"
           style="font-size:medium;line-height:126%;font-family:monospace;-inkscape-font-specification:monospace"
           id="path4550" />
        <path
           d="m 225.32447,166.42498 q 0,-0.28422 0.19637,-0.49092 0.20154,-0.20671 0.48059,-0.20671 0.28939,0 0.49609,0.20671 0.20671,0.2067 0.20671,0.49092 0,0.28939 -0.20671,0.49093 -0.20154,0.20153 -0.49609,0.20153 -0.28939,0 -0.48576,-0.19637 -0.1912,-0.19637 -0.1912,-0.49609 z m 0.6873,-3.15225 q -0.72864,0 -1.09037,0.78548 -0.35657,0.78548 -0.35657,2.39261 0,1.60196 0.35657,2.38744 0.36173,0.78548 1.09037,0.78548 0.7338,0 1.09036,-0.78548 0.36174,-0.78548 0.36174,-2.38744 0,-1.60713 -0.36174,-2.39261 -0.35656,-0.78548 -1.09036,-0.78548 z m 0,-0.82682 q 1.23506,0 1.86551,1.01285 0.63562,1.01286 0.63562,2.99206 0,1.97403 -0.63562,2.98689 -0.63045,1.01285 -1.86551,1.01285 -1.23507,0 -1.86552,-1.01285 -0.63045,-1.01286 -0.63045,-2.98689 0,-1.9792 0.63045,-2.99206 0.63045,-1.01285 1.86552,-1.01285 z"
           style="font-size:medium;line-height:126%;font-family:monospace;-inkscape-font-specification:monospace"
           id="path4552" />
        <path
           d="m 231.69614,166.42498 q 0,-0.28422 0.19637,-0.49092 0.20154,-0.20671 0.48059,-0.20671 0.28939,0 0.4961,0.20671 0.2067,0.2067 0.2067,0.49092 0,0.28939 -0.2067,0.49093 -0.20154,0.20153 -0.4961,0.20153 -0.28938,0 -0.48575,-0.19637 -0.19121,-0.19637 -0.19121,-0.49609 z m 0.6873,-3.15225 q -0.72864,0 -1.09037,0.78548 -0.35657,0.78548 -0.35657,2.39261 0,1.60196 0.35657,2.38744 0.36173,0.78548 1.09037,0.78548 0.7338,0 1.09037,-0.78548 0.36173,-0.78548 0.36173,-2.38744 0,-1.60713 -0.36173,-2.39261 -0.35657,-0.78548 -1.09037,-0.78548 z m 0,-0.82682 q 1.23506,0 1.86551,1.01285 0.63562,1.01286 0.63562,2.99206 0,1.97403 -0.63562,2.98689 -0.63045,1.01285 -1.86551,1.01285 -1.23506,0 -1.86551,-1.01285 -0.63045,-1.01286 -0.63045,-2.98689 0,-1.9792 0.63045,-2.99206 0.63045,-1.01285 1.86551,-1.01285 z"
           style="font-size:medium;line-height:126%;font-family:monospace;-inkscape-font-specification:monospace"
           id="path4554" />
        <path
           d="m 238.06783,166.42498 q 0,-0.28422 0.19637,-0.49092 0.20154,-0.20671 0.48059,-0.20671 0.28939,0 0.49609,0.20671 0.20671,0.2067 0.20671,0.49092 0,0.28939 -0.20671,0.49093 -0.20153,0.20153 -0.49609,0.20153 -0.28938,0 -0.48575,-0.19637 -0.19121,-0.19637 -0.19121,-0.49609 z m 0.6873,-3.15225 q -0.72864,0 -1.09037,0.78548 -0.35657,0.78548 -0.35657,2.39261 0,1.60196 0.35657,2.38744 0.36173,0.78548 1.09037,0.78548 0.7338,0 1.09037,-0.78548 0.36173,-0.78548 0.36173,-2.38744 0,-1.60713 -0.36173,-2.39261 -0.35657,-0.78548 -1.09037,-0.78548 z m 0,-0.82682 q 1.23506,0 1.86551,1.01285 0.63562,1.01286 0.63562,2.99206 0,1.97403 -0.63562,2.98689 -0.63045,1.01285 -1.86551,1.01285 -1.23506,0 -1.86552,-1.01285 -0.63045,-1.01286 -0.63045,-2.98689 0,-1.9792 0.63045,-2.99206 0.63046,-1.01285 1.86552,-1.01285 z"
           style="font-size:medium;line-height:126%;font-family:monospace;-inkscape-font-specification:monospace"
           id="path4556" />
        <path
           d="m 243.33882,169.42221 h 1.62263 v -5.89627 l -1.74666,0.39274 v -0.95084 l 1.73633,-0.3824 h 1.04386 v 6.83677 h 1.60196 v 0.87849 h -4.25812 z"
           style="font-size:medium;line-height:126%;font-family:monospace;-inkscape-font-specification:monospace;fill:#ff0000"
           id="path4558" />
        <path
           d="m 250.8112,166.42498 q 0,-0.28422 0.19637,-0.49092 0.20153,-0.20671 0.48059,-0.20671 0.28938,0 0.49609,0.20671 0.2067,0.2067 0.2067,0.49092 0,0.28939 -0.2067,0.49093 -0.20154,0.20153 -0.49609,0.20153 -0.28939,0 -0.48576,-0.19637 -0.1912,-0.19637 -0.1912,-0.49609 z m 0.68729,-3.15225 q -0.72864,0 -1.09037,0.78548 -0.35657,0.78548 -0.35657,2.39261 0,1.60196 0.35657,2.38744 0.36173,0.78548 1.09037,0.78548 0.7338,0 1.09037,-0.78548 0.36173,-0.78548 0.36173,-2.38744 0,-1.60713 -0.36173,-2.39261 -0.35657,-0.78548 -1.09037,-0.78548 z m 0,-0.82682 q 1.23506,0 1.86551,1.01285 0.63562,1.01286 0.63562,2.99206 0,1.97403 -0.63562,2.98689 -0.63045,1.01285 -1.86551,1.01285 -1.23506,0 -1.86551,-1.01285 -0.63045,-1.01286 -0.63045,-2.98689 0,-1.9792 0.63045,-2.99206 0.63045,-1.01285 1.86551,-1.01285 z"
           style="font-size:medium;line-height:126%;font-family:monospace;-inkscape-font-specification:monospace"
           id="path4560" />
        <path
           d="m 257.18288,166.42498 q 0,-0.28422 0.19637,-0.49092 0.20154,-0.20671 0.48059,-0.20671 0.28939,0 0.4961,0.20671 0.2067,0.2067 0.2067,0.49092 0,0.28939 -0.2067,0.49093 -0.20154,0.20153 -0.4961,0.20153 -0.28938,0 -0.48575,-0.19637 -0.19121,-0.19637 -0.19121,-0.49609 z m 0.6873,-3.15225 q -0.72864,0 -1.09037,0.78548 -0.35657,0.78548 -0.35657,2.39261 0,1.60196 0.35657,2.38744 0.36173,0.78548 1.09037,0.78548 0.7338,0 1.09037,-0.78548 0.36173,-0.78548 0.36173,-2.38744 0,-1.60713 -0.36173,-2.39261 -0.35657,-0.78548 -1.09037,-0.78548 z m 0,-0.82682 q 1.23506,0 1.86551,1.01285 0.63562,1.01286 0.63562,2.99206 0,1.97403 -0.63562,2.98689 -0.63045,1.01285 -1.86551,1.01285 -1.23506,0 -1.86551,-1.01285 -0.63045,-1.01286 -0.63045,-2.98689 0,-1.9792 0.63045,-2.99206 0.63045,-1.01285 1.86551,-1.01285 z"
           style="font-size:medium;line-height:126%;font-family:monospace;-inkscape-font-specification:monospace"
           id="path4562" />
        <path
           d="m 263.55457,166.42498 q 0,-0.28422 0.19637,-0.49092 0.20154,-0.20671 0.48059,-0.20671 0.28939,0 0.49609,0.20671 0.20671,0.2067 0.20671,0.49092 0,0.28939 -0.20671,0.49093 -0.20153,0.20153 -0.49609,0.20153 -0.28938,0 -0.48575,-0.19637 -0.19121,-0.19637 -0.19121,-0.49609 z m 0.6873,-3.15225 q -0.72864,0 -1.09037,0.78548 -0.35657,0.78548 -0.35657,2.39261 0,1.60196 0.35657,2.38744 0.36173,0.78548 1.09037,0.78548 0.7338,0 1.09037,-0.78548 0.36173,-0.78548 0.36173,-2.38744 0,-1.60713 -0.36173,-2.39261 -0.35657,-0.78548 -1.09037,-0.78548 z m 0,-0.82682 q 1.23506,0 1.86551,1.01285 0.63562,1.01286 0.63562,2.99206 0,1.97403 -0.63562,2.98689 -0.63045,1.01285 -1.86551,1.01285 -1.23506,0 -1.86552,-1.01285 -0.63045,-1.01286 -0.63045,-2.98689 0,-1.9792 0.63045,-2.99206 0.63046,-1.01285 1.86552,-1.01285 z"
           style="font-size:medium;line-height:126%;font-family:monospace;-inkscape-font-specification:monospace"
           id="path4564" />
        <path
           d="m 269.92625,166.42498 q 0,-0.28422 0.19637,-0.49092 0.20153,-0.20671 0.48059,-0.20671 0.28938,0 0.49609,0.20671 0.2067,0.2067 0.2067,0.49092 0,0.28939 -0.2067,0.49093 -0.20154,0.20153 -0.49609,0.20153 -0.28939,0 -0.48576,-0.19637 -0.1912,-0.19637 -0.1912,-0.49609 z m 0.68729,-3.15225 q -0.72863,0 -1.09037,0.78548 -0.35656,0.78548 -0.35656,2.39261 0,1.60196 0.35656,2.38744 0.36174,0.78548 1.09037,0.78548 0.7338,0 1.09037,-0.78548 0.36173,-0.78548 0.36173,-2.38744 0,-1.60713 -0.36173,-2.39261 -0.35657,-0.78548 -1.09037,-0.78548 z m 0,-0.82682 q 1.23506,0 1.86551,1.01285 0.63562,1.01286 0.63562,2.99206 0,1.97403 -0.63562,2.98689 -0.63045,1.01285 -1.86551,1.01285 -1.23506,0 -1.86551,-1.01285 -0.63045,-1.01286 -0.63045,-2.98689 0,-1.9792 0.63045,-2.99206 0.63045,-1.01285 1.86551,-1.01285 z"
           style="font-size:medium;line-height:126%;font-family:monospace;-inkscape-font-specification:monospace"
           id="path4566" />
        <path
           d="m 276.29792,166.42498 q 0,-0.28422 0.19637,-0.49092 0.20154,-0.20671 0.48059,-0.20671 0.28939,0 0.49609,0.20671 0.20671,0.2067 0.20671,0.49092 0,0.28939 -0.20671,0.49093 -0.20154,0.20153 -0.49609,0.20153 -0.28939,0 -0.48576,-0.19637 -0.1912,-0.19637 -0.1912,-0.49609 z m 0.6873,-3.15225 q -0.72864,0 -1.09037,0.78548 -0.35657,0.78548 -0.35657,2.39261 0,1.60196 0.35657,2.38744 0.36173,0.78548 1.09037,0.78548 0.7338,0 1.09036,-0.78548 0.36174,-0.78548 0.36174,-2.38744 0,-1.60713 -0.36174,-2.39261 -0.35656,-0.78548 -1.09036,-0.78548 z m 0,-0.82682 q 1.23506,0 1.86551,1.01285 0.63562,1.01286 0.63562,2.99206 0,1.97403 -0.63562,2.98689 -0.63045,1.01285 -1.86551,1.01285 -1.23507,0 -1.86552,-1.01285 -0.63045,-1.01286 -0.63045,-2.98689 0,-1.9792 0.63045,-2.99206 0.63045,-1.01285 1.86552,-1.01285 z"
           style="font-size:medium;line-height:126%;font-family:monospace;-inkscape-font-specification:monospace"
           id="path4568" />
        <path
           d="m 282.66962,166.42498 q 0,-0.28422 0.19637,-0.49092 0.20154,-0.20671 0.48059,-0.20671 0.28939,0 0.4961,0.20671 0.2067,0.2067 0.2067,0.49092 0,0.28939 -0.2067,0.49093 -0.20154,0.20153 -0.4961,0.20153 -0.28938,0 -0.48575,-0.19637 -0.19121,-0.19637 -0.19121,-0.49609 z m 0.6873,-3.15225 q -0.72864,0 -1.09037,0.78548 -0.35657,0.78548 -0.35657,2.39261 0,1.60196 0.35657,2.38744 0.36173,0.78548 1.09037,0.78548 0.7338,0 1.09037,-0.78548 0.36173,-0.78548 0.36173,-2.38744 0,-1.60713 -0.36173,-2.39261 -0.35657,-0.78548 -1.09037,-0.78548 z m 0,-0.82682 q 1.23506,0 1.86551,1.01285 0.63562,1.01286 0.63562,2.99206 0,1.97403 -0.63562,2.98689 -0.63045,1.01285 -1.86551,1.01285 -1.23506,0 -1.86551,-1.01285 -0.63045,-1.01286 -0.63045,-2.98689 0,-1.9792 0.63045,-2.99206 0.63045,-1.01285 1.86551,-1.01285 z"
           style="font-size:medium;line-height:126%;font-family:monospace;-inkscape-font-specification:monospace"
           id="path4570" />
        <path
           d="m 18.056131,175.54192 v 0.79064 h -1.080034 q -0.511595,0 -0.713133,0.21188 -0.19637,0.2067 -0.19637,0.73897 v 0.51159 h 1.989537 v 0.73897 h -1.989537 v 5.04877 h -0.950843 v -5.04877 h -1.54512 V 177.795 h 1.54512 v -0.40307 q 0,-0.95085 0.434081,-1.40043 0.439248,-0.44958 1.364253,-0.44958 z"
           style="font-size:medium;line-height:1.25;font-family:monospace;-inkscape-font-specification:monospace;fill:#ff0000"
           id="path4572" />
        <path
           d="m 24.681028,180.45116 v 0.46509 h -4.118599 v 0.031 q 0,0.94568 0.490925,1.46244 0.496092,0.51676 1.395259,0.51676 0.454751,0 0.950844,-0.14469 0.496092,-0.14469 1.059363,-0.43925 v 0.94568 q -0.542601,0.22221 -1.049028,0.33073 -0.50126,0.11368 -0.971514,0.11368 -1.348751,0 -2.108392,-0.80615 -0.759641,-0.81131 -0.759641,-2.23241 0,-1.38492 0.744138,-2.21174 0.744139,-0.82682 1.984369,-0.82682 1.105872,0 1.74149,0.7493 0.640786,0.74931 0.640786,2.04638 z m -0.950843,-0.27905 q -0.02067,-0.83716 -0.397908,-1.27124 -0.372069,-0.43924 -1.074866,-0.43924 -0.687294,0 -1.13171,0.45475 -0.444416,0.45475 -0.527098,1.2609 z"
           style="font-size:medium;line-height:1.25;font-family:monospace;-inkscape-font-specification:monospace;fill:#ff0000"
           id="path4574" />
        <path
           d="m 28.799626,178.38411 q 0.1757,-0.37207 0.444416,-0.54777 0.273884,-0.18086 0.656289,-0.18086 0.697629,0 0.981849,0.5426 0.289387,0.53743 0.289387,2.03087 v 3.35379 h -0.868161 v -3.31245 q 0,-1.22472 -0.139526,-1.51928 -0.134358,-0.29972 -0.496092,-0.29972 -0.41341,0 -0.568439,0.32039 -0.149861,0.31523 -0.149861,1.49861 v 3.31245 h -0.868162 v -3.31245 q 0,-1.24023 -0.149861,-1.52961 -0.144693,-0.28939 -0.527098,-0.28939 -0.377237,0 -0.527098,0.32039 -0.144693,0.31523 -0.144693,1.49861 v 3.31245 H 25.869582 V 177.795 h 0.862994 v 0.49609 q 0.170531,-0.31005 0.423745,-0.47025 0.258381,-0.16536 0.583942,-0.16536 0.39274,0 0.651121,0.18086 0.263549,0.18087 0.408242,0.54777 z"
           style="font-size:medium;line-height:1.25;font-family:monospace;-inkscape-font-specification:monospace;fill:#ff0000"
           id="path4576" />
        <path
           d="m 35.305669,180.67337 h -0.315226 q -0.831987,0 -1.255733,0.29455 -0.418578,0.28939 -0.418578,0.86817 0,0.52193 0.315226,0.81131 0.315225,0.28939 0.873329,0.28939 0.785479,0 1.235062,-0.5426 0.449584,-0.54777 0.454752,-1.50895 v -0.21187 z m 1.844842,-0.39274 v 3.30211 h -0.95601 v -0.85782 q -0.30489,0.51676 -0.769977,0.76481 -0.459919,0.24287 -1.121375,0.24287 -0.883664,0 -1.410762,-0.49609 -0.527098,-0.50126 -0.527098,-1.33841 0,-0.96635 0.645953,-1.46761 0.651121,-0.50126 1.906855,-0.50126 h 1.276404 v -0.14986 q -0.0052,-0.69246 -0.351399,-1.00252 -0.346231,-0.31522 -1.105872,-0.31522 -0.485757,0 -0.981849,0.13952 -0.496092,0.13953 -0.966347,0.40824 v -0.95084 q 0.527098,-0.20154 1.007688,-0.29972 0.485757,-0.10335 0.940508,-0.10335 0.7183,0 1.224727,0.21187 0.511595,0.21187 0.826821,0.63562 0.196369,0.25838 0.279051,0.64078 0.08268,0.37724 0.08268,1.13688 z"
           style="font-size:medium;line-height:1.25;font-family:monospace;-inkscape-font-specification:monospace;fill:#ff0000"
           id="path4578" />
        <path
           d="m 41.351791,181.48469 q 0,0.64078 0.232544,0.96634 0.23771,0.32556 0.697629,0.32556 h 1.11104 v 0.80615 h -1.204057 q -0.852659,0 -1.322913,-0.54776 -0.465086,-0.54777 -0.465086,-1.55029 v -5.25548 h -1.52445 v -0.74414 h 2.475293 z"
           style="font-size:medium;line-height:1.25;font-family:monospace;-inkscape-font-specification:monospace;fill:#ff0000"
           id="path4580" />
        <path
           d="m 50.167762,180.45116 v 0.46509 h -4.118599 v 0.031 q 0,0.94568 0.490925,1.46244 0.496092,0.51676 1.395259,0.51676 0.454751,0 0.950844,-0.14469 0.496092,-0.14469 1.059363,-0.43925 v 0.94568 q -0.542601,0.22221 -1.049028,0.33073 -0.50126,0.11368 -0.971514,0.11368 -1.348751,0 -2.108392,-0.80615 -0.759641,-0.81131 -0.759641,-2.23241 0,-1.38492 0.744138,-2.21174 0.744139,-0.82682 1.984369,-0.82682 1.105872,0 1.74149,0.7493 0.640786,0.74931 0.640786,2.04638 z m -0.950843,-0.27905 q -0.02067,-0.83716 -0.397908,-1.27124 -0.372069,-0.43924 -1.074866,-0.43924 -0.687294,0 -1.13171,0.45475 -0.444416,0.45475 -0.527098,1.2609 z"
           style="font-size:medium;line-height:1.25;font-family:monospace;-inkscape-font-specification:monospace;fill:#ff0000"
           id="path4582" />
        <path
           d="m 60.347985,176.78731 -1.100704,3.94807 h 2.201409 z m -0.63045,-0.91983 h 1.266068 l 2.361606,7.71526 h -1.080034 l -0.568439,-2.0102 h -2.702669 l -0.558104,2.0102 h -1.080034 z"
           style="font-size:medium;line-height:1.25;font-family:monospace;-inkscape-font-specification:monospace"
           id="path4584" />
        <path
           d="m 64.254712,175.86748 h 1.322913 l 2.604484,6.35101 v -6.35101 h 1.007687 v 7.71526 H 67.866883 L 65.2624,177.23173 v 6.35101 h -1.007688 z"
           style="font-size:medium;line-height:1.25;font-family:monospace;-inkscape-font-specification:monospace"
           id="path4586" />
        <path
           d="m 72.161183,182.72492 q 1.317744,0 1.839675,-0.64596 0.52193,-0.65112 0.52193,-2.3461 0,-1.71048 -0.52193,-2.35644 -0.516763,-0.65112 -1.839675,-0.65112 H 71.66509 v 5.99962 z m 0.02067,-6.85744 q 1.767328,0 2.604484,0.9405 0.837155,0.94051 0.837155,2.92488 0,1.97403 -0.837155,2.91454 -0.837156,0.93534 -2.604484,0.93534 h -1.565791 v -7.71526 z"
           style="font-size:medium;line-height:1.25;font-family:monospace;-inkscape-font-specification:monospace"
           id="path4588" />
        <path
           d="m 86.144775,178.38411 q 0.1757,-0.37207 0.444416,-0.54777 0.273885,-0.18086 0.656289,-0.18086 0.69763,0 0.981849,0.5426 0.289387,0.53743 0.289387,2.03087 v 3.35379 h -0.868161 v -3.31245 q 0,-1.22472 -0.139526,-1.51928 -0.134358,-0.29972 -0.496092,-0.29972 -0.41341,0 -0.568439,0.32039 -0.149861,0.31523 -0.149861,1.49861 v 3.31245 h -0.868162 v -3.31245 q 0,-1.24023 -0.149861,-1.52961 -0.144693,-0.28939 -0.527098,-0.28939 -0.377237,0 -0.527098,0.32039 -0.144693,0.31523 -0.144693,1.49861 v 3.31245 H 83.214731 V 177.795 h 0.862994 v 0.49609 q 0.170531,-0.31005 0.423745,-0.47025 0.258381,-0.16536 0.583942,-0.16536 0.39274,0 0.651121,0.18086 0.263549,0.18087 0.408242,0.54777 z"
           style="font-size:medium;line-height:1.25;font-family:monospace;-inkscape-font-specification:monospace;fill:#0000ff"
           id="path4590" />
        <path
           d="m 92.650823,180.67337 h -0.315226 q -0.831988,0 -1.255733,0.29455 -0.418578,0.28939 -0.418578,0.86817 0,0.52193 0.315225,0.81131 0.315226,0.28939 0.873329,0.28939 0.78548,0 1.235063,-0.5426 0.449584,-0.54777 0.454751,-1.50895 v -0.21187 z m 1.844842,-0.39274 v 3.30211 h -0.956011 v -0.85782 q -0.30489,0.51676 -0.769976,0.76481 -0.459919,0.24287 -1.121375,0.24287 -0.883664,0 -1.410762,-0.49609 -0.527098,-0.50126 -0.527098,-1.33841 0,-0.96635 0.645953,-1.46761 0.651121,-0.50126 1.906855,-0.50126 h 1.276403 v -0.14986 q -0.0052,-0.69246 -0.351398,-1.00252 -0.346231,-0.31522 -1.105872,-0.31522 -0.485757,0 -0.981849,0.13952 -0.496093,0.13953 -0.966347,0.40824 v -0.95084 q 0.527098,-0.20154 1.007688,-0.29972 0.485756,-0.10335 0.940508,-0.10335 0.7183,0 1.224727,0.21187 0.511595,0.21187 0.82682,0.63562 0.19637,0.25838 0.279052,0.64078 0.08268,0.37724 0.08268,1.13688 z"
           style="font-size:medium;line-height:1.25;font-family:monospace;-inkscape-font-specification:monospace;fill:#0000ff"
           id="path4592" />
        <path
           d="m 98.696943,181.48469 q 0,0.64078 0.232543,0.96634 0.237711,0.32556 0.69763,0.32556 h 1.111044 v 0.80615 h -1.204061 q -0.852659,0 -1.322913,-0.54776 -0.465086,-0.54777 -0.465086,-1.55029 v -5.25548 h -1.52445 v -0.74414 h 2.475293 z"
           style="font-size:medium;line-height:1.25;font-family:monospace;-inkscape-font-specification:monospace;fill:#0000ff"
           id="path4594" />
        <path
           d="m 107.51291,180.45116 v 0.46509 h -4.1186 v 0.031 q 0,0.94568 0.49093,1.46244 0.49609,0.51676 1.39526,0.51676 0.45475,0 0.95084,-0.14469 0.49609,-0.14469 1.05936,-0.43925 v 0.94568 q -0.5426,0.22221 -1.04902,0.33073 -0.50126,0.11368 -0.97152,0.11368 -1.34875,0 -2.10839,-0.80615 -0.75964,-0.81131 -0.75964,-2.23241 0,-1.38492 0.74414,-2.21174 0.74414,-0.82682 1.98437,-0.82682 1.10587,0 1.74149,0.7493 0.64078,0.74931 0.64078,2.04638 z m -0.95084,-0.27905 q -0.0207,-0.83716 -0.39791,-1.27124 -0.37207,-0.43924 -1.07487,-0.43924 -0.68729,0 -1.13171,0.45475 -0.44441,0.45475 -0.52709,1.2609 z"
           style="font-size:medium;line-height:1.25;font-family:monospace;-inkscape-font-specification:monospace;fill:#0000ff"
           id="path4596" />
        <path
           d="m 155.23594,179.70702 q 0,-0.28422 0.19637,-0.49092 0.20154,-0.20671 0.48059,-0.20671 0.28939,0 0.49609,0.20671 0.20671,0.2067 0.20671,0.49092 0,0.28939 -0.20671,0.49093 -0.20154,0.20154 -0.49609,0.20154 -0.28939,0 -0.48576,-0.19637 -0.1912,-0.19637 -0.1912,-0.4961 z m 0.68729,-3.15225 q -0.72863,0 -1.09037,0.78548 -0.35656,0.78548 -0.35656,2.39261 0,1.60197 0.35656,2.38745 0.36174,0.78547 1.09037,0.78547 0.73381,0 1.09037,-0.78547 0.36174,-0.78548 0.36174,-2.38745 0,-1.60713 -0.36174,-2.39261 -0.35656,-0.78548 -1.09037,-0.78548 z m 0,-0.82682 q 1.23507,0 1.86552,1.01286 0.63562,1.01285 0.63562,2.99205 0,1.97403 -0.63562,2.98689 -0.63045,1.01285 -1.86552,1.01285 -1.23506,0 -1.86551,-1.01285 -0.63045,-1.01286 -0.63045,-2.98689 0,-1.9792 0.63045,-2.99205 0.63045,-1.01286 1.86551,-1.01286 z"
           style="font-size:medium;line-height:1.25;font-family:monospace;-inkscape-font-specification:monospace"
           id="path4598" />
        <path
           d="m 161.60763,179.70702 q 0,-0.28422 0.19637,-0.49092 0.20154,-0.20671 0.48059,-0.20671 0.28938,0 0.49609,0.20671 0.2067,0.2067 0.2067,0.49092 0,0.28939 -0.2067,0.49093 -0.20154,0.20154 -0.49609,0.20154 -0.28939,0 -0.48576,-0.19637 -0.1912,-0.19637 -0.1912,-0.4961 z m 0.68729,-3.15225 q -0.72863,0 -1.09037,0.78548 -0.35656,0.78548 -0.35656,2.39261 0,1.60197 0.35656,2.38745 0.36174,0.78547 1.09037,0.78547 0.73381,0 1.09037,-0.78547 0.36174,-0.78548 0.36174,-2.38745 0,-1.60713 -0.36174,-2.39261 -0.35656,-0.78548 -1.09037,-0.78548 z m 0,-0.82682 q 1.23507,0 1.86552,1.01286 0.63561,1.01285 0.63561,2.99205 0,1.97403 -0.63561,2.98689 -0.63045,1.01285 -1.86552,1.01285 -1.23506,0 -1.86551,-1.01285 -0.63045,-1.01286 -0.63045,-2.98689 0,-1.9792 0.63045,-2.99205 0.63045,-1.01286 1.86551,-1.01286 z"
           style="font-size:medium;line-height:1.25;font-family:monospace;-inkscape-font-specification:monospace"
           id="path4600" />
        <path
           d="m 167.97932,179.70702 q 0,-0.28422 0.19637,-0.49092 0.20153,-0.20671 0.48059,-0.20671 0.28938,0 0.49609,0.20671 0.2067,0.2067 0.2067,0.49092 0,0.28939 -0.2067,0.49093 -0.20154,0.20154 -0.49609,0.20154 -0.28939,0 -0.48576,-0.19637 -0.1912,-0.19637 -0.1912,-0.4961 z m 0.68729,-3.15225 q -0.72863,0 -1.09037,0.78548 -0.35656,0.78548 -0.35656,2.39261 0,1.60197 0.35656,2.38745 0.36174,0.78547 1.09037,0.78547 0.7338,0 1.09037,-0.78547 0.36173,-0.78548 0.36173,-2.38745 0,-1.60713 -0.36173,-2.39261 -0.35657,-0.78548 -1.09037,-0.78548 z m 0,-0.82682 q 1.23506,0 1.86551,1.01286 0.63562,1.01285 0.63562,2.99205 0,1.97403 -0.63562,2.98689 -0.63045,1.01285 -1.86551,1.01285 -1.23506,0 -1.86551,-1.01285 -0.63045,-1.01286 -0.63045,-2.98689 0,-1.9792 0.63045,-2.99205 0.63045,-1.01286 1.86551,-1.01286 z"
           style="font-size:medium;line-height:1.25;font-family:monospace;-inkscape-font-specification:monospace"
           id="path4602" />
        <path
           d="m 174.35099,179.70702 q 0,-0.28422 0.19637,-0.49092 0.20154,-0.20671 0.48059,-0.20671 0.28939,0 0.49609,0.20671 0.20671,0.2067 0.20671,0.49092 0,0.28939 -0.20671,0.49093 -0.20154,0.20154 -0.49609,0.20154 -0.28939,0 -0.48576,-0.19637 -0.1912,-0.19637 -0.1912,-0.4961 z m 0.6873,-3.15225 q -0.72864,0 -1.09037,0.78548 -0.35657,0.78548 -0.35657,2.39261 0,1.60197 0.35657,2.38745 0.36173,0.78547 1.09037,0.78547 0.7338,0 1.09036,-0.78547 0.36174,-0.78548 0.36174,-2.38745 0,-1.60713 -0.36174,-2.39261 -0.35656,-0.78548 -1.09036,-0.78548 z m 0,-0.82682 q 1.23506,0 1.86551,1.01286 0.63562,1.01285 0.63562,2.99205 0,1.97403 -0.63562,2.98689 -0.63045,1.01285 -1.86551,1.01285 -1.23507,0 -1.86552,-1.01285 -0.63045,-1.01286 -0.63045,-2.98689 0,-1.9792 0.63045,-2.99205 0.63045,-1.01286 1.86552,-1.01286 z"
           style="font-size:medium;line-height:1.25;font-family:monospace;-inkscape-font-specification:monospace"
           id="path4604" />
        <path
           d="m 180.72268,179.70702 q 0,-0.28422 0.19637,-0.49092 0.20154,-0.20671 0.48059,-0.20671 0.28939,0 0.49609,0.20671 0.20671,0.2067 0.20671,0.49092 0,0.28939 -0.20671,0.49093 -0.20154,0.20154 -0.49609,0.20154 -0.28939,0 -0.48576,-0.19637 -0.1912,-0.19637 -0.1912,-0.4961 z m 0.68729,-3.15225 q -0.72863,0 -1.09037,0.78548 -0.35656,0.78548 -0.35656,2.39261 0,1.60197 0.35656,2.38745 0.36174,0.78547 1.09037,0.78547 0.73381,0 1.09037,-0.78547 0.36174,-0.78548 0.36174,-2.38745 0,-1.60713 -0.36174,-2.39261 -0.35656,-0.78548 -1.09037,-0.78548 z m 0,-0.82682 q 1.23507,0 1.86552,1.01286 0.63562,1.01285 0.63562,2.99205 0,1.97403 -0.63562,2.98689 -0.63045,1.01285 -1.86552,1.01285 -1.23506,0 -1.86551,-1.01285 -0.63045,-1.01286 -0.63045,-2.98689 0,-1.9792 0.63045,-2.99205 0.63045,-1.01286 1.86551,-1.01286 z"
           style="font-size:medium;line-height:1.25;font-family:monospace;-inkscape-font-specification:monospace"
           id="path4606" />
        <path
           d="m 187.09437,179.70702 q 0,-0.28422 0.19637,-0.49092 0.20154,-0.20671 0.48059,-0.20671 0.28938,0 0.49609,0.20671 0.2067,0.2067 0.2067,0.49092 0,0.28939 -0.2067,0.49093 -0.20154,0.20154 -0.49609,0.20154 -0.28939,0 -0.48576,-0.19637 -0.1912,-0.19637 -0.1912,-0.4961 z m 0.68729,-3.15225 q -0.72863,0 -1.09037,0.78548 -0.35656,0.78548 -0.35656,2.39261 0,1.60197 0.35656,2.38745 0.36174,0.78547 1.09037,0.78547 0.73381,0 1.09037,-0.78547 0.36174,-0.78548 0.36174,-2.38745 0,-1.60713 -0.36174,-2.39261 -0.35656,-0.78548 -1.09037,-0.78548 z m 0,-0.82682 q 1.23507,0 1.86552,1.01286 0.63561,1.01285 0.63561,2.99205 0,1.97403 -0.63561,2.98689 -0.63045,1.01285 -1.86552,1.01285 -1.23506,0 -1.86551,-1.01285 -0.63045,-1.01286 -0.63045,-2.98689 0,-1.9792 0.63045,-2.99205 0.63045,-1.01286 1.86551,-1.01286 z"
           style="font-size:medium;line-height:1.25;font-family:monospace;-inkscape-font-specification:monospace"
           id="path4608" />
        <path
           d="m 193.46604,179.70702 q 0,-0.28422 0.19637,-0.49092 0.20154,-0.20671 0.48059,-0.20671 0.28939,0 0.49609,0.20671 0.20671,0.2067 0.20671,0.49092 0,0.28939 -0.20671,0.49093 -0.20153,0.20154 -0.49609,0.20154 -0.28939,0 -0.48576,-0.19637 -0.1912,-0.19637 -0.1912,-0.4961 z m 0.6873,-3.15225 q -0.72864,0 -1.09037,0.78548 -0.35657,0.78548 -0.35657,2.39261 0,1.60197 0.35657,2.38745 0.36173,0.78547 1.09037,0.78547 0.7338,0 1.09037,-0.78547 0.36173,-0.78548 0.36173,-2.38745 0,-1.60713 -0.36173,-2.39261 -0.35657,-0.78548 -1.09037,-0.78548 z m 0,-0.82682 q 1.23506,0 1.86551,1.01286 0.63562,1.01285 0.63562,2.99205 0,1.97403 -0.63562,2.98689 -0.63045,1.01285 -1.86551,1.01285 -1.23507,0 -1.86552,-1.01285 -0.63045,-1.01286 -0.63045,-2.98689 0,-1.9792 0.63045,-2.99205 0.63045,-1.01286 1.86552,-1.01286 z"
           style="font-size:medium;line-height:1.25;font-family:monospace;-inkscape-font-specification:monospace"
           id="path4610" />
        <path
           d="m 199.83773,179.70702 q 0,-0.28422 0.19637,-0.49092 0.20154,-0.20671 0.48059,-0.20671 0.28939,0 0.49609,0.20671 0.20671,0.2067 0.20671,0.49092 0,0.28939 -0.20671,0.49093 -0.20154,0.20154 -0.49609,0.20154 -0.28939,0 -0.48576,-0.19637 -0.1912,-0.19637 -0.1912,-0.4961 z m 0.6873,-3.15225 q -0.72864,0 -1.09037,0.78548 -0.35657,0.78548 -0.35657,2.39261 0,1.60197 0.35657,2.38745 0.36173,0.78547 1.09037,0.78547 0.7338,0 1.09036,-0.78547 0.36174,-0.78548 0.36174,-2.38745 0,-1.60713 -0.36174,-2.39261 -0.35656,-0.78548 -1.09036,-0.78548 z m 0,-0.82682 q 1.23506,0 1.86551,1.01286 0.63562,1.01285 0.63562,2.99205 0,1.97403 -0.63562,2.98689 -0.63045,1.01285 -1.86551,1.01285 -1.23507,0 -1.86552,-1.01285 -0.63045,-1.01286 -0.63045,-2.98689 0,-1.9792 0.63045,-2.99205 0.63045,-1.01286 1.86552,-1.01286 z"
           style="font-size:medium;line-height:1.25;font-family:monospace;-inkscape-font-specification:monospace"
           id="path4612" />
        <path
           d="m 205.10872,182.70425 h 1.62263 v -5.89627 l -1.74666,0.39274 v -0.95084 l 1.73632,-0.3824 h 1.04387 v 6.83677 h 1.60196 v 0.87849 h -4.25812 z"
           style="font-size:medium;line-height:1.25;font-family:monospace;-inkscape-font-specification:monospace;fill:#ff0000"
           id="path4614" />
        <path
           d="m 212.58109,179.70702 q 0,-0.28422 0.19637,-0.49092 0.20154,-0.20671 0.48059,-0.20671 0.28939,0 0.49609,0.20671 0.20671,0.2067 0.20671,0.49092 0,0.28939 -0.20671,0.49093 -0.20153,0.20154 -0.49609,0.20154 -0.28938,0 -0.48575,-0.19637 -0.19121,-0.19637 -0.19121,-0.4961 z m 0.6873,-3.15225 q -0.72864,0 -1.09037,0.78548 -0.35657,0.78548 -0.35657,2.39261 0,1.60197 0.35657,2.38745 0.36173,0.78547 1.09037,0.78547 0.7338,0 1.09037,-0.78547 0.36173,-0.78548 0.36173,-2.38745 0,-1.60713 -0.36173,-2.39261 -0.35657,-0.78548 -1.09037,-0.78548 z m 0,-0.82682 q 1.23506,0 1.86551,1.01286 0.63562,1.01285 0.63562,2.99205 0,1.97403 -0.63562,2.98689 -0.63045,1.01285 -1.86551,1.01285 -1.23506,0 -1.86552,-1.01285 -0.63045,-1.01286 -0.63045,-2.98689 0,-1.9792 0.63045,-2.99205 0.63046,-1.01286 1.86552,-1.01286 z"
           style="font-size:medium;line-height:1.25;font-family:monospace;-inkscape-font-specification:monospace"
           id="path4616" />
        <path
           d="m 218.95278,179.70702 q 0,-0.28422 0.19637,-0.49092 0.20154,-0.20671 0.48059,-0.20671 0.28939,0 0.49609,0.20671 0.20671,0.2067 0.20671,0.49092 0,0.28939 -0.20671,0.49093 -0.20153,0.20154 -0.49609,0.20154 -0.28939,0 -0.48576,-0.19637 -0.1912,-0.19637 -0.1912,-0.4961 z m 0.6873,-3.15225 q -0.72864,0 -1.09037,0.78548 -0.35657,0.78548 -0.35657,2.39261 0,1.60197 0.35657,2.38745 0.36173,0.78547 1.09037,0.78547 0.7338,0 1.09037,-0.78547 0.36173,-0.78548 0.36173,-2.38745 0,-1.60713 -0.36173,-2.39261 -0.35657,-0.78548 -1.09037,-0.78548 z m 0,-0.82682 q 1.23506,0 1.86551,1.01286 0.63562,1.01285 0.63562,2.99205 0,1.97403 -0.63562,2.98689 -0.63045,1.01285 -1.86551,1.01285 -1.23507,0 -1.86552,-1.01285 -0.63045,-1.01286 -0.63045,-2.98689 0,-1.9792 0.63045,-2.99205 0.63045,-1.01286 1.86552,-1.01286 z"
           style="font-size:medium;line-height:1.25;font-family:monospace;-inkscape-font-specification:monospace"
           id="path4618" />
        <path
           d="m 225.32447,179.70702 q 0,-0.28422 0.19637,-0.49092 0.20154,-0.20671 0.48059,-0.20671 0.28939,0 0.49609,0.20671 0.20671,0.2067 0.20671,0.49092 0,0.28939 -0.20671,0.49093 -0.20154,0.20154 -0.49609,0.20154 -0.28939,0 -0.48576,-0.19637 -0.1912,-0.19637 -0.1912,-0.4961 z m 0.6873,-3.15225 q -0.72864,0 -1.09037,0.78548 -0.35657,0.78548 -0.35657,2.39261 0,1.60197 0.35657,2.38745 0.36173,0.78547 1.09037,0.78547 0.7338,0 1.09036,-0.78547 0.36174,-0.78548 0.36174,-2.38745 0,-1.60713 -0.36174,-2.39261 -0.35656,-0.78548 -1.09036,-0.78548 z m 0,-0.82682 q 1.23506,0 1.86551,1.01286 0.63562,1.01285 0.63562,2.99205 0,1.97403 -0.63562,2.98689 -0.63045,1.01285 -1.86551,1.01285 -1.23507,0 -1.86552,-1.01285 -0.63045,-1.01286 -0.63045,-2.98689 0,-1.9792 0.63045,-2.99205 0.63045,-1.01286 1.86552,-1.01286 z"
           style="font-size:medium;line-height:1.25;font-family:monospace;-inkscape-font-specification:monospace"
           id="path4620" />
        <path
           d="m 231.69614,179.70702 q 0,-0.28422 0.19637,-0.49092 0.20154,-0.20671 0.48059,-0.20671 0.28939,0 0.4961,0.20671 0.2067,0.2067 0.2067,0.49092 0,0.28939 -0.2067,0.49093 -0.20154,0.20154 -0.4961,0.20154 -0.28938,0 -0.48575,-0.19637 -0.19121,-0.19637 -0.19121,-0.4961 z m 0.6873,-3.15225 q -0.72864,0 -1.09037,0.78548 -0.35657,0.78548 -0.35657,2.39261 0,1.60197 0.35657,2.38745 0.36173,0.78547 1.09037,0.78547 0.7338,0 1.09037,-0.78547 0.36173,-0.78548 0.36173,-2.38745 0,-1.60713 -0.36173,-2.39261 -0.35657,-0.78548 -1.09037,-0.78548 z m 0,-0.82682 q 1.23506,0 1.86551,1.01286 0.63562,1.01285 0.63562,2.99205 0,1.97403 -0.63562,2.98689 -0.63045,1.01285 -1.86551,1.01285 -1.23506,0 -1.86551,-1.01285 -0.63045,-1.01286 -0.63045,-2.98689 0,-1.9792 0.63045,-2.99205 0.63045,-1.01286 1.86551,-1.01286 z"
           style="font-size:medium;line-height:1.25;font-family:monospace;-inkscape-font-specification:monospace"
           id="path4622" />
        <path
           d="m 238.06783,179.70702 q 0,-0.28422 0.19637,-0.49092 0.20154,-0.20671 0.48059,-0.20671 0.28939,0 0.49609,0.20671 0.20671,0.2067 0.20671,0.49092 0,0.28939 -0.20671,0.49093 -0.20153,0.20154 -0.49609,0.20154 -0.28938,0 -0.48575,-0.19637 -0.19121,-0.19637 -0.19121,-0.4961 z m 0.6873,-3.15225 q -0.72864,0 -1.09037,0.78548 -0.35657,0.78548 -0.35657,2.39261 0,1.60197 0.35657,2.38745 0.36173,0.78547 1.09037,0.78547 0.7338,0 1.09037,-0.78547 0.36173,-0.78548 0.36173,-2.38745 0,-1.60713 -0.36173,-2.39261 -0.35657,-0.78548 -1.09037,-0.78548 z m 0,-0.82682 q 1.23506,0 1.86551,1.01286 0.63562,1.01285 0.63562,2.99205 0,1.97403 -0.63562,2.98689 -0.63045,1.01285 -1.86551,1.01285 -1.23506,0 -1.86552,-1.01285 -0.63045,-1.01286 -0.63045,-2.98689 0,-1.9792 0.63045,-2.99205 0.63046,-1.01286 1.86552,-1.01286 z"
           style="font-size:medium;line-height:1.25;font-family:monospace;-inkscape-font-specification:monospace"
           id="path4624" />
        <path
           d="m 243.33882,182.70425 h 1.62263 v -5.89627 l -1.74666,0.39274 v -0.95084 l 1.73633,-0.3824 h 1.04386 v 6.83677 h 1.60196 v 0.87849 h -4.25812 z"
           style="font-size:medium;line-height:1.25;font-family:monospace;-inkscape-font-specification:monospace;fill:#ff0000"
           id="path4626" />
        <path
           d="m 250.8112,179.70702 q 0,-0.28422 0.19637,-0.49092 0.20153,-0.20671 0.48059,-0.20671 0.28938,0 0.49609,0.20671 0.2067,0.2067 0.2067,0.49092 0,0.28939 -0.2067,0.49093 -0.20154,0.20154 -0.49609,0.20154 -0.28939,0 -0.48576,-0.19637 -0.1912,-0.19637 -0.1912,-0.4961 z m 0.68729,-3.15225 q -0.72864,0 -1.09037,0.78548 -0.35657,0.78548 -0.35657,2.39261 0,1.60197 0.35657,2.38745 0.36173,0.78547 1.09037,0.78547 0.7338,0 1.09037,-0.78547 0.36173,-0.78548 0.36173,-2.38745 0,-1.60713 -0.36173,-2.39261 -0.35657,-0.78548 -1.09037,-0.78548 z m 0,-0.82682 q 1.23506,0 1.86551,1.01286 0.63562,1.01285 0.63562,2.99205 0,1.97403 -0.63562,2.98689 -0.63045,1.01285 -1.86551,1.01285 -1.23506,0 -1.86551,-1.01285 -0.63045,-1.01286 -0.63045,-2.98689 0,-1.9792 0.63045,-2.99205 0.63045,-1.01286 1.86551,-1.01286 z"
           style="font-size:medium;line-height:1.25;font-family:monospace;-inkscape-font-specification:monospace"
           id="path4628" />
        <path
           d="m 257.18288,179.70702 q 0,-0.28422 0.19637,-0.49092 0.20154,-0.20671 0.48059,-0.20671 0.28939,0 0.4961,0.20671 0.2067,0.2067 0.2067,0.49092 0,0.28939 -0.2067,0.49093 -0.20154,0.20154 -0.4961,0.20154 -0.28938,0 -0.48575,-0.19637 -0.19121,-0.19637 -0.19121,-0.4961 z m 0.6873,-3.15225 q -0.72864,0 -1.09037,0.78548 -0.35657,0.78548 -0.35657,2.39261 0,1.60197 0.35657,2.38745 0.36173,0.78547 1.09037,0.78547 0.7338,0 1.09037,-0.78547 0.36173,-0.78548 0.36173,-2.38745 0,-1.60713 -0.36173,-2.39261 -0.35657,-0.78548 -1.09037,-0.78548 z m 0,-0.82682 q 1.23506,0 1.86551,1.01286 0.63562,1.01285 0.63562,2.99205 0,1.97403 -0.63562,2.98689 -0.63045,1.01285 -1.86551,1.01285 -1.23506,0 -1.86551,-1.01285 -0.63045,-1.01286 -0.63045,-2.98689 0,-1.9792 0.63045,-2.99205 0.63045,-1.01286 1.86551,-1.01286 z"
           style="font-size:medium;line-height:1.25;font-family:monospace;-inkscape-font-specification:monospace"
           id="path4630" />
        <path
           d="m 263.55457,179.70702 q 0,-0.28422 0.19637,-0.49092 0.20154,-0.20671 0.48059,-0.20671 0.28939,0 0.49609,0.20671 0.20671,0.2067 0.20671,0.49092 0,0.28939 -0.20671,0.49093 -0.20153,0.20154 -0.49609,0.20154 -0.28938,0 -0.48575,-0.19637 -0.19121,-0.19637 -0.19121,-0.4961 z m 0.6873,-3.15225 q -0.72864,0 -1.09037,0.78548 -0.35657,0.78548 -0.35657,2.39261 0,1.60197 0.35657,2.38745 0.36173,0.78547 1.09037,0.78547 0.7338,0 1.09037,-0.78547 0.36173,-0.78548 0.36173,-2.38745 0,-1.60713 -0.36173,-2.39261 -0.35657,-0.78548 -1.09037,-0.78548 z m 0,-0.82682 q 1.23506,0 1.86551,1.01286 0.63562,1.01285 0.63562,2.99205 0,1.97403 -0.63562,2.98689 -0.63045,1.01285 -1.86551,1.01285 -1.23506,0 -1.86552,-1.01285 -0.63045,-1.01286 -0.63045,-2.98689 0,-1.9792 0.63045,-2.99205 0.63046,-1.01286 1.86552,-1.01286 z"
           style="font-size:medium;line-height:1.25;font-family:monospace;-inkscape-font-specification:monospace"
           id="path4632" />
        <path
           d="m 269.92625,179.70702 q 0,-0.28422 0.19637,-0.49092 0.20153,-0.20671 0.48059,-0.20671 0.28938,0 0.49609,0.20671 0.2067,0.2067 0.2067,0.49092 0,0.28939 -0.2067,0.49093 -0.20154,0.20154 -0.49609,0.20154 -0.28939,0 -0.48576,-0.19637 -0.1912,-0.19637 -0.1912,-0.4961 z m 0.68729,-3.15225 q -0.72863,0 -1.09037,0.78548 -0.35656,0.78548 -0.35656,2.39261 0,1.60197 0.35656,2.38745 0.36174,0.78547 1.09037,0.78547 0.7338,0 1.09037,-0.78547 0.36173,-0.78548 0.36173,-2.38745 0,-1.60713 -0.36173,-2.39261 -0.35657,-0.78548 -1.09037,-0.78548 z m 0,-0.82682 q 1.23506,0 1.86551,1.01286 0.63562,1.01285 0.63562,2.99205 0,1.97403 -0.63562,2.98689 -0.63045,1.01285 -1.86551,1.01285 -1.23506,0 -1.86551,-1.01285 -0.63045,-1.01286 -0.63045,-2.98689 0,-1.9792 0.63045,-2.99205 0.63045,-1.01286 1.86551,-1.01286 z"
           style="font-size:medium;line-height:1.25;font-family:monospace;-inkscape-font-specification:monospace"
           id="path4634" />
        <path
           d="m 276.29792,179.70702 q 0,-0.28422 0.19637,-0.49092 0.20154,-0.20671 0.48059,-0.20671 0.28939,0 0.49609,0.20671 0.20671,0.2067 0.20671,0.49092 0,0.28939 -0.20671,0.49093 -0.20154,0.20154 -0.49609,0.20154 -0.28939,0 -0.48576,-0.19637 -0.1912,-0.19637 -0.1912,-0.4961 z m 0.6873,-3.15225 q -0.72864,0 -1.09037,0.78548 -0.35657,0.78548 -0.35657,2.39261 0,1.60197 0.35657,2.38745 0.36173,0.78547 1.09037,0.78547 0.7338,0 1.09036,-0.78547 0.36174,-0.78548 0.36174,-2.38745 0,-1.60713 -0.36174,-2.39261 -0.35656,-0.78548 -1.09036,-0.78548 z m 0,-0.82682 q 1.23506,0 1.86551,1.01286 0.63562,1.01285 0.63562,2.99205 0,1.97403 -0.63562,2.98689 -0.63045,1.01285 -1.86551,1.01285 -1.23507,0 -1.86552,-1.01285 -0.63045,-1.01286 -0.63045,-2.98689 0,-1.9792 0.63045,-2.99205 0.63045,-1.01286 1.86552,-1.01286 z"
           style="font-size:medium;line-height:1.25;font-family:monospace;-inkscape-font-specification:monospace"
           id="path4636" />
        <path
           d="m 282.66962,179.70702 q 0,-0.28422 0.19637,-0.49092 0.20154,-0.20671 0.48059,-0.20671 0.28939,0 0.4961,0.20671 0.2067,0.2067 0.2067,0.49092 0,0.28939 -0.2067,0.49093 -0.20154,0.20154 -0.4961,0.20154 -0.28938,0 -0.48575,-0.19637 -0.19121,-0.19637 -0.19121,-0.4961 z m 0.6873,-3.15225 q -0.72864,0 -1.09037,0.78548 -0.35657,0.78548 -0.35657,2.39261 0,1.60197 0.35657,2.38745 0.36173,0.78547 1.09037,0.78547 0.7338,0 1.09037,-0.78547 0.36173,-0.78548 0.36173,-2.38745 0,-1.60713 -0.36173,-2.39261 -0.35657,-0.78548 -1.09037,-0.78548 z m 0,-0.82682 q 1.23506,0 1.86551,1.01286 0.63562,1.01285 0.63562,2.99205 0,1.97403 -0.63562,2.98689 -0.63045,1.01285 -1.86551,1.01285 -1.23506,0 -1.86551,-1.01285 -0.63045,-1.01286 -0.63045,-2.98689 0,-1.9792 0.63045,-2.99205 0.63045,-1.01286 1.86551,-1.01286 z"
           style="font-size:medium;line-height:1.25;font-family:monospace;-inkscape-font-specification:monospace"
           id="path4638" />
      </g>
      <path
         style="font-variation-settings:normal;fill:none;fill-opacity:1;stroke:#000000;stroke-width:0.529166;stroke-linecap:butt;stroke-linejoin:miter;stroke-miterlimit:4;stroke-dasharray:none;stroke-dashoffset:0;stroke-opacity:1;stop-color:#000000"
         d="M 139.77348,173.15235 H 285.85805"
         id="path1597358" />
    </g>
  </g>
</svg>
