<?xml version="1.0" encoding="UTF-8" standalone="no"?>
<!-- Created with Inkscape (http://www.inkscape.org/) -->

<svg
   width="272.73184mm"
   height="34.811615mm"
   viewBox="0 0 272.73184 34.811615"
   version="1.1"
   id="svg4866"
   inkscape:version="1.2-dev (9a006c9b6a, 2021-07-31)"
   sodipodi:docname="3_disjunction.svg"
   xmlns:inkscape="http://www.inkscape.org/namespaces/inkscape"
   xmlns:sodipodi="http://sodipodi.sourceforge.net/DTD/sodipodi-0.dtd"
   xmlns="http://www.w3.org/2000/svg"
   xmlns:svg="http://www.w3.org/2000/svg">
  <sodipodi:namedview
     id="namedview4868"
     pagecolor="#505050"
     bordercolor="#ffffff"
     borderopacity="1"
     inkscape:pageshadow="0"
     inkscape:pageopacity="0"
     inkscape:pagecheckerboard="1"
     inkscape:document-units="mm"
     showgrid="false"
     fit-margin-top="0"
     fit-margin-left="0"
     fit-margin-right="0"
     fit-margin-bottom="0"
     inkscape:zoom="0.77058782"
     inkscape:cx="633.28278"
     inkscape:cy="227.09936"
     inkscape:window-width="1920"
     inkscape:window-height="1011"
     inkscape:window-x="1920"
     inkscape:window-y="32"
     inkscape:window-maximized="1"
     inkscape:current-layer="layer1" />
  <defs
     id="defs4863" />
  <g
     inkscape:label="Layer 1"
     inkscape:groupmode="layer"
     id="layer1"
     transform="translate(62.545109,-88.690149)">
    <g
       id="g1597537"
       transform="translate(-75.671324,-124.53411)">
      <g
         aria-label="female                001001001001001101110
male                | 000110011000001000000
female OR male        001111011001001101110"
         id="text898129"
         style="font-size:10.5833px;line-height:0;stroke-width:0.264583">
        <path
           d="m 18.056131,213.2811 v 0.79065 h -1.080034 q -0.511595,0 -0.713133,0.21187 -0.19637,0.20671 -0.19637,0.73897 v 0.5116 h 1.989537 v 0.73897 h -1.989537 v 5.04877 h -0.950843 v -5.04877 h -1.54512 v -0.73897 h 1.54512 v -0.40308 q 0,-0.95084 0.434081,-1.40042 0.439248,-0.44959 1.364253,-0.44959 z"
           style="font-size:medium;line-height:1.25;font-family:monospace;-inkscape-font-specification:monospace;fill:#ff0000"
           id="path5036" />
        <path
           d="m 24.681028,218.19035 v 0.46508 h -4.118599 v 0.031 q 0,0.94568 0.490925,1.46244 0.496092,0.51676 1.395259,0.51676 0.454751,0 0.950844,-0.14469 0.496092,-0.1447 1.059363,-0.43925 v 0.94568 q -0.542601,0.2222 -1.049028,0.33072 -0.50126,0.11369 -0.971514,0.11369 -1.348751,0 -2.108392,-0.80615 -0.759641,-0.81132 -0.759641,-2.23241 0,-1.38493 0.744138,-2.21175 0.744139,-0.82682 1.984369,-0.82682 1.105872,0 1.74149,0.74931 0.640786,0.7493 0.640786,2.04638 z m -0.950843,-0.27905 q -0.02067,-0.83716 -0.397908,-1.27124 -0.372069,-0.43925 -1.074866,-0.43925 -0.687294,0 -1.13171,0.45475 -0.444416,0.45475 -0.527098,1.2609 z"
           style="font-size:medium;line-height:1.25;font-family:monospace;-inkscape-font-specification:monospace;fill:#ff0000"
           id="path5038" />
        <path
           d="m 28.799626,216.1233 q 0.1757,-0.37207 0.444416,-0.54777 0.273884,-0.18087 0.656289,-0.18087 0.697629,0 0.981849,0.5426 0.289387,0.53744 0.289387,2.03088 v 3.35379 h -0.868161 v -3.31245 q 0,-1.22473 -0.139526,-1.51928 -0.134358,-0.29972 -0.496092,-0.29972 -0.41341,0 -0.568439,0.32039 -0.149861,0.31522 -0.149861,1.49861 v 3.31245 h -0.868162 v -3.31245 q 0,-1.24023 -0.149861,-1.52962 -0.144693,-0.28938 -0.527098,-0.28938 -0.377237,0 -0.527098,0.32039 -0.144693,0.31522 -0.144693,1.49861 v 3.31245 h -0.862994 v -5.78774 h 0.862994 v 0.49609 q 0.170531,-0.31006 0.423745,-0.47025 0.258381,-0.16537 0.583942,-0.16537 0.39274,0 0.651121,0.18087 0.263549,0.18087 0.408242,0.54777 z"
           style="font-size:medium;line-height:1.25;font-family:monospace;-inkscape-font-specification:monospace;fill:#ff0000"
           id="path5040" />
        <path
           d="m 35.305669,218.41256 h -0.315226 q -0.831987,0 -1.255733,0.29455 -0.418578,0.28939 -0.418578,0.86816 0,0.52193 0.315226,0.81132 0.315225,0.28939 0.873329,0.28939 0.785479,0 1.235062,-0.5426 0.449584,-0.54777 0.454752,-1.50895 v -0.21187 z m 1.844842,-0.39274 v 3.30211 h -0.95601 v -0.85783 q -0.30489,0.51677 -0.769977,0.76481 -0.459919,0.24288 -1.121375,0.24288 -0.883664,0 -1.410762,-0.49609 -0.527098,-0.50126 -0.527098,-1.33842 0,-0.96634 0.645953,-1.4676 0.651121,-0.50126 1.906855,-0.50126 h 1.276404 v -0.14986 q -0.0052,-0.69247 -0.351399,-1.00252 -0.346231,-0.31523 -1.105872,-0.31523 -0.485757,0 -0.981849,0.13953 -0.496092,0.13952 -0.966347,0.40824 v -0.95084 q 0.527098,-0.20154 1.007688,-0.29973 0.485757,-0.10335 0.940508,-0.10335 0.7183,0 1.224727,0.21187 0.511595,0.21188 0.826821,0.63562 0.196369,0.25838 0.279051,0.64079 0.08268,0.37724 0.08268,1.13688 z"
           style="font-size:medium;line-height:1.25;font-family:monospace;-inkscape-font-specification:monospace;fill:#ff0000"
           id="path5042" />
        <path
           d="m 41.351791,219.22387 q 0,0.64079 0.232544,0.96635 0.23771,0.32556 0.697629,0.32556 h 1.11104 v 0.80615 h -1.204057 q -0.852659,0 -1.322913,-0.54777 -0.465086,-0.54777 -0.465086,-1.55029 v -5.25547 h -1.52445 v -0.74414 h 2.475293 z"
           style="font-size:medium;line-height:1.25;font-family:monospace;-inkscape-font-specification:monospace;fill:#ff0000"
           id="path5044" />
        <path
           d="m 50.167762,218.19035 v 0.46508 h -4.118599 v 0.031 q 0,0.94568 0.490925,1.46244 0.496092,0.51676 1.395259,0.51676 0.454751,0 0.950844,-0.14469 0.496092,-0.1447 1.059363,-0.43925 v 0.94568 q -0.542601,0.2222 -1.049028,0.33072 -0.50126,0.11369 -0.971514,0.11369 -1.348751,0 -2.108392,-0.80615 -0.759641,-0.81132 -0.759641,-2.23241 0,-1.38493 0.744138,-2.21175 0.744139,-0.82682 1.984369,-0.82682 1.105872,0 1.74149,0.74931 0.640786,0.7493 0.640786,2.04638 z m -0.950843,-0.27905 q -0.02067,-0.83716 -0.397908,-1.27124 -0.372069,-0.43925 -1.074866,-0.43925 -0.687294,0 -1.13171,0.45475 -0.444416,0.45475 -0.527098,1.2609 z"
           style="font-size:medium;line-height:1.25;font-family:monospace;-inkscape-font-specification:monospace;fill:#ff0000"
           id="path5046" />
        <path
           d="m 155.23594,217.44621 q 0,-0.28422 0.19637,-0.49092 0.20154,-0.20671 0.48059,-0.20671 0.28939,0 0.49609,0.20671 0.20671,0.2067 0.20671,0.49092 0,0.28939 -0.20671,0.49092 -0.20154,0.20154 -0.49609,0.20154 -0.28939,0 -0.48576,-0.19637 -0.1912,-0.19637 -0.1912,-0.49609 z m 0.68729,-3.15225 q -0.72863,0 -1.09037,0.78548 -0.35656,0.78548 -0.35656,2.39261 0,1.60196 0.35656,2.38744 0.36174,0.78548 1.09037,0.78548 0.73381,0 1.09037,-0.78548 0.36174,-0.78548 0.36174,-2.38744 0,-1.60713 -0.36174,-2.39261 -0.35656,-0.78548 -1.09037,-0.78548 z m 0,-0.82682 q 1.23507,0 1.86552,1.01285 0.63562,1.01286 0.63562,2.99206 0,1.97403 -0.63562,2.98689 -0.63045,1.01285 -1.86552,1.01285 -1.23506,0 -1.86551,-1.01285 -0.63045,-1.01286 -0.63045,-2.98689 0,-1.9792 0.63045,-2.99206 0.63045,-1.01285 1.86551,-1.01285 z"
           style="font-size:medium;line-height:1.25;font-family:monospace;-inkscape-font-specification:monospace"
           id="path5048" />
        <path
           d="m 161.60763,217.44621 q 0,-0.28422 0.19637,-0.49092 0.20154,-0.20671 0.48059,-0.20671 0.28938,0 0.49609,0.20671 0.2067,0.2067 0.2067,0.49092 0,0.28939 -0.2067,0.49092 -0.20154,0.20154 -0.49609,0.20154 -0.28939,0 -0.48576,-0.19637 -0.1912,-0.19637 -0.1912,-0.49609 z m 0.68729,-3.15225 q -0.72863,0 -1.09037,0.78548 -0.35656,0.78548 -0.35656,2.39261 0,1.60196 0.35656,2.38744 0.36174,0.78548 1.09037,0.78548 0.73381,0 1.09037,-0.78548 0.36174,-0.78548 0.36174,-2.38744 0,-1.60713 -0.36174,-2.39261 -0.35656,-0.78548 -1.09037,-0.78548 z m 0,-0.82682 q 1.23507,0 1.86552,1.01285 0.63561,1.01286 0.63561,2.99206 0,1.97403 -0.63561,2.98689 -0.63045,1.01285 -1.86552,1.01285 -1.23506,0 -1.86551,-1.01285 -0.63045,-1.01286 -0.63045,-2.98689 0,-1.9792 0.63045,-2.99206 0.63045,-1.01285 1.86551,-1.01285 z"
           style="font-size:medium;line-height:1.25;font-family:monospace;-inkscape-font-specification:monospace"
           id="path5050" />
        <path
           d="m 166.87861,220.44343 h 1.62264 v -5.89626 l -1.74666,0.39274 v -0.95084 l 1.73632,-0.38241 h 1.04386 v 6.83677 h 1.60197 v 0.8785 h -4.25813 z"
           style="font-size:medium;line-height:1.25;font-family:monospace;-inkscape-font-specification:monospace;fill:#ff0000"
           id="path5052" />
        <path
           d="m 174.35099,217.44621 q 0,-0.28422 0.19637,-0.49092 0.20154,-0.20671 0.48059,-0.20671 0.28939,0 0.49609,0.20671 0.20671,0.2067 0.20671,0.49092 0,0.28939 -0.20671,0.49092 -0.20154,0.20154 -0.49609,0.20154 -0.28939,0 -0.48576,-0.19637 -0.1912,-0.19637 -0.1912,-0.49609 z m 0.6873,-3.15225 q -0.72864,0 -1.09037,0.78548 -0.35657,0.78548 -0.35657,2.39261 0,1.60196 0.35657,2.38744 0.36173,0.78548 1.09037,0.78548 0.7338,0 1.09036,-0.78548 0.36174,-0.78548 0.36174,-2.38744 0,-1.60713 -0.36174,-2.39261 -0.35656,-0.78548 -1.09036,-0.78548 z m 0,-0.82682 q 1.23506,0 1.86551,1.01285 0.63562,1.01286 0.63562,2.99206 0,1.97403 -0.63562,2.98689 -0.63045,1.01285 -1.86551,1.01285 -1.23507,0 -1.86552,-1.01285 -0.63045,-1.01286 -0.63045,-2.98689 0,-1.9792 0.63045,-2.99206 0.63045,-1.01285 1.86552,-1.01285 z"
           style="font-size:medium;line-height:1.25;font-family:monospace;-inkscape-font-specification:monospace"
           id="path5054" />
        <path
           d="m 180.72268,217.44621 q 0,-0.28422 0.19637,-0.49092 0.20154,-0.20671 0.48059,-0.20671 0.28939,0 0.49609,0.20671 0.20671,0.2067 0.20671,0.49092 0,0.28939 -0.20671,0.49092 -0.20154,0.20154 -0.49609,0.20154 -0.28939,0 -0.48576,-0.19637 -0.1912,-0.19637 -0.1912,-0.49609 z m 0.68729,-3.15225 q -0.72863,0 -1.09037,0.78548 -0.35656,0.78548 -0.35656,2.39261 0,1.60196 0.35656,2.38744 0.36174,0.78548 1.09037,0.78548 0.73381,0 1.09037,-0.78548 0.36174,-0.78548 0.36174,-2.38744 0,-1.60713 -0.36174,-2.39261 -0.35656,-0.78548 -1.09037,-0.78548 z m 0,-0.82682 q 1.23507,0 1.86552,1.01285 0.63562,1.01286 0.63562,2.99206 0,1.97403 -0.63562,2.98689 -0.63045,1.01285 -1.86552,1.01285 -1.23506,0 -1.86551,-1.01285 -0.63045,-1.01286 -0.63045,-2.98689 0,-1.9792 0.63045,-2.99206 0.63045,-1.01285 1.86551,-1.01285 z"
           style="font-size:medium;line-height:1.25;font-family:monospace;-inkscape-font-specification:monospace"
           id="path5056" />
        <path
           d="m 185.99366,220.44343 h 1.62264 v -5.89626 l -1.74666,0.39274 v -0.95084 l 1.73632,-0.38241 h 1.04386 v 6.83677 h 1.60197 v 0.8785 h -4.25813 z"
           style="font-size:medium;line-height:1.25;font-family:monospace;-inkscape-font-specification:monospace;fill:#ff0000"
           id="path5058" />
        <path
           d="m 193.46604,217.44621 q 0,-0.28422 0.19637,-0.49092 0.20154,-0.20671 0.48059,-0.20671 0.28939,0 0.49609,0.20671 0.20671,0.2067 0.20671,0.49092 0,0.28939 -0.20671,0.49092 -0.20153,0.20154 -0.49609,0.20154 -0.28939,0 -0.48576,-0.19637 -0.1912,-0.19637 -0.1912,-0.49609 z m 0.6873,-3.15225 q -0.72864,0 -1.09037,0.78548 -0.35657,0.78548 -0.35657,2.39261 0,1.60196 0.35657,2.38744 0.36173,0.78548 1.09037,0.78548 0.7338,0 1.09037,-0.78548 0.36173,-0.78548 0.36173,-2.38744 0,-1.60713 -0.36173,-2.39261 -0.35657,-0.78548 -1.09037,-0.78548 z m 0,-0.82682 q 1.23506,0 1.86551,1.01285 0.63562,1.01286 0.63562,2.99206 0,1.97403 -0.63562,2.98689 -0.63045,1.01285 -1.86551,1.01285 -1.23507,0 -1.86552,-1.01285 -0.63045,-1.01286 -0.63045,-2.98689 0,-1.9792 0.63045,-2.99206 0.63045,-1.01285 1.86552,-1.01285 z"
           style="font-size:medium;line-height:1.25;font-family:monospace;-inkscape-font-specification:monospace"
           id="path5060" />
        <path
           d="m 199.83773,217.44621 q 0,-0.28422 0.19637,-0.49092 0.20154,-0.20671 0.48059,-0.20671 0.28939,0 0.49609,0.20671 0.20671,0.2067 0.20671,0.49092 0,0.28939 -0.20671,0.49092 -0.20154,0.20154 -0.49609,0.20154 -0.28939,0 -0.48576,-0.19637 -0.1912,-0.19637 -0.1912,-0.49609 z m 0.6873,-3.15225 q -0.72864,0 -1.09037,0.78548 -0.35657,0.78548 -0.35657,2.39261 0,1.60196 0.35657,2.38744 0.36173,0.78548 1.09037,0.78548 0.7338,0 1.09036,-0.78548 0.36174,-0.78548 0.36174,-2.38744 0,-1.60713 -0.36174,-2.39261 -0.35656,-0.78548 -1.09036,-0.78548 z m 0,-0.82682 q 1.23506,0 1.86551,1.01285 0.63562,1.01286 0.63562,2.99206 0,1.97403 -0.63562,2.98689 -0.63045,1.01285 -1.86551,1.01285 -1.23507,0 -1.86552,-1.01285 -0.63045,-1.01286 -0.63045,-2.98689 0,-1.9792 0.63045,-2.99206 0.63045,-1.01285 1.86552,-1.01285 z"
           style="font-size:medium;line-height:1.25;font-family:monospace;-inkscape-font-specification:monospace"
           id="path5062" />
        <path
           d="m 205.10872,220.44343 h 1.62263 v -5.89626 l -1.74666,0.39274 v -0.95084 l 1.73632,-0.38241 h 1.04387 v 6.83677 h 1.60196 v 0.8785 h -4.25812 z"
           style="font-size:medium;line-height:1.25;font-family:monospace;-inkscape-font-specification:monospace;fill:#ff0000"
           id="path5064" />
        <path
           d="m 212.58109,217.44621 q 0,-0.28422 0.19637,-0.49092 0.20154,-0.20671 0.48059,-0.20671 0.28939,0 0.49609,0.20671 0.20671,0.2067 0.20671,0.49092 0,0.28939 -0.20671,0.49092 -0.20153,0.20154 -0.49609,0.20154 -0.28938,0 -0.48575,-0.19637 -0.19121,-0.19637 -0.19121,-0.49609 z m 0.6873,-3.15225 q -0.72864,0 -1.09037,0.78548 -0.35657,0.78548 -0.35657,2.39261 0,1.60196 0.35657,2.38744 0.36173,0.78548 1.09037,0.78548 0.7338,0 1.09037,-0.78548 0.36173,-0.78548 0.36173,-2.38744 0,-1.60713 -0.36173,-2.39261 -0.35657,-0.78548 -1.09037,-0.78548 z m 0,-0.82682 q 1.23506,0 1.86551,1.01285 0.63562,1.01286 0.63562,2.99206 0,1.97403 -0.63562,2.98689 -0.63045,1.01285 -1.86551,1.01285 -1.23506,0 -1.86552,-1.01285 -0.63045,-1.01286 -0.63045,-2.98689 0,-1.9792 0.63045,-2.99206 0.63046,-1.01285 1.86552,-1.01285 z"
           style="font-size:medium;line-height:1.25;font-family:monospace;-inkscape-font-specification:monospace"
           id="path5066" />
        <path
           d="m 218.95278,217.44621 q 0,-0.28422 0.19637,-0.49092 0.20154,-0.20671 0.48059,-0.20671 0.28939,0 0.49609,0.20671 0.20671,0.2067 0.20671,0.49092 0,0.28939 -0.20671,0.49092 -0.20153,0.20154 -0.49609,0.20154 -0.28939,0 -0.48576,-0.19637 -0.1912,-0.19637 -0.1912,-0.49609 z m 0.6873,-3.15225 q -0.72864,0 -1.09037,0.78548 -0.35657,0.78548 -0.35657,2.39261 0,1.60196 0.35657,2.38744 0.36173,0.78548 1.09037,0.78548 0.7338,0 1.09037,-0.78548 0.36173,-0.78548 0.36173,-2.38744 0,-1.60713 -0.36173,-2.39261 -0.35657,-0.78548 -1.09037,-0.78548 z m 0,-0.82682 q 1.23506,0 1.86551,1.01285 0.63562,1.01286 0.63562,2.99206 0,1.97403 -0.63562,2.98689 -0.63045,1.01285 -1.86551,1.01285 -1.23507,0 -1.86552,-1.01285 -0.63045,-1.01286 -0.63045,-2.98689 0,-1.9792 0.63045,-2.99206 0.63045,-1.01285 1.86552,-1.01285 z"
           style="font-size:medium;line-height:1.25;font-family:monospace;-inkscape-font-specification:monospace"
           id="path5068" />
        <path
           d="m 224.22377,220.44343 h 1.62263 v -5.89626 l -1.74666,0.39274 v -0.95084 l 1.73633,-0.38241 h 1.04386 v 6.83677 h 1.60196 v 0.8785 h -4.25812 z"
           style="font-size:medium;line-height:1.25;font-family:monospace;-inkscape-font-specification:monospace;fill:#ff0000"
           id="path5070" />
        <path
           d="m 231.69614,217.44621 q 0,-0.28422 0.19637,-0.49092 0.20154,-0.20671 0.48059,-0.20671 0.28939,0 0.4961,0.20671 0.2067,0.2067 0.2067,0.49092 0,0.28939 -0.2067,0.49092 -0.20154,0.20154 -0.4961,0.20154 -0.28938,0 -0.48575,-0.19637 -0.19121,-0.19637 -0.19121,-0.49609 z m 0.6873,-3.15225 q -0.72864,0 -1.09037,0.78548 -0.35657,0.78548 -0.35657,2.39261 0,1.60196 0.35657,2.38744 0.36173,0.78548 1.09037,0.78548 0.7338,0 1.09037,-0.78548 0.36173,-0.78548 0.36173,-2.38744 0,-1.60713 -0.36173,-2.39261 -0.35657,-0.78548 -1.09037,-0.78548 z m 0,-0.82682 q 1.23506,0 1.86551,1.01285 0.63562,1.01286 0.63562,2.99206 0,1.97403 -0.63562,2.98689 -0.63045,1.01285 -1.86551,1.01285 -1.23506,0 -1.86551,-1.01285 -0.63045,-1.01286 -0.63045,-2.98689 0,-1.9792 0.63045,-2.99206 0.63045,-1.01285 1.86551,-1.01285 z"
           style="font-size:medium;line-height:1.25;font-family:monospace;-inkscape-font-specification:monospace"
           id="path5072" />
        <path
           d="m 238.06783,217.44621 q 0,-0.28422 0.19637,-0.49092 0.20154,-0.20671 0.48059,-0.20671 0.28939,0 0.49609,0.20671 0.20671,0.2067 0.20671,0.49092 0,0.28939 -0.20671,0.49092 -0.20153,0.20154 -0.49609,0.20154 -0.28938,0 -0.48575,-0.19637 -0.19121,-0.19637 -0.19121,-0.49609 z m 0.6873,-3.15225 q -0.72864,0 -1.09037,0.78548 -0.35657,0.78548 -0.35657,2.39261 0,1.60196 0.35657,2.38744 0.36173,0.78548 1.09037,0.78548 0.7338,0 1.09037,-0.78548 0.36173,-0.78548 0.36173,-2.38744 0,-1.60713 -0.36173,-2.39261 -0.35657,-0.78548 -1.09037,-0.78548 z m 0,-0.82682 q 1.23506,0 1.86551,1.01285 0.63562,1.01286 0.63562,2.99206 0,1.97403 -0.63562,2.98689 -0.63045,1.01285 -1.86551,1.01285 -1.23506,0 -1.86552,-1.01285 -0.63045,-1.01286 -0.63045,-2.98689 0,-1.9792 0.63045,-2.99206 0.63046,-1.01285 1.86552,-1.01285 z"
           style="font-size:medium;line-height:1.25;font-family:monospace;-inkscape-font-specification:monospace"
           id="path5074" />
        <path
           d="m 243.33882,220.44343 h 1.62263 v -5.89626 l -1.74666,0.39274 v -0.95084 l 1.73633,-0.38241 h 1.04386 v 6.83677 h 1.60196 v 0.8785 h -4.25812 z"
           style="font-size:medium;line-height:1.25;font-family:monospace;-inkscape-font-specification:monospace;fill:#ff0000"
           id="path5076" />
        <path
           d="m 249.71049,220.44343 h 1.62264 v -5.89626 l -1.74666,0.39274 v -0.95084 l 1.73632,-0.38241 h 1.04386 v 6.83677 h 1.60197 v 0.8785 h -4.25813 z"
           style="font-size:medium;line-height:1.25;font-family:monospace;-inkscape-font-specification:monospace;fill:#ff0000"
           id="path5078" />
        <path
           d="m 257.18288,217.44621 q 0,-0.28422 0.19637,-0.49092 0.20154,-0.20671 0.48059,-0.20671 0.28939,0 0.4961,0.20671 0.2067,0.2067 0.2067,0.49092 0,0.28939 -0.2067,0.49092 -0.20154,0.20154 -0.4961,0.20154 -0.28938,0 -0.48575,-0.19637 -0.19121,-0.19637 -0.19121,-0.49609 z m 0.6873,-3.15225 q -0.72864,0 -1.09037,0.78548 -0.35657,0.78548 -0.35657,2.39261 0,1.60196 0.35657,2.38744 0.36173,0.78548 1.09037,0.78548 0.7338,0 1.09037,-0.78548 0.36173,-0.78548 0.36173,-2.38744 0,-1.60713 -0.36173,-2.39261 -0.35657,-0.78548 -1.09037,-0.78548 z m 0,-0.82682 q 1.23506,0 1.86551,1.01285 0.63562,1.01286 0.63562,2.99206 0,1.97403 -0.63562,2.98689 -0.63045,1.01285 -1.86551,1.01285 -1.23506,0 -1.86551,-1.01285 -0.63045,-1.01286 -0.63045,-2.98689 0,-1.9792 0.63045,-2.99206 0.63045,-1.01285 1.86551,-1.01285 z"
           style="font-size:medium;line-height:1.25;font-family:monospace;-inkscape-font-specification:monospace"
           id="path5080" />
        <path
           d="m 262.45387,220.44343 h 1.62263 v -5.89626 l -1.74665,0.39274 v -0.95084 l 1.73632,-0.38241 h 1.04386 v 6.83677 h 1.60196 v 0.8785 h -4.25812 z"
           style="font-size:medium;line-height:1.25;font-family:monospace;-inkscape-font-specification:monospace;fill:#ff0000"
           id="path5082" />
        <path
           d="m 268.82554,220.44343 h 1.62264 v -5.89626 l -1.74666,0.39274 v -0.95084 l 1.73632,-0.38241 h 1.04386 v 6.83677 h 1.60197 v 0.8785 h -4.25813 z"
           style="font-size:medium;line-height:1.25;font-family:monospace;-inkscape-font-specification:monospace;fill:#ff0000"
           id="path5084" />
        <path
           d="m 275.19722,220.44343 h 1.62263 v -5.89626 l -1.74666,0.39274 v -0.95084 l 1.73633,-0.38241 h 1.04386 v 6.83677 h 1.60196 v 0.8785 h -4.25812 z"
           style="font-size:medium;line-height:1.25;font-family:monospace;-inkscape-font-specification:monospace;fill:#ff0000"
           id="path5086" />
        <path
           d="m 282.66962,217.44621 q 0,-0.28422 0.19637,-0.49092 0.20154,-0.20671 0.48059,-0.20671 0.28939,0 0.4961,0.20671 0.2067,0.2067 0.2067,0.49092 0,0.28939 -0.2067,0.49092 -0.20154,0.20154 -0.4961,0.20154 -0.28938,0 -0.48575,-0.19637 -0.19121,-0.19637 -0.19121,-0.49609 z m 0.6873,-3.15225 q -0.72864,0 -1.09037,0.78548 -0.35657,0.78548 -0.35657,2.39261 0,1.60196 0.35657,2.38744 0.36173,0.78548 1.09037,0.78548 0.7338,0 1.09037,-0.78548 0.36173,-0.78548 0.36173,-2.38744 0,-1.60713 -0.36173,-2.39261 -0.35657,-0.78548 -1.09037,-0.78548 z m 0,-0.82682 q 1.23506,0 1.86551,1.01285 0.63562,1.01286 0.63562,2.99206 0,1.97403 -0.63562,2.98689 -0.63045,1.01285 -1.86551,1.01285 -1.23506,0 -1.86551,-1.01285 -0.63045,-1.01286 -0.63045,-2.98689 0,-1.9792 0.63045,-2.99206 0.63045,-1.01285 1.86551,-1.01285 z"
           style="font-size:medium;line-height:1.25;font-family:monospace;-inkscape-font-specification:monospace"
           id="path5088" />
        <path
           d="m 16.056259,229.40534 q 0.175699,-0.37207 0.444416,-0.54777 0.273884,-0.18087 0.656289,-0.18087 0.697629,0 0.981849,0.5426 0.289387,0.53744 0.289387,2.03088 v 3.35379 h -0.868161 v -3.31245 q 0,-1.22473 -0.139526,-1.51928 -0.134359,-0.29972 -0.496093,-0.29972 -0.41341,0 -0.568438,0.32039 -0.149862,0.31523 -0.149862,1.49861 v 3.31245 h -0.868161 v -3.31245 q 0,-1.24023 -0.149861,-1.52962 -0.144694,-0.28938 -0.527098,-0.28938 -0.377237,0 -0.527098,0.32039 -0.144694,0.31523 -0.144694,1.49861 v 3.31245 h -0.862993 v -5.78774 h 0.862993 v 0.49609 q 0.170532,-0.31006 0.423746,-0.47025 0.258381,-0.16537 0.583942,-0.16537 0.392739,0 0.651121,0.18087 0.263549,0.18087 0.408242,0.54777 z"
           style="font-size:medium;line-height:126%;font-family:monospace;-inkscape-font-specification:monospace;fill:#0000ff"
           id="path5090" />
        <path
           d="m 22.562301,231.6946 h -0.315225 q -0.831988,0 -1.255733,0.29455 -0.418578,0.28939 -0.418578,0.86816 0,0.52193 0.315225,0.81132 0.315225,0.28939 0.873329,0.28939 0.785479,0 1.235063,-0.5426 0.449583,-0.54777 0.454751,-1.50895 v -0.21187 z m 1.844843,-0.39274 v 3.30211 h -0.956011 v -0.85783 q -0.30489,0.51677 -0.769977,0.76481 -0.459918,0.24288 -1.121375,0.24288 -0.883664,0 -1.410762,-0.49609 -0.527098,-0.50126 -0.527098,-1.33842 0,-0.96634 0.645954,-1.4676 0.651121,-0.50126 1.906854,-0.50126 h 1.276404 v -0.14986 q -0.0052,-0.69246 -0.351399,-1.00252 -0.346231,-0.31523 -1.105872,-0.31523 -0.485757,0 -0.981849,0.13953 -0.496092,0.13952 -0.966346,0.40824 v -0.95084 q 0.527098,-0.20154 1.007687,-0.29972 0.485757,-0.10336 0.940508,-0.10336 0.7183,0 1.224728,0.21188 0.511595,0.21187 0.82682,0.63561 0.19637,0.25839 0.279052,0.64079 0.08268,0.37724 0.08268,1.13688 z"
           style="font-size:medium;line-height:126%;font-family:monospace;-inkscape-font-specification:monospace;fill:#0000ff"
           id="path5092" />
        <path
           d="m 28.608424,232.50591 q 0,0.64079 0.232543,0.96635 0.237711,0.32556 0.69763,0.32556 h 1.11104 v 0.80615 H 29.44558 q -0.852659,0 -1.322913,-0.54777 -0.465086,-0.54777 -0.465086,-1.55029 v -5.25547 h -1.52445 v -0.74414 h 2.475293 z"
           style="font-size:medium;line-height:126%;font-family:monospace;-inkscape-font-specification:monospace;fill:#0000ff"
           id="path5094" />
        <path
           d="m 37.424396,231.47239 v 0.46509 h -4.118599 v 0.031 q 0,0.94568 0.490925,1.46244 0.496092,0.51676 1.395259,0.51676 0.454751,0 0.950843,-0.14469 0.496092,-0.14469 1.059364,-0.43925 v 0.94568 q -0.542601,0.2222 -1.049028,0.33072 -0.50126,0.11369 -0.971514,0.11369 -1.348751,0 -2.108392,-0.80615 -0.759641,-0.81132 -0.759641,-2.23241 0,-1.38493 0.744138,-2.21175 0.744138,-0.82682 1.984369,-0.82682 1.105872,0 1.74149,0.74931 0.640786,0.7493 0.640786,2.04638 z m -0.950844,-0.27905 q -0.02067,-0.83716 -0.397907,-1.27124 -0.372069,-0.43925 -1.074866,-0.43925 -0.687295,0 -1.131711,0.45475 -0.444415,0.45476 -0.527097,1.2609 z"
           style="font-size:medium;line-height:126%;font-family:monospace;-inkscape-font-specification:monospace;fill:#0000ff"
           id="path5096" />
        <path
           d="m 143.62429,226.51664 v 10.58329 h -0.88883 v -10.58329 z"
           style="font-size:medium;line-height:126%;font-family:monospace;-inkscape-font-specification:monospace"
           id="path5098" />
        <path
           d="m 155.23594,230.72825 q 0,-0.28422 0.19637,-0.49092 0.20154,-0.20671 0.48059,-0.20671 0.28939,0 0.49609,0.20671 0.20671,0.2067 0.20671,0.49092 0,0.28939 -0.20671,0.49093 -0.20154,0.20153 -0.49609,0.20153 -0.28939,0 -0.48576,-0.19637 -0.1912,-0.19637 -0.1912,-0.49609 z m 0.68729,-3.15225 q -0.72863,0 -1.09037,0.78548 -0.35656,0.78548 -0.35656,2.39261 0,1.60196 0.35656,2.38744 0.36174,0.78548 1.09037,0.78548 0.73381,0 1.09037,-0.78548 0.36174,-0.78548 0.36174,-2.38744 0,-1.60713 -0.36174,-2.39261 -0.35656,-0.78548 -1.09037,-0.78548 z m 0,-0.82682 q 1.23507,0 1.86552,1.01285 0.63562,1.01286 0.63562,2.99206 0,1.97403 -0.63562,2.98689 -0.63045,1.01285 -1.86552,1.01285 -1.23506,0 -1.86551,-1.01285 -0.63045,-1.01286 -0.63045,-2.98689 0,-1.9792 0.63045,-2.99206 0.63045,-1.01285 1.86551,-1.01285 z"
           style="font-size:medium;line-height:126%;font-family:monospace;-inkscape-font-specification:monospace"
           id="path5100" />
        <path
           d="m 161.60763,230.72825 q 0,-0.28422 0.19637,-0.49092 0.20154,-0.20671 0.48059,-0.20671 0.28938,0 0.49609,0.20671 0.2067,0.2067 0.2067,0.49092 0,0.28939 -0.2067,0.49093 -0.20154,0.20153 -0.49609,0.20153 -0.28939,0 -0.48576,-0.19637 -0.1912,-0.19637 -0.1912,-0.49609 z m 0.68729,-3.15225 q -0.72863,0 -1.09037,0.78548 -0.35656,0.78548 -0.35656,2.39261 0,1.60196 0.35656,2.38744 0.36174,0.78548 1.09037,0.78548 0.73381,0 1.09037,-0.78548 0.36174,-0.78548 0.36174,-2.38744 0,-1.60713 -0.36174,-2.39261 -0.35656,-0.78548 -1.09037,-0.78548 z m 0,-0.82682 q 1.23507,0 1.86552,1.01285 0.63561,1.01286 0.63561,2.99206 0,1.97403 -0.63561,2.98689 -0.63045,1.01285 -1.86552,1.01285 -1.23506,0 -1.86551,-1.01285 -0.63045,-1.01286 -0.63045,-2.98689 0,-1.9792 0.63045,-2.99206 0.63045,-1.01285 1.86551,-1.01285 z"
           style="font-size:medium;line-height:126%;font-family:monospace;-inkscape-font-specification:monospace"
           id="path5102" />
        <path
           d="m 167.97932,230.72825 q 0,-0.28422 0.19637,-0.49092 0.20153,-0.20671 0.48059,-0.20671 0.28938,0 0.49609,0.20671 0.2067,0.2067 0.2067,0.49092 0,0.28939 -0.2067,0.49093 -0.20154,0.20153 -0.49609,0.20153 -0.28939,0 -0.48576,-0.19637 -0.1912,-0.19637 -0.1912,-0.49609 z m 0.68729,-3.15225 q -0.72863,0 -1.09037,0.78548 -0.35656,0.78548 -0.35656,2.39261 0,1.60196 0.35656,2.38744 0.36174,0.78548 1.09037,0.78548 0.7338,0 1.09037,-0.78548 0.36173,-0.78548 0.36173,-2.38744 0,-1.60713 -0.36173,-2.39261 -0.35657,-0.78548 -1.09037,-0.78548 z m 0,-0.82682 q 1.23506,0 1.86551,1.01285 0.63562,1.01286 0.63562,2.99206 0,1.97403 -0.63562,2.98689 -0.63045,1.01285 -1.86551,1.01285 -1.23506,0 -1.86551,-1.01285 -0.63045,-1.01286 -0.63045,-2.98689 0,-1.9792 0.63045,-2.99206 0.63045,-1.01285 1.86551,-1.01285 z"
           style="font-size:medium;line-height:126%;font-family:monospace;-inkscape-font-specification:monospace"
           id="path5104" />
        <path
           d="m 173.25029,233.72547 h 1.62263 v -5.89626 l -1.74666,0.39274 v -0.95084 l 1.73633,-0.38241 h 1.04386 v 6.83677 h 1.60196 v 0.8785 h -4.25812 z"
           style="font-size:medium;line-height:126%;font-family:monospace;-inkscape-font-specification:monospace;fill:#ff0000"
           id="path5106" />
        <path
           d="m 179.62198,233.72547 h 1.62263 v -5.89626 l -1.74666,0.39274 v -0.95084 l 1.73632,-0.38241 h 1.04387 v 6.83677 h 1.60196 v 0.8785 h -4.25812 z"
           style="font-size:medium;line-height:126%;font-family:monospace;-inkscape-font-specification:monospace;fill:#ff0000"
           id="path5108" />
        <path
           d="m 187.09437,230.72825 q 0,-0.28422 0.19637,-0.49092 0.20154,-0.20671 0.48059,-0.20671 0.28938,0 0.49609,0.20671 0.2067,0.2067 0.2067,0.49092 0,0.28939 -0.2067,0.49093 -0.20154,0.20153 -0.49609,0.20153 -0.28939,0 -0.48576,-0.19637 -0.1912,-0.19637 -0.1912,-0.49609 z m 0.68729,-3.15225 q -0.72863,0 -1.09037,0.78548 -0.35656,0.78548 -0.35656,2.39261 0,1.60196 0.35656,2.38744 0.36174,0.78548 1.09037,0.78548 0.73381,0 1.09037,-0.78548 0.36174,-0.78548 0.36174,-2.38744 0,-1.60713 -0.36174,-2.39261 -0.35656,-0.78548 -1.09037,-0.78548 z m 0,-0.82682 q 1.23507,0 1.86552,1.01285 0.63561,1.01286 0.63561,2.99206 0,1.97403 -0.63561,2.98689 -0.63045,1.01285 -1.86552,1.01285 -1.23506,0 -1.86551,-1.01285 -0.63045,-1.01286 -0.63045,-2.98689 0,-1.9792 0.63045,-2.99206 0.63045,-1.01285 1.86551,-1.01285 z"
           style="font-size:medium;line-height:126%;font-family:monospace;-inkscape-font-specification:monospace"
           id="path5110" />
        <path
           d="m 193.46604,230.72825 q 0,-0.28422 0.19637,-0.49092 0.20154,-0.20671 0.48059,-0.20671 0.28939,0 0.49609,0.20671 0.20671,0.2067 0.20671,0.49092 0,0.28939 -0.20671,0.49093 -0.20153,0.20153 -0.49609,0.20153 -0.28939,0 -0.48576,-0.19637 -0.1912,-0.19637 -0.1912,-0.49609 z m 0.6873,-3.15225 q -0.72864,0 -1.09037,0.78548 -0.35657,0.78548 -0.35657,2.39261 0,1.60196 0.35657,2.38744 0.36173,0.78548 1.09037,0.78548 0.7338,0 1.09037,-0.78548 0.36173,-0.78548 0.36173,-2.38744 0,-1.60713 -0.36173,-2.39261 -0.35657,-0.78548 -1.09037,-0.78548 z m 0,-0.82682 q 1.23506,0 1.86551,1.01285 0.63562,1.01286 0.63562,2.99206 0,1.97403 -0.63562,2.98689 -0.63045,1.01285 -1.86551,1.01285 -1.23507,0 -1.86552,-1.01285 -0.63045,-1.01286 -0.63045,-2.98689 0,-1.9792 0.63045,-2.99206 0.63045,-1.01285 1.86552,-1.01285 z"
           style="font-size:medium;line-height:126%;font-family:monospace;-inkscape-font-specification:monospace"
           id="path5112" />
        <path
           d="m 198.73703,233.72547 h 1.62263 v -5.89626 l -1.74666,0.39274 v -0.95084 l 1.73633,-0.38241 h 1.04386 v 6.83677 h 1.60196 v 0.8785 h -4.25812 z"
           style="font-size:medium;line-height:126%;font-family:monospace;-inkscape-font-specification:monospace;fill:#ff0000"
           id="path5114" />
        <path
           d="m 205.10872,233.72547 h 1.62263 v -5.89626 l -1.74666,0.39274 v -0.95084 l 1.73632,-0.38241 h 1.04387 v 6.83677 h 1.60196 v 0.8785 h -4.25812 z"
           style="font-size:medium;line-height:126%;font-family:monospace;-inkscape-font-specification:monospace;fill:#ff0000"
           id="path5116" />
        <path
           d="m 212.58109,230.72825 q 0,-0.28422 0.19637,-0.49092 0.20154,-0.20671 0.48059,-0.20671 0.28939,0 0.49609,0.20671 0.20671,0.2067 0.20671,0.49092 0,0.28939 -0.20671,0.49093 -0.20153,0.20153 -0.49609,0.20153 -0.28938,0 -0.48575,-0.19637 -0.19121,-0.19637 -0.19121,-0.49609 z m 0.6873,-3.15225 q -0.72864,0 -1.09037,0.78548 -0.35657,0.78548 -0.35657,2.39261 0,1.60196 0.35657,2.38744 0.36173,0.78548 1.09037,0.78548 0.7338,0 1.09037,-0.78548 0.36173,-0.78548 0.36173,-2.38744 0,-1.60713 -0.36173,-2.39261 -0.35657,-0.78548 -1.09037,-0.78548 z m 0,-0.82682 q 1.23506,0 1.86551,1.01285 0.63562,1.01286 0.63562,2.99206 0,1.97403 -0.63562,2.98689 -0.63045,1.01285 -1.86551,1.01285 -1.23506,0 -1.86552,-1.01285 -0.63045,-1.01286 -0.63045,-2.98689 0,-1.9792 0.63045,-2.99206 0.63046,-1.01285 1.86552,-1.01285 z"
           style="font-size:medium;line-height:126%;font-family:monospace;-inkscape-font-specification:monospace"
           id="path5118" />
        <path
           d="m 218.95278,230.72825 q 0,-0.28422 0.19637,-0.49092 0.20154,-0.20671 0.48059,-0.20671 0.28939,0 0.49609,0.20671 0.20671,0.2067 0.20671,0.49092 0,0.28939 -0.20671,0.49093 -0.20153,0.20153 -0.49609,0.20153 -0.28939,0 -0.48576,-0.19637 -0.1912,-0.19637 -0.1912,-0.49609 z m 0.6873,-3.15225 q -0.72864,0 -1.09037,0.78548 -0.35657,0.78548 -0.35657,2.39261 0,1.60196 0.35657,2.38744 0.36173,0.78548 1.09037,0.78548 0.7338,0 1.09037,-0.78548 0.36173,-0.78548 0.36173,-2.38744 0,-1.60713 -0.36173,-2.39261 -0.35657,-0.78548 -1.09037,-0.78548 z m 0,-0.82682 q 1.23506,0 1.86551,1.01285 0.63562,1.01286 0.63562,2.99206 0,1.97403 -0.63562,2.98689 -0.63045,1.01285 -1.86551,1.01285 -1.23507,0 -1.86552,-1.01285 -0.63045,-1.01286 -0.63045,-2.98689 0,-1.9792 0.63045,-2.99206 0.63045,-1.01285 1.86552,-1.01285 z"
           style="font-size:medium;line-height:126%;font-family:monospace;-inkscape-font-specification:monospace"
           id="path5120" />
        <path
           d="m 225.32447,230.72825 q 0,-0.28422 0.19637,-0.49092 0.20154,-0.20671 0.48059,-0.20671 0.28939,0 0.49609,0.20671 0.20671,0.2067 0.20671,0.49092 0,0.28939 -0.20671,0.49093 -0.20154,0.20153 -0.49609,0.20153 -0.28939,0 -0.48576,-0.19637 -0.1912,-0.19637 -0.1912,-0.49609 z m 0.6873,-3.15225 q -0.72864,0 -1.09037,0.78548 -0.35657,0.78548 -0.35657,2.39261 0,1.60196 0.35657,2.38744 0.36173,0.78548 1.09037,0.78548 0.7338,0 1.09036,-0.78548 0.36174,-0.78548 0.36174,-2.38744 0,-1.60713 -0.36174,-2.39261 -0.35656,-0.78548 -1.09036,-0.78548 z m 0,-0.82682 q 1.23506,0 1.86551,1.01285 0.63562,1.01286 0.63562,2.99206 0,1.97403 -0.63562,2.98689 -0.63045,1.01285 -1.86551,1.01285 -1.23507,0 -1.86552,-1.01285 -0.63045,-1.01286 -0.63045,-2.98689 0,-1.9792 0.63045,-2.99206 0.63045,-1.01285 1.86552,-1.01285 z"
           style="font-size:medium;line-height:126%;font-family:monospace;-inkscape-font-specification:monospace"
           id="path5122" />
        <path
           d="m 231.69614,230.72825 q 0,-0.28422 0.19637,-0.49092 0.20154,-0.20671 0.48059,-0.20671 0.28939,0 0.4961,0.20671 0.2067,0.2067 0.2067,0.49092 0,0.28939 -0.2067,0.49093 -0.20154,0.20153 -0.4961,0.20153 -0.28938,0 -0.48575,-0.19637 -0.19121,-0.19637 -0.19121,-0.49609 z m 0.6873,-3.15225 q -0.72864,0 -1.09037,0.78548 -0.35657,0.78548 -0.35657,2.39261 0,1.60196 0.35657,2.38744 0.36173,0.78548 1.09037,0.78548 0.7338,0 1.09037,-0.78548 0.36173,-0.78548 0.36173,-2.38744 0,-1.60713 -0.36173,-2.39261 -0.35657,-0.78548 -1.09037,-0.78548 z m 0,-0.82682 q 1.23506,0 1.86551,1.01285 0.63562,1.01286 0.63562,2.99206 0,1.97403 -0.63562,2.98689 -0.63045,1.01285 -1.86551,1.01285 -1.23506,0 -1.86551,-1.01285 -0.63045,-1.01286 -0.63045,-2.98689 0,-1.9792 0.63045,-2.99206 0.63045,-1.01285 1.86551,-1.01285 z"
           style="font-size:medium;line-height:126%;font-family:monospace;-inkscape-font-specification:monospace"
           id="path5124" />
        <path
           d="m 238.06783,230.72825 q 0,-0.28422 0.19637,-0.49092 0.20154,-0.20671 0.48059,-0.20671 0.28939,0 0.49609,0.20671 0.20671,0.2067 0.20671,0.49092 0,0.28939 -0.20671,0.49093 -0.20153,0.20153 -0.49609,0.20153 -0.28938,0 -0.48575,-0.19637 -0.19121,-0.19637 -0.19121,-0.49609 z m 0.6873,-3.15225 q -0.72864,0 -1.09037,0.78548 -0.35657,0.78548 -0.35657,2.39261 0,1.60196 0.35657,2.38744 0.36173,0.78548 1.09037,0.78548 0.7338,0 1.09037,-0.78548 0.36173,-0.78548 0.36173,-2.38744 0,-1.60713 -0.36173,-2.39261 -0.35657,-0.78548 -1.09037,-0.78548 z m 0,-0.82682 q 1.23506,0 1.86551,1.01285 0.63562,1.01286 0.63562,2.99206 0,1.97403 -0.63562,2.98689 -0.63045,1.01285 -1.86551,1.01285 -1.23506,0 -1.86552,-1.01285 -0.63045,-1.01286 -0.63045,-2.98689 0,-1.9792 0.63045,-2.99206 0.63046,-1.01285 1.86552,-1.01285 z"
           style="font-size:medium;line-height:126%;font-family:monospace;-inkscape-font-specification:monospace"
           id="path5126" />
        <path
           d="m 243.33882,233.72547 h 1.62263 v -5.89626 l -1.74666,0.39274 v -0.95084 l 1.73633,-0.38241 h 1.04386 v 6.83677 h 1.60196 v 0.8785 h -4.25812 z"
           style="font-size:medium;line-height:126%;font-family:monospace;-inkscape-font-specification:monospace;fill:#ff0000"
           id="path5128" />
        <path
           d="m 250.8112,230.72825 q 0,-0.28422 0.19637,-0.49092 0.20153,-0.20671 0.48059,-0.20671 0.28938,0 0.49609,0.20671 0.2067,0.2067 0.2067,0.49092 0,0.28939 -0.2067,0.49093 -0.20154,0.20153 -0.49609,0.20153 -0.28939,0 -0.48576,-0.19637 -0.1912,-0.19637 -0.1912,-0.49609 z m 0.68729,-3.15225 q -0.72864,0 -1.09037,0.78548 -0.35657,0.78548 -0.35657,2.39261 0,1.60196 0.35657,2.38744 0.36173,0.78548 1.09037,0.78548 0.7338,0 1.09037,-0.78548 0.36173,-0.78548 0.36173,-2.38744 0,-1.60713 -0.36173,-2.39261 -0.35657,-0.78548 -1.09037,-0.78548 z m 0,-0.82682 q 1.23506,0 1.86551,1.01285 0.63562,1.01286 0.63562,2.99206 0,1.97403 -0.63562,2.98689 -0.63045,1.01285 -1.86551,1.01285 -1.23506,0 -1.86551,-1.01285 -0.63045,-1.01286 -0.63045,-2.98689 0,-1.9792 0.63045,-2.99206 0.63045,-1.01285 1.86551,-1.01285 z"
           style="font-size:medium;line-height:126%;font-family:monospace;-inkscape-font-specification:monospace"
           id="path5130" />
        <path
           d="m 257.18288,230.72825 q 0,-0.28422 0.19637,-0.49092 0.20154,-0.20671 0.48059,-0.20671 0.28939,0 0.4961,0.20671 0.2067,0.2067 0.2067,0.49092 0,0.28939 -0.2067,0.49093 -0.20154,0.20153 -0.4961,0.20153 -0.28938,0 -0.48575,-0.19637 -0.19121,-0.19637 -0.19121,-0.49609 z m 0.6873,-3.15225 q -0.72864,0 -1.09037,0.78548 -0.35657,0.78548 -0.35657,2.39261 0,1.60196 0.35657,2.38744 0.36173,0.78548 1.09037,0.78548 0.7338,0 1.09037,-0.78548 0.36173,-0.78548 0.36173,-2.38744 0,-1.60713 -0.36173,-2.39261 -0.35657,-0.78548 -1.09037,-0.78548 z m 0,-0.82682 q 1.23506,0 1.86551,1.01285 0.63562,1.01286 0.63562,2.99206 0,1.97403 -0.63562,2.98689 -0.63045,1.01285 -1.86551,1.01285 -1.23506,0 -1.86551,-1.01285 -0.63045,-1.01286 -0.63045,-2.98689 0,-1.9792 0.63045,-2.99206 0.63045,-1.01285 1.86551,-1.01285 z"
           style="font-size:medium;line-height:126%;font-family:monospace;-inkscape-font-specification:monospace"
           id="path5132" />
        <path
           d="m 263.55457,230.72825 q 0,-0.28422 0.19637,-0.49092 0.20154,-0.20671 0.48059,-0.20671 0.28939,0 0.49609,0.20671 0.20671,0.2067 0.20671,0.49092 0,0.28939 -0.20671,0.49093 -0.20153,0.20153 -0.49609,0.20153 -0.28938,0 -0.48575,-0.19637 -0.19121,-0.19637 -0.19121,-0.49609 z m 0.6873,-3.15225 q -0.72864,0 -1.09037,0.78548 -0.35657,0.78548 -0.35657,2.39261 0,1.60196 0.35657,2.38744 0.36173,0.78548 1.09037,0.78548 0.7338,0 1.09037,-0.78548 0.36173,-0.78548 0.36173,-2.38744 0,-1.60713 -0.36173,-2.39261 -0.35657,-0.78548 -1.09037,-0.78548 z m 0,-0.82682 q 1.23506,0 1.86551,1.01285 0.63562,1.01286 0.63562,2.99206 0,1.97403 -0.63562,2.98689 -0.63045,1.01285 -1.86551,1.01285 -1.23506,0 -1.86552,-1.01285 -0.63045,-1.01286 -0.63045,-2.98689 0,-1.9792 0.63045,-2.99206 0.63046,-1.01285 1.86552,-1.01285 z"
           style="font-size:medium;line-height:126%;font-family:monospace;-inkscape-font-specification:monospace"
           id="path5134" />
        <path
           d="m 269.92625,230.72825 q 0,-0.28422 0.19637,-0.49092 0.20153,-0.20671 0.48059,-0.20671 0.28938,0 0.49609,0.20671 0.2067,0.2067 0.2067,0.49092 0,0.28939 -0.2067,0.49093 -0.20154,0.20153 -0.49609,0.20153 -0.28939,0 -0.48576,-0.19637 -0.1912,-0.19637 -0.1912,-0.49609 z m 0.68729,-3.15225 q -0.72863,0 -1.09037,0.78548 -0.35656,0.78548 -0.35656,2.39261 0,1.60196 0.35656,2.38744 0.36174,0.78548 1.09037,0.78548 0.7338,0 1.09037,-0.78548 0.36173,-0.78548 0.36173,-2.38744 0,-1.60713 -0.36173,-2.39261 -0.35657,-0.78548 -1.09037,-0.78548 z m 0,-0.82682 q 1.23506,0 1.86551,1.01285 0.63562,1.01286 0.63562,2.99206 0,1.97403 -0.63562,2.98689 -0.63045,1.01285 -1.86551,1.01285 -1.23506,0 -1.86551,-1.01285 -0.63045,-1.01286 -0.63045,-2.98689 0,-1.9792 0.63045,-2.99206 0.63045,-1.01285 1.86551,-1.01285 z"
           style="font-size:medium;line-height:126%;font-family:monospace;-inkscape-font-specification:monospace"
           id="path5136" />
        <path
           d="m 276.29792,230.72825 q 0,-0.28422 0.19637,-0.49092 0.20154,-0.20671 0.48059,-0.20671 0.28939,0 0.49609,0.20671 0.20671,0.2067 0.20671,0.49092 0,0.28939 -0.20671,0.49093 -0.20154,0.20153 -0.49609,0.20153 -0.28939,0 -0.48576,-0.19637 -0.1912,-0.19637 -0.1912,-0.49609 z m 0.6873,-3.15225 q -0.72864,0 -1.09037,0.78548 -0.35657,0.78548 -0.35657,2.39261 0,1.60196 0.35657,2.38744 0.36173,0.78548 1.09037,0.78548 0.7338,0 1.09036,-0.78548 0.36174,-0.78548 0.36174,-2.38744 0,-1.60713 -0.36174,-2.39261 -0.35656,-0.78548 -1.09036,-0.78548 z m 0,-0.82682 q 1.23506,0 1.86551,1.01285 0.63562,1.01286 0.63562,2.99206 0,1.97403 -0.63562,2.98689 -0.63045,1.01285 -1.86551,1.01285 -1.23507,0 -1.86552,-1.01285 -0.63045,-1.01286 -0.63045,-2.98689 0,-1.9792 0.63045,-2.99206 0.63045,-1.01285 1.86552,-1.01285 z"
           style="font-size:medium;line-height:126%;font-family:monospace;-inkscape-font-specification:monospace"
           id="path5138" />
        <path
           d="m 282.66962,230.72825 q 0,-0.28422 0.19637,-0.49092 0.20154,-0.20671 0.48059,-0.20671 0.28939,0 0.4961,0.20671 0.2067,0.2067 0.2067,0.49092 0,0.28939 -0.2067,0.49093 -0.20154,0.20153 -0.4961,0.20153 -0.28938,0 -0.48575,-0.19637 -0.19121,-0.19637 -0.19121,-0.49609 z m 0.6873,-3.15225 q -0.72864,0 -1.09037,0.78548 -0.35657,0.78548 -0.35657,2.39261 0,1.60196 0.35657,2.38744 0.36173,0.78548 1.09037,0.78548 0.7338,0 1.09037,-0.78548 0.36173,-0.78548 0.36173,-2.38744 0,-1.60713 -0.36173,-2.39261 -0.35657,-0.78548 -1.09037,-0.78548 z m 0,-0.82682 q 1.23506,0 1.86551,1.01285 0.63562,1.01286 0.63562,2.99206 0,1.97403 -0.63562,2.98689 -0.63045,1.01285 -1.86551,1.01285 -1.23506,0 -1.86551,-1.01285 -0.63045,-1.01286 -0.63045,-2.98689 0,-1.9792 0.63045,-2.99206 0.63045,-1.01285 1.86551,-1.01285 z"
           style="font-size:medium;line-height:126%;font-family:monospace;-inkscape-font-specification:monospace"
           id="path5140" />
        <path
           d="m 18.056131,239.84518 v 0.79065 h -1.080034 q -0.511595,0 -0.713133,0.21187 -0.19637,0.20671 -0.19637,0.73897 v 0.5116 h 1.989537 v 0.73897 h -1.989537 v 5.04877 h -0.950843 v -5.04877 h -1.54512 v -0.73897 h 1.54512 v -0.40307 q 0,-0.95085 0.434081,-1.40043 0.439248,-0.44959 1.364253,-0.44959 z"
           style="font-size:medium;line-height:1.25;font-family:monospace;-inkscape-font-specification:monospace;fill:#ff0000"
           id="path5142" />
        <path
           d="m 24.681028,244.75443 v 0.46509 h -4.118599 v 0.031 q 0,0.94568 0.490925,1.46244 0.496092,0.51676 1.395259,0.51676 0.454751,0 0.950844,-0.14469 0.496092,-0.14469 1.059363,-0.43925 v 0.94568 q -0.542601,0.22221 -1.049028,0.33073 -0.50126,0.11368 -0.971514,0.11368 -1.348751,0 -2.108392,-0.80615 -0.759641,-0.81131 -0.759641,-2.23241 0,-1.38493 0.744138,-2.21175 0.744139,-0.82682 1.984369,-0.82682 1.105872,0 1.74149,0.74931 0.640786,0.74931 0.640786,2.04638 z m -0.950843,-0.27905 q -0.02067,-0.83716 -0.397908,-1.27124 -0.372069,-0.43925 -1.074866,-0.43925 -0.687294,0 -1.13171,0.45475 -0.444416,0.45476 -0.527098,1.26091 z"
           style="font-size:medium;line-height:1.25;font-family:monospace;-inkscape-font-specification:monospace;fill:#ff0000"
           id="path5144" />
        <path
           d="m 28.799626,242.68738 q 0.1757,-0.37207 0.444416,-0.54777 0.273884,-0.18087 0.656289,-0.18087 0.697629,0 0.981849,0.5426 0.289387,0.53744 0.289387,2.03088 v 3.35379 h -0.868161 v -3.31245 q 0,-1.22472 -0.139526,-1.51928 -0.134358,-0.29972 -0.496092,-0.29972 -0.41341,0 -0.568439,0.32039 -0.149861,0.31523 -0.149861,1.49861 v 3.31245 h -0.868162 v -3.31245 q 0,-1.24023 -0.149861,-1.52961 -0.144693,-0.28939 -0.527098,-0.28939 -0.377237,0 -0.527098,0.32039 -0.144693,0.31523 -0.144693,1.49861 v 3.31245 h -0.862994 v -5.78774 h 0.862994 v 0.49609 q 0.170531,-0.31006 0.423745,-0.47025 0.258381,-0.16537 0.583942,-0.16537 0.39274,0 0.651121,0.18087 0.263549,0.18087 0.408242,0.54777 z"
           style="font-size:medium;line-height:1.25;font-family:monospace;-inkscape-font-specification:monospace;fill:#ff0000"
           id="path5146" />
        <path
           d="m 35.305669,244.97664 h -0.315226 q -0.831987,0 -1.255733,0.29455 -0.418578,0.28939 -0.418578,0.86816 0,0.52193 0.315226,0.81132 0.315225,0.28939 0.873329,0.28939 0.785479,0 1.235062,-0.5426 0.449584,-0.54777 0.454752,-1.50895 v -0.21187 z m 1.844842,-0.39274 v 3.30211 h -0.95601 v -0.85782 q -0.30489,0.51676 -0.769977,0.7648 -0.459919,0.24288 -1.121375,0.24288 -0.883664,0 -1.410762,-0.49609 -0.527098,-0.50126 -0.527098,-1.33841 0,-0.96635 0.645953,-1.46761 0.651121,-0.50126 1.906855,-0.50126 h 1.276404 v -0.14986 q -0.0052,-0.69246 -0.351399,-1.00252 -0.346231,-0.31523 -1.105872,-0.31523 -0.485757,0 -0.981849,0.13953 -0.496092,0.13953 -0.966347,0.40824 v -0.95084 q 0.527098,-0.20154 1.007688,-0.29972 0.485757,-0.10336 0.940508,-0.10336 0.7183,0 1.224727,0.21188 0.511595,0.21187 0.826821,0.63561 0.196369,0.25839 0.279051,0.64079 0.08268,0.37724 0.08268,1.13688 z"
           style="font-size:medium;line-height:1.25;font-family:monospace;-inkscape-font-specification:monospace;fill:#ff0000"
           id="path5148" />
        <path
           d="m 41.351791,245.78796 q 0,0.64078 0.232544,0.96634 0.23771,0.32556 0.697629,0.32556 h 1.11104 v 0.80615 h -1.204057 q -0.852659,0 -1.322913,-0.54777 -0.465086,-0.54776 -0.465086,-1.55028 v -5.25548 h -1.52445 v -0.74414 h 2.475293 z"
           style="font-size:medium;line-height:1.25;font-family:monospace;-inkscape-font-specification:monospace;fill:#ff0000"
           id="path5150" />
        <path
           d="m 50.167762,244.75443 v 0.46509 h -4.118599 v 0.031 q 0,0.94568 0.490925,1.46244 0.496092,0.51676 1.395259,0.51676 0.454751,0 0.950844,-0.14469 0.496092,-0.14469 1.059363,-0.43925 v 0.94568 q -0.542601,0.22221 -1.049028,0.33073 -0.50126,0.11368 -0.971514,0.11368 -1.348751,0 -2.108392,-0.80615 -0.759641,-0.81131 -0.759641,-2.23241 0,-1.38493 0.744138,-2.21175 0.744139,-0.82682 1.984369,-0.82682 1.105872,0 1.74149,0.74931 0.640786,0.74931 0.640786,2.04638 z m -0.950843,-0.27905 q -0.02067,-0.83716 -0.397908,-1.27124 -0.372069,-0.43925 -1.074866,-0.43925 -0.687294,0 -1.13171,0.45475 -0.444416,0.45476 -0.527098,1.26091 z"
           style="font-size:medium;line-height:1.25;font-family:monospace;-inkscape-font-specification:monospace;fill:#ff0000"
           id="path5152" />
        <path
           d="m 61.841429,244.03613 q 0,-1.70015 -0.351398,-2.42878 -0.346231,-0.72864 -1.142046,-0.72864 -0.790647,0 -1.142045,0.72864 -0.346231,0.72863 -0.346231,2.42878 0,1.69498 0.346231,2.42362 0.351398,0.72863 1.142045,0.72863 0.795815,0 1.142046,-0.72347 0.351398,-0.72863 0.351398,-2.42878 z m 1.09037,0 q 0,2.01537 -0.640786,3.00756 -0.635618,0.99218 -1.943028,0.99218 -1.307409,0 -1.943027,-0.98701 -0.635618,-0.98702 -0.635618,-3.01273 0,-2.02054 0.635618,-3.01273 0.640785,-0.99218 1.943027,-0.99218 1.30741,0 1.943028,0.99218 0.640786,0.99219 0.640786,3.01273 z"
           style="font-size:medium;line-height:1.25;font-family:monospace;-inkscape-font-specification:monospace;fill:#1a1a1a"
           id="path5154" />
        <path
           d="m 67.463809,244.24284 q 0.403074,0.10335 0.687294,0.39273 0.284219,0.28422 0.707965,1.14205 l 1.049028,2.10839 h -1.121375 l -0.919838,-1.94819 q -0.397907,-0.83199 -0.7183,-1.0697 -0.315225,-0.24288 -0.82682,-0.24288 h -0.997352 v 3.26077 h -1.049028 v -7.71526 h 2.149733 q 1.271236,0 1.948195,0.5736 0.676959,0.57361 0.676959,1.65881 0,0.76481 -0.418578,1.25057 -0.41341,0.48058 -1.167883,0.58911 z m -2.139398,-3.21427 v 2.73884 h 1.142046 q 0.749306,0 1.116207,-0.33589 0.366902,-0.3359 0.366902,-1.02836 0,-0.66662 -0.39274,-1.01802 -0.387572,-0.35657 -1.13171,-0.35657 z"
           style="font-size:medium;line-height:1.25;font-family:monospace;-inkscape-font-specification:monospace;fill:#1a1a1a"
           id="path5156" />
        <path
           d="m 79.773094,242.68738 q 0.175699,-0.37207 0.444416,-0.54777 0.273884,-0.18087 0.656289,-0.18087 0.697629,0 0.981849,0.5426 0.289387,0.53744 0.289387,2.03088 v 3.35379 h -0.868161 v -3.31245 q 0,-1.22472 -0.139526,-1.51928 -0.134359,-0.29972 -0.496093,-0.29972 -0.41341,0 -0.568438,0.32039 -0.149862,0.31523 -0.149862,1.49861 v 3.31245 h -0.868161 v -3.31245 q 0,-1.24023 -0.149861,-1.52961 -0.144694,-0.28939 -0.527098,-0.28939 -0.377237,0 -0.527098,0.32039 -0.144694,0.31523 -0.144694,1.49861 v 3.31245 H 76.84305 v -5.78774 h 0.862993 v 0.49609 q 0.170532,-0.31006 0.423746,-0.47025 0.258381,-0.16537 0.583942,-0.16537 0.392739,0 0.651121,0.18087 0.263549,0.18087 0.408242,0.54777 z"
           style="font-size:medium;line-height:1.25;font-family:monospace;-inkscape-font-specification:monospace;fill:#0000ff"
           id="path5158" />
        <path
           d="m 86.279134,244.97664 h -0.315226 q -0.831987,0 -1.255733,0.29455 -0.418578,0.28939 -0.418578,0.86816 0,0.52193 0.315226,0.81132 0.315225,0.28939 0.873329,0.28939 0.785479,0 1.235062,-0.5426 0.449584,-0.54777 0.454751,-1.50895 v -0.21187 z m 1.844842,-0.39274 v 3.30211 h -0.956011 v -0.85782 q -0.304889,0.51676 -0.769976,0.7648 -0.459919,0.24288 -1.121375,0.24288 -0.883664,0 -1.410762,-0.49609 -0.527098,-0.50126 -0.527098,-1.33841 0,-0.96635 0.645953,-1.46761 0.651121,-0.50126 1.906855,-0.50126 h 1.276403 v -0.14986 q -0.0052,-0.69246 -0.351398,-1.00252 -0.346231,-0.31523 -1.105872,-0.31523 -0.485757,0 -0.981849,0.13953 -0.496093,0.13953 -0.966347,0.40824 v -0.95084 q 0.527098,-0.20154 1.007688,-0.29972 0.485757,-0.10336 0.940508,-0.10336 0.7183,0 1.224727,0.21188 0.511595,0.21187 0.826821,0.63561 0.196369,0.25839 0.279051,0.64079 0.08268,0.37724 0.08268,1.13688 z"
           style="font-size:medium;line-height:1.25;font-family:monospace;-inkscape-font-specification:monospace;fill:#0000ff"
           id="path5160" />
        <path
           d="m 92.325262,245.78796 q 0,0.64078 0.232543,0.96634 0.237711,0.32556 0.69763,0.32556 h 1.11104 v 0.80615 h -1.204057 q -0.852659,0 -1.322913,-0.54777 -0.465086,-0.54776 -0.465086,-1.55028 v -5.25548 h -1.52445 v -0.74414 h 2.475293 z"
           style="font-size:medium;line-height:1.25;font-family:monospace;-inkscape-font-specification:monospace;fill:#0000ff"
           id="path5162" />
        <path
           d="m 101.14123,244.75443 v 0.46509 h -4.118598 v 0.031 q 0,0.94568 0.490925,1.46244 0.496092,0.51676 1.395259,0.51676 0.454751,0 0.950843,-0.14469 0.496091,-0.14469 1.059361,-0.43925 v 0.94568 q -0.5426,0.22221 -1.049025,0.33073 -0.50126,0.11368 -0.971514,0.11368 -1.348751,0 -2.108392,-0.80615 -0.759641,-0.81131 -0.759641,-2.23241 0,-1.38493 0.744138,-2.21175 0.744138,-0.82682 1.984369,-0.82682 1.105872,0 1.741495,0.74931 0.64078,0.74931 0.64078,2.04638 z m -0.95084,-0.27905 q -0.0207,-0.83716 -0.39791,-1.27124 -0.372069,-0.43925 -1.074866,-0.43925 -0.687295,0 -1.13171,0.45475 -0.444416,0.45476 -0.527098,1.26091 z"
           style="font-size:medium;line-height:1.25;font-family:monospace;-inkscape-font-specification:monospace;fill:#0000ff"
           id="path5164" />
        <path
           d="m 155.23594,244.01029 q 0,-0.28422 0.19637,-0.49092 0.20154,-0.20671 0.48059,-0.20671 0.28939,0 0.49609,0.20671 0.20671,0.2067 0.20671,0.49092 0,0.28939 -0.20671,0.49093 -0.20154,0.20153 -0.49609,0.20153 -0.28939,0 -0.48576,-0.19637 -0.1912,-0.19637 -0.1912,-0.49609 z m 0.68729,-3.15225 q -0.72863,0 -1.09037,0.78548 -0.35656,0.78548 -0.35656,2.39261 0,1.60196 0.35656,2.38744 0.36174,0.78548 1.09037,0.78548 0.73381,0 1.09037,-0.78548 0.36174,-0.78548 0.36174,-2.38744 0,-1.60713 -0.36174,-2.39261 -0.35656,-0.78548 -1.09037,-0.78548 z m 0,-0.82682 q 1.23507,0 1.86552,1.01285 0.63562,1.01286 0.63562,2.99206 0,1.97403 -0.63562,2.98689 -0.63045,1.01285 -1.86552,1.01285 -1.23506,0 -1.86551,-1.01285 -0.63045,-1.01286 -0.63045,-2.98689 0,-1.9792 0.63045,-2.99206 0.63045,-1.01285 1.86551,-1.01285 z"
           style="font-size:medium;line-height:1.25;font-family:monospace;-inkscape-font-specification:monospace"
           id="path5166" />
        <path
           d="m 161.60763,244.01029 q 0,-0.28422 0.19637,-0.49092 0.20154,-0.20671 0.48059,-0.20671 0.28938,0 0.49609,0.20671 0.2067,0.2067 0.2067,0.49092 0,0.28939 -0.2067,0.49093 -0.20154,0.20153 -0.49609,0.20153 -0.28939,0 -0.48576,-0.19637 -0.1912,-0.19637 -0.1912,-0.49609 z m 0.68729,-3.15225 q -0.72863,0 -1.09037,0.78548 -0.35656,0.78548 -0.35656,2.39261 0,1.60196 0.35656,2.38744 0.36174,0.78548 1.09037,0.78548 0.73381,0 1.09037,-0.78548 0.36174,-0.78548 0.36174,-2.38744 0,-1.60713 -0.36174,-2.39261 -0.35656,-0.78548 -1.09037,-0.78548 z m 0,-0.82682 q 1.23507,0 1.86552,1.01285 0.63561,1.01286 0.63561,2.99206 0,1.97403 -0.63561,2.98689 -0.63045,1.01285 -1.86552,1.01285 -1.23506,0 -1.86551,-1.01285 -0.63045,-1.01286 -0.63045,-2.98689 0,-1.9792 0.63045,-2.99206 0.63045,-1.01285 1.86551,-1.01285 z"
           style="font-size:medium;line-height:1.25;font-family:monospace;-inkscape-font-specification:monospace"
           id="path5168" />
        <path
           d="m 166.87861,247.00752 h 1.62264 v -5.89627 l -1.74666,0.39274 v -0.95084 l 1.73632,-0.3824 h 1.04386 v 6.83677 h 1.60197 v 0.87849 h -4.25813 z"
           style="font-size:medium;line-height:1.25;font-family:monospace;-inkscape-font-specification:monospace;fill:#ff0000"
           id="path5170" />
        <path
           d="m 173.25029,247.00752 h 1.62263 v -5.89627 l -1.74666,0.39274 v -0.95084 l 1.73633,-0.3824 h 1.04386 v 6.83677 h 1.60196 v 0.87849 h -4.25812 z"
           style="font-size:medium;line-height:1.25;font-family:monospace;-inkscape-font-specification:monospace;fill:#ff0000"
           id="path5172" />
        <path
           d="m 179.62198,247.00752 h 1.62263 v -5.89627 l -1.74666,0.39274 v -0.95084 l 1.73632,-0.3824 h 1.04387 v 6.83677 h 1.60196 v 0.87849 h -4.25812 z"
           style="font-size:medium;line-height:1.25;font-family:monospace;-inkscape-font-specification:monospace;fill:#ff0000"
           id="path5174" />
        <path
           d="m 185.99366,247.00752 h 1.62264 v -5.89627 l -1.74666,0.39274 v -0.95084 l 1.73632,-0.3824 h 1.04386 v 6.83677 h 1.60197 v 0.87849 h -4.25813 z"
           style="font-size:medium;line-height:1.25;font-family:monospace;-inkscape-font-specification:monospace;fill:#ff0000"
           id="path5176" />
        <path
           d="m 193.46604,244.01029 q 0,-0.28422 0.19637,-0.49092 0.20154,-0.20671 0.48059,-0.20671 0.28939,0 0.49609,0.20671 0.20671,0.2067 0.20671,0.49092 0,0.28939 -0.20671,0.49093 -0.20153,0.20153 -0.49609,0.20153 -0.28939,0 -0.48576,-0.19637 -0.1912,-0.19637 -0.1912,-0.49609 z m 0.6873,-3.15225 q -0.72864,0 -1.09037,0.78548 -0.35657,0.78548 -0.35657,2.39261 0,1.60196 0.35657,2.38744 0.36173,0.78548 1.09037,0.78548 0.7338,0 1.09037,-0.78548 0.36173,-0.78548 0.36173,-2.38744 0,-1.60713 -0.36173,-2.39261 -0.35657,-0.78548 -1.09037,-0.78548 z m 0,-0.82682 q 1.23506,0 1.86551,1.01285 0.63562,1.01286 0.63562,2.99206 0,1.97403 -0.63562,2.98689 -0.63045,1.01285 -1.86551,1.01285 -1.23507,0 -1.86552,-1.01285 -0.63045,-1.01286 -0.63045,-2.98689 0,-1.9792 0.63045,-2.99206 0.63045,-1.01285 1.86552,-1.01285 z"
           style="font-size:medium;line-height:1.25;font-family:monospace;-inkscape-font-specification:monospace"
           id="path5178" />
        <path
           d="m 198.73703,247.00752 h 1.62263 v -5.89627 l -1.74666,0.39274 v -0.95084 l 1.73633,-0.3824 h 1.04386 v 6.83677 h 1.60196 v 0.87849 h -4.25812 z"
           style="font-size:medium;line-height:1.25;font-family:monospace;-inkscape-font-specification:monospace;fill:#ff0000"
           id="path5180" />
        <path
           d="m 205.10872,247.00752 h 1.62263 v -5.89627 l -1.74666,0.39274 v -0.95084 l 1.73632,-0.3824 h 1.04387 v 6.83677 h 1.60196 v 0.87849 h -4.25812 z"
           style="font-size:medium;line-height:1.25;font-family:monospace;-inkscape-font-specification:monospace;fill:#ff0000"
           id="path5182" />
        <path
           d="m 212.58109,244.01029 q 0,-0.28422 0.19637,-0.49092 0.20154,-0.20671 0.48059,-0.20671 0.28939,0 0.49609,0.20671 0.20671,0.2067 0.20671,0.49092 0,0.28939 -0.20671,0.49093 -0.20153,0.20153 -0.49609,0.20153 -0.28938,0 -0.48575,-0.19637 -0.19121,-0.19637 -0.19121,-0.49609 z m 0.6873,-3.15225 q -0.72864,0 -1.09037,0.78548 -0.35657,0.78548 -0.35657,2.39261 0,1.60196 0.35657,2.38744 0.36173,0.78548 1.09037,0.78548 0.7338,0 1.09037,-0.78548 0.36173,-0.78548 0.36173,-2.38744 0,-1.60713 -0.36173,-2.39261 -0.35657,-0.78548 -1.09037,-0.78548 z m 0,-0.82682 q 1.23506,0 1.86551,1.01285 0.63562,1.01286 0.63562,2.99206 0,1.97403 -0.63562,2.98689 -0.63045,1.01285 -1.86551,1.01285 -1.23506,0 -1.86552,-1.01285 -0.63045,-1.01286 -0.63045,-2.98689 0,-1.9792 0.63045,-2.99206 0.63046,-1.01285 1.86552,-1.01285 z"
           style="font-size:medium;line-height:1.25;font-family:monospace;-inkscape-font-specification:monospace"
           id="path5184" />
        <path
           d="m 218.95278,244.01029 q 0,-0.28422 0.19637,-0.49092 0.20154,-0.20671 0.48059,-0.20671 0.28939,0 0.49609,0.20671 0.20671,0.2067 0.20671,0.49092 0,0.28939 -0.20671,0.49093 -0.20153,0.20153 -0.49609,0.20153 -0.28939,0 -0.48576,-0.19637 -0.1912,-0.19637 -0.1912,-0.49609 z m 0.6873,-3.15225 q -0.72864,0 -1.09037,0.78548 -0.35657,0.78548 -0.35657,2.39261 0,1.60196 0.35657,2.38744 0.36173,0.78548 1.09037,0.78548 0.7338,0 1.09037,-0.78548 0.36173,-0.78548 0.36173,-2.38744 0,-1.60713 -0.36173,-2.39261 -0.35657,-0.78548 -1.09037,-0.78548 z m 0,-0.82682 q 1.23506,0 1.86551,1.01285 0.63562,1.01286 0.63562,2.99206 0,1.97403 -0.63562,2.98689 -0.63045,1.01285 -1.86551,1.01285 -1.23507,0 -1.86552,-1.01285 -0.63045,-1.01286 -0.63045,-2.98689 0,-1.9792 0.63045,-2.99206 0.63045,-1.01285 1.86552,-1.01285 z"
           style="font-size:medium;line-height:1.25;font-family:monospace;-inkscape-font-specification:monospace"
           id="path5186" />
        <path
           d="m 224.22377,247.00752 h 1.62263 v -5.89627 l -1.74666,0.39274 v -0.95084 l 1.73633,-0.3824 h 1.04386 v 6.83677 h 1.60196 v 0.87849 h -4.25812 z"
           style="font-size:medium;line-height:1.25;font-family:monospace;-inkscape-font-specification:monospace;fill:#ff0000"
           id="path5188" />
        <path
           d="m 231.69614,244.01029 q 0,-0.28422 0.19637,-0.49092 0.20154,-0.20671 0.48059,-0.20671 0.28939,0 0.4961,0.20671 0.2067,0.2067 0.2067,0.49092 0,0.28939 -0.2067,0.49093 -0.20154,0.20153 -0.4961,0.20153 -0.28938,0 -0.48575,-0.19637 -0.19121,-0.19637 -0.19121,-0.49609 z m 0.6873,-3.15225 q -0.72864,0 -1.09037,0.78548 -0.35657,0.78548 -0.35657,2.39261 0,1.60196 0.35657,2.38744 0.36173,0.78548 1.09037,0.78548 0.7338,0 1.09037,-0.78548 0.36173,-0.78548 0.36173,-2.38744 0,-1.60713 -0.36173,-2.39261 -0.35657,-0.78548 -1.09037,-0.78548 z m 0,-0.82682 q 1.23506,0 1.86551,1.01285 0.63562,1.01286 0.63562,2.99206 0,1.97403 -0.63562,2.98689 -0.63045,1.01285 -1.86551,1.01285 -1.23506,0 -1.86551,-1.01285 -0.63045,-1.01286 -0.63045,-2.98689 0,-1.9792 0.63045,-2.99206 0.63045,-1.01285 1.86551,-1.01285 z"
           style="font-size:medium;line-height:1.25;font-family:monospace;-inkscape-font-specification:monospace"
           id="path5190" />
        <path
           d="m 238.06783,244.01029 q 0,-0.28422 0.19637,-0.49092 0.20154,-0.20671 0.48059,-0.20671 0.28939,0 0.49609,0.20671 0.20671,0.2067 0.20671,0.49092 0,0.28939 -0.20671,0.49093 -0.20153,0.20153 -0.49609,0.20153 -0.28938,0 -0.48575,-0.19637 -0.19121,-0.19637 -0.19121,-0.49609 z m 0.6873,-3.15225 q -0.72864,0 -1.09037,0.78548 -0.35657,0.78548 -0.35657,2.39261 0,1.60196 0.35657,2.38744 0.36173,0.78548 1.09037,0.78548 0.7338,0 1.09037,-0.78548 0.36173,-0.78548 0.36173,-2.38744 0,-1.60713 -0.36173,-2.39261 -0.35657,-0.78548 -1.09037,-0.78548 z m 0,-0.82682 q 1.23506,0 1.86551,1.01285 0.63562,1.01286 0.63562,2.99206 0,1.97403 -0.63562,2.98689 -0.63045,1.01285 -1.86551,1.01285 -1.23506,0 -1.86552,-1.01285 -0.63045,-1.01286 -0.63045,-2.98689 0,-1.9792 0.63045,-2.99206 0.63046,-1.01285 1.86552,-1.01285 z"
           style="font-size:medium;line-height:1.25;font-family:monospace;-inkscape-font-specification:monospace"
           id="path5192" />
        <path
           d="m 243.33882,247.00752 h 1.62263 v -5.89627 l -1.74666,0.39274 v -0.95084 l 1.73633,-0.3824 h 1.04386 v 6.83677 h 1.60196 v 0.87849 h -4.25812 z"
           style="font-size:medium;line-height:1.25;font-family:monospace;-inkscape-font-specification:monospace;fill:#ff0000"
           id="path5194" />
        <path
           d="m 249.71049,247.00752 h 1.62264 v -5.89627 l -1.74666,0.39274 v -0.95084 l 1.73632,-0.3824 h 1.04386 v 6.83677 h 1.60197 v 0.87849 h -4.25813 z"
           style="font-size:medium;line-height:1.25;font-family:monospace;-inkscape-font-specification:monospace;fill:#ff0000"
           id="path5196" />
        <path
           d="m 257.18288,244.01029 q 0,-0.28422 0.19637,-0.49092 0.20154,-0.20671 0.48059,-0.20671 0.28939,0 0.4961,0.20671 0.2067,0.2067 0.2067,0.49092 0,0.28939 -0.2067,0.49093 -0.20154,0.20153 -0.4961,0.20153 -0.28938,0 -0.48575,-0.19637 -0.19121,-0.19637 -0.19121,-0.49609 z m 0.6873,-3.15225 q -0.72864,0 -1.09037,0.78548 -0.35657,0.78548 -0.35657,2.39261 0,1.60196 0.35657,2.38744 0.36173,0.78548 1.09037,0.78548 0.7338,0 1.09037,-0.78548 0.36173,-0.78548 0.36173,-2.38744 0,-1.60713 -0.36173,-2.39261 -0.35657,-0.78548 -1.09037,-0.78548 z m 0,-0.82682 q 1.23506,0 1.86551,1.01285 0.63562,1.01286 0.63562,2.99206 0,1.97403 -0.63562,2.98689 -0.63045,1.01285 -1.86551,1.01285 -1.23506,0 -1.86551,-1.01285 -0.63045,-1.01286 -0.63045,-2.98689 0,-1.9792 0.63045,-2.99206 0.63045,-1.01285 1.86551,-1.01285 z"
           style="font-size:medium;line-height:1.25;font-family:monospace;-inkscape-font-specification:monospace"
           id="path5198" />
        <path
           d="m 262.45387,247.00752 h 1.62263 v -5.89627 l -1.74665,0.39274 v -0.95084 l 1.73632,-0.3824 h 1.04386 v 6.83677 h 1.60196 v 0.87849 h -4.25812 z"
           style="font-size:medium;line-height:1.25;font-family:monospace;-inkscape-font-specification:monospace;fill:#ff0000"
           id="path5200" />
        <path
           d="m 268.82554,247.00752 h 1.62264 v -5.89627 l -1.74666,0.39274 v -0.95084 l 1.73632,-0.3824 h 1.04386 v 6.83677 h 1.60197 v 0.87849 h -4.25813 z"
           style="font-size:medium;line-height:1.25;font-family:monospace;-inkscape-font-specification:monospace;fill:#ff0000"
           id="path5202" />
        <path
           d="m 275.19722,247.00752 h 1.62263 v -5.89627 l -1.74666,0.39274 v -0.95084 l 1.73633,-0.3824 h 1.04386 v 6.83677 h 1.60196 v 0.87849 h -4.25812 z"
           style="font-size:medium;line-height:1.25;font-family:monospace;-inkscape-font-specification:monospace;fill:#ff0000"
           id="path5204" />
        <path
           d="m 282.66962,244.01029 q 0,-0.28422 0.19637,-0.49092 0.20154,-0.20671 0.48059,-0.20671 0.28939,0 0.4961,0.20671 0.2067,0.2067 0.2067,0.49092 0,0.28939 -0.2067,0.49093 -0.20154,0.20153 -0.4961,0.20153 -0.28938,0 -0.48575,-0.19637 -0.19121,-0.19637 -0.19121,-0.49609 z m 0.6873,-3.15225 q -0.72864,0 -1.09037,0.78548 -0.35657,0.78548 -0.35657,2.39261 0,1.60196 0.35657,2.38744 0.36173,0.78548 1.09037,0.78548 0.7338,0 1.09037,-0.78548 0.36173,-0.78548 0.36173,-2.38744 0,-1.60713 -0.36173,-2.39261 -0.35657,-0.78548 -1.09037,-0.78548 z m 0,-0.82682 q 1.23506,0 1.86551,1.01285 0.63562,1.01286 0.63562,2.99206 0,1.97403 -0.63562,2.98689 -0.63045,1.01285 -1.86551,1.01285 -1.23506,0 -1.86551,-1.01285 -0.63045,-1.01286 -0.63045,-2.98689 0,-1.9792 0.63045,-2.99206 0.63045,-1.01285 1.86551,-1.01285 z"
           style="font-size:medium;line-height:1.25;font-family:monospace;-inkscape-font-specification:monospace"
           id="path5206" />
      </g>
      <path
         style="font-variation-settings:normal;fill:none;fill-opacity:1;stroke:#000000;stroke-width:0.529166;stroke-linecap:butt;stroke-linejoin:miter;stroke-miterlimit:4;stroke-dasharray:none;stroke-dashoffset:0;stroke-opacity:1;stop-color:#000000"
         d="M 139.77348,237.39133 H 285.85805"
         id="path1597360" />
    </g>
  </g>
</svg>
