<?xml version="1.0" encoding="UTF-8" standalone="no"?>
<!-- Created with Inkscape (http://www.inkscape.org/) -->

<svg
   width="272.73184mm"
   height="21.529573mm"
   viewBox="0 0 272.73184 21.529573"
   version="1.1"
   id="svg5668"
   inkscape:version="1.2-dev (9a006c9b6a, 2021-07-31)"
   sodipodi:docname="3_complement.svg"
   xmlns:inkscape="http://www.inkscape.org/namespaces/inkscape"
   xmlns:sodipodi="http://sodipodi.sourceforge.net/DTD/sodipodi-0.dtd"
   xmlns="http://www.w3.org/2000/svg"
   xmlns:svg="http://www.w3.org/2000/svg">
  <sodipodi:namedview
     id="namedview5670"
     pagecolor="#505050"
     bordercolor="#ffffff"
     borderopacity="1"
     inkscape:pageshadow="0"
     inkscape:pageopacity="0"
     inkscape:pagecheckerboard="1"
     inkscape:document-units="mm"
     showgrid="false"
     fit-margin-top="0"
     fit-margin-left="0"
     fit-margin-right="0"
     fit-margin-bottom="0"
     inkscape:zoom="0.77058782"
     inkscape:cx="516.48883"
     inkscape:cy="182.9772"
     inkscape:window-width="1920"
     inkscape:window-height="1011"
     inkscape:window-x="1920"
     inkscape:window-y="32"
     inkscape:window-maximized="1"
     inkscape:current-layer="layer1" />
  <defs
     id="defs5665" />
  <g
     inkscape:label="Layer 1"
     inkscape:groupmode="layer"
     id="layer1"
     transform="translate(15.505803,-77.133473)">
    <g
       id="g1597511"
       transform="translate(-28.632018,-195.97839)">
      <g
         aria-label="male                ~ 000110011000001000000
NOT male              111001100111110111111"
         id="text1142549"
         style="font-size:10.5833px;line-height:0;stroke-width:0.264583">
        <path
           d="m 16.056259,276.0109 q 0.175699,-0.37207 0.444416,-0.54777 0.273884,-0.18086 0.656289,-0.18086 0.697629,0 0.981849,0.5426 0.289387,0.53743 0.289387,2.03087 v 3.35379 h -0.868161 v -3.31245 q 0,-1.22472 -0.139526,-1.51928 -0.134359,-0.29972 -0.496093,-0.29972 -0.41341,0 -0.568438,0.32039 -0.149862,0.31523 -0.149862,1.49861 v 3.31245 h -0.868161 v -3.31245 q 0,-1.24023 -0.149861,-1.52961 -0.144694,-0.28939 -0.527098,-0.28939 -0.377237,0 -0.527098,0.32039 -0.144694,0.31523 -0.144694,1.49861 v 3.31245 h -0.862993 v -5.78774 h 0.862993 v 0.49609 q 0.170532,-0.31005 0.423746,-0.47025 0.258381,-0.16536 0.583942,-0.16536 0.392739,0 0.651121,0.18086 0.263549,0.18087 0.408242,0.54777 z"
           style="font-size:medium;line-height:126%;font-family:monospace;-inkscape-font-specification:monospace;fill:#0000ff"
           id="path5798" />
        <path
           d="m 22.562301,278.30016 h -0.315225 q -0.831988,0 -1.255733,0.29455 -0.418578,0.28939 -0.418578,0.86817 0,0.52193 0.315225,0.81131 0.315225,0.28939 0.873329,0.28939 0.785479,0 1.235063,-0.5426 0.449583,-0.54777 0.454751,-1.50895 v -0.21187 z m 1.844843,-0.39274 v 3.30211 h -0.956011 v -0.85782 q -0.30489,0.51676 -0.769977,0.76481 -0.459918,0.24287 -1.121375,0.24287 -0.883664,0 -1.410762,-0.49609 -0.527098,-0.50126 -0.527098,-1.33841 0,-0.96635 0.645954,-1.46761 0.651121,-0.50126 1.906854,-0.50126 h 1.276404 v -0.14986 q -0.0052,-0.69246 -0.351399,-1.00252 -0.346231,-0.31522 -1.105872,-0.31522 -0.485757,0 -0.981849,0.13952 -0.496092,0.13953 -0.966346,0.40824 v -0.95084 q 0.527098,-0.20154 1.007687,-0.29972 0.485757,-0.10335 0.940508,-0.10335 0.7183,0 1.224728,0.21187 0.511595,0.21187 0.82682,0.63562 0.19637,0.25838 0.279052,0.64078 0.08268,0.37724 0.08268,1.13688 z"
           style="font-size:medium;line-height:126%;font-family:monospace;-inkscape-font-specification:monospace;fill:#0000ff"
           id="path5800" />
        <path
           d="m 28.608424,279.11148 q 0,0.64078 0.232543,0.96634 0.237711,0.32556 0.69763,0.32556 h 1.11104 v 0.80615 H 29.44558 q -0.852659,0 -1.322913,-0.54776 -0.465086,-0.54777 -0.465086,-1.55029 V 273.856 h -1.52445 v -0.74414 h 2.475293 z"
           style="font-size:medium;line-height:126%;font-family:monospace;-inkscape-font-specification:monospace;fill:#0000ff"
           id="path5802" />
        <path
           d="m 37.424396,278.07795 v 0.46509 h -4.118599 v 0.031 q 0,0.94568 0.490925,1.46244 0.496092,0.51677 1.395259,0.51677 0.454751,0 0.950843,-0.1447 0.496092,-0.14469 1.059364,-0.43925 v 0.94568 q -0.542601,0.22221 -1.049028,0.33073 -0.50126,0.11368 -0.971514,0.11368 -1.348751,0 -2.108392,-0.80614 -0.759641,-0.81132 -0.759641,-2.23242 0,-1.38492 0.744138,-2.21174 0.744138,-0.82682 1.984369,-0.82682 1.105872,0 1.74149,0.7493 0.640786,0.74931 0.640786,2.04638 z m -0.950844,-0.27905 q -0.02067,-0.83716 -0.397907,-1.27124 -0.372069,-0.43924 -1.074866,-0.43924 -0.687295,0 -1.131711,0.45475 -0.444415,0.45475 -0.527097,1.2609 z"
           style="font-size:medium;line-height:126%;font-family:monospace;-inkscape-font-specification:monospace;fill:#0000ff"
           id="path5804" />
        <path
           d="m 145.91355,277.17878 v 0.89917 q -0.38758,0.30489 -0.75964,0.44959 -0.36691,0.13952 -0.77515,0.13952 -0.46509,0 -1.04903,-0.26355 -0.11369,-0.0517 -0.17053,-0.0723 -0.39791,-0.17054 -0.66662,-0.23255 -0.26355,-0.062 -0.5271,-0.062 -0.40824,0 -0.77514,0.15503 -0.36174,0.14986 -0.73898,0.47542 v -0.89917 q 0.40308,-0.31005 0.78032,-0.44958 0.37723,-0.13953 0.80615,-0.13953 0.27388,0 0.53226,0.0568 0.25838,0.0568 0.64079,0.21704 0.062,0.0258 0.17053,0.0775 0.59944,0.28422 1.08003,0.28422 0.36174,0 0.71314,-0.15503 0.35656,-0.16019 0.73897,-0.48059 z"
           style="font-size:medium;line-height:126%;font-family:monospace;-inkscape-font-specification:monospace"
           id="path5806" />
        <path
           d="m 155.23594,277.33381 q 0,-0.28422 0.19637,-0.49092 0.20154,-0.20671 0.48059,-0.20671 0.28939,0 0.49609,0.20671 0.20671,0.2067 0.20671,0.49092 0,0.28939 -0.20671,0.49093 -0.20154,0.20154 -0.49609,0.20154 -0.28939,0 -0.48576,-0.19637 -0.1912,-0.19637 -0.1912,-0.4961 z m 0.68729,-3.15225 q -0.72863,0 -1.09037,0.78548 -0.35656,0.78548 -0.35656,2.39261 0,1.60197 0.35656,2.38745 0.36174,0.78547 1.09037,0.78547 0.73381,0 1.09037,-0.78547 0.36174,-0.78548 0.36174,-2.38745 0,-1.60713 -0.36174,-2.39261 -0.35656,-0.78548 -1.09037,-0.78548 z m 0,-0.82682 q 1.23507,0 1.86552,1.01286 0.63562,1.01285 0.63562,2.99205 0,1.97404 -0.63562,2.98689 -0.63045,1.01285 -1.86552,1.01285 -1.23506,0 -1.86551,-1.01285 -0.63045,-1.01285 -0.63045,-2.98689 0,-1.9792 0.63045,-2.99205 0.63045,-1.01286 1.86551,-1.01286 z"
           style="font-size:medium;line-height:126%;font-family:monospace;-inkscape-font-specification:monospace"
           id="path5808" />
        <path
           d="m 161.60763,277.33381 q 0,-0.28422 0.19637,-0.49092 0.20154,-0.20671 0.48059,-0.20671 0.28938,0 0.49609,0.20671 0.2067,0.2067 0.2067,0.49092 0,0.28939 -0.2067,0.49093 -0.20154,0.20154 -0.49609,0.20154 -0.28939,0 -0.48576,-0.19637 -0.1912,-0.19637 -0.1912,-0.4961 z m 0.68729,-3.15225 q -0.72863,0 -1.09037,0.78548 -0.35656,0.78548 -0.35656,2.39261 0,1.60197 0.35656,2.38745 0.36174,0.78547 1.09037,0.78547 0.73381,0 1.09037,-0.78547 0.36174,-0.78548 0.36174,-2.38745 0,-1.60713 -0.36174,-2.39261 -0.35656,-0.78548 -1.09037,-0.78548 z m 0,-0.82682 q 1.23507,0 1.86552,1.01286 0.63561,1.01285 0.63561,2.99205 0,1.97404 -0.63561,2.98689 -0.63045,1.01285 -1.86552,1.01285 -1.23506,0 -1.86551,-1.01285 -0.63045,-1.01285 -0.63045,-2.98689 0,-1.9792 0.63045,-2.99205 0.63045,-1.01286 1.86551,-1.01286 z"
           style="font-size:medium;line-height:126%;font-family:monospace;-inkscape-font-specification:monospace"
           id="path5810" />
        <path
           d="m 167.97932,277.33381 q 0,-0.28422 0.19637,-0.49092 0.20153,-0.20671 0.48059,-0.20671 0.28938,0 0.49609,0.20671 0.2067,0.2067 0.2067,0.49092 0,0.28939 -0.2067,0.49093 -0.20154,0.20154 -0.49609,0.20154 -0.28939,0 -0.48576,-0.19637 -0.1912,-0.19637 -0.1912,-0.4961 z m 0.68729,-3.15225 q -0.72863,0 -1.09037,0.78548 -0.35656,0.78548 -0.35656,2.39261 0,1.60197 0.35656,2.38745 0.36174,0.78547 1.09037,0.78547 0.7338,0 1.09037,-0.78547 0.36173,-0.78548 0.36173,-2.38745 0,-1.60713 -0.36173,-2.39261 -0.35657,-0.78548 -1.09037,-0.78548 z m 0,-0.82682 q 1.23506,0 1.86551,1.01286 0.63562,1.01285 0.63562,2.99205 0,1.97404 -0.63562,2.98689 -0.63045,1.01285 -1.86551,1.01285 -1.23506,0 -1.86551,-1.01285 -0.63045,-1.01285 -0.63045,-2.98689 0,-1.9792 0.63045,-2.99205 0.63045,-1.01286 1.86551,-1.01286 z"
           style="font-size:medium;line-height:126%;font-family:monospace;-inkscape-font-specification:monospace"
           id="path5812" />
        <path
           d="m 173.25029,280.33104 h 1.62263 v -5.89627 l -1.74666,0.39274 v -0.95084 l 1.73633,-0.3824 h 1.04386 v 6.83677 h 1.60196 v 0.87849 h -4.25812 z"
           style="font-size:medium;line-height:126%;font-family:monospace;-inkscape-font-specification:monospace;fill:#ff0000"
           id="path5814" />
        <path
           d="m 179.62198,280.33104 h 1.62263 v -5.89627 l -1.74666,0.39274 v -0.95084 l 1.73632,-0.3824 h 1.04387 v 6.83677 h 1.60196 v 0.87849 h -4.25812 z"
           style="font-size:medium;line-height:126%;font-family:monospace;-inkscape-font-specification:monospace;fill:#ff0000"
           id="path5816" />
        <path
           d="m 187.09437,277.33381 q 0,-0.28422 0.19637,-0.49092 0.20154,-0.20671 0.48059,-0.20671 0.28938,0 0.49609,0.20671 0.2067,0.2067 0.2067,0.49092 0,0.28939 -0.2067,0.49093 -0.20154,0.20154 -0.49609,0.20154 -0.28939,0 -0.48576,-0.19637 -0.1912,-0.19637 -0.1912,-0.4961 z m 0.68729,-3.15225 q -0.72863,0 -1.09037,0.78548 -0.35656,0.78548 -0.35656,2.39261 0,1.60197 0.35656,2.38745 0.36174,0.78547 1.09037,0.78547 0.73381,0 1.09037,-0.78547 0.36174,-0.78548 0.36174,-2.38745 0,-1.60713 -0.36174,-2.39261 -0.35656,-0.78548 -1.09037,-0.78548 z m 0,-0.82682 q 1.23507,0 1.86552,1.01286 0.63561,1.01285 0.63561,2.99205 0,1.97404 -0.63561,2.98689 -0.63045,1.01285 -1.86552,1.01285 -1.23506,0 -1.86551,-1.01285 -0.63045,-1.01285 -0.63045,-2.98689 0,-1.9792 0.63045,-2.99205 0.63045,-1.01286 1.86551,-1.01286 z"
           style="font-size:medium;line-height:126%;font-family:monospace;-inkscape-font-specification:monospace"
           id="path5818" />
        <path
           d="m 193.46604,277.33381 q 0,-0.28422 0.19637,-0.49092 0.20154,-0.20671 0.48059,-0.20671 0.28939,0 0.49609,0.20671 0.20671,0.2067 0.20671,0.49092 0,0.28939 -0.20671,0.49093 -0.20153,0.20154 -0.49609,0.20154 -0.28939,0 -0.48576,-0.19637 -0.1912,-0.19637 -0.1912,-0.4961 z m 0.6873,-3.15225 q -0.72864,0 -1.09037,0.78548 -0.35657,0.78548 -0.35657,2.39261 0,1.60197 0.35657,2.38745 0.36173,0.78547 1.09037,0.78547 0.7338,0 1.09037,-0.78547 0.36173,-0.78548 0.36173,-2.38745 0,-1.60713 -0.36173,-2.39261 -0.35657,-0.78548 -1.09037,-0.78548 z m 0,-0.82682 q 1.23506,0 1.86551,1.01286 0.63562,1.01285 0.63562,2.99205 0,1.97404 -0.63562,2.98689 -0.63045,1.01285 -1.86551,1.01285 -1.23507,0 -1.86552,-1.01285 -0.63045,-1.01285 -0.63045,-2.98689 0,-1.9792 0.63045,-2.99205 0.63045,-1.01286 1.86552,-1.01286 z"
           style="font-size:medium;line-height:126%;font-family:monospace;-inkscape-font-specification:monospace"
           id="path5820" />
        <path
           d="m 198.73703,280.33104 h 1.62263 v -5.89627 l -1.74666,0.39274 v -0.95084 l 1.73633,-0.3824 h 1.04386 v 6.83677 h 1.60196 v 0.87849 h -4.25812 z"
           style="font-size:medium;line-height:126%;font-family:monospace;-inkscape-font-specification:monospace;fill:#ff0000"
           id="path5822" />
        <path
           d="m 205.10872,280.33104 h 1.62263 v -5.89627 l -1.74666,0.39274 v -0.95084 l 1.73632,-0.3824 h 1.04387 v 6.83677 h 1.60196 v 0.87849 h -4.25812 z"
           style="font-size:medium;line-height:126%;font-family:monospace;-inkscape-font-specification:monospace;fill:#ff0000"
           id="path5824" />
        <path
           d="m 212.58109,277.33381 q 0,-0.28422 0.19637,-0.49092 0.20154,-0.20671 0.48059,-0.20671 0.28939,0 0.49609,0.20671 0.20671,0.2067 0.20671,0.49092 0,0.28939 -0.20671,0.49093 -0.20153,0.20154 -0.49609,0.20154 -0.28938,0 -0.48575,-0.19637 -0.19121,-0.19637 -0.19121,-0.4961 z m 0.6873,-3.15225 q -0.72864,0 -1.09037,0.78548 -0.35657,0.78548 -0.35657,2.39261 0,1.60197 0.35657,2.38745 0.36173,0.78547 1.09037,0.78547 0.7338,0 1.09037,-0.78547 0.36173,-0.78548 0.36173,-2.38745 0,-1.60713 -0.36173,-2.39261 -0.35657,-0.78548 -1.09037,-0.78548 z m 0,-0.82682 q 1.23506,0 1.86551,1.01286 0.63562,1.01285 0.63562,2.99205 0,1.97404 -0.63562,2.98689 -0.63045,1.01285 -1.86551,1.01285 -1.23506,0 -1.86552,-1.01285 -0.63045,-1.01285 -0.63045,-2.98689 0,-1.9792 0.63045,-2.99205 0.63046,-1.01286 1.86552,-1.01286 z"
           style="font-size:medium;line-height:126%;font-family:monospace;-inkscape-font-specification:monospace"
           id="path5826" />
        <path
           d="m 218.95278,277.33381 q 0,-0.28422 0.19637,-0.49092 0.20154,-0.20671 0.48059,-0.20671 0.28939,0 0.49609,0.20671 0.20671,0.2067 0.20671,0.49092 0,0.28939 -0.20671,0.49093 -0.20153,0.20154 -0.49609,0.20154 -0.28939,0 -0.48576,-0.19637 -0.1912,-0.19637 -0.1912,-0.4961 z m 0.6873,-3.15225 q -0.72864,0 -1.09037,0.78548 -0.35657,0.78548 -0.35657,2.39261 0,1.60197 0.35657,2.38745 0.36173,0.78547 1.09037,0.78547 0.7338,0 1.09037,-0.78547 0.36173,-0.78548 0.36173,-2.38745 0,-1.60713 -0.36173,-2.39261 -0.35657,-0.78548 -1.09037,-0.78548 z m 0,-0.82682 q 1.23506,0 1.86551,1.01286 0.63562,1.01285 0.63562,2.99205 0,1.97404 -0.63562,2.98689 -0.63045,1.01285 -1.86551,1.01285 -1.23507,0 -1.86552,-1.01285 -0.63045,-1.01285 -0.63045,-2.98689 0,-1.9792 0.63045,-2.99205 0.63045,-1.01286 1.86552,-1.01286 z"
           style="font-size:medium;line-height:126%;font-family:monospace;-inkscape-font-specification:monospace"
           id="path5828" />
        <path
           d="m 225.32447,277.33381 q 0,-0.28422 0.19637,-0.49092 0.20154,-0.20671 0.48059,-0.20671 0.28939,0 0.49609,0.20671 0.20671,0.2067 0.20671,0.49092 0,0.28939 -0.20671,0.49093 -0.20154,0.20154 -0.49609,0.20154 -0.28939,0 -0.48576,-0.19637 -0.1912,-0.19637 -0.1912,-0.4961 z m 0.6873,-3.15225 q -0.72864,0 -1.09037,0.78548 -0.35657,0.78548 -0.35657,2.39261 0,1.60197 0.35657,2.38745 0.36173,0.78547 1.09037,0.78547 0.7338,0 1.09036,-0.78547 0.36174,-0.78548 0.36174,-2.38745 0,-1.60713 -0.36174,-2.39261 -0.35656,-0.78548 -1.09036,-0.78548 z m 0,-0.82682 q 1.23506,0 1.86551,1.01286 0.63562,1.01285 0.63562,2.99205 0,1.97404 -0.63562,2.98689 -0.63045,1.01285 -1.86551,1.01285 -1.23507,0 -1.86552,-1.01285 -0.63045,-1.01285 -0.63045,-2.98689 0,-1.9792 0.63045,-2.99205 0.63045,-1.01286 1.86552,-1.01286 z"
           style="font-size:medium;line-height:126%;font-family:monospace;-inkscape-font-specification:monospace"
           id="path5830" />
        <path
           d="m 231.69614,277.33381 q 0,-0.28422 0.19637,-0.49092 0.20154,-0.20671 0.48059,-0.20671 0.28939,0 0.4961,0.20671 0.2067,0.2067 0.2067,0.49092 0,0.28939 -0.2067,0.49093 -0.20154,0.20154 -0.4961,0.20154 -0.28938,0 -0.48575,-0.19637 -0.19121,-0.19637 -0.19121,-0.4961 z m 0.6873,-3.15225 q -0.72864,0 -1.09037,0.78548 -0.35657,0.78548 -0.35657,2.39261 0,1.60197 0.35657,2.38745 0.36173,0.78547 1.09037,0.78547 0.7338,0 1.09037,-0.78547 0.36173,-0.78548 0.36173,-2.38745 0,-1.60713 -0.36173,-2.39261 -0.35657,-0.78548 -1.09037,-0.78548 z m 0,-0.82682 q 1.23506,0 1.86551,1.01286 0.63562,1.01285 0.63562,2.99205 0,1.97404 -0.63562,2.98689 -0.63045,1.01285 -1.86551,1.01285 -1.23506,0 -1.86551,-1.01285 -0.63045,-1.01285 -0.63045,-2.98689 0,-1.9792 0.63045,-2.99205 0.63045,-1.01286 1.86551,-1.01286 z"
           style="font-size:medium;line-height:126%;font-family:monospace;-inkscape-font-specification:monospace"
           id="path5832" />
        <path
           d="m 238.06783,277.33381 q 0,-0.28422 0.19637,-0.49092 0.20154,-0.20671 0.48059,-0.20671 0.28939,0 0.49609,0.20671 0.20671,0.2067 0.20671,0.49092 0,0.28939 -0.20671,0.49093 -0.20153,0.20154 -0.49609,0.20154 -0.28938,0 -0.48575,-0.19637 -0.19121,-0.19637 -0.19121,-0.4961 z m 0.6873,-3.15225 q -0.72864,0 -1.09037,0.78548 -0.35657,0.78548 -0.35657,2.39261 0,1.60197 0.35657,2.38745 0.36173,0.78547 1.09037,0.78547 0.7338,0 1.09037,-0.78547 0.36173,-0.78548 0.36173,-2.38745 0,-1.60713 -0.36173,-2.39261 -0.35657,-0.78548 -1.09037,-0.78548 z m 0,-0.82682 q 1.23506,0 1.86551,1.01286 0.63562,1.01285 0.63562,2.99205 0,1.97404 -0.63562,2.98689 -0.63045,1.01285 -1.86551,1.01285 -1.23506,0 -1.86552,-1.01285 -0.63045,-1.01285 -0.63045,-2.98689 0,-1.9792 0.63045,-2.99205 0.63046,-1.01286 1.86552,-1.01286 z"
           style="font-size:medium;line-height:126%;font-family:monospace;-inkscape-font-specification:monospace"
           id="path5834" />
        <path
           d="m 243.33882,280.33104 h 1.62263 v -5.89627 l -1.74666,0.39274 v -0.95084 l 1.73633,-0.3824 h 1.04386 v 6.83677 h 1.60196 v 0.87849 h -4.25812 z"
           style="font-size:medium;line-height:126%;font-family:monospace;-inkscape-font-specification:monospace;fill:#ff0000"
           id="path5836" />
        <path
           d="m 250.8112,277.33381 q 0,-0.28422 0.19637,-0.49092 0.20153,-0.20671 0.48059,-0.20671 0.28938,0 0.49609,0.20671 0.2067,0.2067 0.2067,0.49092 0,0.28939 -0.2067,0.49093 -0.20154,0.20154 -0.49609,0.20154 -0.28939,0 -0.48576,-0.19637 -0.1912,-0.19637 -0.1912,-0.4961 z m 0.68729,-3.15225 q -0.72864,0 -1.09037,0.78548 -0.35657,0.78548 -0.35657,2.39261 0,1.60197 0.35657,2.38745 0.36173,0.78547 1.09037,0.78547 0.7338,0 1.09037,-0.78547 0.36173,-0.78548 0.36173,-2.38745 0,-1.60713 -0.36173,-2.39261 -0.35657,-0.78548 -1.09037,-0.78548 z m 0,-0.82682 q 1.23506,0 1.86551,1.01286 0.63562,1.01285 0.63562,2.99205 0,1.97404 -0.63562,2.98689 -0.63045,1.01285 -1.86551,1.01285 -1.23506,0 -1.86551,-1.01285 -0.63045,-1.01285 -0.63045,-2.98689 0,-1.9792 0.63045,-2.99205 0.63045,-1.01286 1.86551,-1.01286 z"
           style="font-size:medium;line-height:126%;font-family:monospace;-inkscape-font-specification:monospace"
           id="path5838" />
        <path
           d="m 257.18288,277.33381 q 0,-0.28422 0.19637,-0.49092 0.20154,-0.20671 0.48059,-0.20671 0.28939,0 0.4961,0.20671 0.2067,0.2067 0.2067,0.49092 0,0.28939 -0.2067,0.49093 -0.20154,0.20154 -0.4961,0.20154 -0.28938,0 -0.48575,-0.19637 -0.19121,-0.19637 -0.19121,-0.4961 z m 0.6873,-3.15225 q -0.72864,0 -1.09037,0.78548 -0.35657,0.78548 -0.35657,2.39261 0,1.60197 0.35657,2.38745 0.36173,0.78547 1.09037,0.78547 0.7338,0 1.09037,-0.78547 0.36173,-0.78548 0.36173,-2.38745 0,-1.60713 -0.36173,-2.39261 -0.35657,-0.78548 -1.09037,-0.78548 z m 0,-0.82682 q 1.23506,0 1.86551,1.01286 0.63562,1.01285 0.63562,2.99205 0,1.97404 -0.63562,2.98689 -0.63045,1.01285 -1.86551,1.01285 -1.23506,0 -1.86551,-1.01285 -0.63045,-1.01285 -0.63045,-2.98689 0,-1.9792 0.63045,-2.99205 0.63045,-1.01286 1.86551,-1.01286 z"
           style="font-size:medium;line-height:126%;font-family:monospace;-inkscape-font-specification:monospace"
           id="path5840" />
        <path
           d="m 263.55457,277.33381 q 0,-0.28422 0.19637,-0.49092 0.20154,-0.20671 0.48059,-0.20671 0.28939,0 0.49609,0.20671 0.20671,0.2067 0.20671,0.49092 0,0.28939 -0.20671,0.49093 -0.20153,0.20154 -0.49609,0.20154 -0.28938,0 -0.48575,-0.19637 -0.19121,-0.19637 -0.19121,-0.4961 z m 0.6873,-3.15225 q -0.72864,0 -1.09037,0.78548 -0.35657,0.78548 -0.35657,2.39261 0,1.60197 0.35657,2.38745 0.36173,0.78547 1.09037,0.78547 0.7338,0 1.09037,-0.78547 0.36173,-0.78548 0.36173,-2.38745 0,-1.60713 -0.36173,-2.39261 -0.35657,-0.78548 -1.09037,-0.78548 z m 0,-0.82682 q 1.23506,0 1.86551,1.01286 0.63562,1.01285 0.63562,2.99205 0,1.97404 -0.63562,2.98689 -0.63045,1.01285 -1.86551,1.01285 -1.23506,0 -1.86552,-1.01285 -0.63045,-1.01285 -0.63045,-2.98689 0,-1.9792 0.63045,-2.99205 0.63046,-1.01286 1.86552,-1.01286 z"
           style="font-size:medium;line-height:126%;font-family:monospace;-inkscape-font-specification:monospace"
           id="path5842" />
        <path
           d="m 269.92625,277.33381 q 0,-0.28422 0.19637,-0.49092 0.20153,-0.20671 0.48059,-0.20671 0.28938,0 0.49609,0.20671 0.2067,0.2067 0.2067,0.49092 0,0.28939 -0.2067,0.49093 -0.20154,0.20154 -0.49609,0.20154 -0.28939,0 -0.48576,-0.19637 -0.1912,-0.19637 -0.1912,-0.4961 z m 0.68729,-3.15225 q -0.72863,0 -1.09037,0.78548 -0.35656,0.78548 -0.35656,2.39261 0,1.60197 0.35656,2.38745 0.36174,0.78547 1.09037,0.78547 0.7338,0 1.09037,-0.78547 0.36173,-0.78548 0.36173,-2.38745 0,-1.60713 -0.36173,-2.39261 -0.35657,-0.78548 -1.09037,-0.78548 z m 0,-0.82682 q 1.23506,0 1.86551,1.01286 0.63562,1.01285 0.63562,2.99205 0,1.97404 -0.63562,2.98689 -0.63045,1.01285 -1.86551,1.01285 -1.23506,0 -1.86551,-1.01285 -0.63045,-1.01285 -0.63045,-2.98689 0,-1.9792 0.63045,-2.99205 0.63045,-1.01286 1.86551,-1.01286 z"
           style="font-size:medium;line-height:126%;font-family:monospace;-inkscape-font-specification:monospace"
           id="path5844" />
        <path
           d="m 276.29792,277.33381 q 0,-0.28422 0.19637,-0.49092 0.20154,-0.20671 0.48059,-0.20671 0.28939,0 0.49609,0.20671 0.20671,0.2067 0.20671,0.49092 0,0.28939 -0.20671,0.49093 -0.20154,0.20154 -0.49609,0.20154 -0.28939,0 -0.48576,-0.19637 -0.1912,-0.19637 -0.1912,-0.4961 z m 0.6873,-3.15225 q -0.72864,0 -1.09037,0.78548 -0.35657,0.78548 -0.35657,2.39261 0,1.60197 0.35657,2.38745 0.36173,0.78547 1.09037,0.78547 0.7338,0 1.09036,-0.78547 0.36174,-0.78548 0.36174,-2.38745 0,-1.60713 -0.36174,-2.39261 -0.35656,-0.78548 -1.09036,-0.78548 z m 0,-0.82682 q 1.23506,0 1.86551,1.01286 0.63562,1.01285 0.63562,2.99205 0,1.97404 -0.63562,2.98689 -0.63045,1.01285 -1.86551,1.01285 -1.23507,0 -1.86552,-1.01285 -0.63045,-1.01285 -0.63045,-2.98689 0,-1.9792 0.63045,-2.99205 0.63045,-1.01286 1.86552,-1.01286 z"
           style="font-size:medium;line-height:126%;font-family:monospace;-inkscape-font-specification:monospace"
           id="path5846" />
        <path
           d="m 282.66962,277.33381 q 0,-0.28422 0.19637,-0.49092 0.20154,-0.20671 0.48059,-0.20671 0.28939,0 0.4961,0.20671 0.2067,0.2067 0.2067,0.49092 0,0.28939 -0.2067,0.49093 -0.20154,0.20154 -0.4961,0.20154 -0.28938,0 -0.48575,-0.19637 -0.19121,-0.19637 -0.19121,-0.4961 z m 0.6873,-3.15225 q -0.72864,0 -1.09037,0.78548 -0.35657,0.78548 -0.35657,2.39261 0,1.60197 0.35657,2.38745 0.36173,0.78547 1.09037,0.78547 0.7338,0 1.09037,-0.78547 0.36173,-0.78548 0.36173,-2.38745 0,-1.60713 -0.36173,-2.39261 -0.35657,-0.78548 -1.09037,-0.78548 z m 0,-0.82682 q 1.23506,0 1.86551,1.01286 0.63562,1.01285 0.63562,2.99205 0,1.97404 -0.63562,2.98689 -0.63045,1.01285 -1.86551,1.01285 -1.23506,0 -1.86551,-1.01285 -0.63045,-1.01285 -0.63045,-2.98689 0,-1.9792 0.63045,-2.99205 0.63045,-1.01286 1.86551,-1.01286 z"
           style="font-size:medium;line-height:126%;font-family:monospace;-inkscape-font-specification:monospace"
           id="path5848" />
        <path
           d="m 13.281244,286.77631 h 1.322912 l 2.604484,6.35101 v -6.35101 h 1.007687 v 7.71526 h -1.322912 l -2.604484,-6.35101 v 6.35101 h -1.007687 z"
           style="font-size:medium;line-height:1.25;font-family:monospace;-inkscape-font-specification:monospace"
           id="path5850" />
        <path
           d="m 23.611329,290.64169 q 0,-1.70015 -0.351398,-2.42878 -0.346231,-0.72864 -1.142046,-0.72864 -0.790647,0 -1.142045,0.72864 -0.346231,0.72863 -0.346231,2.42878 0,1.69498 0.346231,2.42362 0.351398,0.72864 1.142045,0.72864 0.795815,0 1.142046,-0.72347 0.351398,-0.72864 0.351398,-2.42879 z m 1.09037,0 q 0,2.01538 -0.640786,3.00756 -0.635618,0.99219 -1.943028,0.99219 -1.307409,0 -1.943028,-0.98702 -0.635618,-0.98702 -0.635618,-3.01273 0,-2.02054 0.635618,-3.01272 0.640786,-0.99219 1.943028,-0.99219 1.30741,0 1.943028,0.99219 0.640786,0.99218 0.640786,3.01272 z"
           style="font-size:medium;line-height:1.25;font-family:monospace;-inkscape-font-specification:monospace"
           id="path5852" />
        <path
           d="m 25.549189,286.77631 h 5.885927 v 0.87849 h -2.413282 v 6.83677 h -1.049028 v -6.83677 h -2.423617 z"
           style="font-size:medium;line-height:1.25;font-family:monospace;-inkscape-font-specification:monospace"
           id="path5854" />
        <path
           d="m 41.542994,289.29294 q 0.175699,-0.37207 0.444415,-0.54777 0.273885,-0.18086 0.656289,-0.18086 0.69763,0 0.981849,0.5426 0.289387,0.53743 0.289387,2.03087 v 3.35379 h -0.868161 v -3.31244 q 0,-1.22473 -0.139526,-1.51929 -0.134358,-0.29972 -0.496092,-0.29972 -0.41341,0 -0.568439,0.32039 -0.149861,0.31523 -0.149861,1.49862 v 3.31244 h -0.868162 v -3.31244 q 0,-1.24023 -0.149861,-1.52962 -0.144693,-0.28939 -0.527098,-0.28939 -0.377236,0 -0.527098,0.32039 -0.144693,0.31523 -0.144693,1.49862 v 3.31244 h -0.862994 v -5.78774 h 0.862994 v 0.49609 q 0.170532,-0.31005 0.423745,-0.47025 0.258382,-0.16536 0.583942,-0.16536 0.39274,0 0.651121,0.18086 0.263549,0.18087 0.408243,0.54777 z"
           style="font-size:medium;line-height:1.25;font-family:monospace;-inkscape-font-specification:monospace;fill:#0000ff"
           id="path5856" />
        <path
           d="M 48.049035,291.5822 H 47.73381 q -0.831988,0 -1.255734,0.29456 -0.418577,0.28938 -0.418577,0.86816 0,0.52193 0.315225,0.81131 0.315225,0.28939 0.873329,0.28939 0.785479,0 1.235063,-0.5426 0.449583,-0.54777 0.454751,-1.50895 v -0.21187 z m 1.844843,-0.39274 v 3.30211 h -0.956011 v -0.85782 q -0.30489,0.51676 -0.769977,0.76481 -0.459918,0.24288 -1.121375,0.24288 -0.883664,0 -1.410762,-0.4961 -0.527098,-0.50126 -0.527098,-1.33841 0,-0.96635 0.645954,-1.46761 0.651121,-0.50126 1.906854,-0.50126 h 1.276404 v -0.14986 q -0.0052,-0.69246 -0.351399,-1.00252 -0.346231,-0.31522 -1.105872,-0.31522 -0.485757,0 -0.981849,0.13952 -0.496092,0.13953 -0.966346,0.40824 v -0.95084 q 0.527098,-0.20154 1.007687,-0.29972 0.485757,-0.10335 0.940508,-0.10335 0.7183,0 1.224728,0.21187 0.511595,0.21187 0.82682,0.63562 0.19637,0.25838 0.279052,0.64078 0.08268,0.37724 0.08268,1.13688 z"
           style="font-size:medium;line-height:1.25;font-family:monospace;-inkscape-font-specification:monospace;fill:#0000ff"
           id="path5858" />
        <path
           d="m 54.09516,292.39352 q 0,0.64078 0.232543,0.96634 0.237711,0.32556 0.697629,0.32556 h 1.11104 v 0.80615 h -1.204057 q -0.852658,0 -1.322912,-0.54776 -0.465087,-0.54777 -0.465087,-1.55029 v -5.25548 h -1.52445 v -0.74414 h 2.475294 z"
           style="font-size:medium;line-height:1.25;font-family:monospace;-inkscape-font-specification:monospace;fill:#0000ff"
           id="path5860" />
        <path
           d="m 62.911128,291.35999 v 0.46509 H 58.79253 v 0.031 q 0,0.94567 0.490924,1.46243 0.496092,0.51677 1.395259,0.51677 0.454752,0 0.950844,-0.1447 0.496092,-0.14469 1.059363,-0.43925 v 0.94568 q -0.542601,0.22221 -1.049028,0.33073 -0.50126,0.11369 -0.971514,0.11369 -1.34875,0 -2.108392,-0.80615 -0.759641,-0.81132 -0.759641,-2.23242 0,-1.38492 0.744139,-2.21174 0.744138,-0.82682 1.984368,-0.82682 1.105872,0 1.74149,0.7493 0.640786,0.74931 0.640786,2.04638 z m -0.950843,-0.27905 q -0.02067,-0.83715 -0.397907,-1.27124 -0.37207,-0.43924 -1.074867,-0.43924 -0.687294,0 -1.13171,0.45475 -0.444416,0.45475 -0.527098,1.2609 z"
           style="font-size:medium;line-height:1.25;font-family:monospace;-inkscape-font-specification:monospace;fill:#0000ff"
           id="path5862" />
        <path
           d="m 154.13524,293.61308 h 1.62263 v -5.89626 l -1.74666,0.39274 v -0.95085 l 1.73632,-0.3824 h 1.04387 v 6.83677 h 1.60196 v 0.87849 h -4.25812 z"
           style="font-size:medium;line-height:1.25;font-family:monospace;-inkscape-font-specification:monospace;fill:#ff0000"
           id="path5864" />
        <path
           d="m 160.50692,293.61308 h 1.62264 v -5.89626 l -1.74666,0.39274 v -0.95085 l 1.73632,-0.3824 h 1.04386 v 6.83677 h 1.60197 v 0.87849 h -4.25813 z"
           style="font-size:medium;line-height:1.25;font-family:monospace;-inkscape-font-specification:monospace;fill:#ff0000"
           id="path5866" />
        <path
           d="m 166.87861,293.61308 h 1.62264 v -5.89626 l -1.74666,0.39274 v -0.95085 l 1.73632,-0.3824 h 1.04386 v 6.83677 h 1.60197 v 0.87849 h -4.25813 z"
           style="font-size:medium;line-height:1.25;font-family:monospace;-inkscape-font-specification:monospace;fill:#ff0000"
           id="path5868" />
        <path
           d="m 174.35099,290.61585 q 0,-0.28421 0.19637,-0.49092 0.20154,-0.20671 0.48059,-0.20671 0.28939,0 0.49609,0.20671 0.20671,0.20671 0.20671,0.49092 0,0.28939 -0.20671,0.49093 -0.20154,0.20154 -0.49609,0.20154 -0.28939,0 -0.48576,-0.19637 -0.1912,-0.19637 -0.1912,-0.4961 z m 0.6873,-3.15225 q -0.72864,0 -1.09037,0.78548 -0.35657,0.78548 -0.35657,2.39261 0,1.60197 0.35657,2.38745 0.36173,0.78548 1.09037,0.78548 0.7338,0 1.09036,-0.78548 0.36174,-0.78548 0.36174,-2.38745 0,-1.60713 -0.36174,-2.39261 -0.35656,-0.78548 -1.09036,-0.78548 z m 0,-0.82682 q 1.23506,0 1.86551,1.01286 0.63562,1.01285 0.63562,2.99205 0,1.97404 -0.63562,2.98689 -0.63045,1.01286 -1.86551,1.01286 -1.23507,0 -1.86552,-1.01286 -0.63045,-1.01285 -0.63045,-2.98689 0,-1.9792 0.63045,-2.99205 0.63045,-1.01286 1.86552,-1.01286 z"
           style="font-size:medium;line-height:1.25;font-family:monospace;-inkscape-font-specification:monospace"
           id="path5870" />
        <path
           d="m 180.72268,290.61585 q 0,-0.28421 0.19637,-0.49092 0.20154,-0.20671 0.48059,-0.20671 0.28939,0 0.49609,0.20671 0.20671,0.20671 0.20671,0.49092 0,0.28939 -0.20671,0.49093 -0.20154,0.20154 -0.49609,0.20154 -0.28939,0 -0.48576,-0.19637 -0.1912,-0.19637 -0.1912,-0.4961 z m 0.68729,-3.15225 q -0.72863,0 -1.09037,0.78548 -0.35656,0.78548 -0.35656,2.39261 0,1.60197 0.35656,2.38745 0.36174,0.78548 1.09037,0.78548 0.73381,0 1.09037,-0.78548 0.36174,-0.78548 0.36174,-2.38745 0,-1.60713 -0.36174,-2.39261 -0.35656,-0.78548 -1.09037,-0.78548 z m 0,-0.82682 q 1.23507,0 1.86552,1.01286 0.63562,1.01285 0.63562,2.99205 0,1.97404 -0.63562,2.98689 -0.63045,1.01286 -1.86552,1.01286 -1.23506,0 -1.86551,-1.01286 -0.63045,-1.01285 -0.63045,-2.98689 0,-1.9792 0.63045,-2.99205 0.63045,-1.01286 1.86551,-1.01286 z"
           style="font-size:medium;line-height:1.25;font-family:monospace;-inkscape-font-specification:monospace"
           id="path5872" />
        <path
           d="m 185.99366,293.61308 h 1.62264 v -5.89626 l -1.74666,0.39274 v -0.95085 l 1.73632,-0.3824 h 1.04386 v 6.83677 h 1.60197 v 0.87849 h -4.25813 z"
           style="font-size:medium;line-height:1.25;font-family:monospace;-inkscape-font-specification:monospace;fill:#ff0000"
           id="path5874" />
        <path
           d="m 192.36534,293.61308 h 1.62263 v -5.89626 l -1.74666,0.39274 v -0.95085 l 1.73633,-0.3824 h 1.04386 v 6.83677 h 1.60196 v 0.87849 h -4.25812 z"
           style="font-size:medium;line-height:1.25;font-family:monospace;-inkscape-font-specification:monospace;fill:#ff0000"
           id="path5876" />
        <path
           d="m 199.83773,290.61585 q 0,-0.28421 0.19637,-0.49092 0.20154,-0.20671 0.48059,-0.20671 0.28939,0 0.49609,0.20671 0.20671,0.20671 0.20671,0.49092 0,0.28939 -0.20671,0.49093 -0.20154,0.20154 -0.49609,0.20154 -0.28939,0 -0.48576,-0.19637 -0.1912,-0.19637 -0.1912,-0.4961 z m 0.6873,-3.15225 q -0.72864,0 -1.09037,0.78548 -0.35657,0.78548 -0.35657,2.39261 0,1.60197 0.35657,2.38745 0.36173,0.78548 1.09037,0.78548 0.7338,0 1.09036,-0.78548 0.36174,-0.78548 0.36174,-2.38745 0,-1.60713 -0.36174,-2.39261 -0.35656,-0.78548 -1.09036,-0.78548 z m 0,-0.82682 q 1.23506,0 1.86551,1.01286 0.63562,1.01285 0.63562,2.99205 0,1.97404 -0.63562,2.98689 -0.63045,1.01286 -1.86551,1.01286 -1.23507,0 -1.86552,-1.01286 -0.63045,-1.01285 -0.63045,-2.98689 0,-1.9792 0.63045,-2.99205 0.63045,-1.01286 1.86552,-1.01286 z"
           style="font-size:medium;line-height:1.25;font-family:monospace;-inkscape-font-specification:monospace"
           id="path5878" />
        <path
           d="m 206.20942,290.61585 q 0,-0.28421 0.19637,-0.49092 0.20154,-0.20671 0.48059,-0.20671 0.28939,0 0.49609,0.20671 0.20671,0.20671 0.20671,0.49092 0,0.28939 -0.20671,0.49093 -0.20154,0.20154 -0.49609,0.20154 -0.28939,0 -0.48576,-0.19637 -0.1912,-0.19637 -0.1912,-0.4961 z m 0.68729,-3.15225 q -0.72863,0 -1.09037,0.78548 -0.35656,0.78548 -0.35656,2.39261 0,1.60197 0.35656,2.38745 0.36174,0.78548 1.09037,0.78548 0.73381,0 1.09037,-0.78548 0.36174,-0.78548 0.36174,-2.38745 0,-1.60713 -0.36174,-2.39261 -0.35656,-0.78548 -1.09037,-0.78548 z m 0,-0.82682 q 1.23507,0 1.86552,1.01286 0.63562,1.01285 0.63562,2.99205 0,1.97404 -0.63562,2.98689 -0.63045,1.01286 -1.86552,1.01286 -1.23506,0 -1.86551,-1.01286 -0.63045,-1.01285 -0.63045,-2.98689 0,-1.9792 0.63045,-2.99205 0.63045,-1.01286 1.86551,-1.01286 z"
           style="font-size:medium;line-height:1.25;font-family:monospace;-inkscape-font-specification:monospace"
           id="path5880" />
        <path
           d="m 211.48039,293.61308 h 1.62263 v -5.89626 l -1.74665,0.39274 v -0.95085 l 1.73632,-0.3824 h 1.04386 v 6.83677 h 1.60196 v 0.87849 h -4.25812 z"
           style="font-size:medium;line-height:1.25;font-family:monospace;-inkscape-font-specification:monospace;fill:#ff0000"
           id="path5882" />
        <path
           d="m 217.85208,293.61308 h 1.62263 v -5.89626 l -1.74666,0.39274 v -0.95085 l 1.73633,-0.3824 h 1.04386 v 6.83677 h 1.60196 v 0.87849 h -4.25812 z"
           style="font-size:medium;line-height:1.25;font-family:monospace;-inkscape-font-specification:monospace;fill:#ff0000"
           id="path5884" />
        <path
           d="m 224.22377,293.61308 h 1.62263 v -5.89626 l -1.74666,0.39274 v -0.95085 l 1.73633,-0.3824 h 1.04386 v 6.83677 h 1.60196 v 0.87849 h -4.25812 z"
           style="font-size:medium;line-height:1.25;font-family:monospace;-inkscape-font-specification:monospace;fill:#ff0000"
           id="path5886" />
        <path
           d="m 230.59544,293.61308 h 1.62264 v -5.89626 l -1.74666,0.39274 v -0.95085 l 1.73632,-0.3824 h 1.04386 v 6.83677 h 1.60196 v 0.87849 h -4.25812 z"
           style="font-size:medium;line-height:1.25;font-family:monospace;-inkscape-font-specification:monospace;fill:#ff0000"
           id="path5888" />
        <path
           d="m 236.96713,293.61308 h 1.62263 v -5.89626 l -1.74665,0.39274 v -0.95085 l 1.73632,-0.3824 h 1.04386 v 6.83677 h 1.60196 v 0.87849 h -4.25812 z"
           style="font-size:medium;line-height:1.25;font-family:monospace;-inkscape-font-specification:monospace;fill:#ff0000"
           id="path5890" />
        <path
           d="m 244.43952,290.61585 q 0,-0.28421 0.19637,-0.49092 0.20154,-0.20671 0.48059,-0.20671 0.28939,0 0.49609,0.20671 0.20671,0.20671 0.20671,0.49092 0,0.28939 -0.20671,0.49093 -0.20153,0.20154 -0.49609,0.20154 -0.28939,0 -0.48576,-0.19637 -0.1912,-0.19637 -0.1912,-0.4961 z m 0.6873,-3.15225 q -0.72864,0 -1.09037,0.78548 -0.35657,0.78548 -0.35657,2.39261 0,1.60197 0.35657,2.38745 0.36173,0.78548 1.09037,0.78548 0.7338,0 1.09037,-0.78548 0.36173,-0.78548 0.36173,-2.38745 0,-1.60713 -0.36173,-2.39261 -0.35657,-0.78548 -1.09037,-0.78548 z m 0,-0.82682 q 1.23506,0 1.86551,1.01286 0.63562,1.01285 0.63562,2.99205 0,1.97404 -0.63562,2.98689 -0.63045,1.01286 -1.86551,1.01286 -1.23507,0 -1.86552,-1.01286 -0.63045,-1.01285 -0.63045,-2.98689 0,-1.9792 0.63045,-2.99205 0.63045,-1.01286 1.86552,-1.01286 z"
           style="font-size:medium;line-height:1.25;font-family:monospace;-inkscape-font-specification:monospace"
           id="path5892" />
        <path
           d="m 249.71049,293.61308 h 1.62264 v -5.89626 l -1.74666,0.39274 v -0.95085 l 1.73632,-0.3824 h 1.04386 v 6.83677 h 1.60197 v 0.87849 h -4.25813 z"
           style="font-size:medium;line-height:1.25;font-family:monospace;-inkscape-font-specification:monospace;fill:#ff0000"
           id="path5894" />
        <path
           d="m 256.08218,293.61308 h 1.62264 v -5.89626 l -1.74666,0.39274 v -0.95085 l 1.73632,-0.3824 h 1.04386 v 6.83677 h 1.60196 v 0.87849 h -4.25812 z"
           style="font-size:medium;line-height:1.25;font-family:monospace;-inkscape-font-specification:monospace;fill:#ff0000"
           id="path5896" />
        <path
           d="m 262.45387,293.61308 h 1.62263 v -5.89626 l -1.74665,0.39274 v -0.95085 l 1.73632,-0.3824 h 1.04386 v 6.83677 h 1.60196 v 0.87849 h -4.25812 z"
           style="font-size:medium;line-height:1.25;font-family:monospace;-inkscape-font-specification:monospace;fill:#ff0000"
           id="path5898" />
        <path
           d="m 268.82554,293.61308 h 1.62264 v -5.89626 l -1.74666,0.39274 v -0.95085 l 1.73632,-0.3824 h 1.04386 v 6.83677 h 1.60197 v 0.87849 h -4.25813 z"
           style="font-size:medium;line-height:1.25;font-family:monospace;-inkscape-font-specification:monospace;fill:#ff0000"
           id="path5900" />
        <path
           d="m 275.19722,293.61308 h 1.62263 v -5.89626 l -1.74666,0.39274 v -0.95085 l 1.73633,-0.3824 h 1.04386 v 6.83677 h 1.60196 v 0.87849 h -4.25812 z"
           style="font-size:medium;line-height:1.25;font-family:monospace;-inkscape-font-specification:monospace;fill:#ff0000"
           id="path5902" />
        <path
           d="m 281.56892,293.61308 h 1.62264 v -5.89626 l -1.74666,0.39274 v -0.95085 l 1.73632,-0.3824 h 1.04386 v 6.83677 h 1.60196 v 0.87849 h -4.25812 z"
           style="font-size:medium;line-height:1.25;font-family:monospace;-inkscape-font-specification:monospace;fill:#ff0000"
           id="path5904" />
      </g>
      <path
         style="font-variation-settings:normal;fill:none;fill-opacity:1;stroke:#000000;stroke-width:0.529166;stroke-linecap:butt;stroke-linejoin:miter;stroke-miterlimit:4;stroke-dasharray:none;stroke-dashoffset:0;stroke-opacity:1;stop-color:#000000"
         d="M 139.77348,284.07137 H 285.85805"
         id="path1597362" />
    </g>
  </g>
</svg>
