<?xml version="1.0" encoding="UTF-8" standalone="no"?>
<!-- Created with Inkscape (http://www.inkscape.org/) -->

<svg
   width="272.57681mm"
   height="34.811615mm"
   viewBox="0 0 272.57681 34.811615"
   version="1.1"
   id="svg6101"
   inkscape:version="1.2-dev (9a006c9b6a, 2021-07-31)"
   sodipodi:docname="5_difference.svg"
   xmlns:inkscape="http://www.inkscape.org/namespaces/inkscape"
   xmlns:sodipodi="http://sodipodi.sourceforge.net/DTD/sodipodi-0.dtd"
   xmlns="http://www.w3.org/2000/svg"
   xmlns:svg="http://www.w3.org/2000/svg">
  <sodipodi:namedview
     id="namedview6103"
     pagecolor="#505050"
     bordercolor="#ffffff"
     borderopacity="1"
     inkscape:pageshadow="0"
     inkscape:pageopacity="0"
     inkscape:pagecheckerboard="1"
     inkscape:document-units="mm"
     showgrid="false"
     fit-margin-top="0"
     fit-margin-left="0"
     fit-margin-right="0"
     fit-margin-bottom="0"
     inkscape:zoom="0.77058782"
     inkscape:cx="508.70256"
     inkscape:cy="127.17564"
     inkscape:window-width="1920"
     inkscape:window-height="1011"
     inkscape:window-x="1920"
     inkscape:window-y="32"
     inkscape:window-maximized="1"
     inkscape:current-layer="layer1" />
  <defs
     id="defs6098" />
  <g
     inkscape:label="Layer 1"
     inkscape:groupmode="layer"
     id="layer1"
     transform="translate(35.686091,-99.334079)">
    <g
       id="g1597582"
       transform="translate(-48.967335,3.92879)">
      <g
         aria-label="female                001001001001001101110
NOT male            &amp; 111001100111110111111
female AND NOT male   001001000001000101110"
         id="text1245329"
         style="font-size:10.5833px;line-height:0;stroke-width:0.264583">
        <path
           d="m 18.056131,95.462133 v 0.790647 h -1.080034 q -0.511595,0 -0.713133,0.211873 -0.19637,0.206705 -0.19637,0.73897 v 0.511595 h 1.989537 v 0.738971 h -1.989537 v 5.048771 h -0.950843 v -5.048771 h -1.54512 v -0.738971 h 1.54512 v -0.403075 q 0,-0.950843 0.434081,-1.400427 0.439248,-0.449583 1.364253,-0.449583 z"
           style="font-size:medium;line-height:1.25;font-family:monospace;-inkscape-font-specification:monospace;fill:#ff0000"
           id="path6576" />
        <path
           d="m 24.681028,100.37138 v 0.46508 h -4.118599 v 0.031 q 0,0.94568 0.490925,1.46244 0.496092,0.51676 1.395259,0.51676 0.454751,0 0.950844,-0.14469 0.496092,-0.1447 1.059363,-0.43925 v 0.94568 q -0.542601,0.2222 -1.049028,0.33072 -0.50126,0.11369 -0.971514,0.11369 -1.348751,0 -2.108392,-0.80615 -0.759641,-0.81132 -0.759641,-2.23241 0,-1.384927 0.744138,-2.211747 0.744139,-0.826821 1.984369,-0.826821 1.105872,0 1.74149,0.749306 0.640786,0.749306 0.640786,2.046382 z m -0.950843,-0.27905 q -0.02067,-0.837159 -0.397908,-1.27124 -0.372069,-0.439248 -1.074866,-0.439248 -0.687294,0 -1.13171,0.454751 -0.444416,0.454751 -0.527098,1.260897 z"
           style="font-size:medium;line-height:1.25;font-family:monospace;-inkscape-font-specification:monospace;fill:#ff0000"
           id="path6578" />
        <path
           d="m 28.799626,98.304328 q 0.1757,-0.372069 0.444416,-0.547769 0.273884,-0.180867 0.656289,-0.180867 0.697629,0 0.981849,0.542601 0.289387,0.537433 0.289387,2.030877 v 3.35379 h -0.868161 v -3.31245 q 0,-1.224726 -0.139526,-1.519281 -0.134358,-0.299722 -0.496092,-0.299722 -0.41341,0 -0.568439,0.320393 -0.149861,0.315225 -0.149861,1.49861 v 3.31245 h -0.868162 v -3.31245 q 0,-1.240229 -0.149861,-1.529616 -0.144693,-0.289387 -0.527098,-0.289387 -0.377237,0 -0.527098,0.320393 -0.144693,0.315225 -0.144693,1.49861 v 3.31245 h -0.862994 v -5.787742 h 0.862994 v 0.496092 q 0.170531,-0.310057 0.423745,-0.470254 0.258381,-0.165364 0.583942,-0.165364 0.39274,0 0.651121,0.180867 0.263549,0.180867 0.408242,0.547769 z"
           style="font-size:medium;line-height:1.25;font-family:monospace;-inkscape-font-specification:monospace;fill:#ff0000"
           id="path6580" />
        <path
           d="m 35.305669,100.59359 h -0.315226 q -0.831987,0 -1.255733,0.29455 -0.418578,0.28939 -0.418578,0.86816 0,0.52193 0.315226,0.81132 0.315225,0.28939 0.873329,0.28939 0.785479,0 1.235062,-0.5426 0.449584,-0.54777 0.454752,-1.50895 v -0.21187 z m 1.844842,-0.39274 v 3.30211 h -0.95601 v -0.85783 q -0.30489,0.51677 -0.769977,0.76481 -0.459919,0.24288 -1.121375,0.24288 -0.883664,0 -1.410762,-0.49609 -0.527098,-0.50126 -0.527098,-1.33842 0,-0.96634 0.645953,-1.4676 0.651121,-0.501262 1.906855,-0.501262 h 1.276404 v -0.149861 q -0.0052,-0.692462 -0.351399,-1.00252 -0.346231,-0.315225 -1.105872,-0.315225 -0.485757,0 -0.981849,0.139526 -0.496092,0.139526 -0.966347,0.408243 v -0.950844 q 0.527098,-0.201537 1.007688,-0.299722 0.485757,-0.103353 0.940508,-0.103353 0.7183,0 1.224727,0.211873 0.511595,0.211873 0.826821,0.635618 0.196369,0.258381 0.279051,0.640786 0.08268,0.377237 0.08268,1.136881 z"
           style="font-size:medium;line-height:1.25;font-family:monospace;-inkscape-font-specification:monospace;fill:#ff0000"
           id="path6582" />
        <path
           d="m 41.351791,101.4049 q 0,0.64079 0.232544,0.96635 0.23771,0.32556 0.697629,0.32556 h 1.11104 v 0.80615 h -1.204057 q -0.852659,0 -1.322913,-0.54777 -0.465086,-0.54777 -0.465086,-1.55029 v -5.255473 h -1.52445 v -0.744138 h 2.475293 z"
           style="font-size:medium;line-height:1.25;font-family:monospace;-inkscape-font-specification:monospace;fill:#ff0000"
           id="path6584" />
        <path
           d="m 50.167762,100.37138 v 0.46508 h -4.118599 v 0.031 q 0,0.94568 0.490925,1.46244 0.496092,0.51676 1.395259,0.51676 0.454751,0 0.950844,-0.14469 0.496092,-0.1447 1.059363,-0.43925 v 0.94568 q -0.542601,0.2222 -1.049028,0.33072 -0.50126,0.11369 -0.971514,0.11369 -1.348751,0 -2.108392,-0.80615 -0.759641,-0.81132 -0.759641,-2.23241 0,-1.384927 0.744138,-2.211747 0.744139,-0.826821 1.984369,-0.826821 1.105872,0 1.74149,0.749306 0.640786,0.749306 0.640786,2.046382 z m -0.950843,-0.27905 q -0.02067,-0.837159 -0.397908,-1.27124 -0.372069,-0.439248 -1.074866,-0.439248 -0.687294,0 -1.13171,0.454751 -0.444416,0.454751 -0.527098,1.260897 z"
           style="font-size:medium;line-height:1.25;font-family:monospace;-inkscape-font-specification:monospace;fill:#ff0000"
           id="path6586" />
        <path
           d="m 155.23594,99.62724 q 0,-0.284219 0.19637,-0.490924 0.20154,-0.206705 0.48059,-0.206705 0.28939,0 0.49609,0.206705 0.20671,0.206705 0.20671,0.490924 0,0.289387 -0.20671,0.49092 -0.20154,0.20154 -0.49609,0.20154 -0.28939,0 -0.48576,-0.19637 -0.1912,-0.196368 -0.1912,-0.49609 z m 0.68729,-3.152252 q -0.72863,0 -1.09037,0.785479 -0.35656,0.785479 -0.35656,2.392611 0,1.601962 0.35656,2.387442 0.36174,0.78548 1.09037,0.78548 0.73381,0 1.09037,-0.78548 0.36174,-0.78548 0.36174,-2.387442 0,-1.607132 -0.36174,-2.392611 -0.35656,-0.785479 -1.09037,-0.785479 z m 0,-0.82682 q 1.23507,0 1.86552,1.012854 0.63562,1.012855 0.63562,2.992056 0,1.974032 -0.63562,2.986892 -0.63045,1.01285 -1.86552,1.01285 -1.23506,0 -1.86551,-1.01285 -0.63045,-1.01286 -0.63045,-2.986892 0,-1.979201 0.63045,-2.992056 0.63045,-1.012854 1.86551,-1.012854 z"
           style="font-size:medium;line-height:1.25;font-family:monospace;-inkscape-font-specification:monospace"
           id="path6588" />
        <path
           d="m 161.60763,99.62724 q 0,-0.284219 0.19637,-0.490924 0.20154,-0.206705 0.48059,-0.206705 0.28938,0 0.49609,0.206705 0.2067,0.206705 0.2067,0.490924 0,0.289387 -0.2067,0.49092 -0.20154,0.20154 -0.49609,0.20154 -0.28939,0 -0.48576,-0.19637 -0.1912,-0.196368 -0.1912,-0.49609 z m 0.68729,-3.152252 q -0.72863,0 -1.09037,0.785479 -0.35656,0.785479 -0.35656,2.392611 0,1.601962 0.35656,2.387442 0.36174,0.78548 1.09037,0.78548 0.73381,0 1.09037,-0.78548 0.36174,-0.78548 0.36174,-2.387442 0,-1.607132 -0.36174,-2.392611 -0.35656,-0.785479 -1.09037,-0.785479 z m 0,-0.82682 q 1.23507,0 1.86552,1.012854 0.63561,1.012855 0.63561,2.992056 0,1.974032 -0.63561,2.986892 -0.63045,1.01285 -1.86552,1.01285 -1.23506,0 -1.86551,-1.01285 -0.63045,-1.01286 -0.63045,-2.986892 0,-1.979201 0.63045,-2.992056 0.63045,-1.012854 1.86551,-1.012854 z"
           style="font-size:medium;line-height:1.25;font-family:monospace;-inkscape-font-specification:monospace"
           id="path6590" />
        <path
           d="m 166.87861,102.62446 h 1.62264 v -5.896258 l -1.74666,0.392739 v -0.950843 l 1.73632,-0.382405 h 1.04386 v 6.836767 h 1.60197 v 0.8785 h -4.25813 z"
           style="font-size:medium;line-height:1.25;font-family:monospace;-inkscape-font-specification:monospace;fill:#ff0000"
           id="path6592" />
        <path
           d="m 174.35099,99.62724 q 0,-0.284219 0.19637,-0.490924 0.20154,-0.206705 0.48059,-0.206705 0.28939,0 0.49609,0.206705 0.20671,0.206705 0.20671,0.490924 0,0.289387 -0.20671,0.49092 -0.20154,0.20154 -0.49609,0.20154 -0.28939,0 -0.48576,-0.19637 -0.1912,-0.196368 -0.1912,-0.49609 z m 0.6873,-3.152252 q -0.72864,0 -1.09037,0.785479 -0.35657,0.785479 -0.35657,2.392611 0,1.601962 0.35657,2.387442 0.36173,0.78548 1.09037,0.78548 0.7338,0 1.09036,-0.78548 0.36174,-0.78548 0.36174,-2.387442 0,-1.607132 -0.36174,-2.392611 -0.35656,-0.785479 -1.09036,-0.785479 z m 0,-0.82682 q 1.23506,0 1.86551,1.012854 0.63562,1.012855 0.63562,2.992056 0,1.974032 -0.63562,2.986892 -0.63045,1.01285 -1.86551,1.01285 -1.23507,0 -1.86552,-1.01285 -0.63045,-1.01286 -0.63045,-2.986892 0,-1.979201 0.63045,-2.992056 0.63045,-1.012854 1.86552,-1.012854 z"
           style="font-size:medium;line-height:1.25;font-family:monospace;-inkscape-font-specification:monospace"
           id="path6594" />
        <path
           d="m 180.72268,99.62724 q 0,-0.284219 0.19637,-0.490924 0.20154,-0.206705 0.48059,-0.206705 0.28939,0 0.49609,0.206705 0.20671,0.206705 0.20671,0.490924 0,0.289387 -0.20671,0.49092 -0.20154,0.20154 -0.49609,0.20154 -0.28939,0 -0.48576,-0.19637 -0.1912,-0.196368 -0.1912,-0.49609 z m 0.68729,-3.152252 q -0.72863,0 -1.09037,0.785479 -0.35656,0.785479 -0.35656,2.392611 0,1.601962 0.35656,2.387442 0.36174,0.78548 1.09037,0.78548 0.73381,0 1.09037,-0.78548 0.36174,-0.78548 0.36174,-2.387442 0,-1.607132 -0.36174,-2.392611 -0.35656,-0.785479 -1.09037,-0.785479 z m 0,-0.82682 q 1.23507,0 1.86552,1.012854 0.63562,1.012855 0.63562,2.992056 0,1.974032 -0.63562,2.986892 -0.63045,1.01285 -1.86552,1.01285 -1.23506,0 -1.86551,-1.01285 -0.63045,-1.01286 -0.63045,-2.986892 0,-1.979201 0.63045,-2.992056 0.63045,-1.012854 1.86551,-1.012854 z"
           style="font-size:medium;line-height:1.25;font-family:monospace;-inkscape-font-specification:monospace"
           id="path6596" />
        <path
           d="m 185.99366,102.62446 h 1.62264 v -5.896258 l -1.74666,0.392739 v -0.950843 l 1.73632,-0.382405 h 1.04386 v 6.836767 h 1.60197 v 0.8785 h -4.25813 z"
           style="font-size:medium;line-height:1.25;font-family:monospace;-inkscape-font-specification:monospace;fill:#ff0000"
           id="path6598" />
        <path
           d="m 193.46604,99.62724 q 0,-0.284219 0.19637,-0.490924 0.20154,-0.206705 0.48059,-0.206705 0.28939,0 0.49609,0.206705 0.20671,0.206705 0.20671,0.490924 0,0.289387 -0.20671,0.49092 -0.20153,0.20154 -0.49609,0.20154 -0.28939,0 -0.48576,-0.19637 -0.1912,-0.196368 -0.1912,-0.49609 z m 0.6873,-3.152252 q -0.72864,0 -1.09037,0.785479 -0.35657,0.785479 -0.35657,2.392611 0,1.601962 0.35657,2.387442 0.36173,0.78548 1.09037,0.78548 0.7338,0 1.09037,-0.78548 0.36173,-0.78548 0.36173,-2.387442 0,-1.607132 -0.36173,-2.392611 -0.35657,-0.785479 -1.09037,-0.785479 z m 0,-0.82682 q 1.23506,0 1.86551,1.012854 0.63562,1.012855 0.63562,2.992056 0,1.974032 -0.63562,2.986892 -0.63045,1.01285 -1.86551,1.01285 -1.23507,0 -1.86552,-1.01285 -0.63045,-1.01286 -0.63045,-2.986892 0,-1.979201 0.63045,-2.992056 0.63045,-1.012854 1.86552,-1.012854 z"
           style="font-size:medium;line-height:1.25;font-family:monospace;-inkscape-font-specification:monospace"
           id="path6600" />
        <path
           d="m 199.83773,99.62724 q 0,-0.284219 0.19637,-0.490924 0.20154,-0.206705 0.48059,-0.206705 0.28939,0 0.49609,0.206705 0.20671,0.206705 0.20671,0.490924 0,0.289387 -0.20671,0.49092 -0.20154,0.20154 -0.49609,0.20154 -0.28939,0 -0.48576,-0.19637 -0.1912,-0.196368 -0.1912,-0.49609 z m 0.6873,-3.152252 q -0.72864,0 -1.09037,0.785479 -0.35657,0.785479 -0.35657,2.392611 0,1.601962 0.35657,2.387442 0.36173,0.78548 1.09037,0.78548 0.7338,0 1.09036,-0.78548 0.36174,-0.78548 0.36174,-2.387442 0,-1.607132 -0.36174,-2.392611 -0.35656,-0.785479 -1.09036,-0.785479 z m 0,-0.82682 q 1.23506,0 1.86551,1.012854 0.63562,1.012855 0.63562,2.992056 0,1.974032 -0.63562,2.986892 -0.63045,1.01285 -1.86551,1.01285 -1.23507,0 -1.86552,-1.01285 -0.63045,-1.01286 -0.63045,-2.986892 0,-1.979201 0.63045,-2.992056 0.63045,-1.012854 1.86552,-1.012854 z"
           style="font-size:medium;line-height:1.25;font-family:monospace;-inkscape-font-specification:monospace"
           id="path6602" />
        <path
           d="m 205.10872,102.62446 h 1.62263 v -5.896258 l -1.74666,0.392739 v -0.950843 l 1.73632,-0.382405 h 1.04387 v 6.836767 h 1.60196 v 0.8785 h -4.25812 z"
           style="font-size:medium;line-height:1.25;font-family:monospace;-inkscape-font-specification:monospace"
           id="path6604" />
        <path
           d="m 212.58109,99.62724 q 0,-0.284219 0.19637,-0.490924 0.20154,-0.206705 0.48059,-0.206705 0.28939,0 0.49609,0.206705 0.20671,0.206705 0.20671,0.490924 0,0.289387 -0.20671,0.49092 -0.20153,0.20154 -0.49609,0.20154 -0.28938,0 -0.48575,-0.19637 -0.19121,-0.196368 -0.19121,-0.49609 z m 0.6873,-3.152252 q -0.72864,0 -1.09037,0.785479 -0.35657,0.785479 -0.35657,2.392611 0,1.601962 0.35657,2.387442 0.36173,0.78548 1.09037,0.78548 0.7338,0 1.09037,-0.78548 0.36173,-0.78548 0.36173,-2.387442 0,-1.607132 -0.36173,-2.392611 -0.35657,-0.785479 -1.09037,-0.785479 z m 0,-0.82682 q 1.23506,0 1.86551,1.012854 0.63562,1.012855 0.63562,2.992056 0,1.974032 -0.63562,2.986892 -0.63045,1.01285 -1.86551,1.01285 -1.23506,0 -1.86552,-1.01285 -0.63045,-1.01286 -0.63045,-2.986892 0,-1.979201 0.63045,-2.992056 0.63046,-1.012854 1.86552,-1.012854 z"
           style="font-size:medium;line-height:1.25;font-family:monospace;-inkscape-font-specification:monospace"
           id="path6606" />
        <path
           d="m 218.95278,99.62724 q 0,-0.284219 0.19637,-0.490924 0.20154,-0.206705 0.48059,-0.206705 0.28939,0 0.49609,0.206705 0.20671,0.206705 0.20671,0.490924 0,0.289387 -0.20671,0.49092 -0.20153,0.20154 -0.49609,0.20154 -0.28939,0 -0.48576,-0.19637 -0.1912,-0.196368 -0.1912,-0.49609 z m 0.6873,-3.152252 q -0.72864,0 -1.09037,0.785479 -0.35657,0.785479 -0.35657,2.392611 0,1.601962 0.35657,2.387442 0.36173,0.78548 1.09037,0.78548 0.7338,0 1.09037,-0.78548 0.36173,-0.78548 0.36173,-2.387442 0,-1.607132 -0.36173,-2.392611 -0.35657,-0.785479 -1.09037,-0.785479 z m 0,-0.82682 q 1.23506,0 1.86551,1.012854 0.63562,1.012855 0.63562,2.992056 0,1.974032 -0.63562,2.986892 -0.63045,1.01285 -1.86551,1.01285 -1.23507,0 -1.86552,-1.01285 -0.63045,-1.01286 -0.63045,-2.986892 0,-1.979201 0.63045,-2.992056 0.63045,-1.012854 1.86552,-1.012854 z"
           style="font-size:medium;line-height:1.25;font-family:monospace;-inkscape-font-specification:monospace"
           id="path6608" />
        <path
           d="m 224.22377,102.62446 h 1.62263 v -5.896258 l -1.74666,0.392739 v -0.950843 l 1.73633,-0.382405 h 1.04386 v 6.836767 h 1.60196 v 0.8785 h -4.25812 z"
           style="font-size:medium;line-height:1.25;font-family:monospace;-inkscape-font-specification:monospace;fill:#ff0000"
           id="path6610" />
        <path
           d="m 231.69614,99.62724 q 0,-0.284219 0.19637,-0.490924 0.20154,-0.206705 0.48059,-0.206705 0.28939,0 0.4961,0.206705 0.2067,0.206705 0.2067,0.490924 0,0.289387 -0.2067,0.49092 -0.20154,0.20154 -0.4961,0.20154 -0.28938,0 -0.48575,-0.19637 -0.19121,-0.196368 -0.19121,-0.49609 z m 0.6873,-3.152252 q -0.72864,0 -1.09037,0.785479 -0.35657,0.785479 -0.35657,2.392611 0,1.601962 0.35657,2.387442 0.36173,0.78548 1.09037,0.78548 0.7338,0 1.09037,-0.78548 0.36173,-0.78548 0.36173,-2.387442 0,-1.607132 -0.36173,-2.392611 -0.35657,-0.785479 -1.09037,-0.785479 z m 0,-0.82682 q 1.23506,0 1.86551,1.012854 0.63562,1.012855 0.63562,2.992056 0,1.974032 -0.63562,2.986892 -0.63045,1.01285 -1.86551,1.01285 -1.23506,0 -1.86551,-1.01285 -0.63045,-1.01286 -0.63045,-2.986892 0,-1.979201 0.63045,-2.992056 0.63045,-1.012854 1.86551,-1.012854 z"
           style="font-size:medium;line-height:1.25;font-family:monospace;-inkscape-font-specification:monospace"
           id="path6612" />
        <path
           d="m 238.06783,99.62724 q 0,-0.284219 0.19637,-0.490924 0.20154,-0.206705 0.48059,-0.206705 0.28939,0 0.49609,0.206705 0.20671,0.206705 0.20671,0.490924 0,0.289387 -0.20671,0.49092 -0.20153,0.20154 -0.49609,0.20154 -0.28938,0 -0.48575,-0.19637 -0.19121,-0.196368 -0.19121,-0.49609 z m 0.6873,-3.152252 q -0.72864,0 -1.09037,0.785479 -0.35657,0.785479 -0.35657,2.392611 0,1.601962 0.35657,2.387442 0.36173,0.78548 1.09037,0.78548 0.7338,0 1.09037,-0.78548 0.36173,-0.78548 0.36173,-2.387442 0,-1.607132 -0.36173,-2.392611 -0.35657,-0.785479 -1.09037,-0.785479 z m 0,-0.82682 q 1.23506,0 1.86551,1.012854 0.63562,1.012855 0.63562,2.992056 0,1.974032 -0.63562,2.986892 -0.63045,1.01285 -1.86551,1.01285 -1.23506,0 -1.86552,-1.01285 -0.63045,-1.01286 -0.63045,-2.986892 0,-1.979201 0.63045,-2.992056 0.63046,-1.012854 1.86552,-1.012854 z"
           style="font-size:medium;line-height:1.25;font-family:monospace;-inkscape-font-specification:monospace"
           id="path6614" />
        <path
           d="m 243.33882,102.62446 h 1.62263 v -5.896258 l -1.74666,0.392739 v -0.950843 l 1.73633,-0.382405 h 1.04386 v 6.836767 h 1.60196 v 0.8785 h -4.25812 z"
           style="font-size:medium;line-height:1.25;font-family:monospace;-inkscape-font-specification:monospace"
           id="path6616" />
        <path
           d="m 249.71049,102.62446 h 1.62264 v -5.896258 l -1.74666,0.392739 v -0.950843 l 1.73632,-0.382405 h 1.04386 v 6.836767 h 1.60197 v 0.8785 h -4.25813 z"
           style="font-size:medium;line-height:1.25;font-family:monospace;-inkscape-font-specification:monospace;fill:#ff0000"
           id="path6618" />
        <path
           d="m 257.18288,99.62724 q 0,-0.284219 0.19637,-0.490924 0.20154,-0.206705 0.48059,-0.206705 0.28939,0 0.4961,0.206705 0.2067,0.206705 0.2067,0.490924 0,0.289387 -0.2067,0.49092 -0.20154,0.20154 -0.4961,0.20154 -0.28938,0 -0.48575,-0.19637 -0.19121,-0.196368 -0.19121,-0.49609 z m 0.6873,-3.152252 q -0.72864,0 -1.09037,0.785479 -0.35657,0.785479 -0.35657,2.392611 0,1.601962 0.35657,2.387442 0.36173,0.78548 1.09037,0.78548 0.7338,0 1.09037,-0.78548 0.36173,-0.78548 0.36173,-2.387442 0,-1.607132 -0.36173,-2.392611 -0.35657,-0.785479 -1.09037,-0.785479 z m 0,-0.82682 q 1.23506,0 1.86551,1.012854 0.63562,1.012855 0.63562,2.992056 0,1.974032 -0.63562,2.986892 -0.63045,1.01285 -1.86551,1.01285 -1.23506,0 -1.86551,-1.01285 -0.63045,-1.01286 -0.63045,-2.986892 0,-1.979201 0.63045,-2.992056 0.63045,-1.012854 1.86551,-1.012854 z"
           style="font-size:medium;line-height:1.25;font-family:monospace;-inkscape-font-specification:monospace"
           id="path6620" />
        <path
           d="m 262.45387,102.62446 h 1.62263 v -5.896258 l -1.74665,0.392739 v -0.950843 l 1.73632,-0.382405 h 1.04386 v 6.836767 h 1.60196 v 0.8785 h -4.25812 z"
           style="font-size:medium;line-height:1.25;font-family:monospace;-inkscape-font-specification:monospace;fill:#ff0000"
           id="path6622" />
        <path
           d="m 268.82554,102.62446 h 1.62264 v -5.896258 l -1.74666,0.392739 v -0.950843 l 1.73632,-0.382405 h 1.04386 v 6.836767 h 1.60197 v 0.8785 h -4.25813 z"
           style="font-size:medium;line-height:1.25;font-family:monospace;-inkscape-font-specification:monospace;fill:#ff0000"
           id="path6624" />
        <path
           d="m 275.19722,102.62446 h 1.62263 v -5.896258 l -1.74666,0.392739 v -0.950843 l 1.73633,-0.382405 h 1.04386 v 6.836767 h 1.60196 v 0.8785 h -4.25812 z"
           style="font-size:medium;line-height:1.25;font-family:monospace;-inkscape-font-specification:monospace;fill:#ff0000"
           id="path6626" />
        <path
           d="m 282.66962,99.62724 q 0,-0.284219 0.19637,-0.490924 0.20154,-0.206705 0.48059,-0.206705 0.28939,0 0.4961,0.206705 0.2067,0.206705 0.2067,0.490924 0,0.289387 -0.2067,0.49092 -0.20154,0.20154 -0.4961,0.20154 -0.28938,0 -0.48575,-0.19637 -0.19121,-0.196368 -0.19121,-0.49609 z m 0.6873,-3.152252 q -0.72864,0 -1.09037,0.785479 -0.35657,0.785479 -0.35657,2.392611 0,1.601962 0.35657,2.387442 0.36173,0.78548 1.09037,0.78548 0.7338,0 1.09037,-0.78548 0.36173,-0.78548 0.36173,-2.387442 0,-1.607132 -0.36173,-2.392611 -0.35657,-0.785479 -1.09037,-0.785479 z m 0,-0.82682 q 1.23506,0 1.86551,1.012854 0.63562,1.012855 0.63562,2.992056 0,1.974032 -0.63562,2.986892 -0.63045,1.01285 -1.86551,1.01285 -1.23506,0 -1.86551,-1.01285 -0.63045,-1.01286 -0.63045,-2.986892 0,-1.979201 0.63045,-2.992056 0.63045,-1.012854 1.86551,-1.012854 z"
           style="font-size:medium;line-height:1.25;font-family:monospace;-inkscape-font-specification:monospace"
           id="path6628" />
        <path
           d="m 13.281244,109.06973 h 1.322912 l 2.604484,6.35102 v -6.35102 h 1.007687 v 7.71527 h -1.322912 l -2.604484,-6.35101 v 6.35101 h -1.007687 z"
           style="font-size:medium;line-height:126%;font-family:monospace;-inkscape-font-specification:monospace"
           id="path6630" />
        <path
           d="m 23.611329,112.93512 q 0,-1.70015 -0.351398,-2.42879 -0.346231,-0.72863 -1.142046,-0.72863 -0.790647,0 -1.142045,0.72863 -0.346231,0.72864 -0.346231,2.42879 0,1.69498 0.346231,2.42362 0.351398,0.72863 1.142045,0.72863 0.795815,0 1.142046,-0.72347 0.351398,-0.72863 0.351398,-2.42878 z m 1.09037,0 q 0,2.01537 -0.640786,3.00756 -0.635618,0.99218 -1.943028,0.99218 -1.307409,0 -1.943028,-0.98701 -0.635618,-0.98702 -0.635618,-3.01273 0,-2.02054 0.635618,-3.01273 0.640786,-0.99218 1.943028,-0.99218 1.30741,0 1.943028,0.99218 0.640786,0.99219 0.640786,3.01273 z"
           style="font-size:medium;line-height:126%;font-family:monospace;-inkscape-font-specification:monospace"
           id="path6632" />
        <path
           d="m 25.549189,109.06973 h 5.885927 v 0.8785 h -2.413282 v 6.83677 h -1.049028 v -6.83677 h -2.423617 z"
           style="font-size:medium;line-height:126%;font-family:monospace;-inkscape-font-specification:monospace"
           id="path6634" />
        <path
           d="m 41.542994,111.58637 q 0.175699,-0.37207 0.444415,-0.54777 0.273885,-0.18087 0.656289,-0.18087 0.69763,0 0.981849,0.5426 0.289387,0.53744 0.289387,2.03088 v 3.35379 h -0.868161 v -3.31245 q 0,-1.22473 -0.139526,-1.51928 -0.134358,-0.29972 -0.496092,-0.29972 -0.41341,0 -0.568439,0.32039 -0.149861,0.31523 -0.149861,1.49861 v 3.31245 h -0.868162 v -3.31245 q 0,-1.24023 -0.149861,-1.52962 -0.144693,-0.28938 -0.527098,-0.28938 -0.377236,0 -0.527098,0.32039 -0.144693,0.31523 -0.144693,1.49861 v 3.31245 h -0.862994 v -5.78774 h 0.862994 v 0.49609 q 0.170532,-0.31006 0.423745,-0.47025 0.258382,-0.16537 0.583942,-0.16537 0.39274,0 0.651121,0.18087 0.263549,0.18087 0.408243,0.54777 z"
           style="font-size:medium;line-height:126%;font-family:monospace;-inkscape-font-specification:monospace;fill:#0000ff"
           id="path6636" />
        <path
           d="M 48.049035,113.87563 H 47.73381 q -0.831988,0 -1.255734,0.29455 -0.418577,0.28939 -0.418577,0.86816 0,0.52193 0.315225,0.81132 0.315225,0.28939 0.873329,0.28939 0.785479,0 1.235063,-0.5426 0.449583,-0.54777 0.454751,-1.50895 v -0.21187 z m 1.844843,-0.39274 v 3.30211 h -0.956011 v -0.85782 q -0.30489,0.51676 -0.769977,0.7648 -0.459918,0.24288 -1.121375,0.24288 -0.883664,0 -1.410762,-0.49609 -0.527098,-0.50126 -0.527098,-1.33842 0,-0.96634 0.645954,-1.4676 0.651121,-0.50126 1.906854,-0.50126 h 1.276404 v -0.14986 q -0.0052,-0.69246 -0.351399,-1.00252 -0.346231,-0.31523 -1.105872,-0.31523 -0.485757,0 -0.981849,0.13953 -0.496092,0.13952 -0.966346,0.40824 v -0.95084 q 0.527098,-0.20154 1.007687,-0.29972 0.485757,-0.10336 0.940508,-0.10336 0.7183,0 1.224728,0.21188 0.511595,0.21187 0.82682,0.63561 0.19637,0.25839 0.279052,0.64079 0.08268,0.37724 0.08268,1.13688 z"
           style="font-size:medium;line-height:126%;font-family:monospace;-inkscape-font-specification:monospace;fill:#0000ff"
           id="path6638" />
        <path
           d="m 54.09516,114.68694 q 0,0.64079 0.232543,0.96635 0.237711,0.32556 0.697629,0.32556 h 1.11104 v 0.80615 h -1.204057 q -0.852658,0 -1.322912,-0.54777 -0.465087,-0.54777 -0.465087,-1.55029 v -5.25547 h -1.52445 v -0.74414 h 2.475294 z"
           style="font-size:medium;line-height:126%;font-family:monospace;-inkscape-font-specification:monospace;fill:#0000ff"
           id="path6640" />
        <path
           d="m 62.911128,113.65342 v 0.46509 H 58.79253 v 0.031 q 0,0.94568 0.490924,1.46244 0.496092,0.51676 1.395259,0.51676 0.454752,0 0.950844,-0.14469 0.496092,-0.14469 1.059363,-0.43925 v 0.94568 q -0.542601,0.2222 -1.049028,0.33072 -0.50126,0.11369 -0.971514,0.11369 -1.34875,0 -2.108392,-0.80615 -0.759641,-0.81131 -0.759641,-2.23241 0,-1.38493 0.744139,-2.21175 0.744138,-0.82682 1.984368,-0.82682 1.105872,0 1.74149,0.74931 0.640786,0.74931 0.640786,2.04638 z m -0.950843,-0.27905 q -0.02067,-0.83716 -0.397907,-1.27124 -0.37207,-0.43925 -1.074867,-0.43925 -0.687294,0 -1.13171,0.45475 -0.444416,0.45476 -0.527098,1.26091 z"
           style="font-size:medium;line-height:126%;font-family:monospace;-inkscape-font-specification:monospace;fill:#0000ff"
           id="path6642" />
        <path
           d="m 142.82331,112.09796 2.14973,2.88871 q 0.20154,-0.25322 0.29972,-0.64079 0.0982,-0.38757 0.0982,-0.925 0,-0.16537 -0.0155,-0.5271 l -0.005,-0.0362 h 0.8475 v 0.20154 q 0,0.83199 -0.19121,1.46244 -0.1912,0.62528 -0.57877,1.08003 l 0.8785,1.18339 h -1.10071 l -0.40307,-0.56327 q -0.42892,0.36173 -0.90951,0.53743 -0.48059,0.1757 -1.02835,0.1757 -1.11621,0 -1.84485,-0.69246 -0.72863,-0.69763 -0.72863,-1.75183 0,-0.70796 0.35656,-1.31257 0.35657,-0.60461 1.07487,-1.12138 -0.25838,-0.37207 -0.3824,-0.72863 -0.12403,-0.35657 -0.12403,-0.72347 0,-0.77514 0.5116,-1.22473 0.51676,-0.44958 1.41076,-0.44958 0.3359,0 0.67179,0.062 0.34107,0.062 0.7028,0.18087 v 0.94567 q -0.30489,-0.20153 -0.63045,-0.29455 -0.32039,-0.0982 -0.67696,-0.0982 -0.50126,0 -0.79065,0.23771 -0.28938,0.23255 -0.28938,0.63045 0,0.30489 0.14986,0.64079 0.14986,0.33073 0.54777,0.86299 z m -0.67696,0.53744 q -0.47543,0.37723 -0.71314,0.80098 -0.23254,0.41858 -0.23254,0.894 0,0.78031 0.51676,1.29707 0.51677,0.5116 1.31775,0.5116 0.21704,0 0.45475,-0.062 0.23771,-0.062 0.46509,-0.18087 0.13952,-0.0775 0.22737,-0.13436 0.093,-0.062 0.1757,-0.12919 z"
           style="font-size:medium;line-height:126%;font-family:monospace;-inkscape-font-specification:monospace"
           id="path6644" />
        <path
           d="m 154.13524,115.9065 h 1.62263 v -5.89626 l -1.74666,0.39274 v -0.95084 l 1.73632,-0.38241 h 1.04387 v 6.83677 h 1.60196 v 0.8785 h -4.25812 z"
           style="font-size:medium;line-height:126%;font-family:monospace;-inkscape-font-specification:monospace"
           id="path6646" />
        <path
           d="m 160.50692,115.9065 h 1.62264 v -5.89626 l -1.74666,0.39274 v -0.95084 l 1.73632,-0.38241 h 1.04386 v 6.83677 h 1.60197 v 0.8785 h -4.25813 z"
           style="font-size:medium;line-height:126%;font-family:monospace;-inkscape-font-specification:monospace"
           id="path6648" />
        <path
           d="m 166.87861,115.9065 h 1.62264 v -5.89626 l -1.74666,0.39274 v -0.95084 l 1.73632,-0.38241 h 1.04386 v 6.83677 h 1.60197 v 0.8785 h -4.25813 z"
           style="font-size:medium;line-height:126%;font-family:monospace;-inkscape-font-specification:monospace;fill:#ff0000"
           id="path6650" />
        <path
           d="m 174.35099,112.90928 q 0,-0.28422 0.19637,-0.49092 0.20154,-0.20671 0.48059,-0.20671 0.28939,0 0.49609,0.20671 0.20671,0.2067 0.20671,0.49092 0,0.28939 -0.20671,0.49093 -0.20154,0.20153 -0.49609,0.20153 -0.28939,0 -0.48576,-0.19637 -0.1912,-0.19637 -0.1912,-0.49609 z m 0.6873,-3.15225 q -0.72864,0 -1.09037,0.78548 -0.35657,0.78548 -0.35657,2.39261 0,1.60196 0.35657,2.38744 0.36173,0.78548 1.09037,0.78548 0.7338,0 1.09036,-0.78548 0.36174,-0.78548 0.36174,-2.38744 0,-1.60713 -0.36174,-2.39261 -0.35656,-0.78548 -1.09036,-0.78548 z m 0,-0.82682 q 1.23506,0 1.86551,1.01285 0.63562,1.01286 0.63562,2.99206 0,1.97403 -0.63562,2.98689 -0.63045,1.01285 -1.86551,1.01285 -1.23507,0 -1.86552,-1.01285 -0.63045,-1.01286 -0.63045,-2.98689 0,-1.9792 0.63045,-2.99206 0.63045,-1.01285 1.86552,-1.01285 z"
           style="font-size:medium;line-height:126%;font-family:monospace;-inkscape-font-specification:monospace"
           id="path6652" />
        <path
           d="m 180.72268,112.90928 q 0,-0.28422 0.19637,-0.49092 0.20154,-0.20671 0.48059,-0.20671 0.28939,0 0.49609,0.20671 0.20671,0.2067 0.20671,0.49092 0,0.28939 -0.20671,0.49093 -0.20154,0.20153 -0.49609,0.20153 -0.28939,0 -0.48576,-0.19637 -0.1912,-0.19637 -0.1912,-0.49609 z m 0.68729,-3.15225 q -0.72863,0 -1.09037,0.78548 -0.35656,0.78548 -0.35656,2.39261 0,1.60196 0.35656,2.38744 0.36174,0.78548 1.09037,0.78548 0.73381,0 1.09037,-0.78548 0.36174,-0.78548 0.36174,-2.38744 0,-1.60713 -0.36174,-2.39261 -0.35656,-0.78548 -1.09037,-0.78548 z m 0,-0.82682 q 1.23507,0 1.86552,1.01285 0.63562,1.01286 0.63562,2.99206 0,1.97403 -0.63562,2.98689 -0.63045,1.01285 -1.86552,1.01285 -1.23506,0 -1.86551,-1.01285 -0.63045,-1.01286 -0.63045,-2.98689 0,-1.9792 0.63045,-2.99206 0.63045,-1.01285 1.86551,-1.01285 z"
           style="font-size:medium;line-height:126%;font-family:monospace;-inkscape-font-specification:monospace"
           id="path6654" />
        <path
           d="m 185.99366,115.9065 h 1.62264 v -5.89626 l -1.74666,0.39274 v -0.95084 l 1.73632,-0.38241 h 1.04386 v 6.83677 h 1.60197 v 0.8785 h -4.25813 z"
           style="font-size:medium;line-height:126%;font-family:monospace;-inkscape-font-specification:monospace;fill:#ff0000"
           id="path6656" />
        <path
           d="m 192.36534,115.9065 h 1.62263 v -5.89626 l -1.74666,0.39274 v -0.95084 l 1.73633,-0.38241 h 1.04386 v 6.83677 h 1.60196 v 0.8785 h -4.25812 z"
           style="font-size:medium;line-height:126%;font-family:monospace;-inkscape-font-specification:monospace"
           id="path6658" />
        <path
           d="m 199.83773,112.90928 q 0,-0.28422 0.19637,-0.49092 0.20154,-0.20671 0.48059,-0.20671 0.28939,0 0.49609,0.20671 0.20671,0.2067 0.20671,0.49092 0,0.28939 -0.20671,0.49093 -0.20154,0.20153 -0.49609,0.20153 -0.28939,0 -0.48576,-0.19637 -0.1912,-0.19637 -0.1912,-0.49609 z m 0.6873,-3.15225 q -0.72864,0 -1.09037,0.78548 -0.35657,0.78548 -0.35657,2.39261 0,1.60196 0.35657,2.38744 0.36173,0.78548 1.09037,0.78548 0.7338,0 1.09036,-0.78548 0.36174,-0.78548 0.36174,-2.38744 0,-1.60713 -0.36174,-2.39261 -0.35656,-0.78548 -1.09036,-0.78548 z m 0,-0.82682 q 1.23506,0 1.86551,1.01285 0.63562,1.01286 0.63562,2.99206 0,1.97403 -0.63562,2.98689 -0.63045,1.01285 -1.86551,1.01285 -1.23507,0 -1.86552,-1.01285 -0.63045,-1.01286 -0.63045,-2.98689 0,-1.9792 0.63045,-2.99206 0.63045,-1.01285 1.86552,-1.01285 z"
           style="font-size:medium;line-height:126%;font-family:monospace;-inkscape-font-specification:monospace"
           id="path6660" />
        <path
           d="m 206.20942,112.90928 q 0,-0.28422 0.19637,-0.49092 0.20154,-0.20671 0.48059,-0.20671 0.28939,0 0.49609,0.20671 0.20671,0.2067 0.20671,0.49092 0,0.28939 -0.20671,0.49093 -0.20154,0.20153 -0.49609,0.20153 -0.28939,0 -0.48576,-0.19637 -0.1912,-0.19637 -0.1912,-0.49609 z m 0.68729,-3.15225 q -0.72863,0 -1.09037,0.78548 -0.35656,0.78548 -0.35656,2.39261 0,1.60196 0.35656,2.38744 0.36174,0.78548 1.09037,0.78548 0.73381,0 1.09037,-0.78548 0.36174,-0.78548 0.36174,-2.38744 0,-1.60713 -0.36174,-2.39261 -0.35656,-0.78548 -1.09037,-0.78548 z m 0,-0.82682 q 1.23507,0 1.86552,1.01285 0.63562,1.01286 0.63562,2.99206 0,1.97403 -0.63562,2.98689 -0.63045,1.01285 -1.86552,1.01285 -1.23506,0 -1.86551,-1.01285 -0.63045,-1.01286 -0.63045,-2.98689 0,-1.9792 0.63045,-2.99206 0.63045,-1.01285 1.86551,-1.01285 z"
           style="font-size:medium;line-height:126%;font-family:monospace;-inkscape-font-specification:monospace"
           id="path6662" />
        <path
           d="m 211.48039,115.9065 h 1.62263 v -5.89626 l -1.74665,0.39274 v -0.95084 l 1.73632,-0.38241 h 1.04386 v 6.83677 h 1.60196 v 0.8785 h -4.25812 z"
           style="font-size:medium;line-height:126%;font-family:monospace;-inkscape-font-specification:monospace"
           id="path6664" />
        <path
           d="m 217.85208,115.9065 h 1.62263 v -5.89626 l -1.74666,0.39274 v -0.95084 l 1.73633,-0.38241 h 1.04386 v 6.83677 h 1.60196 v 0.8785 h -4.25812 z"
           style="font-size:medium;line-height:126%;font-family:monospace;-inkscape-font-specification:monospace"
           id="path6666" />
        <path
           d="m 224.22377,115.9065 h 1.62263 v -5.89626 l -1.74666,0.39274 v -0.95084 l 1.73633,-0.38241 h 1.04386 v 6.83677 h 1.60196 v 0.8785 h -4.25812 z"
           style="font-size:medium;line-height:126%;font-family:monospace;-inkscape-font-specification:monospace;fill:#ff0000"
           id="path6668" />
        <path
           d="m 230.59544,115.9065 h 1.62264 v -5.89626 l -1.74666,0.39274 v -0.95084 l 1.73632,-0.38241 h 1.04386 v 6.83677 h 1.60196 v 0.8785 h -4.25812 z"
           style="font-size:medium;line-height:126%;font-family:monospace;-inkscape-font-specification:monospace"
           id="path6670" />
        <path
           d="m 236.96713,115.9065 h 1.62263 v -5.89626 l -1.74665,0.39274 v -0.95084 l 1.73632,-0.38241 h 1.04386 v 6.83677 h 1.60196 v 0.8785 h -4.25812 z"
           style="font-size:medium;line-height:126%;font-family:monospace;-inkscape-font-specification:monospace"
           id="path6672" />
        <path
           d="m 244.43952,112.90928 q 0,-0.28422 0.19637,-0.49092 0.20154,-0.20671 0.48059,-0.20671 0.28939,0 0.49609,0.20671 0.20671,0.2067 0.20671,0.49092 0,0.28939 -0.20671,0.49093 -0.20153,0.20153 -0.49609,0.20153 -0.28939,0 -0.48576,-0.19637 -0.1912,-0.19637 -0.1912,-0.49609 z m 0.6873,-3.15225 q -0.72864,0 -1.09037,0.78548 -0.35657,0.78548 -0.35657,2.39261 0,1.60196 0.35657,2.38744 0.36173,0.78548 1.09037,0.78548 0.7338,0 1.09037,-0.78548 0.36173,-0.78548 0.36173,-2.38744 0,-1.60713 -0.36173,-2.39261 -0.35657,-0.78548 -1.09037,-0.78548 z m 0,-0.82682 q 1.23506,0 1.86551,1.01285 0.63562,1.01286 0.63562,2.99206 0,1.97403 -0.63562,2.98689 -0.63045,1.01285 -1.86551,1.01285 -1.23507,0 -1.86552,-1.01285 -0.63045,-1.01286 -0.63045,-2.98689 0,-1.9792 0.63045,-2.99206 0.63045,-1.01285 1.86552,-1.01285 z"
           style="font-size:medium;line-height:126%;font-family:monospace;-inkscape-font-specification:monospace"
           id="path6674" />
        <path
           d="m 249.71049,115.9065 h 1.62264 v -5.89626 l -1.74666,0.39274 v -0.95084 l 1.73632,-0.38241 h 1.04386 v 6.83677 h 1.60197 v 0.8785 h -4.25813 z"
           style="font-size:medium;line-height:126%;font-family:monospace;-inkscape-font-specification:monospace;fill:#ff0000"
           id="path6676" />
        <path
           d="m 256.08218,115.9065 h 1.62264 v -5.89626 l -1.74666,0.39274 v -0.95084 l 1.73632,-0.38241 h 1.04386 v 6.83677 h 1.60196 v 0.8785 h -4.25812 z"
           style="font-size:medium;line-height:126%;font-family:monospace;-inkscape-font-specification:monospace"
           id="path6678" />
        <path
           d="m 262.45387,115.9065 h 1.62263 v -5.89626 l -1.74665,0.39274 v -0.95084 l 1.73632,-0.38241 h 1.04386 v 6.83677 h 1.60196 v 0.8785 h -4.25812 z"
           style="font-size:medium;line-height:126%;font-family:monospace;-inkscape-font-specification:monospace;fill:#ff0000"
           id="path6680" />
        <path
           d="m 268.82554,115.9065 h 1.62264 v -5.89626 l -1.74666,0.39274 v -0.95084 l 1.73632,-0.38241 h 1.04386 v 6.83677 h 1.60197 v 0.8785 h -4.25813 z"
           style="font-size:medium;line-height:126%;font-family:monospace;-inkscape-font-specification:monospace;fill:#ff0000"
           id="path6682" />
        <path
           d="m 275.19722,115.9065 h 1.62263 v -5.89626 l -1.74666,0.39274 v -0.95084 l 1.73633,-0.38241 h 1.04386 v 6.83677 h 1.60196 v 0.8785 h -4.25812 z"
           style="font-size:medium;line-height:126%;font-family:monospace;-inkscape-font-specification:monospace;fill:#ff0000"
           id="path6684" />
        <path
           d="m 281.56892,115.9065 h 1.62264 v -5.89626 l -1.74666,0.39274 v -0.95084 l 1.73632,-0.38241 h 1.04386 v 6.83677 h 1.60196 v 0.8785 h -4.25812 z"
           style="font-size:medium;line-height:126%;font-family:monospace;-inkscape-font-specification:monospace"
           id="path6686" />
        <path
           d="m 18.056131,122.02621 v 0.79065 h -1.080034 q -0.511595,0 -0.713133,0.21187 -0.19637,0.20671 -0.19637,0.73898 v 0.51159 h 1.989537 v 0.73897 h -1.989537 v 5.04877 h -0.950843 v -5.04877 h -1.54512 v -0.73897 h 1.54512 v -0.40307 q 0,-0.95085 0.434081,-1.40043 0.439248,-0.44959 1.364253,-0.44959 z"
           style="font-size:medium;line-height:1.25;font-family:monospace;-inkscape-font-specification:monospace;fill:#ff0000"
           id="path6688" />
        <path
           d="m 24.681028,126.93546 v 0.46509 h -4.118599 v 0.031 q 0,0.94568 0.490925,1.46244 0.496092,0.51676 1.395259,0.51676 0.454751,0 0.950844,-0.14469 0.496092,-0.14469 1.059363,-0.43925 v 0.94568 q -0.542601,0.22221 -1.049028,0.33073 -0.50126,0.11368 -0.971514,0.11368 -1.348751,0 -2.108392,-0.80615 -0.759641,-0.81131 -0.759641,-2.23241 0,-1.38493 0.744138,-2.21175 0.744139,-0.82682 1.984369,-0.82682 1.105872,0 1.74149,0.74931 0.640786,0.74931 0.640786,2.04638 z m -0.950843,-0.27905 q -0.02067,-0.83716 -0.397908,-1.27124 -0.372069,-0.43925 -1.074866,-0.43925 -0.687294,0 -1.13171,0.45476 -0.444416,0.45475 -0.527098,1.2609 z"
           style="font-size:medium;line-height:1.25;font-family:monospace;-inkscape-font-specification:monospace;fill:#ff0000"
           id="path6690" />
        <path
           d="m 28.799626,124.86841 q 0.1757,-0.37207 0.444416,-0.54777 0.273884,-0.18087 0.656289,-0.18087 0.697629,0 0.981849,0.54261 0.289387,0.53743 0.289387,2.03087 v 3.35379 h -0.868161 v -3.31245 q 0,-1.22472 -0.139526,-1.51928 -0.134358,-0.29972 -0.496092,-0.29972 -0.41341,0 -0.568439,0.32039 -0.149861,0.31523 -0.149861,1.49861 v 3.31245 h -0.868162 v -3.31245 q 0,-1.24023 -0.149861,-1.52961 -0.144693,-0.28939 -0.527098,-0.28939 -0.377237,0 -0.527098,0.32039 -0.144693,0.31523 -0.144693,1.49861 v 3.31245 h -0.862994 v -5.78774 h 0.862994 v 0.49609 q 0.170531,-0.31006 0.423745,-0.47025 0.258381,-0.16537 0.583942,-0.16537 0.39274,0 0.651121,0.18087 0.263549,0.18087 0.408242,0.54777 z"
           style="font-size:medium;line-height:1.25;font-family:monospace;-inkscape-font-specification:monospace;fill:#ff0000"
           id="path6692" />
        <path
           d="m 35.305669,127.15767 h -0.315226 q -0.831987,0 -1.255733,0.29455 -0.418578,0.28939 -0.418578,0.86816 0,0.52193 0.315226,0.81132 0.315225,0.28939 0.873329,0.28939 0.785479,0 1.235062,-0.5426 0.449584,-0.54777 0.454752,-1.50895 v -0.21187 z m 1.844842,-0.39274 v 3.30211 h -0.95601 v -0.85782 q -0.30489,0.51676 -0.769977,0.7648 -0.459919,0.24288 -1.121375,0.24288 -0.883664,0 -1.410762,-0.49609 -0.527098,-0.50126 -0.527098,-1.33841 0,-0.96635 0.645953,-1.46761 0.651121,-0.50126 1.906855,-0.50126 h 1.276404 v -0.14986 q -0.0052,-0.69246 -0.351399,-1.00252 -0.346231,-0.31523 -1.105872,-0.31523 -0.485757,0 -0.981849,0.13953 -0.496092,0.13953 -0.966347,0.40824 v -0.95084 q 0.527098,-0.20154 1.007688,-0.29972 0.485757,-0.10336 0.940508,-0.10336 0.7183,0 1.224727,0.21188 0.511595,0.21187 0.826821,0.63562 0.196369,0.25838 0.279051,0.64078 0.08268,0.37724 0.08268,1.13688 z"
           style="font-size:medium;line-height:1.25;font-family:monospace;-inkscape-font-specification:monospace;fill:#ff0000"
           id="path6694" />
        <path
           d="m 41.351791,127.96899 q 0,0.64078 0.232544,0.96634 0.23771,0.32556 0.697629,0.32556 h 1.11104 v 0.80615 h -1.204057 q -0.852659,0 -1.322913,-0.54777 -0.465086,-0.54776 -0.465086,-1.55028 v -5.25548 h -1.52445 v -0.74414 h 2.475293 z"
           style="font-size:medium;line-height:1.25;font-family:monospace;-inkscape-font-specification:monospace;fill:#ff0000"
           id="path6696" />
        <path
           d="m 50.167762,126.93546 v 0.46509 h -4.118599 v 0.031 q 0,0.94568 0.490925,1.46244 0.496092,0.51676 1.395259,0.51676 0.454751,0 0.950844,-0.14469 0.496092,-0.14469 1.059363,-0.43925 v 0.94568 q -0.542601,0.22221 -1.049028,0.33073 -0.50126,0.11368 -0.971514,0.11368 -1.348751,0 -2.108392,-0.80615 -0.759641,-0.81131 -0.759641,-2.23241 0,-1.38493 0.744138,-2.21175 0.744139,-0.82682 1.984369,-0.82682 1.105872,0 1.74149,0.74931 0.640786,0.74931 0.640786,2.04638 z m -0.950843,-0.27905 q -0.02067,-0.83716 -0.397908,-1.27124 -0.372069,-0.43925 -1.074866,-0.43925 -0.687294,0 -1.13171,0.45476 -0.444416,0.45475 -0.527098,1.2609 z"
           style="font-size:medium;line-height:1.25;font-family:monospace;-inkscape-font-specification:monospace;fill:#ff0000"
           id="path6698" />
        <path
           d="m 60.347985,123.27161 -1.100704,3.94807 h 2.201409 z m -0.63045,-0.91983 h 1.266068 l 2.361606,7.71526 h -1.080034 l -0.568439,-2.0102 h -2.702669 l -0.558104,2.0102 h -1.080034 z"
           style="font-size:medium;line-height:1.25;font-family:monospace;-inkscape-font-specification:monospace"
           id="path6700" />
        <path
           d="m 64.254712,122.35178 h 1.322913 l 2.604484,6.35101 v -6.35101 h 1.007687 v 7.71526 H 67.866883 L 65.2624,123.71603 v 6.35101 h -1.007688 z"
           style="font-size:medium;line-height:1.25;font-family:monospace;-inkscape-font-specification:monospace"
           id="path6702" />
        <path
           d="m 72.161183,129.20922 q 1.317744,0 1.839675,-0.64596 0.52193,-0.65112 0.52193,-2.3461 0,-1.71048 -0.52193,-2.35644 -0.516763,-0.65112 -1.839675,-0.65112 H 71.66509 v 5.99962 z m 0.02067,-6.85744 q 1.767328,0 2.604484,0.9405 0.837155,0.94051 0.837155,2.92488 0,1.97403 -0.837155,2.91454 -0.837156,0.93534 -2.604484,0.93534 h -1.565791 v -7.71526 z"
           style="font-size:medium;line-height:1.25;font-family:monospace;-inkscape-font-specification:monospace"
           id="path6704" />
        <path
           d="m 83.36976,122.35178 h 1.322912 l 2.604484,6.35101 v -6.35101 h 1.007687 v 7.71526 h -1.322912 l -2.604484,-6.35101 v 6.35101 H 83.36976 Z"
           style="font-size:medium;line-height:1.25;font-family:monospace;-inkscape-font-specification:monospace"
           id="path6706" />
        <path
           d="m 93.699851,126.21716 q 0,-1.70015 -0.351399,-2.42878 -0.346231,-0.72864 -1.142045,-0.72864 -0.790647,0 -1.142046,0.72864 -0.346231,0.72863 -0.346231,2.42878 0,1.69498 0.346231,2.42362 0.351399,0.72863 1.142046,0.72863 0.795814,0 1.142045,-0.72347 0.351399,-0.72863 0.351399,-2.42878 z m 1.090369,0 q 0,2.01537 -0.640786,3.00756 -0.635618,0.99218 -1.943027,0.99218 -1.30741,0 -1.943028,-0.98701 -0.635618,-0.98702 -0.635618,-3.01273 0,-2.02054 0.635618,-3.01273 0.640786,-0.99218 1.943028,-0.99218 1.307409,0 1.943027,0.99218 0.640786,0.99219 0.640786,3.01273 z"
           style="font-size:medium;line-height:1.25;font-family:monospace;-inkscape-font-specification:monospace"
           id="path6708" />
        <path
           d="m 95.637708,122.35178 h 5.885932 v 0.87849 h -2.413287 v 6.83677 h -1.049028 v -6.83677 h -2.423617 z"
           style="font-size:medium;line-height:1.25;font-family:monospace;-inkscape-font-specification:monospace"
           id="path6710" />
        <path
           d="m 111.63152,124.86841 q 0.17569,-0.37207 0.44441,-0.54777 0.27389,-0.18087 0.65629,-0.18087 0.69763,0 0.98185,0.54261 0.28939,0.53743 0.28939,2.03087 v 3.35379 h -0.86817 v -3.31245 q 0,-1.22472 -0.13952,-1.51928 -0.13436,-0.29972 -0.49609,-0.29972 -0.41341,0 -0.56844,0.32039 -0.14986,0.31523 -0.14986,1.49861 v 3.31245 h -0.86816 v -3.31245 q 0,-1.24023 -0.14987,-1.52961 -0.14469,-0.28939 -0.52709,-0.28939 -0.37724,0 -0.5271,0.32039 -0.1447,0.31523 -0.1447,1.49861 v 3.31245 h -0.86299 v -5.78774 h 0.86299 v 0.49609 q 0.17054,-0.31006 0.42375,-0.47025 0.25838,-0.16537 0.58394,-0.16537 0.39274,0 0.65112,0.18087 0.26355,0.18087 0.40825,0.54777 z"
           style="font-size:medium;line-height:1.25;font-family:monospace;-inkscape-font-specification:monospace;fill:#0000ff"
           id="path6712" />
        <path
           d="m 118.13756,127.15767 h -0.31523 q -0.83199,0 -1.25573,0.29455 -0.41858,0.28939 -0.41858,0.86816 0,0.52193 0.31522,0.81132 0.31523,0.28939 0.87333,0.28939 0.78548,0 1.23507,-0.5426 0.44958,-0.54777 0.45475,-1.50895 v -0.21187 z m 1.84484,-0.39274 v 3.30211 h -0.95601 v -0.85782 q -0.30489,0.51676 -0.76998,0.7648 -0.45992,0.24288 -1.12137,0.24288 -0.88367,0 -1.41077,-0.49609 -0.52709,-0.50126 -0.52709,-1.33841 0,-0.96635 0.64595,-1.46761 0.65112,-0.50126 1.90685,-0.50126 h 1.27641 v -0.14986 q -0.005,-0.69246 -0.3514,-1.00252 -0.34623,-0.31523 -1.10587,-0.31523 -0.48576,0 -0.98185,0.13953 -0.4961,0.13953 -0.96635,0.40824 v -0.95084 q 0.5271,-0.20154 1.00769,-0.29972 0.48575,-0.10336 0.94051,-0.10336 0.7183,0 1.22472,0.21188 0.5116,0.21187 0.82682,0.63562 0.19637,0.25838 0.27906,0.64078 0.0827,0.37724 0.0827,1.13688 z"
           style="font-size:medium;line-height:1.25;font-family:monospace;-inkscape-font-specification:monospace;fill:#0000ff"
           id="path6714" />
        <path
           d="m 124.18368,127.96899 q 0,0.64078 0.23254,0.96634 0.23771,0.32556 0.69763,0.32556 h 1.11104 v 0.80615 h -1.20406 q -0.85266,0 -1.32291,-0.54777 -0.46509,-0.54776 -0.46509,-1.55028 v -5.25548 h -1.52445 v -0.74414 h 2.4753 z"
           style="font-size:medium;line-height:1.25;font-family:monospace;-inkscape-font-specification:monospace;fill:#0000ff"
           id="path6716" />
        <path
           d="m 132.99965,126.93546 v 0.46509 h -4.1186 v 0.031 q 0,0.94568 0.49093,1.46244 0.49609,0.51676 1.39526,0.51676 0.45475,0 0.95084,-0.14469 0.49609,-0.14469 1.05936,-0.43925 v 0.94568 q -0.5426,0.22221 -1.04902,0.33073 -0.50126,0.11368 -0.97152,0.11368 -1.34875,0 -2.10839,-0.80615 -0.75964,-0.81131 -0.75964,-2.23241 0,-1.38493 0.74414,-2.21175 0.74414,-0.82682 1.98437,-0.82682 1.10587,0 1.74149,0.74931 0.64078,0.74931 0.64078,2.04638 z m -0.95084,-0.27905 q -0.0207,-0.83716 -0.39791,-1.27124 -0.37207,-0.43925 -1.07486,-0.43925 -0.6873,0 -1.13172,0.45476 -0.44441,0.45475 -0.52709,1.2609 z"
           style="font-size:medium;line-height:1.25;font-family:monospace;-inkscape-font-specification:monospace;fill:#0000ff"
           id="path6718" />
        <path
           d="m 155.23594,126.19132 q 0,-0.28422 0.19637,-0.49092 0.20154,-0.20671 0.48059,-0.20671 0.28939,0 0.49609,0.20671 0.20671,0.2067 0.20671,0.49092 0,0.28939 -0.20671,0.49093 -0.20154,0.20153 -0.49609,0.20153 -0.28939,0 -0.48576,-0.19637 -0.1912,-0.19637 -0.1912,-0.49609 z m 0.68729,-3.15225 q -0.72863,0 -1.09037,0.78548 -0.35656,0.78548 -0.35656,2.39261 0,1.60196 0.35656,2.38744 0.36174,0.78548 1.09037,0.78548 0.73381,0 1.09037,-0.78548 0.36174,-0.78548 0.36174,-2.38744 0,-1.60713 -0.36174,-2.39261 -0.35656,-0.78548 -1.09037,-0.78548 z m 0,-0.82682 q 1.23507,0 1.86552,1.01285 0.63562,1.01286 0.63562,2.99206 0,1.97403 -0.63562,2.98689 -0.63045,1.01285 -1.86552,1.01285 -1.23506,0 -1.86551,-1.01285 -0.63045,-1.01286 -0.63045,-2.98689 0,-1.9792 0.63045,-2.99206 0.63045,-1.01285 1.86551,-1.01285 z"
           style="font-size:medium;line-height:1.25;font-family:monospace;-inkscape-font-specification:monospace"
           id="path6720" />
        <path
           d="m 161.60763,126.19132 q 0,-0.28422 0.19637,-0.49092 0.20154,-0.20671 0.48059,-0.20671 0.28938,0 0.49609,0.20671 0.2067,0.2067 0.2067,0.49092 0,0.28939 -0.2067,0.49093 -0.20154,0.20153 -0.49609,0.20153 -0.28939,0 -0.48576,-0.19637 -0.1912,-0.19637 -0.1912,-0.49609 z m 0.68729,-3.15225 q -0.72863,0 -1.09037,0.78548 -0.35656,0.78548 -0.35656,2.39261 0,1.60196 0.35656,2.38744 0.36174,0.78548 1.09037,0.78548 0.73381,0 1.09037,-0.78548 0.36174,-0.78548 0.36174,-2.38744 0,-1.60713 -0.36174,-2.39261 -0.35656,-0.78548 -1.09037,-0.78548 z m 0,-0.82682 q 1.23507,0 1.86552,1.01285 0.63561,1.01286 0.63561,2.99206 0,1.97403 -0.63561,2.98689 -0.63045,1.01285 -1.86552,1.01285 -1.23506,0 -1.86551,-1.01285 -0.63045,-1.01286 -0.63045,-2.98689 0,-1.9792 0.63045,-2.99206 0.63045,-1.01285 1.86551,-1.01285 z"
           style="font-size:medium;line-height:1.25;font-family:monospace;-inkscape-font-specification:monospace"
           id="path6722" />
        <path
           d="m 166.87861,129.18855 h 1.62264 v -5.89627 l -1.74666,0.39274 v -0.95084 l 1.73632,-0.3824 h 1.04386 v 6.83677 h 1.60197 v 0.87849 h -4.25813 z"
           style="font-size:medium;line-height:1.25;font-family:monospace;-inkscape-font-specification:monospace;fill:#ff0000"
           id="path6724" />
        <path
           d="m 174.35099,126.19132 q 0,-0.28422 0.19637,-0.49092 0.20154,-0.20671 0.48059,-0.20671 0.28939,0 0.49609,0.20671 0.20671,0.2067 0.20671,0.49092 0,0.28939 -0.20671,0.49093 -0.20154,0.20153 -0.49609,0.20153 -0.28939,0 -0.48576,-0.19637 -0.1912,-0.19637 -0.1912,-0.49609 z m 0.6873,-3.15225 q -0.72864,0 -1.09037,0.78548 -0.35657,0.78548 -0.35657,2.39261 0,1.60196 0.35657,2.38744 0.36173,0.78548 1.09037,0.78548 0.7338,0 1.09036,-0.78548 0.36174,-0.78548 0.36174,-2.38744 0,-1.60713 -0.36174,-2.39261 -0.35656,-0.78548 -1.09036,-0.78548 z m 0,-0.82682 q 1.23506,0 1.86551,1.01285 0.63562,1.01286 0.63562,2.99206 0,1.97403 -0.63562,2.98689 -0.63045,1.01285 -1.86551,1.01285 -1.23507,0 -1.86552,-1.01285 -0.63045,-1.01286 -0.63045,-2.98689 0,-1.9792 0.63045,-2.99206 0.63045,-1.01285 1.86552,-1.01285 z"
           style="font-size:medium;line-height:1.25;font-family:monospace;-inkscape-font-specification:monospace"
           id="path6726" />
        <path
           d="m 180.72268,126.19132 q 0,-0.28422 0.19637,-0.49092 0.20154,-0.20671 0.48059,-0.20671 0.28939,0 0.49609,0.20671 0.20671,0.2067 0.20671,0.49092 0,0.28939 -0.20671,0.49093 -0.20154,0.20153 -0.49609,0.20153 -0.28939,0 -0.48576,-0.19637 -0.1912,-0.19637 -0.1912,-0.49609 z m 0.68729,-3.15225 q -0.72863,0 -1.09037,0.78548 -0.35656,0.78548 -0.35656,2.39261 0,1.60196 0.35656,2.38744 0.36174,0.78548 1.09037,0.78548 0.73381,0 1.09037,-0.78548 0.36174,-0.78548 0.36174,-2.38744 0,-1.60713 -0.36174,-2.39261 -0.35656,-0.78548 -1.09037,-0.78548 z m 0,-0.82682 q 1.23507,0 1.86552,1.01285 0.63562,1.01286 0.63562,2.99206 0,1.97403 -0.63562,2.98689 -0.63045,1.01285 -1.86552,1.01285 -1.23506,0 -1.86551,-1.01285 -0.63045,-1.01286 -0.63045,-2.98689 0,-1.9792 0.63045,-2.99206 0.63045,-1.01285 1.86551,-1.01285 z"
           style="font-size:medium;line-height:1.25;font-family:monospace;-inkscape-font-specification:monospace"
           id="path6728" />
        <path
           d="m 185.99366,129.18855 h 1.62264 v -5.89627 l -1.74666,0.39274 v -0.95084 l 1.73632,-0.3824 h 1.04386 v 6.83677 h 1.60197 v 0.87849 h -4.25813 z"
           style="font-size:medium;line-height:1.25;font-family:monospace;-inkscape-font-specification:monospace;fill:#ff0000"
           id="path6730" />
        <path
           d="m 193.46604,126.19132 q 0,-0.28422 0.19637,-0.49092 0.20154,-0.20671 0.48059,-0.20671 0.28939,0 0.49609,0.20671 0.20671,0.2067 0.20671,0.49092 0,0.28939 -0.20671,0.49093 -0.20153,0.20153 -0.49609,0.20153 -0.28939,0 -0.48576,-0.19637 -0.1912,-0.19637 -0.1912,-0.49609 z m 0.6873,-3.15225 q -0.72864,0 -1.09037,0.78548 -0.35657,0.78548 -0.35657,2.39261 0,1.60196 0.35657,2.38744 0.36173,0.78548 1.09037,0.78548 0.7338,0 1.09037,-0.78548 0.36173,-0.78548 0.36173,-2.38744 0,-1.60713 -0.36173,-2.39261 -0.35657,-0.78548 -1.09037,-0.78548 z m 0,-0.82682 q 1.23506,0 1.86551,1.01285 0.63562,1.01286 0.63562,2.99206 0,1.97403 -0.63562,2.98689 -0.63045,1.01285 -1.86551,1.01285 -1.23507,0 -1.86552,-1.01285 -0.63045,-1.01286 -0.63045,-2.98689 0,-1.9792 0.63045,-2.99206 0.63045,-1.01285 1.86552,-1.01285 z"
           style="font-size:medium;line-height:1.25;font-family:monospace;-inkscape-font-specification:monospace"
           id="path6732" />
        <path
           d="m 199.83773,126.19132 q 0,-0.28422 0.19637,-0.49092 0.20154,-0.20671 0.48059,-0.20671 0.28939,0 0.49609,0.20671 0.20671,0.2067 0.20671,0.49092 0,0.28939 -0.20671,0.49093 -0.20154,0.20153 -0.49609,0.20153 -0.28939,0 -0.48576,-0.19637 -0.1912,-0.19637 -0.1912,-0.49609 z m 0.6873,-3.15225 q -0.72864,0 -1.09037,0.78548 -0.35657,0.78548 -0.35657,2.39261 0,1.60196 0.35657,2.38744 0.36173,0.78548 1.09037,0.78548 0.7338,0 1.09036,-0.78548 0.36174,-0.78548 0.36174,-2.38744 0,-1.60713 -0.36174,-2.39261 -0.35656,-0.78548 -1.09036,-0.78548 z m 0,-0.82682 q 1.23506,0 1.86551,1.01285 0.63562,1.01286 0.63562,2.99206 0,1.97403 -0.63562,2.98689 -0.63045,1.01285 -1.86551,1.01285 -1.23507,0 -1.86552,-1.01285 -0.63045,-1.01286 -0.63045,-2.98689 0,-1.9792 0.63045,-2.99206 0.63045,-1.01285 1.86552,-1.01285 z"
           style="font-size:medium;line-height:1.25;font-family:monospace;-inkscape-font-specification:monospace"
           id="path6734" />
        <path
           d="m 206.20942,126.19132 q 0,-0.28422 0.19637,-0.49092 0.20154,-0.20671 0.48059,-0.20671 0.28939,0 0.49609,0.20671 0.20671,0.2067 0.20671,0.49092 0,0.28939 -0.20671,0.49093 -0.20154,0.20153 -0.49609,0.20153 -0.28939,0 -0.48576,-0.19637 -0.1912,-0.19637 -0.1912,-0.49609 z m 0.68729,-3.15225 q -0.72863,0 -1.09037,0.78548 -0.35656,0.78548 -0.35656,2.39261 0,1.60196 0.35656,2.38744 0.36174,0.78548 1.09037,0.78548 0.73381,0 1.09037,-0.78548 0.36174,-0.78548 0.36174,-2.38744 0,-1.60713 -0.36174,-2.39261 -0.35656,-0.78548 -1.09037,-0.78548 z m 0,-0.82682 q 1.23507,0 1.86552,1.01285 0.63562,1.01286 0.63562,2.99206 0,1.97403 -0.63562,2.98689 -0.63045,1.01285 -1.86552,1.01285 -1.23506,0 -1.86551,-1.01285 -0.63045,-1.01286 -0.63045,-2.98689 0,-1.9792 0.63045,-2.99206 0.63045,-1.01285 1.86551,-1.01285 z"
           style="font-size:medium;line-height:1.25;font-family:monospace;-inkscape-font-specification:monospace"
           id="path6736" />
        <path
           d="m 212.58109,126.19132 q 0,-0.28422 0.19637,-0.49092 0.20154,-0.20671 0.48059,-0.20671 0.28939,0 0.49609,0.20671 0.20671,0.2067 0.20671,0.49092 0,0.28939 -0.20671,0.49093 -0.20153,0.20153 -0.49609,0.20153 -0.28938,0 -0.48575,-0.19637 -0.19121,-0.19637 -0.19121,-0.49609 z m 0.6873,-3.15225 q -0.72864,0 -1.09037,0.78548 -0.35657,0.78548 -0.35657,2.39261 0,1.60196 0.35657,2.38744 0.36173,0.78548 1.09037,0.78548 0.7338,0 1.09037,-0.78548 0.36173,-0.78548 0.36173,-2.38744 0,-1.60713 -0.36173,-2.39261 -0.35657,-0.78548 -1.09037,-0.78548 z m 0,-0.82682 q 1.23506,0 1.86551,1.01285 0.63562,1.01286 0.63562,2.99206 0,1.97403 -0.63562,2.98689 -0.63045,1.01285 -1.86551,1.01285 -1.23506,0 -1.86552,-1.01285 -0.63045,-1.01286 -0.63045,-2.98689 0,-1.9792 0.63045,-2.99206 0.63046,-1.01285 1.86552,-1.01285 z"
           style="font-size:medium;line-height:1.25;font-family:monospace;-inkscape-font-specification:monospace"
           id="path6738" />
        <path
           d="m 218.95278,126.19132 q 0,-0.28422 0.19637,-0.49092 0.20154,-0.20671 0.48059,-0.20671 0.28939,0 0.49609,0.20671 0.20671,0.2067 0.20671,0.49092 0,0.28939 -0.20671,0.49093 -0.20153,0.20153 -0.49609,0.20153 -0.28939,0 -0.48576,-0.19637 -0.1912,-0.19637 -0.1912,-0.49609 z m 0.6873,-3.15225 q -0.72864,0 -1.09037,0.78548 -0.35657,0.78548 -0.35657,2.39261 0,1.60196 0.35657,2.38744 0.36173,0.78548 1.09037,0.78548 0.7338,0 1.09037,-0.78548 0.36173,-0.78548 0.36173,-2.38744 0,-1.60713 -0.36173,-2.39261 -0.35657,-0.78548 -1.09037,-0.78548 z m 0,-0.82682 q 1.23506,0 1.86551,1.01285 0.63562,1.01286 0.63562,2.99206 0,1.97403 -0.63562,2.98689 -0.63045,1.01285 -1.86551,1.01285 -1.23507,0 -1.86552,-1.01285 -0.63045,-1.01286 -0.63045,-2.98689 0,-1.9792 0.63045,-2.99206 0.63045,-1.01285 1.86552,-1.01285 z"
           style="font-size:medium;line-height:1.25;font-family:monospace;-inkscape-font-specification:monospace"
           id="path6740" />
        <path
           d="m 224.22377,129.18855 h 1.62263 v -5.89627 l -1.74666,0.39274 v -0.95084 l 1.73633,-0.3824 h 1.04386 v 6.83677 h 1.60196 v 0.87849 h -4.25812 z"
           style="font-size:medium;line-height:1.25;font-family:monospace;-inkscape-font-specification:monospace;fill:#ff0000"
           id="path6742" />
        <path
           d="m 231.69614,126.19132 q 0,-0.28422 0.19637,-0.49092 0.20154,-0.20671 0.48059,-0.20671 0.28939,0 0.4961,0.20671 0.2067,0.2067 0.2067,0.49092 0,0.28939 -0.2067,0.49093 -0.20154,0.20153 -0.4961,0.20153 -0.28938,0 -0.48575,-0.19637 -0.19121,-0.19637 -0.19121,-0.49609 z m 0.6873,-3.15225 q -0.72864,0 -1.09037,0.78548 -0.35657,0.78548 -0.35657,2.39261 0,1.60196 0.35657,2.38744 0.36173,0.78548 1.09037,0.78548 0.7338,0 1.09037,-0.78548 0.36173,-0.78548 0.36173,-2.38744 0,-1.60713 -0.36173,-2.39261 -0.35657,-0.78548 -1.09037,-0.78548 z m 0,-0.82682 q 1.23506,0 1.86551,1.01285 0.63562,1.01286 0.63562,2.99206 0,1.97403 -0.63562,2.98689 -0.63045,1.01285 -1.86551,1.01285 -1.23506,0 -1.86551,-1.01285 -0.63045,-1.01286 -0.63045,-2.98689 0,-1.9792 0.63045,-2.99206 0.63045,-1.01285 1.86551,-1.01285 z"
           style="font-size:medium;line-height:1.25;font-family:monospace;-inkscape-font-specification:monospace"
           id="path6744" />
        <path
           d="m 238.06783,126.19132 q 0,-0.28422 0.19637,-0.49092 0.20154,-0.20671 0.48059,-0.20671 0.28939,0 0.49609,0.20671 0.20671,0.2067 0.20671,0.49092 0,0.28939 -0.20671,0.49093 -0.20153,0.20153 -0.49609,0.20153 -0.28938,0 -0.48575,-0.19637 -0.19121,-0.19637 -0.19121,-0.49609 z m 0.6873,-3.15225 q -0.72864,0 -1.09037,0.78548 -0.35657,0.78548 -0.35657,2.39261 0,1.60196 0.35657,2.38744 0.36173,0.78548 1.09037,0.78548 0.7338,0 1.09037,-0.78548 0.36173,-0.78548 0.36173,-2.38744 0,-1.60713 -0.36173,-2.39261 -0.35657,-0.78548 -1.09037,-0.78548 z m 0,-0.82682 q 1.23506,0 1.86551,1.01285 0.63562,1.01286 0.63562,2.99206 0,1.97403 -0.63562,2.98689 -0.63045,1.01285 -1.86551,1.01285 -1.23506,0 -1.86552,-1.01285 -0.63045,-1.01286 -0.63045,-2.98689 0,-1.9792 0.63045,-2.99206 0.63046,-1.01285 1.86552,-1.01285 z"
           style="font-size:medium;line-height:1.25;font-family:monospace;-inkscape-font-specification:monospace"
           id="path6746" />
        <path
           d="m 244.43952,126.19132 q 0,-0.28422 0.19637,-0.49092 0.20154,-0.20671 0.48059,-0.20671 0.28939,0 0.49609,0.20671 0.20671,0.2067 0.20671,0.49092 0,0.28939 -0.20671,0.49093 -0.20153,0.20153 -0.49609,0.20153 -0.28939,0 -0.48576,-0.19637 -0.1912,-0.19637 -0.1912,-0.49609 z m 0.6873,-3.15225 q -0.72864,0 -1.09037,0.78548 -0.35657,0.78548 -0.35657,2.39261 0,1.60196 0.35657,2.38744 0.36173,0.78548 1.09037,0.78548 0.7338,0 1.09037,-0.78548 0.36173,-0.78548 0.36173,-2.38744 0,-1.60713 -0.36173,-2.39261 -0.35657,-0.78548 -1.09037,-0.78548 z m 0,-0.82682 q 1.23506,0 1.86551,1.01285 0.63562,1.01286 0.63562,2.99206 0,1.97403 -0.63562,2.98689 -0.63045,1.01285 -1.86551,1.01285 -1.23507,0 -1.86552,-1.01285 -0.63045,-1.01286 -0.63045,-2.98689 0,-1.9792 0.63045,-2.99206 0.63045,-1.01285 1.86552,-1.01285 z"
           style="font-size:medium;line-height:1.25;font-family:monospace;-inkscape-font-specification:monospace"
           id="path6748" />
        <path
           d="m 249.71049,129.18855 h 1.62264 v -5.89627 l -1.74666,0.39274 v -0.95084 l 1.73632,-0.3824 h 1.04386 v 6.83677 h 1.60197 v 0.87849 h -4.25813 z"
           style="font-size:medium;line-height:1.25;font-family:monospace;-inkscape-font-specification:monospace;fill:#ff0000"
           id="path6750" />
        <path
           d="m 257.18288,126.19132 q 0,-0.28422 0.19637,-0.49092 0.20154,-0.20671 0.48059,-0.20671 0.28939,0 0.4961,0.20671 0.2067,0.2067 0.2067,0.49092 0,0.28939 -0.2067,0.49093 -0.20154,0.20153 -0.4961,0.20153 -0.28938,0 -0.48575,-0.19637 -0.19121,-0.19637 -0.19121,-0.49609 z m 0.6873,-3.15225 q -0.72864,0 -1.09037,0.78548 -0.35657,0.78548 -0.35657,2.39261 0,1.60196 0.35657,2.38744 0.36173,0.78548 1.09037,0.78548 0.7338,0 1.09037,-0.78548 0.36173,-0.78548 0.36173,-2.38744 0,-1.60713 -0.36173,-2.39261 -0.35657,-0.78548 -1.09037,-0.78548 z m 0,-0.82682 q 1.23506,0 1.86551,1.01285 0.63562,1.01286 0.63562,2.99206 0,1.97403 -0.63562,2.98689 -0.63045,1.01285 -1.86551,1.01285 -1.23506,0 -1.86551,-1.01285 -0.63045,-1.01286 -0.63045,-2.98689 0,-1.9792 0.63045,-2.99206 0.63045,-1.01285 1.86551,-1.01285 z"
           style="font-size:medium;line-height:1.25;font-family:monospace;-inkscape-font-specification:monospace"
           id="path6752" />
        <path
           d="m 262.45387,129.18855 h 1.62263 v -5.89627 l -1.74665,0.39274 v -0.95084 l 1.73632,-0.3824 h 1.04386 v 6.83677 h 1.60196 v 0.87849 h -4.25812 z"
           style="font-size:medium;line-height:1.25;font-family:monospace;-inkscape-font-specification:monospace;fill:#ff0000"
           id="path6754" />
        <path
           d="m 268.82554,129.18855 h 1.62264 v -5.89627 l -1.74666,0.39274 v -0.95084 l 1.73632,-0.3824 h 1.04386 v 6.83677 h 1.60197 v 0.87849 h -4.25813 z"
           style="font-size:medium;line-height:1.25;font-family:monospace;-inkscape-font-specification:monospace;fill:#ff0000"
           id="path6756" />
        <path
           d="m 275.19722,129.18855 h 1.62263 v -5.89627 l -1.74666,0.39274 v -0.95084 l 1.73633,-0.3824 h 1.04386 v 6.83677 h 1.60196 v 0.87849 h -4.25812 z"
           style="font-size:medium;line-height:1.25;font-family:monospace;-inkscape-font-specification:monospace;fill:#ff0000"
           id="path6758" />
        <path
           d="m 282.66962,126.19132 q 0,-0.28422 0.19637,-0.49092 0.20154,-0.20671 0.48059,-0.20671 0.28939,0 0.4961,0.20671 0.2067,0.2067 0.2067,0.49092 0,0.28939 -0.2067,0.49093 -0.20154,0.20153 -0.4961,0.20153 -0.28938,0 -0.48575,-0.19637 -0.19121,-0.19637 -0.19121,-0.49609 z m 0.6873,-3.15225 q -0.72864,0 -1.09037,0.78548 -0.35657,0.78548 -0.35657,2.39261 0,1.60196 0.35657,2.38744 0.36173,0.78548 1.09037,0.78548 0.7338,0 1.09037,-0.78548 0.36173,-0.78548 0.36173,-2.38744 0,-1.60713 -0.36173,-2.39261 -0.35657,-0.78548 -1.09037,-0.78548 z m 0,-0.82682 q 1.23506,0 1.86551,1.01285 0.63562,1.01286 0.63562,2.99206 0,1.97403 -0.63562,2.98689 -0.63045,1.01285 -1.86551,1.01285 -1.23506,0 -1.86551,-1.01285 -0.63045,-1.01286 -0.63045,-2.98689 0,-1.9792 0.63045,-2.99206 0.63045,-1.01285 1.86551,-1.01285 z"
           style="font-size:medium;line-height:1.25;font-family:monospace;-inkscape-font-specification:monospace"
           id="path6760" />
      </g>
      <path
         style="font-variation-settings:normal;fill:none;fill-opacity:1;stroke:#000000;stroke-width:0.529166;stroke-linecap:butt;stroke-linejoin:miter;stroke-miterlimit:4;stroke-dasharray:none;stroke-dashoffset:0;stroke-opacity:1;stop-color:#000000"
         d="M 139.77348,119.85231 H 285.85805"
         id="path1245331" />
    </g>
  </g>
</svg>
